<?xml version="1.0" encoding="iso-8859-1"?>
<!-- Generator: Adobe Illustrator 18.0.0, SVG Export Plug-In . SVG Version: 6.00 Build 0)  -->
<!DOCTYPE svg PUBLIC "-//W3C//DTD SVG 1.1//EN" "http://www.w3.org/Graphics/SVG/1.1/DTD/svg11.dtd">
<svg version="1.1" id="Capa_1" xmlns="http://www.w3.org/2000/svg" xmlns:xlink="http://www.w3.org/1999/xlink" x="0px" y="0px"
	 viewBox="0 0 60 60" style="enable-background:new 0 0 60 60;" xml:space="preserve">
<g>
	<circle cx="33" cy="20" r="1"/>
	<circle cx="28" cy="20" r="1"/>
	<circle cx="30" cy="23" r="1"/>
	<circle cx="33" cy="27" r="1"/>
	<circle cx="16" cy="24" r="1"/>
	<circle cx="16" cy="21" r="1"/>
	<circle cx="13" cy="26" r="1"/>
	<circle cx="43" cy="22" r="1"/>
	<circle cx="47" cy="26" r="1"/>
	<circle cx="43" cy="26" r="1"/>
	<path d="M60,30C60,13.458,46.542,0,30,0S0,13.458,0,30c0,13.036,8.361,24.152,20,28.28v0.015l0.69,0.226
		c0.039,0.013,0.079,0.021,0.117,0.033c0.675,0.218,1.36,0.411,2.054,0.581c0.095,0.023,0.19,0.044,0.285,0.066
		c0.683,0.16,1.372,0.301,2.072,0.414c0.031,0.005,0.062,0.012,0.093,0.017c0.696,0.11,1.402,0.19,2.113,0.251
		c0.15,0.013,0.3,0.024,0.45,0.034C28.578,59.966,29.285,60,30,60s1.422-0.034,2.125-0.084c0.15-0.011,0.3-0.021,0.45-0.034
		c0.711-0.061,1.417-0.141,2.113-0.251c0.031-0.005,0.062-0.012,0.093-0.017c0.699-0.112,1.389-0.253,2.072-0.414
		c0.095-0.022,0.19-0.043,0.285-0.066c0.694-0.17,1.38-0.364,2.054-0.581c0.039-0.013,0.079-0.021,0.117-0.033L40,58.295V58.28
		C51.639,54.152,60,43.036,60,30z M38,56.829c-0.059,0.018-0.118,0.033-0.177,0.05c-0.543,0.158-1.09,0.3-1.64,0.424
		c-0.077,0.018-0.154,0.037-0.231,0.053c-0.632,0.137-1.268,0.254-1.908,0.347c-0.007,0.001-0.015,0.002-0.023,0.003
		c-0.62,0.089-1.244,0.154-1.868,0.202c-0.077,0.006-0.154,0.012-0.231,0.018c-1.28,0.087-2.564,0.087-3.844,0
		c-0.077-0.005-0.154-0.012-0.231-0.018c-0.625-0.048-1.248-0.113-1.868-0.202c-0.008-0.001-0.015-0.002-0.023-0.003
		c-0.639-0.093-1.275-0.21-1.908-0.347c-0.077-0.017-0.154-0.036-0.231-0.053c-0.551-0.124-1.097-0.266-1.64-0.424
		c-0.059-0.017-0.118-0.033-0.177-0.05V51.67c0-6.189-2.673-12.104-7.527-16.654c-2.388-2.239-3.646-5.405-3.453-8.686
		c0.312-5.262,4.488-9.673,9.716-10.259c1.396-0.157,2.771-0.056,4.096,0.3c3.381,0.906,6.957,0.906,10.338,0
		c1.325-0.354,2.7-0.456,4.096-0.3c5.228,0.586,9.404,4.997,9.716,10.259c0.193,3.28-1.065,6.446-3.453,8.686
		C40.673,39.565,38,45.48,38,51.67V56.829z M40,56.147V51.67c0-5.631,2.448-11.027,6.895-15.195
		c2.823-2.647,4.311-6.388,4.082-10.263c-0.368-6.221-5.308-11.435-11.489-12.129c-1.639-0.185-3.268-0.065-4.836,0.356
		c-3.041,0.815-6.258,0.815-9.303,0c-1.567-0.421-3.194-0.54-4.836-0.356c-6.182,0.694-11.121,5.908-11.489,12.13
		c-0.229,3.874,1.259,7.614,4.082,10.262C17.552,40.643,20,46.039,20,51.67v4.477C9.486,52.112,2,41.917,2,30
		C2,14.561,14.561,2,30,2s28,12.561,28,28C58,41.917,50.514,52.112,40,56.147z"/>
</g>
<g>
</g>
<g>
</g>
<g>
</g>
<g>
</g>
<g>
</g>
<g>
</g>
<g>
</g>
<g>
</g>
<g>
</g>
<g>
</g>
<g>
</g>
<g>
</g>
<g>
</g>
<g>
</g>
<g>
</g>
</svg>
