<?xml version="1.0" encoding="iso-8859-1"?>
<!-- Generator: Adobe Illustrator 18.0.0, SVG Export Plug-In . SVG Version: 6.00 Build 0)  -->
<!DOCTYPE svg PUBLIC "-//W3C//DTD SVG 1.1//EN" "http://www.w3.org/Graphics/SVG/1.1/DTD/svg11.dtd">
<svg version="1.1" id="Capa_1" xmlns="http://www.w3.org/2000/svg" xmlns:xlink="http://www.w3.org/1999/xlink" x="0px" y="0px"
	 viewBox="0 0 60 60" style="enable-background:new 0 0 60 60;" xml:space="preserve">
<path d="M57.366,42.269c0.08-0.177,0.165-0.354,0.241-0.532c0.186-0.436,0.361-0.877,0.527-1.323
	c0.108-0.29,0.204-0.583,0.303-0.876c0.081-0.24,0.165-0.479,0.24-0.722c0.092-0.297,0.173-0.598,0.256-0.898
	c0.057-0.209,0.115-0.417,0.168-0.627c0.077-0.307,0.147-0.615,0.214-0.924c0.047-0.214,0.091-0.429,0.133-0.645
	c0.058-0.302,0.114-0.605,0.163-0.909c0.039-0.241,0.073-0.484,0.106-0.728c0.038-0.281,0.077-0.561,0.108-0.844
	c0.033-0.305,0.056-0.614,0.079-0.922c0.017-0.227,0.04-0.452,0.052-0.68C59.983,31.097,60,30.551,60,30
	c0-0.513-0.013-1.025-0.039-1.534c-0.003-0.05-0.008-0.099-0.011-0.149c-0.408-7.425-3.505-14.34-8.832-19.621l-0.389-0.386
	L50.7,8.317C45.312,3.171,38.021,0,30,0C21.792,0,14.345,3.316,8.923,8.676L8.905,8.67L8.46,9.13
	C8.256,9.34,8.062,9.558,7.865,9.774C7.835,9.807,7.804,9.84,7.773,9.873c-0.303,0.334-0.597,0.673-0.883,1.019
	c-0.015,0.019-0.031,0.037-0.047,0.056c-2.481,3.006-4.328,6.423-5.473,10.083c-0.009,0.027-0.018,0.054-0.026,0.081
	c-0.129,0.417-0.248,0.838-0.359,1.261c-0.016,0.062-0.034,0.123-0.05,0.186c-0.1,0.39-0.189,0.783-0.273,1.178
	c-0.021,0.096-0.044,0.191-0.063,0.287c-0.074,0.366-0.137,0.735-0.198,1.105c-0.021,0.125-0.045,0.249-0.063,0.375
	c-0.052,0.349-0.094,0.701-0.134,1.053c-0.017,0.146-0.038,0.291-0.053,0.438c-0.035,0.354-0.059,0.71-0.081,1.067
	c-0.009,0.144-0.024,0.287-0.031,0.432C0.013,28.994,0,29.496,0,30c0,0.546,0.017,1.089,0.046,1.628
	c0.012,0.232,0.035,0.463,0.053,0.694c0.023,0.299,0.044,0.598,0.076,0.894c0.031,0.291,0.072,0.58,0.111,0.87
	c0.031,0.229,0.062,0.458,0.098,0.685c0.051,0.317,0.109,0.631,0.169,0.945c0.038,0.197,0.077,0.393,0.119,0.589
	c0.07,0.324,0.144,0.647,0.224,0.969c0.046,0.184,0.096,0.367,0.145,0.55c0.087,0.323,0.176,0.645,0.274,0.964
	c0.057,0.185,0.12,0.367,0.18,0.55c0.103,0.311,0.203,0.623,0.316,0.932c0.077,0.212,0.164,0.419,0.246,0.628
	c0.186,0.475,0.385,0.947,0.596,1.414c0.116,0.256,0.229,0.514,0.352,0.766c0.03,0.062,0.055,0.125,0.086,0.187l0.315,0.638
	l0.02-0.003C8.449,53.461,18.473,60,30,60c11.5,0,21.505-6.508,26.538-16.032l0.017,0l0.267-0.532
	c0.037-0.073,0.067-0.148,0.104-0.222C57.078,42.903,57.223,42.587,57.366,42.269z M57.959,31.491
	c-0.012,0.233-0.035,0.464-0.053,0.696c-0.02,0.254-0.036,0.508-0.063,0.76c-0.031,0.29-0.071,0.577-0.11,0.864
	c-0.026,0.189-0.049,0.379-0.079,0.568c-0.049,0.308-0.106,0.614-0.165,0.919c-0.032,0.166-0.063,0.333-0.098,0.498
	c-0.065,0.307-0.137,0.612-0.212,0.915c-0.041,0.166-0.083,0.333-0.127,0.498c-0.078,0.292-0.161,0.582-0.248,0.87
	c-0.056,0.184-0.114,0.367-0.174,0.55c-0.086,0.266-0.175,0.531-0.269,0.793c-0.077,0.215-0.16,0.428-0.243,0.642
	c-0.089,0.23-0.177,0.461-0.272,0.688c-0.11,0.264-0.229,0.525-0.348,0.786c-0.069,0.153-0.135,0.307-0.207,0.458
	c-2.667-0.006-4.941-0.621-6.764-1.835c-2.611-1.737-4.549-6.257-4.53-8.34c0.031-3.532,0.208-8.406,1.152-12.822h10.593
	c0.907,2.114,1.562,4.361,1.924,6.703c0.002,0.016,0.006,0.031,0.008,0.047c0.062,0.405,0.112,0.813,0.156,1.224
	c0.007,0.065,0.017,0.13,0.023,0.195c0.038,0.377,0.064,0.758,0.087,1.139c0.005,0.093,0.015,0.185,0.02,0.278
	C57.988,29.054,58,29.526,58,30C58,30.5,57.985,30.997,57.959,31.491z M42.955,19.779c-0.064-0.26-0.126-0.518-0.192-0.779h0.334
	C43.046,19.252,43.002,19.519,42.955,19.779z M41.609,22.768c1.003,4.332,0.021,8.918-2.628,12.268
	c-2.479,3.136-5.613,6.121-8.178,7.791c-0.296,0.192-0.837,0.231-1.154,0.083c-3.355-1.564-11.99-10.016-11.64-14.528l0.107-1.419
	c0.197-2.637,0.405-5.334,0.861-7.962H23v4h6v-4h2v4h6v-4h3.699C41.026,20.272,41.326,21.54,41.609,22.768z M4.36,41.233
	c-0.081-0.184-0.162-0.368-0.239-0.554c-0.11-0.266-0.215-0.534-0.317-0.803c-0.063-0.166-0.124-0.331-0.183-0.498
	c-0.104-0.292-0.205-0.586-0.299-0.883c-0.045-0.142-0.088-0.285-0.131-0.427c-0.096-0.318-0.189-0.638-0.273-0.961
	c-0.032-0.123-0.062-0.247-0.092-0.37c-0.084-0.338-0.165-0.677-0.236-1.021c-0.025-0.119-0.045-0.239-0.068-0.358
	c-0.067-0.345-0.132-0.69-0.186-1.039c-0.022-0.141-0.038-0.284-0.057-0.426c-0.046-0.328-0.092-0.656-0.126-0.987
	c-0.022-0.212-0.034-0.426-0.051-0.638c-0.021-0.266-0.047-0.53-0.061-0.798C2.014,30.983,2,30.493,2,30
	c0-0.465,0.013-0.927,0.035-1.387c0.007-0.139,0.02-0.277,0.029-0.416c0.021-0.322,0.042-0.644,0.074-0.964
	c0.015-0.151,0.036-0.301,0.053-0.451c0.035-0.309,0.072-0.617,0.118-0.923c0.021-0.141,0.046-0.281,0.069-0.421
	c0.052-0.318,0.107-0.634,0.17-0.948c0.024-0.12,0.051-0.239,0.076-0.358c0.072-0.338,0.149-0.674,0.233-1.006
	c0.023-0.092,0.048-0.184,0.072-0.276c0.096-0.362,0.197-0.722,0.307-1.078c0.019-0.062,0.039-0.124,0.058-0.186
	c0.123-0.388,0.253-0.774,0.392-1.155c0.011-0.03,0.022-0.06,0.033-0.09c0.167-0.453,0.347-0.899,0.536-1.34h9.741
	c1.031,4.414,1.783,9.148,2.011,12.875c0.266,4.328-2.68,7.33-5.716,8.385c-2.009,0.698-3.924,1.19-5.707,1.469
	C4.508,41.564,4.433,41.399,4.36,41.233z M12.966,15.027c0.185,0.641,0.365,1.301,0.539,1.973H5.212
	c1.149-2.182,2.576-4.196,4.237-5.991C11.263,11.809,12.417,13.128,12.966,15.027z M16.052,19h0.894
	c-0.14,0.844-0.254,1.691-0.352,2.539C16.424,20.689,16.245,19.842,16.052,19z M33,17v-2h2v2v4h-2V17z M31,13v4h-2v-4h-6v4h-3.619
	c0.131-0.563,0.273-1.123,0.438-1.675C21.07,11.127,24.313,9,29.458,9c0.066,0,0.135,0,0.202,0.001
	c5.41,0.059,8.71,2.228,10.09,6.631c0.142,0.452,0.273,0.91,0.404,1.368H37v-4H31z M25,17v-2h2v2v4h-2V17z M50.091,10.526
	c1.857,1.916,3.443,4.093,4.697,6.474h-9.139c0.074-0.261,0.137-0.531,0.217-0.785C47.015,12.593,48.052,11.152,50.091,10.526z
	 M48.513,9.019c-2.361,1.113-3.499,3.268-4.553,6.59c-0.142,0.447-0.273,0.914-0.399,1.391h-1.326
	c-0.182-0.658-0.373-1.314-0.577-1.966C40.01,9.772,35.98,7.069,29.682,7.001c-6.174-0.063-10.248,2.614-11.779,7.754
	c-0.221,0.742-0.403,1.492-0.569,2.245h-1.766c-0.218-0.859-0.443-1.707-0.68-2.527c-0.644-2.229-1.98-3.881-3.957-4.949
	C15.934,4.861,22.637,2,30,2C37.093,2,43.574,4.656,48.513,9.019z M30,58c-10.509,0-19.68-5.823-24.468-14.408
	c1.716-0.308,3.529-0.788,5.415-1.443c3.201-1.111,6.31-3.989,6.949-8.149c2.862,4.698,8.239,9.478,10.908,10.722
	C29.205,44.908,29.664,45,30.126,45c0.63,0,1.266-0.169,1.77-0.498c2.774-1.807,6.01-4.882,8.654-8.227
	c0.655-0.828,1.203-1.732,1.676-2.674c0.663,2.878,2.723,6.581,5.198,8.227c1.91,1.271,4.202,1.985,6.831,2.137
	C49.409,52.345,40.356,58,30,58z"/>
<g>
</g>
<g>
</g>
<g>
</g>
<g>
</g>
<g>
</g>
<g>
</g>
<g>
</g>
<g>
</g>
<g>
</g>
<g>
</g>
<g>
</g>
<g>
</g>
<g>
</g>
<g>
</g>
<g>
</g>
</svg>
