<?xml version="1.0" encoding="iso-8859-1"?>
<!-- Generator: Adobe Illustrator 18.0.0, SVG Export Plug-In . SVG Version: 6.00 Build 0)  -->
<!DOCTYPE svg PUBLIC "-//W3C//DTD SVG 1.1//EN" "http://www.w3.org/Graphics/SVG/1.1/DTD/svg11.dtd">
<svg version="1.1" id="Capa_1" xmlns="http://www.w3.org/2000/svg" xmlns:xlink="http://www.w3.org/1999/xlink" x="0px" y="0px"
	 viewBox="0 0 60 60" style="enable-background:new 0 0 60 60;" xml:space="preserve">
<path d="M51.911,50.478c4.86-5.189,7.678-11.802,8.046-18.884c0.001-0.018,0.003-0.036,0.004-0.055C59.987,31.028,60,30.515,60,30
	c0-0.648-0.028-1.29-0.069-1.928c-0.007-0.1-0.015-0.2-0.023-0.3c-0.046-0.621-0.109-1.238-0.193-1.848
	c-0.003-0.02-0.003-0.04-0.006-0.06l-0.018-0.129c-0.018-0.125-0.032-0.251-0.052-0.376l-0.049-0.358h-0.015
	C57.188,10.832,44.839,0,30,0C16.874,0,5.698,8.477,1.638,20.241l-0.028-0.005L1.349,21.08c-0.034,0.108-0.056,0.22-0.089,0.329
	c-0.151,0.503-0.287,1.013-0.412,1.527c-0.05,0.209-0.099,0.417-0.145,0.627c-0.136,0.62-0.26,1.246-0.357,1.88
	c-0.01,0.065-0.015,0.13-0.025,0.194c-0.088,0.601-0.154,1.208-0.205,1.82c-0.015,0.176-0.029,0.352-0.04,0.528
	C0.031,28.651,0,29.322,0,30c0,7.552,2.754,14.616,7.786,20.141c0.012,0.014,0.024,0.027,0.037,0.04
	c0.296,0.324,0.599,0.642,0.911,0.955c0.038,0.038,0.075,0.076,0.113,0.114L8.84,51.263l0.422,0.398
	c0.054,0.052,0.104,0.106,0.159,0.158l0.905,0.854l0.018-0.03c0.139,0.121,0.279,0.238,0.42,0.356
	c0.135,0.114,0.273,0.225,0.41,0.336c0.243,0.197,0.488,0.391,0.737,0.58c0.121,0.092,0.244,0.182,0.366,0.272
	c0.271,0.2,0.545,0.395,0.822,0.585c0.108,0.074,0.217,0.147,0.327,0.219c0.295,0.196,0.592,0.387,0.892,0.573
	c0.103,0.063,0.207,0.126,0.311,0.188c0.309,0.185,0.621,0.365,0.937,0.539c0.104,0.057,0.209,0.114,0.314,0.17
	c0.317,0.17,0.637,0.334,0.959,0.492c0.112,0.055,0.225,0.109,0.338,0.163c0.317,0.15,0.636,0.295,0.957,0.434
	c0.126,0.054,0.252,0.108,0.379,0.161c0.311,0.129,0.624,0.252,0.939,0.371c0.143,0.054,0.287,0.108,0.431,0.16
	c0.301,0.108,0.604,0.21,0.909,0.308c0.162,0.052,0.324,0.105,0.487,0.155c0.291,0.088,0.583,0.17,0.876,0.249
	c0.18,0.049,0.36,0.099,0.541,0.144c0.282,0.071,0.565,0.134,0.849,0.197c0.194,0.043,0.388,0.087,0.584,0.126
	c0.279,0.055,0.559,0.103,0.84,0.15c0.202,0.034,0.404,0.071,0.607,0.102c0.285,0.042,0.571,0.075,0.858,0.109
	c0.201,0.024,0.401,0.052,0.604,0.072c0.317,0.031,0.636,0.052,0.955,0.073c0.173,0.011,0.344,0.028,0.517,0.037
	C29.005,59.987,29.502,60,30,60c0.507,0,1.012-0.013,1.514-0.038c0.133-0.007,0.265-0.021,0.397-0.029
	c0.37-0.023,0.74-0.048,1.108-0.084c0.132-0.013,0.261-0.033,0.392-0.048c0.37-0.042,0.739-0.085,1.106-0.141
	c0.103-0.016,0.204-0.036,0.307-0.053c0.394-0.064,0.787-0.132,1.177-0.211c0.07-0.014,0.139-0.031,0.209-0.046
	c0.421-0.089,0.841-0.184,1.257-0.291c0.036-0.009,0.071-0.02,0.106-0.029c0.448-0.117,0.894-0.243,1.335-0.38
	c0.004-0.001,0.008-0.003,0.012-0.004c2.315-0.72,4.532-1.722,6.611-2.988c0.018-0.011,0.036-0.023,0.054-0.034
	c0.383-0.234,0.761-0.476,1.134-0.728c0.063-0.042,0.125-0.087,0.187-0.13c0.321-0.221,0.641-0.445,0.954-0.679
	c0.122-0.091,0.241-0.186,0.362-0.279c0.249-0.192,0.498-0.384,0.742-0.584c0.182-0.149,0.359-0.304,0.537-0.457
	c0.179-0.154,0.359-0.305,0.534-0.463c0.139-0.125,0.274-0.254,0.411-0.381l0.023,0.014l0.557-0.548
	c0.105-0.103,0.202-0.211,0.305-0.315l0.597-0.587L51.911,50.478z M40.891,55.795c-0.002,0.001-0.004,0.002-0.007,0.003
	c-0.404,0.171-0.814,0.332-1.227,0.485c-0.035,0.013-0.069,0.025-0.104,0.037c-0.378,0.138-0.761,0.267-1.147,0.389
	c-0.066,0.021-0.133,0.041-0.199,0.062c-0.354,0.109-0.711,0.21-1.071,0.305c-0.094,0.025-0.188,0.049-0.282,0.073
	c-0.333,0.084-0.669,0.161-1.006,0.233c-0.118,0.025-0.237,0.051-0.356,0.075c-0.315,0.063-0.633,0.118-0.951,0.17
	c-0.139,0.023-0.277,0.047-0.416,0.068c-0.307,0.046-0.617,0.083-0.927,0.118c-0.148,0.017-0.294,0.037-0.442,0.051
	c-0.32,0.031-0.643,0.053-0.967,0.074c-0.136,0.009-0.272,0.022-0.409,0.028C30.923,57.987,30.463,58,30,58
	c-0.459,0-0.915-0.013-1.368-0.035c-0.156-0.008-0.312-0.022-0.468-0.032c-0.297-0.019-0.593-0.039-0.887-0.068
	c-0.183-0.018-0.365-0.041-0.547-0.063c-0.265-0.031-0.531-0.063-0.794-0.101c-0.189-0.028-0.377-0.06-0.565-0.091
	c-0.257-0.043-0.513-0.088-0.767-0.137c-0.184-0.036-0.366-0.075-0.549-0.115c-0.26-0.056-0.518-0.116-0.775-0.179
	c-0.172-0.042-0.343-0.086-0.514-0.132c-0.269-0.072-0.537-0.148-0.802-0.228c-0.154-0.046-0.308-0.092-0.461-0.141
	c-0.287-0.092-0.572-0.189-0.856-0.29c-0.128-0.046-0.257-0.09-0.385-0.137c-0.316-0.118-0.628-0.242-0.938-0.371
	c-0.093-0.038-0.187-0.075-0.279-0.114c-0.356-0.152-0.708-0.312-1.057-0.479c-0.047-0.022-0.094-0.042-0.14-0.065
	c-1.617-0.782-3.148-1.715-4.574-2.781c-0.052-0.039-0.103-0.081-0.155-0.12c-0.293-0.222-0.583-0.448-0.867-0.681
	c-0.12-0.099-0.237-0.203-0.357-0.305c-0.18-0.153-0.361-0.307-0.537-0.465c0.017-0.037,0.027-0.079,0.044-0.116
	c0.179-0.392,0.338-0.796,0.463-1.226c0.168-0.583,0.333-1.193,0.496-1.814c0.053-0.203,0.106-0.405,0.158-0.61
	c0.141-0.553,0.279-1.113,0.412-1.682c0.066-0.283,0.128-0.568,0.192-0.853c0.042-0.19,0.087-0.378,0.128-0.569h4.122
	c0.047,0.193,0.099,0.377,0.149,0.565c0.098,0.382,0.197,0.746,0.299,1.08c0.134,0.439,0.27,0.851,0.408,1.24
	C20.303,52.706,22.931,53,29.999,53c4.355,0,9.553-0.712,11.103-6.262c0.152-0.546,0.306-1.129,0.459-1.729
	c0.084-0.326,0.166-0.651,0.247-0.977c0.003-0.011,0.005-0.021,0.008-0.032h3.693c0.039,0.146,0.084,0.281,0.125,0.424
	c0.109,0.394,0.217,0.766,0.33,1.106c0.161,0.489,0.328,0.948,0.501,1.394c0.036,0.094,0.074,0.191,0.111,0.283
	c0.174,0.43,0.356,0.84,0.551,1.225c0.034,0.067,0.072,0.131,0.107,0.197c0.184,0.346,0.381,0.673,0.592,0.978
	c0.035,0.051,0.068,0.106,0.104,0.156c0.234,0.322,0.492,0.615,0.768,0.886c0.031,0.03,0.054,0.069,0.085,0.098
	c-0.316,0.287-0.639,0.566-0.966,0.838C45.738,53.303,43.408,54.729,40.891,55.795z M2.05,31.612
	c-0.004-0.065-0.011-0.129-0.014-0.193C2.012,30.949,2,30.476,2,30c0-0.571,0.023-1.14,0.057-1.707
	c0.011-0.175,0.026-0.348,0.04-0.521c0.032-0.404,0.073-0.806,0.122-1.208c0.023-0.186,0.044-0.372,0.071-0.557
	c0.067-0.469,0.146-0.936,0.237-1.401c0.034-0.172,0.07-0.343,0.106-0.514c0.092-0.43,0.195-0.858,0.308-1.284
	c0.024-0.091,0.052-0.18,0.077-0.271c1.351,0.288,2.776,0.691,4.249,1.202c3.036,1.056,5.981,4.058,5.716,8.386
	c-0.091,1.489-0.274,3.148-0.517,4.875H2.886c-0.344-1.331-0.591-2.701-0.736-4.1c-0.002-0.016-0.004-0.032-0.006-0.049
	C2.103,32.441,2.073,32.027,2.05,31.612z M3.492,39h8.669c-0.308,1.87-0.679,3.783-1.107,5.651c-0.03,0.131-0.062,0.26-0.092,0.391
	c-0.122,0.521-0.248,1.037-0.378,1.547c-0.046,0.183-0.093,0.366-0.14,0.547c-0.163,0.624-0.329,1.24-0.501,1.837
	c-0.039,0.136-0.094,0.261-0.14,0.391c-0.171-0.178-0.345-0.353-0.511-0.536c-0.005-0.006-0.011-0.012-0.016-0.018
	C6.724,46,4.741,42.668,3.492,39z M18,30.048c-0.032-3.786,6.847-10.251,10.777-10.976C29.037,19.023,29.272,19,29.48,19
	c0.127,0,0.244,0.009,0.351,0.026c3.718,0.636,12.298,7.377,12.168,10.994c-0.072,2.025-0.346,4.422-0.772,6.979H37v-4h-6v4h-2v-4
	h-6v4h-4.698C18.08,34.472,18.017,32.036,18,30.048z M35,35v6h-2v-6H35z M27,35v6h-2v-6H27z M23,39v4h6v-4h2v4h6v-4h3.866
	c-0.19,0.989-0.396,1.989-0.628,3h-0.001l-0.063,0.267c-0.05,0.215-0.103,0.431-0.155,0.646c-0.124,0.52-0.249,1.026-0.373,1.514
	c-0.152,0.592-0.307,1.185-0.471,1.773C38.236,49.564,35.492,51,29.999,51c-7.107,0-8.501-0.182-10.266-5.941
	c-0.152-0.496-0.283-1.012-0.409-1.53c-0.056-0.234-0.112-0.478-0.169-0.741l-0.036-0.167c-0.253-1.184-0.454-2.399-0.605-3.62H23z
	 M46,29.914c-0.019-2.129,2.923-2.445,7.414-2.686c0.63-0.033,1.258-0.067,1.865-0.111c0.827-0.059,1.684-0.096,2.556-0.11
	C57.945,28.02,58,29.022,58,30c0,0.473-0.012,0.943-0.036,1.41c-0.005,0.097-0.015,0.193-0.021,0.29
	c-0.023,0.376-0.048,0.752-0.086,1.125c-0.007,0.072-0.018,0.142-0.026,0.214c-0.044,0.403-0.093,0.804-0.153,1.202
	c-0.004,0.027-0.009,0.054-0.014,0.081C57.524,35.23,57.34,36.123,57.114,37H46.349C46.143,34.877,46.024,32.53,46,29.914z
	 M56.508,39c-1.329,3.904-3.496,7.422-6.289,10.34c-0.047-0.043-0.095-0.085-0.142-0.131c-0.043-0.043-0.087-0.084-0.129-0.13
	c-0.094-0.102-0.186-0.213-0.277-0.329c-0.026-0.034-0.054-0.063-0.08-0.098c-0.114-0.153-0.225-0.319-0.334-0.497
	c-0.033-0.053-0.064-0.113-0.096-0.169c-0.077-0.133-0.154-0.27-0.229-0.417c-0.04-0.078-0.08-0.161-0.119-0.243
	c-0.068-0.141-0.136-0.288-0.203-0.441c-0.04-0.091-0.079-0.182-0.119-0.277c-0.07-0.169-0.141-0.349-0.211-0.533
	c-0.034-0.09-0.069-0.177-0.103-0.271c-0.104-0.284-0.208-0.58-0.314-0.9c-0.12-0.365-0.23-0.751-0.339-1.142
	c-0.076-0.282-0.153-0.582-0.232-0.91c-0.284-1.172-0.522-2.453-0.711-3.851H56.508z M45.049,42h-2.761
	c0.226-1.012,0.427-2.012,0.613-3h1.652C44.69,40.062,44.857,41.056,45.049,42z M16.951,42h-3.292c0.196-1.007,0.376-2.009,0.535-3
	h2.301C16.622,40.064,16.776,41.054,16.951,42z M30,2c13.739,0,25.191,9.95,27.548,23.02c-0.817,0.017-1.633,0.047-2.412,0.103
	c-0.596,0.043-1.21,0.075-1.828,0.108c-4.38,0.234-9.345,0.499-9.308,4.7c0.024,2.615,0.134,4.953,0.331,7.068h-1.08
	c0.409-2.522,0.675-4.891,0.747-6.907c0.181-5.061-9.595-12.313-13.831-13.038c-0.513-0.086-1.104-0.07-1.753,0.051
	c-4.824,0.89-12.454,8.123-12.413,12.96c0.022,2.558,0.119,4.855,0.294,6.935H14.49c0.227-1.668,0.399-3.278,0.489-4.752
	c0.329-5.374-3.307-9.095-7.056-10.397c-1.485-0.516-2.926-0.925-4.303-1.227C7.485,9.783,17.848,2,30,2z"/>
<g>
</g>
<g>
</g>
<g>
</g>
<g>
</g>
<g>
</g>
<g>
</g>
<g>
</g>
<g>
</g>
<g>
</g>
<g>
</g>
<g>
</g>
<g>
</g>
<g>
</g>
<g>
</g>
<g>
</g>
</svg>
