<?xml version="1.0" encoding="iso-8859-1"?>
<!-- Generator: Adobe Illustrator 18.0.0, SVG Export Plug-In . SVG Version: 6.00 Build 0)  -->
<!DOCTYPE svg PUBLIC "-//W3C//DTD SVG 1.1//EN" "http://www.w3.org/Graphics/SVG/1.1/DTD/svg11.dtd">
<svg version="1.1" id="Capa_1" xmlns="http://www.w3.org/2000/svg" xmlns:xlink="http://www.w3.org/1999/xlink" x="0px" y="0px"
	 viewBox="0 0 59.48 59.48" style="enable-background:new 0 0 59.48 59.48;" xml:space="preserve">
<g>
	<circle cx="37.74" cy="52.481" r="1"/>
	<circle cx="33.74" cy="52.481" r="1"/>
	<circle cx="35.74" cy="50.481" r="1"/>
	<circle cx="39.74" cy="50.481" r="1"/>
	<circle cx="31.74" cy="50.481" r="1"/>
	<circle cx="39.74" cy="46.481" r="1"/>
	<circle cx="33.74" cy="44.481" r="1"/>
	<circle cx="35.74" cy="42.481" r="1"/>
	<circle cx="39.74" cy="42.481" r="1"/>
	<circle cx="31.74" cy="42.481" r="1"/>
	<circle cx="37.74" cy="40.481" r="1"/>
	<circle cx="37.74" cy="36.481" r="1"/>
	<circle cx="33.74" cy="36.481" r="1"/>
	<circle cx="31.74" cy="34.481" r="1"/>
	<circle cx="33.74" cy="32.481" r="1"/>
	<circle cx="35.74" cy="30.481" r="1"/>
	<circle cx="39.74" cy="30.481" r="1"/>
	<circle cx="31.74" cy="30.481" r="1"/>
	<circle cx="37.74" cy="28.481" r="1"/>
	<circle cx="35.74" cy="26.481" r="1"/>
	<circle cx="39.74" cy="26.481" r="1"/>
	<circle cx="33.74" cy="24.481" r="1"/>
	<circle cx="35.74" cy="22.481" r="1"/>
	<circle cx="37.74" cy="20.481" r="1"/>
	<circle cx="33.74" cy="20.481" r="1"/>
	<circle cx="31.74" cy="18.481" r="1"/>
	<circle cx="37.74" cy="16.481" r="1"/>
	<circle cx="33.74" cy="16.481" r="1"/>
	<circle cx="35.74" cy="14.481" r="1"/>
	<circle cx="39.74" cy="14.481" r="1"/>
	<circle cx="37.74" cy="12.481" r="1"/>
	<circle cx="33.74" cy="12.481" r="1"/>
	<circle cx="31.74" cy="10.481" r="1"/>
	<circle cx="37.74" cy="8.481" r="1"/>
	<circle cx="39.74" cy="6.481" r="1"/>
	<circle cx="33.74" cy="4.481" r="1"/>
	<circle cx="41.74" cy="48.481" r="1"/>
	<circle cx="45.74" cy="44.481" r="1"/>
	<circle cx="43.74" cy="42.481" r="1"/>
	<circle cx="45.74" cy="40.481" r="1"/>
	<circle cx="47.74" cy="38.481" r="1"/>
	<circle cx="45.74" cy="36.481" r="1"/>
	<circle cx="41.74" cy="36.481" r="1"/>
	<circle cx="45.74" cy="32.481" r="1"/>
	<circle cx="49.74" cy="32.481" r="1"/>
	<circle cx="41.74" cy="32.481" r="1"/>
	<circle cx="45.74" cy="28.481" r="1"/>
	<circle cx="49.74" cy="28.481" r="1"/>
	<circle cx="43.74" cy="26.481" r="1"/>
	<circle cx="45.74" cy="24.481" r="1"/>
	<circle cx="47.74" cy="22.481" r="1"/>
	<circle cx="43.74" cy="22.481" r="1"/>
	<circle cx="45.74" cy="20.481" r="1"/>
	<circle cx="41.74" cy="20.481" r="1"/>
	<circle cx="47.74" cy="18.481" r="1"/>
	<circle cx="49.74" cy="16.481" r="1"/>
	<circle cx="47.74" cy="14.481" r="1"/>
	<circle cx="43.74" cy="14.481" r="1"/>
	<circle cx="49.74" cy="12.481" r="1"/>
	<circle cx="41.74" cy="12.481" r="1"/>
	<circle cx="43.74" cy="10.481" r="1"/>
	<circle cx="51.74" cy="26.481" r="1"/>
	<circle cx="51.74" cy="22.481" r="1"/>
	<circle cx="21.74" cy="52.481" r="1"/>
	<circle cx="25.74" cy="52.481" r="1"/>
	<circle cx="23.74" cy="50.481" r="1"/>
	<circle cx="19.74" cy="50.481" r="1"/>
	<circle cx="19.74" cy="46.481" r="1"/>
	<circle cx="27.74" cy="46.481" r="1"/>
	<circle cx="25.74" cy="44.481" r="1"/>
	<circle cx="23.74" cy="42.481" r="1"/>
	<circle cx="19.74" cy="42.481" r="1"/>
	<circle cx="21.74" cy="40.481" r="1"/>
	<circle cx="27.74" cy="38.481" r="1"/>
	<circle cx="21.74" cy="36.481" r="1"/>
	<circle cx="25.74" cy="36.481" r="1"/>
	<circle cx="25.74" cy="32.481" r="1"/>
	<circle cx="23.74" cy="30.481" r="1"/>
	<circle cx="19.74" cy="30.481" r="1"/>
	<circle cx="21.74" cy="28.481" r="1"/>
	<circle cx="23.74" cy="26.481" r="1"/>
	<circle cx="19.74" cy="26.481" r="1"/>
	<circle cx="27.74" cy="26.481" r="1"/>
	<circle cx="25.74" cy="24.481" r="1"/>
	<circle cx="23.74" cy="22.481" r="1"/>
	<circle cx="21.74" cy="20.481" r="1"/>
	<circle cx="25.74" cy="20.481" r="1"/>
	<circle cx="21.74" cy="16.481" r="1"/>
	<circle cx="25.74" cy="16.481" r="1"/>
	<circle cx="19.74" cy="14.481" r="1"/>
	<circle cx="21.74" cy="12.481" r="1"/>
	<circle cx="25.74" cy="12.481" r="1"/>
	<circle cx="21.74" cy="8.481" r="1"/>
	<circle cx="19.74" cy="6.481" r="1"/>
	<circle cx="27.74" cy="6.481" r="1"/>
	<circle cx="17.74" cy="48.481" r="1"/>
	<circle cx="13.74" cy="44.481" r="1"/>
	<circle cx="15.74" cy="42.481" r="1"/>
	<circle cx="13.74" cy="40.481" r="1"/>
	<circle cx="11.74" cy="38.481" r="1"/>
	<circle cx="13.74" cy="36.481" r="1"/>
	<circle cx="17.74" cy="36.481" r="1"/>
	<circle cx="13.74" cy="32.481" r="1"/>
	<circle cx="9.74" cy="32.481" r="1"/>
	<circle cx="17.74" cy="32.481" r="1"/>
	<circle cx="13.74" cy="28.481" r="1"/>
	<circle cx="15.74" cy="26.481" r="1"/>
	<circle cx="13.74" cy="24.481" r="1"/>
	<circle cx="11.74" cy="22.481" r="1"/>
	<circle cx="15.74" cy="22.481" r="1"/>
	<circle cx="13.74" cy="20.481" r="1"/>
	<circle cx="17.74" cy="20.481" r="1"/>
	<circle cx="11.74" cy="18.481" r="1"/>
	<circle cx="9.74" cy="16.481" r="1"/>
	<circle cx="11.74" cy="14.481" r="1"/>
	<circle cx="15.74" cy="14.481" r="1"/>
	<circle cx="9.74" cy="12.481" r="1"/>
	<circle cx="17.74" cy="12.481" r="1"/>
	<circle cx="15.74" cy="10.481" r="1"/>
	<circle cx="7.74" cy="26.481" r="1"/>
	<circle cx="7.74" cy="22.481" r="1"/>
	<path d="M55.3,22.684c-0.774-1.203-1.206-3.811-1.11-5.398c0.225-3.707-1.745-7.388-4.789-8.95
		c-0.587-0.302-1.115-0.454-1.581-0.588c-0.801-0.231-1.132-0.327-1.435-0.956c-1.596-3.316-3.357-3.782-6.711-3.564
		c-0.31,0.006-0.732-0.46-1.163-0.92c-0.741-0.793-1.731-1.852-3.301-2.032l-0.505-0.05c-1.682,0-3.309,0.501-4.463,1.374
		c-0.326,0.246-0.731,0.248-1.007,0.006c-1.371-1.203-3.438-2.094-4.858-1.308c-1.558,0.307-2.556,1.295-3.293,2.025
		c-0.583,0.577-0.96,0.944-1.281,0.904c-3.35-0.215-5.114,0.249-6.711,3.564c-0.302,0.629-0.633,0.725-1.434,0.956
		c-0.465,0.134-0.993,0.286-1.581,0.588c-3.044,1.563-5.013,5.243-4.789,8.95c0.096,1.588-0.336,4.195-1.11,5.398
		c-1.908,2.969-1.908,7.114,0,10.082c0.295,0.458,0.727,0.991,1.227,1.609c0.892,1.102,2.386,2.945,2.335,3.789
		c-0.227,3.736,2.053,8.041,5.082,9.596c0.545,0.28,0.637,0.563,0.843,1.42c0.114,0.474,0.256,1.063,0.562,1.697
		c0.823,1.711,2.114,2.201,3.056,2.561c0.936,0.355,1.323,0.503,1.465,1.529c0.329,2.383,1.604,3.99,3.497,4.409
		c0.317,0.069,0.644,0.104,0.975,0.104c2.132,0,4.458-1.415,5.931-3.701c0.177-0.274,0.471-0.305,0.588-0.305
		s0.411,0.03,0.588,0.305c1.702,2.641,4.543,4.114,6.906,3.598c1.894-0.419,3.168-2.026,3.497-4.409
		c0.142-1.026,0.529-1.174,1.465-1.529c0.942-0.359,2.233-0.85,3.057-2.561c0.305-0.634,0.447-1.224,0.561-1.697
		c0.207-0.856,0.298-1.14,0.843-1.42c3.028-1.555,5.308-5.859,5.082-9.596c-0.051-0.844,1.443-2.688,2.335-3.789
		c0.5-0.618,0.932-1.151,1.227-1.609C57.208,29.798,57.208,25.653,55.3,22.684z M54.703,28.297
		c-0.089-0.461-0.476-0.816-0.963-0.816c-0.552,0-1,0.448-1,1c0,0.552,0.448,1,1,1c0.404,0,0.748-0.242,0.905-0.587
		c-0.14,0.917-0.449,1.799-0.92,2.59c-0.545,0.008-0.985,0.45-0.985,0.997c0,0.103,0.03,0.196,0.058,0.289
		c-0.091,0.113-0.184,0.228-0.279,0.345c-0.122,0.15-0.246,0.304-0.369,0.458c-0.126-0.057-0.263-0.093-0.41-0.093
		c-0.552,0-1,0.448-1,1c0,0.244,0.098,0.46,0.243,0.634c-0.172,0.25-0.33,0.499-0.476,0.748c-0.183-0.227-0.452-0.382-0.767-0.382
		c-0.552,0-1,0.448-1,1c0,0.552,0.448,1,1,1c0.032,0,0.06-0.016,0.091-0.018c-0.064,0.28-0.105,0.556-0.089,0.823
		c0.024,0.391,0.005,0.795-0.041,1.203c-0.533,0.022-0.961,0.454-0.961,0.992c0,0.379,0.219,0.696,0.529,0.866
		c-0.163,0.484-0.351,0.961-0.585,1.414c0.027-0.091,0.056-0.18,0.056-0.28c0-0.552-0.448-1-1-1s-1,0.448-1,1c0,0.552,0.448,1,1,1
		c0.265,0,0.502-0.107,0.681-0.275c-0.713,1.219-1.645,2.245-2.677,2.775c-0.48,0.246-0.819,0.538-1.074,0.85
		c0.041-0.11,0.071-0.226,0.071-0.35c0-0.552-0.448-1-1-1s-1,0.448-1,1c0,0.552,0.448,1,1,1c0.253,0,0.478-0.102,0.654-0.257
		c-0.281,0.485-0.408,1.002-0.525,1.487c-0.062,0.258-0.136,0.523-0.225,0.79c-0.505,0.05-0.905,0.462-0.905,0.981
		c0,0.138,0.028,0.27,0.079,0.39c-0.328,0.289-0.709,0.456-1.137,0.622c-0.208,0.013-0.392,0.092-0.547,0.212
		c-0.838,0.338-1.802,0.859-2.226,2.252c-0.098,0.155-0.169,0.327-0.169,0.523c0,0.047,0.02,0.087,0.027,0.132
		c-0.004,0.029-0.013,0.051-0.017,0.08c-0.05,0.359-0.139,0.747-0.277,1.117c-0.183-0.2-0.44-0.33-0.732-0.33c-0.552,0-1,0.448-1,1
		c0,0.343,0.184,0.631,0.447,0.811c-0.121,0.052-0.245,0.101-0.385,0.131c-0.691,0.153-1.479-0.008-2.25-0.391
		c0.109-0.16,0.188-0.343,0.188-0.551c0-0.552-0.448-1-1-1c-0.319,0-0.591,0.159-0.774,0.392c-0.348-0.349-0.675-0.741-0.957-1.179
		c-0.493-0.764-1.341-1.221-2.269-1.221c-0.458,0-0.895,0.113-1.281,0.317c-0.182-0.19-0.435-0.31-0.719-0.31c-0.552,0-1,0.448-1,1
		c0,0.299,0.137,0.559,0.345,0.742c-1.243,1.594-3.016,2.507-4.407,2.2c-0.139-0.031-0.264-0.079-0.385-0.131
		c0.263-0.18,0.447-0.468,0.447-0.811c0-0.552-0.448-1-1-1c-0.292,0-0.549,0.13-0.732,0.33c-0.139-0.37-0.228-0.758-0.277-1.117
		c-0.004-0.03-0.013-0.052-0.017-0.08c0.006-0.045,0.027-0.085,0.027-0.132c0-0.196-0.071-0.369-0.169-0.523
		c-0.424-1.394-1.388-1.915-2.226-2.252c-0.154-0.121-0.339-0.2-0.547-0.212c-0.429-0.166-0.809-0.333-1.137-0.622
		c0.051-0.12,0.079-0.251,0.079-0.39c0-0.518-0.399-0.931-0.905-0.981c-0.089-0.267-0.162-0.531-0.225-0.79
		c-0.117-0.484-0.244-1.001-0.525-1.487c0.176,0.155,0.401,0.257,0.654,0.257c0.552,0,1-0.448,1-1c0-0.552-0.448-1-1-1s-1,0.448-1,1
		c0,0.124,0.029,0.241,0.071,0.35c-0.255-0.313-0.594-0.604-1.074-0.85c-1.033-0.53-1.964-1.555-2.677-2.775
		c0.179,0.168,0.416,0.275,0.681,0.275c0.552,0,1-0.448,1-1c0-0.552-0.448-1-1-1s-1,0.448-1,1c0,0.099,0.03,0.189,0.056,0.28
		c-0.234-0.453-0.422-0.93-0.585-1.414c0.31-0.17,0.529-0.488,0.529-0.866c0-0.538-0.428-0.97-0.961-0.992
		c-0.046-0.408-0.065-0.812-0.041-1.203c0.016-0.267-0.025-0.543-0.089-0.823c0.032,0.003,0.059,0.018,0.091,0.018
		c0.552,0,1-0.448,1-1c0-0.552-0.448-1-1-1c-0.315,0-0.584,0.155-0.767,0.382c-0.146-0.249-0.304-0.499-0.476-0.748
		c0.145-0.174,0.243-0.389,0.243-0.634c0-0.552-0.448-1-1-1c-0.147,0-0.284,0.036-0.41,0.093c-0.123-0.154-0.247-0.308-0.369-0.458
		c-0.095-0.117-0.188-0.232-0.279-0.345c0.029-0.093,0.058-0.187,0.058-0.289c0-0.547-0.44-0.989-0.985-0.997
		c-0.471-0.791-0.781-1.674-0.92-2.59c0.158,0.345,0.502,0.587,0.905,0.587c0.552,0,1-0.448,1-1c0-0.552-0.448-1-1-1
		c-0.487,0-0.874,0.355-0.963,0.816c-0.075-1.024,0.051-2.058,0.381-3.024c0.166,0.122,0.36,0.208,0.582,0.208c0.552,0,1-0.448,1-1
		c0-0.463-0.322-0.836-0.749-0.949c0.632-1.105,1.043-2.71,1.215-4.227c0.157,0.102,0.333,0.177,0.535,0.177c0.552,0,1-0.448,1-1
		c0-0.552-0.448-1-1-1c-0.162,0-0.31,0.048-0.445,0.116c-0.002-0.145-0.001-0.297-0.009-0.433c-0.036-0.587,0.017-1.174,0.116-1.752
		c0.106,0.039,0.218,0.068,0.338,0.068c0.552,0,1-0.448,1-1c0-0.471-0.333-0.848-0.771-0.954c0.614-1.401,1.598-2.587,2.819-3.284
		c-0.02,0.078-0.048,0.153-0.048,0.238c0,0.552,0.448,1,1,1s1-0.448,1-1c0-0.354-0.195-0.651-0.473-0.828
		c0.313-0.091,0.639-0.19,0.96-0.334c0.152,0.094,0.321,0.162,0.513,0.162c0.552,0,1-0.448,1-1c0-0.142-0.031-0.276-0.084-0.398
		c0.083-0.131,0.164-0.268,0.24-0.425c0.074-0.153,0.145-0.281,0.217-0.417c0.173,0.143,0.386,0.24,0.628,0.24c0.552,0,1-0.448,1-1
		c0-0.333-0.174-0.614-0.424-0.796c0.26-0.185,0.548-0.309,0.879-0.388c0.159,0.107,0.34,0.184,0.545,0.184
		c0.282,0,0.534-0.119,0.716-0.307c0.361,0,0.763,0.019,1.219,0.049c0.46,0.028,0.862-0.067,1.224-0.233
		c0.175,0.288,0.478,0.491,0.841,0.491c0.552,0,1-0.448,1-1c0-0.273-0.111-0.518-0.287-0.699c0.013-0.013,0.026-0.026,0.039-0.039
		c0.188-0.186,0.375-0.367,0.565-0.539c0.179,0.169,0.417,0.276,0.683,0.276c0.552,0,1-0.448,1-1c0-0.068-0.026-0.127-0.038-0.19
		c0.064-0.014,0.118-0.043,0.185-0.053l0.329-0.061l0.158-0.146c0.229-0.103,0.773-0.002,1.396,0.306
		C26.762,2.386,26.74,2.43,26.74,2.481c0,0.552,0.448,1,1,1c0.181,0,0.341-0.061,0.488-0.145c0.904,0.592,2.066,0.591,3.012-0.008
		c0.149,0.089,0.314,0.153,0.5,0.153c0.531,0,0.954-0.417,0.988-0.939c0.48-0.161,1.005-0.266,1.544-0.302l0.468,0.009
		c0.016,0,0.029,0.007,0.045,0.007C34.768,2.33,34.74,2.401,34.74,2.481c0,0.552,0.448,1,1,1c0.31,0,0.577-0.15,0.76-0.372
		c0.175,0.168,0.355,0.355,0.551,0.564c0.017,0.018,0.034,0.036,0.051,0.054C36.885,3.91,36.74,4.175,36.74,4.481
		c0,0.552,0.448,1,1,1c0.373,0,0.686-0.214,0.858-0.517c0.357,0.177,0.754,0.28,1.206,0.259c0.465-0.029,0.859-0.041,1.225-0.04
		c0.181,0.184,0.432,0.298,0.711,0.298c0.205,0,0.385-0.077,0.544-0.183c0.329,0.079,0.61,0.212,0.869,0.395
		c-0.244,0.182-0.413,0.46-0.413,0.788c0,0.552,0.448,1,1,1c0.241,0,0.453-0.096,0.625-0.238c0.073,0.138,0.144,0.26,0.219,0.415
		c0.075,0.156,0.157,0.294,0.24,0.425c-0.053,0.122-0.084,0.256-0.084,0.398c0,0.552,0.448,1,1,1c0.192,0,0.361-0.068,0.513-0.162
		c0.321,0.144,0.646,0.243,0.96,0.334c-0.278,0.178-0.473,0.474-0.473,0.828c0,0.552,0.448,1,1,1s1-0.448,1-1
		c0-0.084-0.028-0.16-0.048-0.238c1.221,0.697,2.205,1.883,2.819,3.284c-0.439,0.106-0.771,0.483-0.771,0.954c0,0.552,0.448,1,1,1
		c0.12,0,0.231-0.03,0.338-0.068c0.099,0.578,0.152,1.165,0.116,1.752c-0.008,0.136-0.006,0.288-0.009,0.433
		c-0.136-0.069-0.283-0.116-0.445-0.116c-0.552,0-1,0.448-1,1c0,0.552,0.448,1,1,1c0.201,0,0.378-0.074,0.535-0.177
		c0.172,1.517,0.582,3.122,1.215,4.227c-0.428,0.114-0.749,0.486-0.749,0.949c0,0.552,0.448,1,1,1c0.222,0,0.416-0.086,0.582-0.208
		C54.652,26.239,54.778,27.273,54.703,28.297z"/>
</g>
<g>
</g>
<g>
</g>
<g>
</g>
<g>
</g>
<g>
</g>
<g>
</g>
<g>
</g>
<g>
</g>
<g>
</g>
<g>
</g>
<g>
</g>
<g>
</g>
<g>
</g>
<g>
</g>
<g>
</g>
</svg>
