<?xml version="1.0" encoding="iso-8859-1"?>
<!-- Generator: Adobe Illustrator 18.0.0, SVG Export Plug-In . SVG Version: 6.00 Build 0)  -->
<!DOCTYPE svg PUBLIC "-//W3C//DTD SVG 1.1//EN" "http://www.w3.org/Graphics/SVG/1.1/DTD/svg11.dtd">
<svg version="1.1" id="Capa_1" xmlns="http://www.w3.org/2000/svg" xmlns:xlink="http://www.w3.org/1999/xlink" x="0px" y="0px"
	 viewBox="0 0 60 60" style="enable-background:new 0 0 60 60;" xml:space="preserve">
<g>
	<circle cx="18" cy="38" r="1"/>
	<circle cx="42" cy="38" r="1"/>
	<path d="M60,30c0-2.031-0.205-4.015-0.592-5.934l0.011-0.003l-0.217-0.927c-0.008-0.033-0.019-0.066-0.027-0.099
		c-0.295-1.234-0.663-2.44-1.105-3.61c-0.035-0.092-0.073-0.183-0.108-0.274c-0.185-0.475-0.381-0.943-0.589-1.406
		c-0.061-0.135-0.121-0.27-0.183-0.405c-0.236-0.506-0.484-1.006-0.747-1.496c-0.022-0.042-0.042-0.085-0.065-0.127
		c-0.273-0.502-0.563-0.992-0.863-1.476c-0.117-0.189-0.239-0.374-0.36-0.561c-0.198-0.305-0.402-0.606-0.611-0.903
		c-0.141-0.201-0.281-0.403-0.427-0.6c-0.277-0.374-0.563-0.74-0.856-1.1c-0.203-0.249-0.414-0.492-0.625-0.735
		c-0.205-0.236-0.411-0.471-0.623-0.7c-0.098-0.106-0.188-0.218-0.287-0.323l-0.384-0.403l-0.018,0.004
		c-2.938-2.972-6.491-5.329-10.45-6.875l-0.005-0.023L40.364,1.84c-0.474-0.175-0.953-0.333-1.435-0.483
		c-0.042-0.013-0.086-0.024-0.128-0.037c-0.389-0.119-0.78-0.231-1.174-0.334c-0.2-0.052-0.402-0.098-0.603-0.147
		c-0.233-0.056-0.466-0.112-0.7-0.162c-0.281-0.061-0.565-0.114-0.849-0.167c-0.152-0.028-0.305-0.056-0.458-0.082
		c-0.335-0.057-0.672-0.107-1.01-0.152c-0.096-0.013-0.191-0.025-0.287-0.037c-0.38-0.047-0.761-0.088-1.145-0.121
		c-0.038-0.003-0.077-0.006-0.115-0.009C31.647,0.043,30.829,0,30,0c-1.847,0-3.653,0.177-5.409,0.498
		c-0.034,0.006-0.069,0.012-0.103,0.018c-0.382,0.071-0.76,0.15-1.137,0.235c-0.094,0.021-0.188,0.043-0.282,0.065
		c-0.331,0.079-0.66,0.162-0.987,0.251c-0.15,0.041-0.299,0.084-0.448,0.128c-0.278,0.081-0.555,0.163-0.83,0.252
		c-0.206,0.066-0.411,0.138-0.616,0.209c-0.225,0.078-0.45,0.155-0.672,0.238c-0.054,0.02-0.11,0.037-0.164,0.058l-0.53,0.201
		l-0.003,0.016c-3.835,1.546-7.281,3.858-10.143,6.753L8.66,8.919L8.276,9.322c-0.095,0.1-0.181,0.207-0.275,0.308
		c-0.226,0.243-0.445,0.492-0.662,0.743c-0.183,0.211-0.368,0.42-0.544,0.636c-0.315,0.384-0.62,0.777-0.916,1.177
		c-0.142,0.192-0.278,0.389-0.416,0.584c-0.213,0.303-0.421,0.61-0.624,0.921c-0.118,0.182-0.237,0.363-0.351,0.547
		c-0.302,0.487-0.594,0.98-0.869,1.485c-0.018,0.033-0.034,0.067-0.052,0.1c-0.269,0.499-0.52,1.008-0.761,1.524
		c-0.061,0.13-0.119,0.261-0.177,0.391c-0.211,0.469-0.41,0.943-0.597,1.424C2,19.249,1.964,19.335,1.932,19.422
		c-0.443,1.172-0.812,2.379-1.107,3.616c-0.008,0.033-0.019,0.065-0.027,0.099l-0.217,0.927l0.011,0.003C0.205,25.985,0,27.969,0,30
		c0,9.778,4.704,18.476,11.965,23.956l0.002,0.017l0.357,0.262c0.133,0.097,0.274,0.18,0.409,0.275
		c0.379,0.268,0.764,0.527,1.156,0.777c0.21,0.134,0.418,0.272,0.631,0.4c0.482,0.292,0.975,0.566,1.474,0.831
		c0.249,0.132,0.499,0.26,0.751,0.385c0.469,0.232,0.945,0.454,1.427,0.662c0.285,0.123,0.572,0.236,0.86,0.349
		c0.388,0.153,0.779,0.298,1.174,0.435c0.255,0.088,0.509,0.179,0.766,0.26c0.564,0.178,1.136,0.339,1.714,0.485
		c0.23,0.058,0.461,0.108,0.693,0.16c0.505,0.114,1.015,0.216,1.529,0.304c0.157,0.027,0.312,0.06,0.469,0.084
		c0.654,0.102,1.317,0.176,1.984,0.234c0.177,0.015,0.354,0.028,0.532,0.041C28.592,59.967,29.292,60,30,60s1.408-0.034,2.105-0.082
		c0.177-0.012,0.355-0.025,0.532-0.041c0.668-0.058,1.331-0.133,1.985-0.234c0.157-0.024,0.311-0.057,0.467-0.084
		c0.515-0.089,1.026-0.19,1.532-0.305c0.231-0.052,0.461-0.102,0.69-0.16c0.579-0.146,1.151-0.307,1.716-0.485
		c0.257-0.081,0.51-0.171,0.765-0.259c0.396-0.137,0.787-0.283,1.175-0.436c0.288-0.113,0.576-0.227,0.86-0.349
		c0.482-0.208,0.957-0.429,1.426-0.661c0.253-0.125,0.504-0.254,0.754-0.387c0.494-0.262,0.982-0.534,1.459-0.822
		c0.22-0.133,0.435-0.274,0.652-0.413c0.386-0.247,0.767-0.503,1.141-0.767c0.137-0.097,0.281-0.181,0.417-0.28l0.357-0.262
		l0.002-0.018C55.296,48.476,60,39.778,60,30z M50.235,32.561C50.743,33.653,51,34.811,51,36c0,0.321-0.02,0.64-0.058,0.956
		c-0.008,0.071-0.026,0.14-0.036,0.21c-0.036,0.244-0.076,0.488-0.133,0.727c-0.019,0.08-0.046,0.158-0.068,0.237
		c-0.061,0.225-0.127,0.449-0.207,0.669c-0.031,0.086-0.069,0.169-0.103,0.253c-0.084,0.207-0.172,0.413-0.272,0.615
		c-0.045,0.089-0.094,0.177-0.142,0.265c-0.103,0.19-0.211,0.377-0.329,0.561c-0.058,0.09-0.118,0.178-0.179,0.265
		c-0.122,0.176-0.251,0.348-0.387,0.516c-0.068,0.084-0.137,0.168-0.208,0.25c-0.146,0.169-0.301,0.332-0.461,0.491
		c-0.071,0.071-0.141,0.143-0.214,0.212c-0.185,0.173-0.381,0.339-0.582,0.499c-0.079,0.063-0.154,0.132-0.235,0.193l-0.044,0.034
		C45.615,44.231,43.406,45,41,45c-5.514,0-10-4.037-10-9v-4c0-0.553-0.448-1-1-1s-1,0.447-1,1v4c0,4.963-4.486,9-10,9
		c-2.407,0-4.618-0.77-6.346-2.05l-0.032-0.025c-0.088-0.065-0.168-0.139-0.253-0.207c-0.197-0.158-0.389-0.32-0.57-0.489
		c-0.076-0.071-0.147-0.145-0.22-0.218c-0.158-0.158-0.311-0.319-0.455-0.485c-0.072-0.083-0.142-0.168-0.211-0.254
		c-0.135-0.167-0.263-0.338-0.384-0.512c-0.062-0.089-0.123-0.178-0.181-0.269c-0.117-0.182-0.225-0.369-0.328-0.558
		c-0.048-0.089-0.098-0.176-0.143-0.267c-0.1-0.201-0.188-0.406-0.271-0.614c-0.034-0.085-0.072-0.168-0.103-0.254
		c-0.08-0.22-0.146-0.444-0.207-0.669c-0.022-0.08-0.049-0.157-0.068-0.237c-0.057-0.24-0.098-0.483-0.133-0.727
		c-0.01-0.07-0.027-0.139-0.036-0.21C9.02,36.64,9,36.321,9,36c0-1.193,0.259-2.353,0.769-3.448c1.184-2.541,0.55-5.491-1.542-7.173
		c-1.351-1.088-3.115-1.991-5.252-2.691c0.009-0.034,0.02-0.068,0.029-0.102c0.125-0.455,0.262-0.907,0.41-1.354
		c0.034-0.103,0.069-0.206,0.105-0.309c0.137-0.4,0.284-0.795,0.439-1.188c0.043-0.109,0.084-0.218,0.129-0.326
		c0.173-0.422,0.356-0.839,0.549-1.251c0.029-0.063,0.056-0.127,0.086-0.189c0.222-0.467,0.459-0.926,0.707-1.38
		c0.068-0.123,0.141-0.243,0.21-0.365c0.177-0.313,0.359-0.623,0.548-0.929c0.115-0.185,0.234-0.368,0.353-0.551
		c0.153-0.235,0.31-0.469,0.471-0.699c0.14-0.201,0.28-0.4,0.425-0.597c0.151-0.206,0.309-0.408,0.466-0.611
		c0.157-0.202,0.311-0.405,0.474-0.602c0.178-0.217,0.366-0.427,0.551-0.639c0.143-0.163,0.283-0.328,0.43-0.489l4.217,0.877
		c1.487,0.311,3.04-0.033,4.259-0.942c1.218-0.909,1.99-2.3,2.104-3.723l0.656-3.688c0.043-0.016,0.087-0.029,0.131-0.044
		c0.698-0.245,1.403-0.467,2.117-0.655c0.009-0.002,0.019-0.005,0.028-0.008c0.738-0.194,1.484-0.354,2.235-0.486
		c0.044-0.008,0.087-0.016,0.131-0.023c0.758-0.13,1.521-0.231,2.286-0.298c0.003,0,0.005,0,0.008-0.001
		c1.539-0.135,3.088-0.141,4.627-0.024c0.058,0.004,0.116,0.008,0.173,0.013c0.736,0.06,1.469,0.149,2.198,0.266
		c0.068,0.011,0.135,0.025,0.203,0.036c0.679,0.115,1.353,0.255,2.022,0.42c0.07,0.017,0.141,0.031,0.21,0.049
		c0.635,0.162,1.262,0.356,1.885,0.564c0.11,0.037,0.22,0.074,0.33,0.112l0.887,3.754c0.146,1.484,0.911,2.843,2.108,3.736
		c1.219,0.909,2.773,1.252,4.258,0.943l4.218-0.878c0.198,0.216,0.388,0.439,0.579,0.661c0.132,0.153,0.267,0.303,0.395,0.458
		c0.17,0.206,0.331,0.419,0.495,0.63c0.15,0.193,0.301,0.387,0.446,0.584c0.148,0.201,0.292,0.406,0.435,0.611
		c0.157,0.226,0.311,0.455,0.461,0.685c0.121,0.186,0.243,0.372,0.36,0.561c0.187,0.303,0.367,0.61,0.542,0.92
		c0.071,0.125,0.146,0.247,0.214,0.372c0.248,0.453,0.484,0.913,0.706,1.379c0.029,0.062,0.056,0.125,0.085,0.188
		c0.194,0.414,0.378,0.832,0.551,1.255c0.043,0.106,0.084,0.213,0.126,0.319c0.157,0.397,0.305,0.796,0.443,1.2
		c0.034,0.098,0.067,0.196,0.1,0.294c0.151,0.459,0.292,0.921,0.42,1.388c0.007,0.025,0.015,0.05,0.022,0.076
		c-1.991,0.652-3.658,1.481-4.968,2.469C49.764,26.888,49.015,29.933,50.235,32.561z M46.777,46.736
		c-0.12,0.055-0.237,0.116-0.36,0.168c-0.006,0.003-0.01,0.009-0.017,0.011c-0.112,0.047-0.206,0.118-0.291,0.2
		c-0.015,0.014-0.027,0.03-0.04,0.045c-0.073,0.081-0.132,0.171-0.176,0.272c-0.005,0.01-0.01,0.02-0.014,0.031
		c-0.046,0.116-0.079,0.238-0.079,0.367c0,0.13,0.03,0.26,0.08,0.39c0.128,0.295,0.384,0.501,0.685,0.575
		c-0.145,1.407-0.288,2.778-0.424,4.063c-0.096,0.068-0.191,0.138-0.288,0.205c-0.448,0.309-0.901,0.607-1.363,0.888
		c-0.2,0.122-0.406,0.234-0.609,0.351c-0.331,0.19-0.664,0.372-1.001,0.548c-0.228,0.119-0.455,0.24-0.687,0.352
		c-0.468,0.227-0.942,0.44-1.42,0.64c-0.249,0.104-0.501,0.201-0.754,0.298c-0.344,0.132-0.691,0.257-1.039,0.375
		c-0.247,0.084-0.493,0.17-0.743,0.247c-0.498,0.153-1,0.29-1.507,0.415c-0.225,0.056-0.453,0.107-0.68,0.157
		c-0.485,0.107-0.972,0.203-1.464,0.284c-0.124,0.021-0.246,0.045-0.37,0.064c-0.592,0.089-1.189,0.155-1.789,0.206
		c-0.17,0.015-0.341,0.027-0.511,0.039C31.279,57.97,30.642,58,30,58s-1.279-0.03-1.914-0.073c-0.171-0.012-0.341-0.024-0.511-0.039
		c-0.6-0.051-1.197-0.117-1.789-0.206c-0.124-0.019-0.246-0.044-0.37-0.064c-0.491-0.081-0.979-0.177-1.464-0.284
		c-0.227-0.05-0.454-0.102-0.68-0.157c-0.507-0.125-1.01-0.262-1.509-0.416c-0.249-0.077-0.494-0.163-0.74-0.246
		c-0.35-0.119-0.697-0.243-1.042-0.376c-0.252-0.097-0.504-0.193-0.752-0.297c-0.479-0.2-0.954-0.413-1.422-0.641
		c-0.23-0.112-0.456-0.232-0.682-0.35c-0.34-0.177-0.676-0.361-1.01-0.552c-0.201-0.115-0.404-0.226-0.601-0.346
		c-0.464-0.282-0.92-0.582-1.37-0.893c-0.095-0.066-0.188-0.134-0.283-0.201c-0.137-1.287-0.28-2.661-0.425-4.069
		c0.293-0.074,0.551-0.274,0.678-0.574c0.216-0.508-0.021-1.095-0.529-1.312c-0.123-0.052-0.24-0.113-0.36-0.168
		c-0.04-0.388-0.08-0.778-0.12-1.167C14.847,46.476,16.856,47,19,47c4.917,0,9.148-2.728,11-6.617C31.852,44.272,36.083,47,41,47
		c2.143,0,4.153-0.524,5.896-1.43C46.856,45.959,46.817,46.348,46.777,46.736z M48.956,9.416l-2.937,0.612
		c-0.927,0.19-1.895-0.021-2.654-0.588s-1.24-1.434-1.319-2.378l-0.611-2.61C44.21,5.698,46.747,7.38,48.956,9.416z M18.403,4.525
		l-0.449,2.537c-0.079,0.944-0.559,1.812-1.319,2.378c-0.759,0.566-1.726,0.78-2.655,0.587l-2.936-0.611
		C13.21,7.419,15.691,5.764,18.403,4.525z M2,30c0-1.827,0.181-3.611,0.517-5.341c1.821,0.614,3.33,1.372,4.456,2.278
		c1.373,1.104,1.777,3.065,0.983,4.771C7.322,33.068,7,34.513,7,36c0,0.386,0.023,0.768,0.066,1.144
		c0.011,0.094,0.033,0.185,0.046,0.278c0.04,0.282,0.082,0.563,0.145,0.838c0.028,0.122,0.069,0.24,0.101,0.36
		c0.065,0.241,0.128,0.482,0.21,0.716c0.05,0.143,0.113,0.281,0.169,0.422c0.081,0.204,0.16,0.409,0.254,0.608
		c0.074,0.156,0.16,0.307,0.242,0.46c0.093,0.174,0.185,0.35,0.288,0.519c0.097,0.159,0.205,0.313,0.31,0.468
		c0.106,0.155,0.211,0.311,0.325,0.461c0.115,0.151,0.238,0.297,0.361,0.443c0.124,0.146,0.248,0.292,0.38,0.432
		c0.127,0.135,0.258,0.266,0.393,0.396c0.148,0.143,0.299,0.283,0.455,0.419c0.07,0.061,0.131,0.127,0.202,0.186l0.103,1.001
		c0.208,2.03,0.417,4.066,0.618,5.987C5.752,46,2,38.432,2,30z M48.332,51.138c0.205-1.966,0.42-4.054,0.633-6.132l0.088-0.856
		c0.071-0.059,0.132-0.125,0.201-0.185c0.157-0.136,0.308-0.277,0.457-0.421c0.134-0.13,0.266-0.261,0.393-0.396
		c0.131-0.14,0.255-0.285,0.379-0.431c0.124-0.146,0.247-0.292,0.362-0.444c0.114-0.149,0.218-0.304,0.324-0.459
		c0.106-0.156,0.214-0.31,0.312-0.47c0.102-0.168,0.193-0.342,0.286-0.515c0.083-0.155,0.17-0.307,0.245-0.465
		c0.093-0.197,0.171-0.4,0.252-0.602c0.057-0.142,0.12-0.282,0.171-0.427c0.081-0.234,0.144-0.474,0.209-0.714
		c0.032-0.121,0.074-0.24,0.102-0.362c0.063-0.275,0.105-0.556,0.145-0.838c0.013-0.093,0.036-0.184,0.046-0.278
		C52.977,36.768,53,36.386,53,36c0-1.482-0.319-2.923-0.95-4.281c-0.82-1.766-0.321-3.808,1.213-4.966
		c1.094-0.825,2.522-1.523,4.22-2.096C57.818,26.388,58,28.173,58,30C58,38.432,54.248,46,48.332,51.138z"/>
	<path d="M19.058,14.018c2.213-0.128,3.972,0.447,5.235,1.709c0.195,0.195,0.451,0.293,0.707,0.293s0.512-0.098,0.707-0.293
		c0.391-0.391,0.391-1.023,0-1.414c-1.684-1.684-3.96-2.462-6.765-2.291c-0.551,0.032-0.972,0.505-0.94,1.056
		C18.034,13.63,18.508,14.051,19.058,14.018z"/>
	<path d="M34.472,16.02c0.256,0,0.512-0.098,0.707-0.293c1.209-1.209,3.367-1.848,5.763-1.709c0.565,0.03,1.024-0.388,1.057-0.94
		c0.032-0.551-0.389-1.023-0.94-1.056c-2.962-0.172-5.687,0.685-7.293,2.291c-0.391,0.391-0.391,1.023,0,1.414
		C33.96,15.922,34.216,16.02,34.472,16.02z"/>
	<path d="M14,28c0-5.809-3.568-6.916-3.72-6.96c-0.522-0.154-1.063,0.145-1.225,0.665c-0.163,0.52,0.13,1.077,0.647,1.25
		C9.796,22.986,12,23.77,12,28c0,0.553,0.448,1,1,1S14,28.553,14,28z"/>
	<path d="M49.72,21.04C49.568,21.084,46,22.191,46,28c0,0.553,0.448,1,1,1c0.553,0,1-0.447,1-1c0-4.199,2.171-5.002,2.295-5.045
		c0.521-0.16,0.818-0.71,0.665-1.235C50.806,21.19,50.255,20.883,49.72,21.04z"/>
	<path d="M18,33c-2.757,0-5,2.243-5,5s2.243,5,5,5s5-2.243,5-5S20.757,33,18,33z M18,41c-1.654,0-3-1.346-3-3s1.346-3,3-3
		s3,1.346,3,3S19.654,41,18,41z"/>
	<path d="M42,33c-2.757,0-5,2.243-5,5s2.243,5,5,5s5-2.243,5-5S44.757,33,42,33z M42,41c-1.654,0-3-1.346-3-3s1.346-3,3-3
		s3,1.346,3,3S43.654,41,42,41z"/>
	<path d="M19.53,47.99c-0.53,0.02-1.34,0-2.03-0.07c-0.55-0.061-1.04,0.34-1.1,0.89c-0.03,0.26,0.04,0.521,0.21,0.73
		s0.41,0.34,0.68,0.37C17.85,49.97,18.43,50,19,50c0.18,0,0.37,0,0.6-0.01c0.55-0.021,0.99-0.49,0.97-1.04
		C20.55,48.399,20.08,47.96,19.53,47.99z"/>
	<path d="M25.37,46.45c-0.61,0.319-1.23,0.59-1.86,0.8c-0.41,0.14-0.68,0.52-0.68,0.95c0,0.109,0.02,0.22,0.06,0.319
		c0.13,0.41,0.52,0.681,0.94,0.681c0.11,0,0.22-0.021,0.33-0.051l0.03-0.02c0.72-0.25,1.43-0.55,2.11-0.91
		c0.23-0.12,0.41-0.33,0.49-0.58c0.07-0.26,0.05-0.53-0.07-0.76C26.47,46.399,25.84,46.2,25.37,46.45z"/>
	<path d="M30.762,43.368L30,42.471l-0.762,0.897c-0.199,0.234-0.406,0.462-0.623,0.682c-0.003,0.003-0.004,0.008-0.007,0.011
		l-0.018,0.009c-0.18,0.19-0.27,0.44-0.27,0.7c0,0.271,0.11,0.521,0.3,0.7c0.19,0.19,0.43,0.29,0.7,0.29
		c0.09,0,0.174-0.03,0.259-0.054c0.035-0.009,0.071-0.009,0.105-0.022c0.049-0.02,0.09-0.055,0.136-0.083
		c0.061-0.035,0.126-0.06,0.18-0.109c0.19,0.173,0.432,0.26,0.673,0.26c0.253,0,0.507-0.096,0.702-0.288
		c0.393-0.388,0.398-1.021,0.01-1.414C31.168,43.83,30.961,43.603,30.762,43.368z"/>
	<path d="M40.53,47.99c-0.02,0-0.04,0-0.07,0h-0.05c-0.53,0.01-0.96,0.43-0.98,0.96c0,0.02,0,0.029,0,0.05
		c0,0.52,0.4,0.939,0.91,0.979l0.05,0.011C40.6,50,40.8,50,41,50c0.57,0,1.14-0.03,1.71-0.09c0.26-0.03,0.5-0.16,0.67-0.37
		c0.16-0.2,0.24-0.46,0.21-0.73c-0.05-0.55-0.54-0.96-1.1-0.89C41.98,47.97,41.48,48,41,48C40.85,48,40.7,48,40.53,47.99z"/>
	<path d="M36.49,47.25c-0.63-0.22-1.26-0.48-1.86-0.8c-0.48-0.261-1.11-0.051-1.35,0.42c-0.26,0.489-0.07,1.09,0.42,1.35
		c0.68,0.36,1.4,0.67,2.13,0.92c0.11,0.04,0.22,0.061,0.33,0.061c0.42,0,0.81-0.28,0.95-0.681C37.28,48,37.01,47.43,36.49,47.25z"/>
	<path d="M40.43,26.01c0,0.03,0,0.05,0,0.08c0.04,0.52,0.47,0.93,1,0.93c0.02,0,0.04,0,0.07,0C41.68,27,41.84,27,42,27
		c0.55,0,1-0.45,1-1s-0.45-1-1-1c-0.22,0-0.44,0.01-0.64,0.02C40.84,25.06,40.43,25.49,40.43,26.01z"/>
	<path d="M34.49,31.05c-0.52-0.13-1.08,0.2-1.21,0.72C33.09,32.5,33,33.25,33,34c0,0.55,0.45,1,1,1c0.55,0,1-0.45,1-1
		c0-0.58,0.07-1.17,0.21-1.73C35.35,31.729,35.03,31.189,34.49,31.05z"/>
	<path d="M38.51,26.729c-0.28-0.449-0.93-0.59-1.38-0.3c-0.63,0.41-1.21,0.89-1.72,1.44c-0.17,0.18-0.26,0.42-0.27,0.66
		c0,0.289,0.12,0.56,0.32,0.75c0.19,0.17,0.43,0.27,0.68,0.27c0.28,0,0.55-0.12,0.74-0.32c0.4-0.43,0.85-0.81,1.33-1.12
		C38.68,27.81,38.81,27.189,38.51,26.729z"/>
	<path d="M25.57,29.13c-0.41-0.63-0.89-1.21-1.44-1.72c-0.38-0.36-1.05-0.341-1.41,0.05c-0.17,0.18-0.26,0.42-0.27,0.67
		c0,0.28,0.11,0.55,0.32,0.74l0.02,0.02c0.42,0.391,0.79,0.84,1.1,1.32c0.19,0.29,0.5,0.46,0.84,0.46c0.19,0,0.38-0.05,0.54-0.16
		C25.74,30.21,25.87,29.59,25.57,29.13z"/>
	<path d="M26.98,33.35c-0.04-0.54-0.51-0.96-1.07-0.92c-0.52,0.04-0.93,0.47-0.93,0.99c0,0.02,0,0.05,0,0.08
		C24.99,33.649,25,33.81,25,34c0,0.55,0.45,1,1,1c0.55,0,1-0.45,1-1c0-0.22-0.01-0.431-0.02-0.63V33.35z"/>
	<path d="M18,27h0.04c0.57,0,1.14,0.069,1.69,0.21c0.09,0.02,0.17,0.03,0.25,0.03c0.46,0,0.85-0.301,0.97-0.75
		c0.06-0.261,0.02-0.53-0.11-0.761c-0.14-0.22-0.36-0.39-0.62-0.449C19.51,25.09,18.76,25,18,25c-0.55,0-1,0.45-1,1S17.45,27,18,27z
		"/>
</g>
<g>
</g>
<g>
</g>
<g>
</g>
<g>
</g>
<g>
</g>
<g>
</g>
<g>
</g>
<g>
</g>
<g>
</g>
<g>
</g>
<g>
</g>
<g>
</g>
<g>
</g>
<g>
</g>
<g>
</g>
</svg>
