<?xml version="1.0" encoding="iso-8859-1"?>
<!-- Generator: Adobe Illustrator 18.0.0, SVG Export Plug-In . SVG Version: 6.00 Build 0)  -->
<!DOCTYPE svg PUBLIC "-//W3C//DTD SVG 1.1//EN" "http://www.w3.org/Graphics/SVG/1.1/DTD/svg11.dtd">
<svg version="1.1" id="Capa_1" xmlns="http://www.w3.org/2000/svg" xmlns:xlink="http://www.w3.org/1999/xlink" x="0px" y="0px"
	 viewBox="0 0 60 60" style="enable-background:new 0 0 60 60;" xml:space="preserve">
<g>
	<path d="M16,33c-2.206,0-4,1.794-4,4s1.794,4,4,4s4-1.794,4-4S18.206,33,16,33z M16,39c-1.103,0-2-0.897-2-2s0.897-2,2-2
		s2,0.897,2,2S17.103,39,16,39z"/>
	<path d="M45,33c-2.206,0-4,1.794-4,4s1.794,4,4,4s4-1.794,4-4S47.206,33,45,33z M45,39c-1.103,0-2-0.897-2-2s0.897-2,2-2
		s2,0.897,2,2S46.103,39,45,39z"/>
	<path d="M60,30c0-2.097-0.218-4.143-0.629-6.12l0.011-0.003l-0.222-0.922c-0.006-0.027-0.015-0.053-0.022-0.079
		c-0.299-1.221-0.672-2.412-1.115-3.569c-0.055-0.144-0.112-0.286-0.169-0.428c-0.176-0.44-0.363-0.875-0.559-1.304
		c-0.064-0.14-0.124-0.281-0.19-0.42c-0.246-0.517-0.505-1.026-0.779-1.526c-0.098-0.18-0.205-0.355-0.307-0.532
		c-0.187-0.325-0.378-0.648-0.577-0.965c-0.141-0.225-0.283-0.448-0.43-0.669c-0.184-0.276-0.374-0.548-0.566-0.818
		c-0.259-0.365-0.528-0.724-0.804-1.077c-0.192-0.246-0.383-0.492-0.583-0.731c-0.207-0.249-0.42-0.491-0.635-0.733
		c-0.167-0.188-0.336-0.373-0.508-0.556c-0.153-0.164-0.295-0.335-0.452-0.495l-0.383-0.393l-0.021,0.004
		c-2.833-2.796-6.219-5.029-9.975-6.529l-0.004-0.018l-0.498-0.188c-0.053-0.02-0.107-0.036-0.16-0.056
		c-0.188-0.07-0.378-0.133-0.568-0.199c-0.245-0.085-0.489-0.171-0.735-0.249c-0.254-0.081-0.51-0.155-0.767-0.23
		c-0.179-0.052-0.357-0.104-0.536-0.153c-0.31-0.083-0.622-0.16-0.935-0.234c-0.125-0.029-0.249-0.059-0.374-0.086
		c-0.354-0.079-0.711-0.15-1.069-0.216c-0.08-0.015-0.159-0.029-0.239-0.043c-0.392-0.069-0.787-0.13-1.184-0.184
		c-0.038-0.005-0.075-0.01-0.113-0.014C32.625,0.095,31.324,0,30,0c-1.877,0-3.711,0.182-5.493,0.513
		c-0.015,0.003-0.029,0.005-0.044,0.008c-0.404,0.076-0.805,0.16-1.203,0.252c-0.071,0.016-0.142,0.032-0.214,0.049
		c-0.356,0.085-0.709,0.176-1.06,0.273c-0.121,0.033-0.242,0.068-0.364,0.104c-0.309,0.09-0.616,0.184-0.921,0.283
		c-0.165,0.054-0.328,0.11-0.492,0.167c-0.268,0.093-0.535,0.187-0.799,0.287c-0.063,0.024-0.128,0.044-0.191,0.068l-0.526,0.202
		L18.69,2.221c-3.664,1.497-6.967,3.695-9.742,6.432l-0.02-0.004L8.545,9.04C8.387,9.201,8.244,9.374,8.09,9.538
		c-0.172,0.184-0.341,0.369-0.508,0.556c-0.216,0.244-0.431,0.488-0.639,0.738c-0.189,0.226-0.369,0.459-0.551,0.691
		c-0.289,0.37-0.57,0.744-0.842,1.126c-0.188,0.264-0.374,0.528-0.553,0.798c-0.149,0.225-0.294,0.452-0.437,0.681
		c-0.195,0.312-0.383,0.628-0.567,0.947c-0.105,0.182-0.214,0.362-0.315,0.547c-0.274,0.5-0.534,1.009-0.78,1.526
		c-0.063,0.133-0.121,0.269-0.182,0.403c-0.2,0.437-0.39,0.879-0.569,1.327c-0.055,0.137-0.11,0.273-0.162,0.411
		c-0.447,1.165-0.823,2.363-1.124,3.592C0.856,22.9,0.849,22.92,0.844,22.941L0.62,23.864l0.012,0.004C0.219,25.848,0,27.899,0,30
		c0,9.731,4.661,18.392,11.864,23.876l0.002,0.023l0.354,0.261c0.264,0.195,0.531,0.385,0.807,0.575l0.434,0.292
		c0.348,0.229,0.698,0.455,1.06,0.673c0.443,0.266,0.892,0.522,1.345,0.764c0.21,0.112,0.423,0.22,0.706,0.361
		c0.079,0.04,0.162,0.074,0.242,0.114c0.235,0.115,0.474,0.224,0.712,0.334c0.187,0.086,0.368,0.179,0.558,0.261l0.335,0.146
		c0.138,0.058,0.281,0.103,0.42,0.158c0.422,0.17,0.848,0.331,1.279,0.482c0.049,0.017,0.096,0.038,0.145,0.055
		c0.142,0.05,0.284,0.099,0.425,0.145c0.065,0.021,0.126,0.038,0.19,0.059c0.166,0.053,0.332,0.103,0.499,0.154
		c0.294,0.089,0.584,0.171,0.867,0.247c0.126,0.034,0.25,0.069,0.377,0.101c0.03,0.008,0.061,0.017,0.091,0.025l0.231,0.053
		c0.099,0.024,0.203,0.044,0.302,0.067c0.513,0.119,1.031,0.224,1.554,0.316c0.096,0.017,0.184,0.036,0.282,0.052l0.126,0.022
		c0.015,0.002,0.032,0.004,0.047,0.007c0.24,0.038,0.482,0.069,0.723,0.102c0.153,0.02,0.305,0.041,0.461,0.059
		c0.307,0.037,0.615,0.069,0.925,0.096c0.008,0.001,0.016,0.002,0.024,0.002l0.384,0.029c0.013,0.001,0.025,0.001,0.038,0.002
		c0.339,0.025,0.679,0.046,1.021,0.059c0.231,0.01,0.46,0.013,0.687,0.018C29.678,59.99,29.838,60,30,60
		c0.04,0,0.079-0.003,0.119-0.003c0.335-0.001,0.685-0.011,1.054-0.027c0.332-0.013,0.661-0.033,0.99-0.057c0.003,0,0.005,0,0.007,0
		l0.138-0.01c0.149-0.01,0.299-0.021,0.443-0.034c0.004,0,0.007-0.001,0.011-0.001c0.632-0.058,1.26-0.131,1.88-0.228
		c0.013-0.002,0.026-0.003,0.039-0.005c0.189-0.03,0.376-0.064,0.563-0.1l0.181-0.034c0.023-0.004,0.045-0.01,0.068-0.014
		c0.35-0.065,0.697-0.135,1.043-0.213c0.038-0.008,0.077-0.015,0.115-0.023c0.05-0.011,0.099-0.026,0.149-0.038
		c0.385-0.089,0.766-0.185,1.145-0.289c0.045-0.012,0.092-0.022,0.137-0.035c0.309-0.085,0.618-0.172,0.924-0.268
		c0.42-0.131,0.835-0.271,1.242-0.42l0.206-0.077c0.139-0.052,0.274-0.116,0.412-0.17c0.384-0.15,0.766-0.306,1.142-0.471
		c0.25-0.109,0.497-0.221,0.744-0.337c0.323-0.152,0.641-0.313,0.958-0.477c0.406-0.209,0.807-0.428,1.203-0.656
		c0.265-0.152,0.53-0.305,0.789-0.465c0.286-0.176,0.568-0.358,0.848-0.544c0.209-0.139,0.415-0.283,0.621-0.427
		c0.221-0.155,0.449-0.297,0.666-0.458l0.353-0.262l0.003-0.026C55.363,48.345,60,39.706,60,30z M49.453,34.337
		c0.327,0.647,0.493,1.321,0.493,2.001c0,1.784-1.11,3.115-2.042,3.919C45.817,41.975,42.865,43,40,43c-3.842,0-7.326-1.463-9-3.736
		V36c0-0.553-0.447-1-1-1s-1,0.447-1,1v3.264C27.326,41.537,23.842,43,20,43c-3.136,0-5.855-0.803-7.69-2.255l-0.168-0.125
		c-1.611-1.204-2.498-2.725-2.498-4.281c0-0.754,0.203-1.496,0.604-2.206c0.773-1.372,1.095-2.832,0.929-4.221l-0.035-0.298
		l-0.036-0.173c-0.941-3.108-3.658-5.437-8.08-6.93c0.016-0.057,0.032-0.114,0.049-0.172c0.118-0.417,0.247-0.83,0.385-1.241
		c0.04-0.119,0.079-0.239,0.121-0.357c0.142-0.404,0.294-0.803,0.454-1.2c0.04-0.1,0.077-0.201,0.118-0.3
		c0.199-0.477,0.41-0.948,0.634-1.412c0.062-0.128,0.131-0.253,0.195-0.38c0.161-0.321,0.326-0.639,0.5-0.954
		c0.115-0.209,0.236-0.414,0.357-0.62c0.131-0.223,0.264-0.445,0.401-0.665c0.143-0.23,0.289-0.458,0.438-0.683
		c0.119-0.179,0.243-0.355,0.367-0.532c0.172-0.246,0.342-0.493,0.522-0.733c0.02-0.027,0.042-0.053,0.062-0.08
		c0.452-0.6,0.931-1.179,1.429-1.74c0.096-0.109,0.191-0.219,0.289-0.327c0.087-0.095,0.179-0.187,0.268-0.281l3.866,0.807
		c1.493,0.307,3.058-0.034,4.283-0.949s2.001-2.313,2.116-3.745l0.582-3.273c0.009-0.003,0.019-0.006,0.028-0.009
		c0.734-0.266,1.479-0.498,2.231-0.7c0.024-0.006,0.047-0.014,0.071-0.02c0.752-0.199,1.511-0.366,2.276-0.501
		c0.036-0.006,0.072-0.013,0.109-0.02c2.345-0.407,4.737-0.515,7.106-0.323c0.025,0.002,0.049,0.004,0.074,0.006
		c0.774,0.065,1.546,0.162,2.313,0.29c0.038,0.006,0.076,0.014,0.115,0.021c1.5,0.258,2.978,0.642,4.421,1.145
		c0.059,0.021,0.12,0.04,0.179,0.061l0.782,3.311c0.146,1.493,0.916,2.859,2.121,3.759c1.225,0.914,2.788,1.26,4.284,0.948
		l3.823-0.797c0.089,0.095,0.181,0.186,0.269,0.282c0.088,0.096,0.172,0.196,0.259,0.293c0.491,0.552,0.963,1.123,1.41,1.713
		c0.034,0.045,0.071,0.089,0.105,0.135c0.18,0.241,0.351,0.488,0.523,0.735c0.123,0.176,0.247,0.352,0.365,0.531
		c0.15,0.226,0.296,0.455,0.44,0.685c0.137,0.22,0.271,0.443,0.402,0.667c0.12,0.205,0.24,0.409,0.355,0.617
		c0.179,0.325,0.35,0.654,0.516,0.985c0.059,0.117,0.122,0.231,0.179,0.348c0.226,0.467,0.437,0.94,0.637,1.419
		c0.041,0.098,0.077,0.198,0.117,0.297c0.161,0.399,0.314,0.801,0.456,1.207c0.04,0.114,0.078,0.23,0.117,0.345
		c0.141,0.419,0.272,0.842,0.393,1.268c0.015,0.052,0.03,0.103,0.044,0.155c-4.394,1.494-7.095,3.818-8.034,6.915l-0.154,1.163
		C48.638,31.886,48.867,33.176,49.453,34.337z M46.296,52.748c-0.154,0.111-0.308,0.223-0.464,0.331
		c-0.167,0.115-0.335,0.226-0.504,0.337c-0.268,0.176-0.535,0.352-0.809,0.519c-0.399,0.242-0.804,0.476-1.216,0.698
		c-0.206,0.112-0.418,0.215-0.628,0.322c-0.303,0.154-0.608,0.305-0.918,0.449c-0.195,0.091-0.39,0.18-0.588,0.266
		c-0.374,0.163-0.755,0.317-1.139,0.466c-0.856,0.329-1.731,0.618-2.624,0.863c-0.353,0.096-0.707,0.186-1.063,0.268
		c-0.078,0.018-0.156,0.037-0.234,0.054c-0.319,0.071-0.639,0.137-0.961,0.197c-0.268,0.05-0.534,0.102-0.805,0.144
		c-0.584,0.091-1.174,0.162-1.774,0.215l-0.311,0.024c-0.082,0.006-0.163,0.013-0.245,0.019c-0.335,0.023-0.64,0.04-0.937,0.053
		C30.721,57.986,30.366,58,30.008,58c-0.033,0-0.069-0.002-0.102-0.002c-0.333-0.001-0.664-0.012-0.995-0.025
		c-0.313-0.014-0.634-0.031-0.975-0.057c-0.133-0.01-0.266-0.019-0.398-0.03c-0.301-0.027-0.598-0.059-0.897-0.094
		c-0.108-0.013-0.216-0.027-0.325-0.042c-0.271-0.035-0.542-0.073-0.822-0.117c-0.079-0.013-0.156-0.029-0.234-0.042
		c-0.585-0.099-1.174-0.221-1.756-0.359c-0.128-0.031-0.257-0.057-0.385-0.089c-0.125-0.032-0.254-0.068-0.38-0.102
		c-0.26-0.07-0.517-0.143-0.774-0.22c-0.162-0.049-0.325-0.098-0.493-0.152c-0.239-0.076-0.475-0.158-0.711-0.241
		c-0.385-0.134-0.764-0.281-1.141-0.429c-0.58-0.232-1.154-0.477-1.714-0.747c-0.026-0.013-0.054-0.026-0.081-0.039
		c-1.429-0.693-2.786-1.509-4.068-2.425c-0.241-2.268-0.5-4.794-0.759-7.322l-0.23-2.056C14.77,44.443,17.261,45,20,45
		c4.107,0,7.805-1.425,10-3.786C32.195,43.575,35.893,45,40,45c2.54,0,5.143-0.707,7.318-1.937l-0.208,1.829
		C46.833,47.596,46.553,50.318,46.296,52.748z M48.674,9.159l-2.512,0.524c-0.937,0.198-1.913-0.021-2.68-0.594
		c-0.767-0.571-1.252-1.446-1.332-2.399l-0.5-2.141C44.224,5.732,46.59,7.29,48.674,9.159z M18.272,4.584L17.9,6.689
		c-0.08,0.953-0.565,1.828-1.332,2.4c-0.767,0.571-1.742,0.787-2.679,0.594l-2.554-0.533C13.396,7.304,15.732,5.76,18.272,4.584z
		 M2,30c0-1.891,0.191-3.739,0.55-5.526c3.625,1.258,5.859,3.088,6.616,5.464l0.024,0.208c0.115,0.966-0.121,2.004-0.685,3.003
		c-0.571,1.013-0.861,2.086-0.861,3.188c0,2.081,1.046,4.061,2.956,5.614l0.409,3.717c0.188,1.829,0.375,3.65,0.556,5.38
		C5.708,45.913,2,38.384,2,30z M48.49,51c0.198-1.896,0.404-3.902,0.609-5.904l0.404-3.588c1.578-1.478,2.442-3.301,2.442-5.171
		c0-0.996-0.238-1.973-0.708-2.903c-0.408-0.808-0.567-1.704-0.461-2.594l0.107-0.901c0.752-2.365,2.971-4.191,6.568-5.449
		C57.81,26.272,58,28.114,58,30C58,38.357,54.315,45.866,48.49,51z"/>
	<path d="M18.942,12.021c-0.552,0.032-0.973,0.505-0.94,1.056c0.031,0.552,0.505,0.965,1.056,0.94
		c2.204-0.13,3.972,0.447,5.235,1.709c0.195,0.195,0.451,0.293,0.707,0.293s0.512-0.098,0.707-0.293
		c0.391-0.391,0.391-1.023,0-1.414C24.023,12.629,21.742,11.851,18.942,12.021z"/>
	<path d="M41.998,13.077c0.032-0.551-0.389-1.023-0.94-1.056c-2.95-0.176-5.686,0.685-7.293,2.291c-0.391,0.39-0.391,1.023,0,1.414
		c0.195,0.195,0.451,0.293,0.707,0.293s0.512-0.098,0.707-0.293c1.21-1.209,3.348-1.849,5.764-1.709
		C41.486,14.039,41.967,13.629,41.998,13.077z"/>
	<path d="M13,29c0.553,0,1-0.447,1-1c0-5.809-3.568-6.916-3.72-6.96c-0.523-0.154-1.063,0.145-1.226,0.665
		c-0.162,0.52,0.131,1.077,0.648,1.25C9.797,22.986,12,23.77,12,28C12,28.553,12.447,29,13,29z"/>
	<path d="M50.295,22.955c0.521-0.16,0.818-0.71,0.665-1.235c-0.154-0.529-0.703-0.837-1.24-0.68C49.568,21.084,46,22.191,46,28
		c0,0.553,0.447,1,1,1s1-0.447,1-1C48,23.801,50.171,22.998,50.295,22.955z"/>
	<circle cx="16" cy="37" r="1"/>
	<circle cx="45" cy="37" r="1"/>
</g>
<g>
</g>
<g>
</g>
<g>
</g>
<g>
</g>
<g>
</g>
<g>
</g>
<g>
</g>
<g>
</g>
<g>
</g>
<g>
</g>
<g>
</g>
<g>
</g>
<g>
</g>
<g>
</g>
<g>
</g>
</svg>
