<?xml version="1.0" encoding="iso-8859-1"?>
<!-- Generator: Adobe Illustrator 18.0.0, SVG Export Plug-In . SVG Version: 6.00 Build 0)  -->
<!DOCTYPE svg PUBLIC "-//W3C//DTD SVG 1.1//EN" "http://www.w3.org/Graphics/SVG/1.1/DTD/svg11.dtd">
<svg version="1.1" id="Capa_1" xmlns="http://www.w3.org/2000/svg" xmlns:xlink="http://www.w3.org/1999/xlink" x="0px" y="0px"
	 viewBox="0 0 60.006 60.006" style="enable-background:new 0 0 60.006 60.006;" xml:space="preserve">
<g>
	<path d="M60.003,30c0-2.097-0.218-4.144-0.63-6.121l0.01-0.003l-0.221-0.921c-0.006-0.027-0.015-0.053-0.022-0.079
		c-0.299-1.221-0.672-2.412-1.115-3.569c-0.055-0.144-0.112-0.286-0.169-0.428c-0.176-0.44-0.363-0.875-0.559-1.304
		c-0.064-0.14-0.124-0.281-0.19-0.42c-0.246-0.517-0.505-1.026-0.779-1.526c-0.098-0.18-0.205-0.355-0.307-0.532
		c-0.187-0.325-0.378-0.648-0.577-0.965c-0.141-0.225-0.283-0.448-0.43-0.669c-0.184-0.276-0.374-0.548-0.566-0.818
		c-0.259-0.365-0.528-0.724-0.804-1.077c-0.192-0.246-0.383-0.492-0.583-0.731c-0.207-0.249-0.42-0.491-0.635-0.733
		c-0.167-0.188-0.336-0.373-0.508-0.556c-0.153-0.164-0.295-0.335-0.452-0.495l-0.383-0.393l-0.021,0.004
		c-2.833-2.796-6.219-5.029-9.975-6.529l-0.004-0.018l-0.498-0.188c-0.053-0.02-0.107-0.036-0.16-0.056
		c-0.188-0.07-0.378-0.133-0.568-0.199c-0.245-0.085-0.489-0.171-0.735-0.249c-0.254-0.081-0.51-0.155-0.767-0.23
		c-0.179-0.052-0.357-0.104-0.536-0.153c-0.31-0.083-0.622-0.16-0.935-0.234c-0.125-0.029-0.249-0.059-0.374-0.086
		c-0.354-0.079-0.711-0.15-1.069-0.216c-0.08-0.015-0.159-0.029-0.239-0.043c-0.392-0.069-0.787-0.13-1.184-0.184
		c-0.038-0.005-0.075-0.01-0.113-0.014C32.628,0.095,31.327,0,30.003,0c-1.877,0-3.711,0.182-5.493,0.513
		c-0.015,0.003-0.029,0.005-0.044,0.008c-0.404,0.076-0.805,0.16-1.203,0.252c-0.071,0.016-0.142,0.032-0.214,0.049
		c-0.356,0.085-0.709,0.176-1.06,0.273c-0.121,0.033-0.242,0.068-0.364,0.104c-0.309,0.09-0.616,0.184-0.921,0.283
		c-0.165,0.054-0.328,0.11-0.492,0.167c-0.268,0.093-0.535,0.187-0.799,0.287c-0.063,0.024-0.128,0.044-0.191,0.068l-0.526,0.202
		l-0.002,0.014c-3.664,1.497-6.967,3.695-9.742,6.432l-0.02-0.004L8.548,9.04C8.39,9.201,8.246,9.374,8.093,9.538
		c-0.172,0.184-0.341,0.369-0.508,0.556c-0.216,0.244-0.431,0.488-0.639,0.738c-0.189,0.226-0.369,0.459-0.551,0.691
		c-0.289,0.37-0.57,0.744-0.842,1.126c-0.188,0.264-0.374,0.528-0.553,0.798C4.85,13.673,4.705,13.9,4.562,14.128
		c-0.195,0.312-0.383,0.628-0.567,0.947c-0.105,0.182-0.214,0.362-0.315,0.547c-0.274,0.5-0.534,1.009-0.78,1.526
		c-0.063,0.133-0.121,0.269-0.182,0.403c-0.2,0.437-0.39,0.879-0.569,1.327c-0.055,0.137-0.11,0.273-0.162,0.411
		c-0.447,1.165-0.823,2.363-1.124,3.592C0.859,22.9,0.852,22.92,0.847,22.941l-0.224,0.924l0.012,0.004
		c-0.413,1.98-0.632,4.03-0.632,6.131c0,10.101,5.023,19.045,12.697,24.484l0.039,0.051l0.177,0.121
		c0.184,0.126,0.365,0.251,0.548,0.371c0.348,0.229,0.698,0.455,1.06,0.673c0.443,0.266,0.892,0.522,1.349,0.766
		c0.192,0.103,0.386,0.2,0.581,0.299c0.139,0.07,0.308,0.152,0.486,0.237c0.059,0.029,0.118,0.056,0.178,0.085
		c0.359,0.171,0.738,0.346,1.021,0.471l0.283,0.122c0.138,0.058,0.281,0.103,0.42,0.158c0.422,0.17,0.848,0.331,1.279,0.482
		c0.049,0.017,0.096,0.038,0.145,0.055c0.142,0.05,0.284,0.099,0.425,0.145c0.065,0.021,0.126,0.038,0.19,0.059
		c0.166,0.053,0.332,0.103,0.499,0.154c0.294,0.089,0.584,0.171,0.867,0.247c0.126,0.034,0.25,0.069,0.377,0.101
		c0.03,0.008,0.061,0.017,0.091,0.025l0.231,0.054c0.101,0.024,0.204,0.044,0.306,0.067c0.521,0.12,1.048,0.227,1.579,0.32
		c0.08,0.015,0.155,0.03,0.236,0.044l0.144,0.025c0.015,0.002,0.032,0.004,0.047,0.007c0.24,0.038,0.482,0.069,0.723,0.102
		c0.153,0.02,0.305,0.041,0.461,0.059c0.307,0.037,0.615,0.069,0.925,0.096c0.008,0.001,0.016,0.002,0.024,0.002l0.384,0.029
		c0.013,0.001,0.025,0.001,0.038,0.002c0.339,0.025,0.679,0.046,1.021,0.059c0.231,0.01,0.46,0.013,0.687,0.018
		C29.681,59.99,29.841,60,30.003,60c0.02,0,0.04-0.001,0.06-0.001c0.468,0.019,0.917-0.002,1.413-0.036
		c0.221-0.011,0.438-0.031,0.658-0.047c0.014-0.001,0.025-0.002,0.039-0.003l0.138-0.01c0.149-0.01,0.299-0.021,0.443-0.034
		c0.004,0,0.007-0.001,0.011-0.001c0.632-0.058,1.26-0.131,1.88-0.228c0.013-0.002,0.026-0.003,0.039-0.005
		c0.189-0.03,0.376-0.064,0.563-0.1l0.181-0.034c0.023-0.004,0.045-0.01,0.068-0.014c0.35-0.065,0.697-0.135,1.043-0.213
		c0.038-0.008,0.077-0.015,0.115-0.023c0.05-0.011,0.099-0.026,0.149-0.038c0.385-0.089,0.766-0.185,1.145-0.289
		c0.045-0.012,0.092-0.022,0.137-0.035c0.309-0.085,0.618-0.172,0.924-0.268c0.42-0.131,0.835-0.271,1.242-0.42l0.206-0.077
		c0.139-0.052,0.274-0.116,0.412-0.17c0.384-0.15,0.766-0.306,1.142-0.471c0.25-0.109,0.497-0.221,0.744-0.337
		c0.323-0.152,0.641-0.313,0.958-0.477c0.406-0.209,0.807-0.428,1.203-0.656c0.265-0.152,0.53-0.305,0.789-0.465
		c0.286-0.176,0.568-0.358,0.848-0.544c0.209-0.139,0.415-0.283,0.621-0.427c0.221-0.155,0.449-0.297,0.666-0.458l0.353-0.262
		l0.003-0.026C55.366,48.345,60.003,39.706,60.003,30z M50.35,31.508c1.082,1.897,1.653,4.143,1.653,6.492
		c0,2.179-0.998,4.55-2.747,6.677c-0.061,0.074-0.127,0.145-0.19,0.218c-0.211,0.247-0.431,0.49-0.662,0.729
		c-0.135,0.139-0.275,0.274-0.415,0.408c-0.166,0.161-0.337,0.319-0.512,0.475C45.081,48.624,42.194,50,40.003,50
		c-4.626,0-9-5.832-9-12c0-4.963,2.691-9,6-9c0.553,0,1-0.447,1-1s-0.447-1-1-1c-3.01,0-5.635,2.3-7,5.686
		c-1.365-3.387-3.99-5.686-7-5.686c-0.553,0-1,0.447-1,1s0.447,1,1,1c3.309,0,6,4.037,6,9c0,6.168-4.374,12-9,12
		c-2.189,0-5.072-1.374-7.466-3.487c-0.159-0.141-0.316-0.284-0.468-0.43c-0.157-0.149-0.312-0.3-0.463-0.456
		c-0.197-0.204-0.386-0.412-0.568-0.622c-0.096-0.109-0.194-0.216-0.287-0.328C9.002,42.553,8.003,40.183,8.003,38
		c0-2.358,0.575-4.609,1.665-6.511c1.047-1.829,0.731-4.142-0.769-5.622c-1.402-1.385-3.374-2.511-5.871-3.357
		c0.016-0.057,0.033-0.114,0.049-0.171c0.118-0.417,0.247-0.831,0.385-1.241c0.04-0.119,0.079-0.238,0.121-0.356
		c0.142-0.405,0.295-0.806,0.456-1.204c0.04-0.098,0.076-0.197,0.116-0.295c0.199-0.478,0.411-0.95,0.636-1.416
		c0.06-0.123,0.126-0.243,0.188-0.366c0.164-0.326,0.332-0.65,0.508-0.97c0.113-0.205,0.232-0.406,0.35-0.608
		c0.134-0.228,0.27-0.455,0.41-0.68c0.141-0.225,0.283-0.45,0.43-0.671c0.123-0.186,0.252-0.369,0.38-0.552
		c0.168-0.24,0.334-0.481,0.509-0.716c0.041-0.054,0.085-0.107,0.126-0.161c0.433-0.57,0.888-1.122,1.363-1.657
		c0.099-0.112,0.195-0.225,0.296-0.335c0.087-0.095,0.179-0.186,0.267-0.28l3.866,0.807c1.491,0.307,3.058-0.034,4.283-0.949
		s2.001-2.313,2.116-3.745l0.582-3.273c0.009-0.003,0.019-0.006,0.028-0.009c0.734-0.266,1.479-0.498,2.231-0.7
		c0.024-0.006,0.047-0.014,0.071-0.02c0.752-0.199,1.511-0.366,2.276-0.501c0.036-0.006,0.072-0.013,0.109-0.02
		c2.345-0.407,4.737-0.515,7.106-0.323c0.025,0.002,0.049,0.004,0.074,0.006c0.774,0.065,1.546,0.162,2.313,0.29
		c0.038,0.006,0.076,0.014,0.115,0.021c1.5,0.258,2.978,0.642,4.421,1.145c0.059,0.021,0.12,0.04,0.179,0.061l0.782,3.311
		c0.146,1.493,0.916,2.859,2.121,3.759c1.225,0.914,2.787,1.26,4.284,0.948l3.823-0.797c0.089,0.095,0.182,0.187,0.269,0.283
		c0.087,0.096,0.171,0.194,0.257,0.291c0.501,0.563,0.981,1.144,1.436,1.747c0.026,0.034,0.053,0.067,0.079,0.101
		c0.183,0.245,0.357,0.497,0.532,0.747c0.119,0.171,0.239,0.342,0.355,0.515c0.154,0.231,0.303,0.465,0.449,0.7
		c0.132,0.212,0.261,0.426,0.387,0.642c0.125,0.213,0.25,0.426,0.37,0.643c0.166,0.302,0.324,0.607,0.479,0.915
		c0.071,0.14,0.146,0.278,0.215,0.419c0.221,0.458,0.429,0.923,0.625,1.393c0.05,0.12,0.095,0.242,0.143,0.362
		c0.15,0.375,0.294,0.752,0.428,1.134c0.047,0.132,0.091,0.266,0.135,0.399c0.132,0.396,0.256,0.796,0.371,1.198
		c0.018,0.065,0.037,0.129,0.055,0.194c-2.508,0.855-4.481,1.993-5.875,3.391C49.63,27.398,49.318,29.697,50.35,31.508z
		 M45.835,53.078c-0.167,0.115-0.335,0.226-0.504,0.337c-0.268,0.176-0.535,0.352-0.809,0.519c-0.399,0.242-0.804,0.476-1.216,0.698
		c-0.206,0.112-0.418,0.215-0.628,0.322c-0.303,0.154-0.608,0.305-0.918,0.449c-0.195,0.091-0.39,0.18-0.588,0.266
		c-0.374,0.163-0.755,0.317-1.139,0.466c-0.856,0.329-1.731,0.618-2.624,0.863c-0.353,0.096-0.707,0.186-1.063,0.268
		c-0.078,0.018-0.156,0.037-0.234,0.054c-0.319,0.071-0.639,0.137-0.961,0.197c-0.268,0.05-0.534,0.102-0.805,0.144
		c-0.584,0.091-1.174,0.162-1.774,0.215l-0.311,0.024c-0.082,0.006-0.163,0.013-0.245,0.019c-0.335,0.023-0.64,0.04-0.937,0.053
		C30.723,57.986,30.369,58,30.01,58c-0.033,0-0.069-0.002-0.102-0.002c-0.333-0.001-0.664-0.012-0.995-0.025
		c-0.313-0.014-0.634-0.031-0.975-0.057c-0.133-0.01-0.266-0.019-0.399-0.03c-0.294-0.026-0.582-0.057-0.868-0.09
		c-0.141-0.017-0.281-0.035-0.422-0.054c-0.228-0.03-0.456-0.06-0.676-0.095c-0.095-0.015-0.189-0.035-0.283-0.051
		c-0.598-0.107-1.194-0.224-1.786-0.365c-0.128-0.031-0.257-0.057-0.383-0.089c-0.125-0.032-0.254-0.068-0.38-0.102
		c-0.26-0.07-0.517-0.143-0.774-0.22c-0.162-0.049-0.325-0.098-0.493-0.152c-0.239-0.076-0.475-0.158-0.711-0.241
		c-0.385-0.134-0.764-0.281-1.141-0.429c-0.559-0.224-1.112-0.46-1.653-0.719c-0.054-0.026-0.107-0.051-0.16-0.076
		c-1.278-0.621-2.501-1.339-3.662-2.14l-0.433-0.713c-0.088-0.835-0.179-1.706-0.271-2.593C15.596,51.148,17.92,52,20.003,52
		c4.25,0,8.213-3.641,10-8.493c1.787,4.852,5.75,8.493,10,8.493c2.1,0,4.446-0.865,6.613-2.278c-0.108,1.04-0.214,2.06-0.317,3.026
		C46.145,52.858,45.991,52.97,45.835,53.078z M48.677,9.159l-2.512,0.524c-0.938,0.198-1.913-0.021-2.68-0.594
		c-0.767-0.571-1.252-1.446-1.332-2.399l-0.5-2.141C44.227,5.732,46.593,7.29,48.677,9.159z M18.275,4.584l-0.372,2.106
		c-0.08,0.953-0.565,1.828-1.332,2.4c-0.767,0.571-1.742,0.787-2.679,0.594l-2.554-0.533C13.399,7.304,15.735,5.76,18.275,4.584z
		 M2.003,30c0-1.895,0.191-3.746,0.552-5.536c2.125,0.738,3.784,1.686,4.938,2.826c0.855,0.845,1.036,2.162,0.438,3.205
		C6.67,32.698,6.003,35.293,6.003,38c0,1.964,0.628,3.98,1.761,5.895c0.108,0.184,0.208,0.37,0.324,0.55
		c0.071,0.109,0.152,0.214,0.226,0.322c0.83,1.222,1.835,2.346,2.949,3.33c0.104,1.007,0.206,1.989,0.307,2.952
		C5.712,45.914,2.003,38.384,2.003,30z M48.494,51c0.1-0.961,0.202-1.949,0.305-2.951c1.15-1.025,2.187-2.197,3.027-3.472
		c0.028-0.043,0.061-0.084,0.089-0.127c0.165-0.257,0.311-0.521,0.46-0.785c0.775-1.366,1.292-2.778,1.505-4.184
		c0.008-0.054,0.025-0.108,0.032-0.162c0.06-0.441,0.091-0.882,0.091-1.319c0-2.696-0.662-5.284-1.915-7.482
		c-0.588-1.031-0.408-2.342,0.436-3.188c1.146-1.148,2.802-2.103,4.93-2.849c0.358,1.785,0.549,3.63,0.549,5.52
		C58.003,38.357,54.318,45.865,48.494,51z"/>
	<path d="M18.945,12.021c-0.552,0.032-0.973,0.505-0.94,1.056c0.031,0.552,0.502,0.965,1.056,0.94c2.2-0.13,3.972,0.447,5.235,1.709
		c0.195,0.195,0.451,0.293,0.707,0.293s0.512-0.098,0.707-0.293c0.391-0.391,0.391-1.023,0-1.414
		C24.026,12.629,21.746,11.851,18.945,12.021z"/>
	<path d="M40.945,14.018c0.555,0.021,1.024-0.389,1.056-0.94c0.032-0.551-0.389-1.023-0.94-1.056
		c-2.949-0.176-5.686,0.685-7.293,2.291c-0.391,0.39-0.391,1.023,0,1.414c0.195,0.195,0.451,0.293,0.707,0.293
		s0.512-0.098,0.707-0.293C36.391,14.518,38.528,13.878,40.945,14.018z"/>
	<path d="M10.283,21.04c-0.523-0.154-1.063,0.145-1.226,0.665c-0.162,0.52,0.131,1.077,0.648,1.25
		C9.8,22.986,12.003,23.77,12.003,28c0,0.553,0.447,1,1,1s1-0.447,1-1C14.003,22.191,10.434,21.084,10.283,21.04z"/>
	<path d="M49.723,21.04c-0.151,0.044-3.72,1.151-3.72,6.96c0,0.553,0.447,1,1,1s1-0.447,1-1c0-4.199,2.171-5.002,2.295-5.045
		c0.521-0.16,0.818-0.71,0.665-1.235C50.808,21.19,50.26,20.883,49.723,21.04z"/>
	<path d="M16.003,45c0,2.206,1.794,4,4,4s4-1.794,4-4s-1.794-4-4-4S16.003,42.794,16.003,45z M22.003,45c0,1.103-0.897,2-2,2
		s-2-0.897-2-2s0.897-2,2-2S22.003,43.897,22.003,45z"/>
	<circle cx="20.003" cy="45" r="1"/>
	<path d="M40.003,41c-2.206,0-4,1.794-4,4s1.794,4,4,4s4-1.794,4-4S42.209,41,40.003,41z M40.003,47c-1.103,0-2-0.897-2-2
		s0.897-2,2-2s2,0.897,2,2S41.105,47,40.003,47z"/>
	<circle cx="40.003" cy="45" r="1"/>
</g>
<g>
</g>
<g>
</g>
<g>
</g>
<g>
</g>
<g>
</g>
<g>
</g>
<g>
</g>
<g>
</g>
<g>
</g>
<g>
</g>
<g>
</g>
<g>
</g>
<g>
</g>
<g>
</g>
<g>
</g>
</svg>
