<?xml version="1.0" encoding="iso-8859-1"?>
<!-- Generator: Adobe Illustrator 18.0.0, SVG Export Plug-In . SVG Version: 6.00 Build 0)  -->
<!DOCTYPE svg PUBLIC "-//W3C//DTD SVG 1.1//EN" "http://www.w3.org/Graphics/SVG/1.1/DTD/svg11.dtd">
<svg version="1.1" id="Capa_1" xmlns="http://www.w3.org/2000/svg" xmlns:xlink="http://www.w3.org/1999/xlink" x="0px" y="0px"
	 viewBox="0 0 60 60" style="enable-background:new 0 0 60 60;" xml:space="preserve">
<g>
	<path d="M60,17v-2c-4.609,0-12.468,1.382-15.252,4.604c-1.023-2.311-2.295-4.074-4.28-5.123l-0.935,1.768
		c1.894,1.001,3.089,2.863,4.412,6.871c2.041,6.185,2.341,13.913,2.389,19.188c0.044,4.855-9.399,14.619-15.082,15.593
		c-0.629,0.107-1.169,0.127-1.604,0.059c-5.42-0.86-17.178-10.971-17-15.622c0.215-5.568,1.667-13.295,3.884-20.668
		c0.552-1.837,1.55-3.251,3.049-4.323l-1.163-1.627c-1.405,1.005-2.477,2.294-3.208,3.84C12.392,16.37,4.587,15,0,15v2
		c6.422,0,14.267,2.369,14.267,5.134h0.053c-2.09,7.21-3.459,14.662-3.669,20.128c-0.236,6.124,12.8,16.74,18.685,17.673
		C29.61,59.979,29.899,60,30.204,60c0.426,0,0.885-0.042,1.385-0.128c6.262-1.072,16.802-11.24,16.744-17.581
		c-0.079-8.597-0.87-14.888-2.489-19.798c-0.041-0.124-0.084-0.238-0.125-0.359h0.015C45.733,19.369,53.578,17,60,17z"/>
	<path d="M21.684,27.052c-0.524,0.174-0.807,0.74-0.632,1.265C21.191,28.735,21.581,29,22,29c0.104,0,0.211-0.017,0.316-0.052
		L23,28.72V30v4.414L26.586,38h6.828L37,34.414V30v-2v-3.633l1.303-0.413c0.526-0.167,0.817-0.729,0.65-1.256
		c-0.167-0.526-0.733-0.818-1.256-0.65L37,22.268v-3.902l1.303-0.413c0.526-0.167,0.817-0.729,0.65-1.256
		c-0.167-0.527-0.733-0.819-1.256-0.65L37,16.268v-3.902l1.303-0.413c0.526-0.167,0.817-0.729,0.65-1.256
		c-0.167-0.527-0.733-0.819-1.256-0.65L37,10.268V8h-2V4.667L31.5,0h-3L25,4.667V8h-2v6.613l-1.316,0.439
		c-0.524,0.174-0.807,0.74-0.632,1.265C21.191,16.735,21.581,17,22,17c0.104,0,0.211-0.017,0.316-0.052L23,16.72v3.892l-1.316,0.439
		c-0.524,0.174-0.807,0.74-0.632,1.265C21.191,22.735,21.581,23,22,23c0.104,0,0.211-0.017,0.316-0.052L23,22.72v3.892
		L21.684,27.052z M35,33.586L32.586,36h-5.172L25,33.586V30h10V33.586z M25,22.053l2.316-0.772c0.524-0.174,0.807-0.74,0.632-1.265
		c-0.175-0.523-0.738-0.809-1.265-0.632L25,19.946v-3.893l2.316-0.772c0.524-0.174,0.807-0.74,0.632-1.265
		c-0.175-0.523-0.738-0.809-1.265-0.632L25,13.946V10h2V5.333L29.5,2h1L33,5.333V10h2v0.903l-4.303,1.366
		c-0.526,0.167-0.817,0.729-0.65,1.256c0.135,0.426,0.529,0.697,0.953,0.697c0.101,0,0.203-0.015,0.303-0.047L35,13.001v3.902
		l-4.303,1.366c-0.526,0.167-0.817,0.729-0.65,1.256c0.135,0.426,0.529,0.697,0.953,0.697c0.101,0,0.203-0.015,0.303-0.047
		L35,19.001v3.902l-4.303,1.366c-0.526,0.167-0.817,0.729-0.65,1.256c0.135,0.426,0.529,0.697,0.953,0.697
		c0.101,0,0.203-0.015,0.303-0.047L35,25.001V28h-9.839l2.156-0.719c0.524-0.174,0.807-0.74,0.632-1.265
		c-0.175-0.523-0.738-0.809-1.265-0.632L25,25.946V22.053z"/>
</g>
<g>
</g>
<g>
</g>
<g>
</g>
<g>
</g>
<g>
</g>
<g>
</g>
<g>
</g>
<g>
</g>
<g>
</g>
<g>
</g>
<g>
</g>
<g>
</g>
<g>
</g>
<g>
</g>
<g>
</g>
</svg>
