<?xml version="1.0" encoding="iso-8859-1"?>
<!-- Generator: Adobe Illustrator 18.0.0, SVG Export Plug-In . SVG Version: 6.00 Build 0)  -->
<!DOCTYPE svg PUBLIC "-//W3C//DTD SVG 1.1//EN" "http://www.w3.org/Graphics/SVG/1.1/DTD/svg11.dtd">
<svg version="1.1" id="Capa_1" xmlns="http://www.w3.org/2000/svg" xmlns:xlink="http://www.w3.org/1999/xlink" x="0px" y="0px"
	 viewBox="0 0 60 60" style="enable-background:new 0 0 60 60;" xml:space="preserve">
<g>
	<path d="M53,31H41.854l-2.867-18.156c-0.075-0.477-0.479-0.831-0.962-0.844c-0.009,0-0.018,0-0.025,0
		c-0.472,0-0.881,0.33-0.979,0.794l-3.474,16.531l-1.688-2.837c-0.184-0.307-0.525-0.49-0.874-0.488
		c-0.358,0.006-0.686,0.201-0.859,0.515l-3.979,7.161l-5.219-13.047c-0.149-0.372-0.505-0.619-0.905-0.629
		c-0.407,0.01-0.769,0.222-0.934,0.586L14.356,31H7c-0.553,0-1,0.447-1,1s0.447,1,1,1h8c0.393,0,0.748-0.229,0.91-0.586l4.031-8.868
		l5.13,12.825c0.144,0.358,0.48,0.603,0.865,0.627C25.958,36.999,25.979,37,26,37c0.361,0,0.697-0.195,0.874-0.515l4.156-7.48
		l2.11,3.545c0.211,0.354,0.621,0.539,1.023,0.475c0.406-0.067,0.729-0.378,0.814-0.78l2.882-13.717l2.152,13.629
		C40.089,32.642,40.508,33,41,33h12c0.553,0,1-0.447,1-1S53.553,31,53,31z"/>
	<path d="M12,52c2.757,0,5-2.243,5-5s-2.243-5-5-5s-5,2.243-5,5S9.243,52,12,52z M12,44c1.302,0,2.402,0.839,2.816,2H12
		c-0.553,0-1,0.447-1,1s0.447,1,1,1h2.816c-0.414,1.161-1.514,2-2.816,2c-1.654,0-3-1.346-3-3S10.346,44,12,44z"/>
	<path d="M37,52h5h9c0.553,0,1-0.447,1-1v-8c0-0.553-0.447-1-1-1h-9h-5c-0.553,0-1,0.447-1,1v8C36,51.553,36.447,52,37,52z M50,50
		h-7v-6h7V50z M38,44h3v6h-3V44z"/>
	<path d="M26,52c1.336,0,2.592-0.521,3.535-1.465C30.479,49.592,31,48.336,31,47s-0.521-2.591-1.465-3.535S27.336,42,26,42
		s-2.592,0.521-3.535,1.465C21.521,44.408,21,45.664,21,47s0.521,2.592,1.465,3.535C23.408,51.479,24.664,52,26,52z M23.879,44.879
		c0.321-0.321,0.705-0.55,1.121-0.697V47c0,0.553,0.447,1,1,1s1-0.447,1-1v-2.818c0.416,0.147,0.8,0.376,1.121,0.697
		C28.687,45.445,29,46.198,29,47s-0.313,1.555-0.879,2.121c-1.133,1.133-3.109,1.133-4.242,0C23.312,48.555,23,47.802,23,47
		S23.312,45.445,23.879,44.879z"/>
	<path d="M0,1v38v2v14h2v4h8v-4h40v4h8v-4h2V41v-2V1H0z M8,57H4v-2h4V57z M56,57h-4v-2h4V57z M58,53h-8H10H2V41h56V53z M2,39V3h56
		v36H2z"/>
	<path d="M7.422,14.793l4.87,4.168c0.204,0.169,0.453,0.254,0.704,0.254c0.255,0,0.511-0.088,0.724-0.264l4.86-4.16
		c1.132-0.976,1.91-2.213,2.25-3.581c0.226-0.91,0.173-1.516,0.14-1.732C20.715,6.922,18.72,5,16.315,5
		C14.969,5,13.813,5.702,13,6.626C12.187,5.702,11.031,5,9.685,5C7.28,5,5.285,6.922,5.03,9.478C4.997,9.694,4.944,10.3,5.17,11.211
		C5.51,12.576,6.287,13.814,7.422,14.793z M7.003,9.804l0.016-0.104C7.144,8.357,8.099,7,9.685,7c1.084,0,2.005,0.962,2.401,1.856
		L13,10.914l0.914-2.058C14.311,7.962,15.231,7,16.315,7c1.586,0,2.541,1.357,2.677,2.778c0.001,0.003,0.047,0.342-0.104,0.95
		c-0.239,0.963-0.797,1.844-1.611,2.545L13,16.935l-4.274-3.658c-0.817-0.705-1.375-1.586-1.614-2.547
		C6.966,10.14,7.004,9.804,7.003,9.804z"/>
	<path d="M50,8h4c0.553,0,1-0.447,1-1s-0.447-1-1-1h-4c-0.553,0-1,0.447-1,1S49.447,8,50,8z"/>
	<path d="M55,10h-8c-0.553,0-1,0.447-1,1s0.447,1,1,1h8c0.553,0,1-0.447,1-1S55.553,10,55,10z"/>
	<path d="M54,14h-4c-0.553,0-1,0.447-1,1s0.447,1,1,1h4c0.553,0,1-0.447,1-1S54.553,14,54,14z"/>
</g>
<g>
</g>
<g>
</g>
<g>
</g>
<g>
</g>
<g>
</g>
<g>
</g>
<g>
</g>
<g>
</g>
<g>
</g>
<g>
</g>
<g>
</g>
<g>
</g>
<g>
</g>
<g>
</g>
<g>
</g>
</svg>
