<?xml version="1.0" encoding="iso-8859-1"?>
<!-- Generator: Adobe Illustrator 18.0.0, SVG Export Plug-In . SVG Version: 6.00 Build 0)  -->
<!DOCTYPE svg PUBLIC "-//W3C//DTD SVG 1.1//EN" "http://www.w3.org/Graphics/SVG/1.1/DTD/svg11.dtd">
<svg version="1.1" id="Capa_1" xmlns="http://www.w3.org/2000/svg" xmlns:xlink="http://www.w3.org/1999/xlink" x="0px" y="0px"
	 viewBox="0 0 60 60" style="enable-background:new 0 0 60 60;" xml:space="preserve">
<g>
	<path d="M56.537,5.5H3.463C1.554,5.5,0,7.054,0,8.963v39.074C0,49.946,1.554,51.5,3.463,51.5H4v3h8v-3h36v3h8v-3h0.537
		c1.909,0,3.463-1.554,3.463-3.463V8.963C60,7.054,58.446,5.5,56.537,5.5z M10,52.5H6v-1h4V52.5z M54,52.5h-4v-1h4V52.5z M58,48.037
		c0,0.807-0.656,1.463-1.463,1.463H56h-8H12H4H3.463C2.656,49.5,2,48.844,2,48.037V8.963C2,8.156,2.656,7.5,3.463,7.5h53.074
		C57.344,7.5,58,8.156,58,8.963V48.037z"/>
	<path d="M55,9.5H5c-0.553,0-1,0.447-1,1v34c0,0.553,0.447,1,1,1h50c0.553,0,1-0.447,1-1v-34C56,9.947,55.553,9.5,55,9.5z M54,11.5
		v19H40.754l-3.792-13.274C36.839,16.796,36.446,16.5,36,16.5c-0.447,0-0.839,0.297-0.962,0.726l-3.364,11.81l-1.814-3.047
		c-0.199-0.335-0.569-0.522-0.967-0.482c-0.389,0.042-0.718,0.307-0.841,0.678l-2.119,6.355l-3.999-10.398
		c-0.152-0.395-0.539-0.646-0.956-0.641c-0.422,0.01-0.793,0.283-0.926,0.684L17.279,30.5H6v-19H54z M6,43.5v-11h12
		c0.431,0,0.812-0.275,0.948-0.684l2.119-6.355l3.999,10.398C25.216,36.246,25.587,36.5,26,36.5c0.008,0,0.015,0,0.022,0
		c0.422-0.01,0.793-0.283,0.926-0.684l2.31-6.929l1.883,3.162c0.204,0.343,0.597,0.531,0.988,0.479
		c0.396-0.051,0.724-0.333,0.833-0.717l3.039-10.668l3.037,10.63C39.161,32.204,39.554,32.5,40,32.5h14v11H6z"/>
	<path d="M54,46.5h-1c-0.553,0-1,0.447-1,1s0.447,1,1,1h1c0.553,0,1-0.447,1-1S54.553,46.5,54,46.5z"/>
	<path d="M50,46.5h-1c-0.553,0-1,0.447-1,1s0.447,1,1,1h1c0.553,0,1-0.447,1-1S50.553,46.5,50,46.5z"/>
	<path d="M46,46.5h-1c-0.553,0-1,0.447-1,1s0.447,1,1,1h1c0.553,0,1-0.447,1-1S46.553,46.5,46,46.5z"/>
</g>
<g>
</g>
<g>
</g>
<g>
</g>
<g>
</g>
<g>
</g>
<g>
</g>
<g>
</g>
<g>
</g>
<g>
</g>
<g>
</g>
<g>
</g>
<g>
</g>
<g>
</g>
<g>
</g>
<g>
</g>
</svg>
