<?xml version="1.0" encoding="iso-8859-1"?>
<!-- Generator: Adobe Illustrator 18.0.0, SVG Export Plug-In . SVG Version: 6.00 Build 0)  -->
<!DOCTYPE svg PUBLIC "-//W3C//DTD SVG 1.1//EN" "http://www.w3.org/Graphics/SVG/1.1/DTD/svg11.dtd">
<svg version="1.1" id="Capa_1" xmlns="http://www.w3.org/2000/svg" xmlns:xlink="http://www.w3.org/1999/xlink" x="0px" y="0px"
	 viewBox="0 0 60 60" style="enable-background:new 0 0 60 60;" xml:space="preserve">
<g>
	<path d="M28,50c7.72,0,14-6.28,14-14s-6.28-14-14-14s-14,6.28-14,14S20.28,50,28,50z M28,24c6.617,0,12,5.383,12,12
		s-5.383,12-12,12s-12-5.383-12-12S21.383,24,28,24z"/>
	<path d="M28,46c5.514,0,10-4.486,10-10s-4.486-10-10-10s-10,4.486-10,10S22.486,46,28,46z M28,28c4.411,0,8,3.589,8,8s-3.589,8-8,8
		s-8-3.589-8-8S23.589,28,28,28z"/>
	<path d="M28,42c3.309,0,6-2.691,6-6s-2.691-6-6-6s-6,2.691-6,6S24.691,42,28,42z M28,32c2.206,0,4,1.794,4,4s-1.794,4-4,4
		s-4-1.794-4-4S25.794,32,28,32z"/>
	<path d="M33,2h2c4.411,0,8,3.589,8,8c0,3.859,3.14,7,7,7s7-3.141,7-7c0-0.553-0.448-1-1-1s-1,0.447-1,1c0,2.757-2.243,5-5,5
		s-5-2.243-5-5c0-5.514-4.486-10-10-10h-2c-3.309,0-6,2.691-6,6v1h-4v3.506C11.36,12.86,3,23.028,3,35v13.267
		C3,54.736,8.263,60,14.733,60h26.534C47.737,60,53,54.736,53,48.267V35c0-11.972-8.36-22.14-20-24.494V7h-4V6
		C29,3.794,30.794,2,33,2z M31,9v3.184l0.834,0.141C42.94,14.188,51,23.725,51,35v13.267C51,53.634,46.634,58,41.267,58H14.733
		C9.366,58,5,53.634,5,48.267V35c0-11.275,8.06-20.812,19.166-22.676L25,12.184V9h2v6c0,1.877-0.601,2.681-4.208,3.775
		c-0.077,0.023-0.155,0.045-0.231,0.07c-0.063,0.019-0.12,0.037-0.185,0.056c-0.029,0.009-0.05,0.03-0.077,0.041
		C15.162,21.333,10,28.069,10,36c0,9.925,8.075,18,18,18s18-8.075,18-18c0-9.863-7.977-17.892-17.818-17.991
		C28.728,17.239,29,16.277,29,15V9H31z M23.22,20.731c0.019-0.006,0.035-0.011,0.054-0.017C24.768,20.251,26.355,20,28,20
		c8.822,0,16,7.178,16,16s-7.178,16-16,16s-16-7.178-16-16C12,28.842,16.725,22.768,23.22,20.731z"/>
</g>
<g>
</g>
<g>
</g>
<g>
</g>
<g>
</g>
<g>
</g>
<g>
</g>
<g>
</g>
<g>
</g>
<g>
</g>
<g>
</g>
<g>
</g>
<g>
</g>
<g>
</g>
<g>
</g>
<g>
</g>
</svg>
