<?xml version="1.0" encoding="iso-8859-1"?>
<!-- Generator: Adobe Illustrator 18.0.0, SVG Export Plug-In . SVG Version: 6.00 Build 0)  -->
<!DOCTYPE svg PUBLIC "-//W3C//DTD SVG 1.1//EN" "http://www.w3.org/Graphics/SVG/1.1/DTD/svg11.dtd">
<svg version="1.1" id="Capa_1" xmlns="http://www.w3.org/2000/svg" xmlns:xlink="http://www.w3.org/1999/xlink" x="0px" y="0px"
	 viewBox="0 0 60 60" style="enable-background:new 0 0 60 60;" xml:space="preserve">
<g>
	<path d="M40,45.5v-27v-8h-2v-1h1c0.553,0,1-0.448,1-1s-0.447-1-1-1h-1v-1h1c0.553,0,1-0.448,1-1s-0.447-1-1-1h-1v-3H13v3h-1
		c-0.553,0-1,0.448-1,1s0.447,1,1,1h1v1h-1c-0.553,0-1,0.448-1,1s0.447,1,1,1h1v1h-2v8v30H5c-2.757,0-5,2.243-5,5s2.243,5,5,5h6h8
		h13h2h26v-13H40z M36,45.5v-25h2v25H36z M15,9.5h1c0.553,0,1-0.448,1-1s-0.447-1-1-1h-1v-1h1c0.553,0,1-0.448,1-1s-0.447-1-1-1h-1
		v-1h21v1h-1c-0.553,0-1,0.448-1,1s0.447,1,1,1h1v1h-1c-0.553,0-1,0.448-1,1s0.447,1,1,1h1v1H15V9.5z M13,45.5h8v-2h-8v-2h8v-2h-8
		v-2h8v-2h-8v-2h8v-2h-8v-2h8v-2h-8v-2h8v-2h-8v-3h10v28h-4h-6V45.5z M5,56.5c-1.654,0-3-1.346-3-3s1.346-3,3-3h6v6H5z M13,56.5v-6
		h6c1.654,0,3,1.346,3,3s-1.346,3-3,3H13z M32,45.5v11h-9.026c0.635-0.838,1.026-1.87,1.026-3s-0.391-2.162-1.026-3H25v-32H13v-6h25
		v6h-4v27H32z M58,56.5H34v-9h1v2h2v-2h2v2h2v-2h2v2h2v-2h2v2h2v-2h2v2h2v-2h2v2h2v-2h1V56.5z"/>
	<path d="M20,7.5h-1c-0.553,0-1,0.448-1,1s0.447,1,1,1h1c0.553,0,1-0.448,1-1S20.553,7.5,20,7.5z"/>
	<path d="M20,4.5h-1c-0.553,0-1,0.448-1,1s0.447,1,1,1h1c0.553,0,1-0.448,1-1S20.553,4.5,20,4.5z"/>
	<path d="M24,7.5h-1c-0.553,0-1,0.448-1,1s0.447,1,1,1h1c0.553,0,1-0.448,1-1S24.553,7.5,24,7.5z"/>
	<path d="M24,4.5h-1c-0.553,0-1,0.448-1,1s0.447,1,1,1h1c0.553,0,1-0.448,1-1S24.553,4.5,24,4.5z"/>
	<path d="M28,7.5h-1c-0.553,0-1,0.448-1,1s0.447,1,1,1h1c0.553,0,1-0.448,1-1S28.553,7.5,28,7.5z"/>
	<path d="M28,4.5h-1c-0.553,0-1,0.448-1,1s0.447,1,1,1h1c0.553,0,1-0.448,1-1S28.553,4.5,28,4.5z"/>
	<path d="M32,7.5h-1c-0.553,0-1,0.448-1,1s0.447,1,1,1h1c0.553,0,1-0.448,1-1S32.553,7.5,32,7.5z"/>
	<path d="M32,4.5h-1c-0.553,0-1,0.448-1,1s0.447,1,1,1h1c0.553,0,1-0.448,1-1S32.553,4.5,32,4.5z"/>
</g>
<g>
</g>
<g>
</g>
<g>
</g>
<g>
</g>
<g>
</g>
<g>
</g>
<g>
</g>
<g>
</g>
<g>
</g>
<g>
</g>
<g>
</g>
<g>
</g>
<g>
</g>
<g>
</g>
<g>
</g>
</svg>
