<?xml version="1.0" encoding="iso-8859-1"?>
<!-- Generator: Adobe Illustrator 18.0.0, SVG Export Plug-In . SVG Version: 6.00 Build 0)  -->
<!DOCTYPE svg PUBLIC "-//W3C//DTD SVG 1.1//EN" "http://www.w3.org/Graphics/SVG/1.1/DTD/svg11.dtd">
<svg version="1.1" id="Capa_1" xmlns="http://www.w3.org/2000/svg" xmlns:xlink="http://www.w3.org/1999/xlink" x="0px" y="0px"
	 viewBox="0 0 56 56" style="enable-background:new 0 0 56 56;" xml:space="preserve">
<path d="M32.293,37.042l18.172,18.171l4.242-4.242L36.322,32.586l-4.029,4.03V27v-3h1v-2h-1h-2V10.85c1.72-0.471,3-2.107,3-4.065
	c0-1.969-1.401-6.786-4-6.786c-2.303,0-3.664,3.78-3.944,6.011C25.33,6.01,25.313,6,25.293,6s-0.037,0.01-0.056,0.011
	C24.957,3.78,23.596,0,21.293,0s-3.664,3.78-3.944,6.011C17.33,6.01,17.313,6,17.293,6s-0.037,0.01-0.056,0.011
	C16.957,3.78,15.596,0,13.293,0S9.629,3.78,9.349,6.011C9.33,6.01,9.313,6,9.293,6S9.256,6.01,9.237,6.011
	C8.957,3.78,7.596,0,5.293,0c-2.599,0-4,4.816-4,6.786c0,1.958,1.28,3.594,3,4.065V22h-2h-1v2h1v3v24v3h-1v2h1h30h1v-2h-1v-3V37.042
	z M36.322,35.414l15.557,15.557l-1.414,1.414L34.908,36.829L36.322,35.414z M30.293,36.083h-8v2h8v2h-8v2h8v2h-8v2h8V49h-14V29h14
	v3.083h-8v2h8V36.083z M29.293,2c0.474,0,2,2.6,2,4.786c0,1.221-0.897,2.214-2,2.214s-2-0.993-2-2.214C27.293,4.6,28.819,2,29.293,2
	z M28.293,10.85V22h-2V9.544C26.814,10.173,27.503,10.634,28.293,10.85z M24.293,9.544V22h-2V10.85
	C23.083,10.634,23.771,10.173,24.293,9.544z M21.293,2c0.474,0,2,2.6,2,4.786c0,1.221-0.897,2.214-2,2.214s-2-0.993-2-2.214
	C19.293,4.6,20.819,2,21.293,2z M20.293,10.85V22h-2V9.544C18.814,10.173,19.503,10.634,20.293,10.85z M16.293,9.544V22h-2V10.85
	C15.083,10.634,15.771,10.173,16.293,9.544z M13.293,2c0.474,0,2,2.6,2,4.786c0,1.221-0.897,2.214-2,2.214s-2-0.993-2-2.214
	C11.293,4.6,12.819,2,13.293,2z M12.293,10.85V22h-2V9.544C10.814,10.173,11.503,10.634,12.293,10.85z M3.293,6.786
	C3.293,4.6,4.819,2,5.293,2s2,2.6,2,4.786c0,1.221-0.897,2.214-2,2.214S3.293,8.007,3.293,6.786z M6.293,10.85
	c0.79-0.216,1.479-0.678,2-1.307V22h-2V10.85z M4.293,29h2v20h-2V29z M30.293,54h-26v-3h4V27h-4v-3h26v3h-16v24h16V54z"/>
<g>
</g>
<g>
</g>
<g>
</g>
<g>
</g>
<g>
</g>
<g>
</g>
<g>
</g>
<g>
</g>
<g>
</g>
<g>
</g>
<g>
</g>
<g>
</g>
<g>
</g>
<g>
</g>
<g>
</g>
</svg>
