<?xml version="1.0" encoding="iso-8859-1"?>
<!-- Generator: Adobe Illustrator 18.0.0, SVG Export Plug-In . SVG Version: 6.00 Build 0)  -->
<!DOCTYPE svg PUBLIC "-//W3C//DTD SVG 1.1//EN" "http://www.w3.org/Graphics/SVG/1.1/DTD/svg11.dtd">
<svg version="1.1" id="Capa_1" xmlns="http://www.w3.org/2000/svg" xmlns:xlink="http://www.w3.org/1999/xlink" x="0px" y="0px"
	 viewBox="0 0 59.006 59.006" style="enable-background:new 0 0 59.006 59.006;" xml:space="preserve">
<g>
	<path d="M11.861,20.721c-0.188-0.134-0.513-0.737,0.528-3.517c0.619-1.655-0.113-3.246-1.78-3.869
		c-1.615-0.604-3.731-0.036-4.477,1.959C4.373,20,5.203,24.004,8.41,26.277h0c0.572,0.406,1.188,0.604,1.789,0.604
		c0.914,0,1.789-0.457,2.41-1.334C13.606,24.142,13.599,21.952,11.861,20.721z M10.979,24.39c-0.271,0.382-0.735,0.734-1.412,0.257
		h0c-3.422-2.427-2.232-6.858-1.562-8.651c0.361-0.965,1.336-1,1.903-0.787c0.437,0.163,0.897,0.521,0.589,1.345
		c-0.501,1.336-1.674,4.466,0.207,5.799C11.544,22.947,11.328,23.897,10.979,24.39z"/>
	<path d="M58.243,52.672L43.35,36.246c0.756-1.012,1.171-2.232,1.171-3.519c0-1.576-0.614-3.059-1.729-4.174l-0.04-0.039
		c-1.867-1.867-2.848-4.564-2.689-7.398c0.316-5.68-1.807-11.24-5.825-15.258c-4.02-4.021-9.581-6.141-15.263-5.827
		C13.217,0.352,8.047,3.031,4.417,7.577c-5.682,7.114-5.744,17.484-0.147,24.657c4.082,5.23,10.443,8.111,17.023,7.727
		c2.777-0.162,5.439,0.815,7.358,2.734c1.151,1.15,2.662,1.726,4.174,1.726c0.907,0,1.804-0.233,2.633-0.647l16.991,14.499
		l0.112,0.083c0.687,0.437,1.454,0.65,2.216,0.65c1.058,0,2.105-0.413,2.904-1.213c0,0,0,0,0,0
		C59.056,56.419,59.287,54.314,58.243,52.672z M30.021,41.237c-2.115-2.115-5.043-3.294-8.125-3.294
		c-0.24,0-0.481,0.007-0.723,0.021c-5.927,0.356-11.65-2.249-15.327-6.961C0.812,24.553,0.868,15.225,5.979,8.825
		c3.271-4.095,7.925-6.509,13.107-6.798c5.106-0.283,10.119,1.627,13.738,5.244c3.616,3.615,5.526,8.621,5.242,13.732
		c-0.189,3.401,1.003,6.654,3.281,8.933l0.035,0.034c0.735,0.736,1.14,1.716,1.14,2.756c0,1.043-0.406,2.022-1.143,2.76
		l-5.794,5.795C34.062,42.802,31.586,42.802,30.021,41.237z M56.267,56.379L56.267,56.379c-0.692,0.691-1.744,0.821-2.579,0.322
		L37.126,42.568l3.384-3.385l1.472-1.471l14.614,16.1C57.077,54.634,56.944,55.701,56.267,56.379z"/>
</g>
<g>
</g>
<g>
</g>
<g>
</g>
<g>
</g>
<g>
</g>
<g>
</g>
<g>
</g>
<g>
</g>
<g>
</g>
<g>
</g>
<g>
</g>
<g>
</g>
<g>
</g>
<g>
</g>
<g>
</g>
</svg>
