<?xml version="1.0" encoding="iso-8859-1"?>
<!-- Generator: Adobe Illustrator 18.0.0, SVG Export Plug-In . SVG Version: 6.00 Build 0)  -->
<!DOCTYPE svg PUBLIC "-//W3C//DTD SVG 1.1//EN" "http://www.w3.org/Graphics/SVG/1.1/DTD/svg11.dtd">
<svg version="1.1" id="Capa_1" xmlns="http://www.w3.org/2000/svg" xmlns:xlink="http://www.w3.org/1999/xlink" x="0px" y="0px"
	 viewBox="0 0 60 60" style="enable-background:new 0 0 60 60;" xml:space="preserve">
<path d="M39.696,23H37v-1h1c0.553,0,1-0.448,1-1s-0.447-1-1-1h-1v-1h1V7.164C38,6.522,37.478,6,36.836,6
	c-1.266,0-2.384-0.806-2.783-2.006L32.721,0h-5.441l-1.332,3.994C25.548,5.194,24.43,6,23.164,6C22.522,6,22,6.522,22,7.164V19h1v1
	h-1c-0.553,0-1,0.448-1,1s0.447,1,1,1h1v1h-2.696C19.033,23,18,24.033,18,25.304V30v24v3.696C18,58.967,19.033,60,20.304,60h19.393
	C40.967,60,42,58.967,42,57.696V54V30v-4.696C42,24.033,40.967,23,39.696,23z M24,7.929c1.772-0.303,3.263-1.554,3.845-3.303
	L28.721,2h2.559l0.876,2.626c0.582,1.749,2.072,3,3.845,3.303V17h-1V9c0-0.552-0.447-1-1-1s-1,0.448-1,1v8h-2V9c0-0.552-0.447-1-1-1
	s-1,0.448-1,1v8h-2V9c0-0.552-0.447-1-1-1s-1,0.448-1,1v8h-1V7.929z M25,19h10v1H25V19z M25,22h10v1H25V22z M20,32h3v20h-3V32z
	 M40,35h-7v2h7v2h-7v2h7v2h-7v2h7v2h-7v2h7v3H30V32h10V35z M28,30v24h12v3.696C40,57.864,39.863,58,39.696,58H20.304
	C20.137,58,20,57.864,20,57.696V54h5V30h-5v-4.696C20,25.136,20.137,25,20.304,25H23h14h2.696C39.863,25,40,25.136,40,25.304V30H28z
	"/>
<g>
</g>
<g>
</g>
<g>
</g>
<g>
</g>
<g>
</g>
<g>
</g>
<g>
</g>
<g>
</g>
<g>
</g>
<g>
</g>
<g>
</g>
<g>
</g>
<g>
</g>
<g>
</g>
<g>
</g>
</svg>
