<?xml version="1.0" encoding="iso-8859-1"?>
<!-- Generator: Adobe Illustrator 18.0.0, SVG Export Plug-In . SVG Version: 6.00 Build 0)  -->
<!DOCTYPE svg PUBLIC "-//W3C//DTD SVG 1.1//EN" "http://www.w3.org/Graphics/SVG/1.1/DTD/svg11.dtd">
<svg version="1.1" id="Capa_1" xmlns="http://www.w3.org/2000/svg" xmlns:xlink="http://www.w3.org/1999/xlink" x="0px" y="0px"
	 viewBox="0 0 60.016 60.016" style="enable-background:new 0 0 60.016 60.016;" xml:space="preserve">
<g>
	<path d="M30.008,25c1.654,0,3-1.346,3-3s-1.346-3-3-3s-3,1.346-3,3S28.354,25,30.008,25z M30.008,21c0.552,0,1,0.448,1,1
		s-0.448,1-1,1s-1-0.448-1-1S29.456,21,30.008,21z"/>
	<circle cx="30.008" cy="27" r="1"/>
	<circle cx="30.008" cy="16" r="1"/>
	<circle cx="26.008" cy="27" r="1"/>
	<circle cx="28.008" cy="29" r="1"/>
	<circle cx="34.008" cy="27" r="1"/>
	<circle cx="32.008" cy="29" r="1"/>
	<path d="M60.008,30c0-5.474-1.481-10.605-4.052-15.027l-0.001-0.032l-0.13-0.219c-0.044-0.074-0.095-0.146-0.14-0.22
		c-0.147-0.243-0.304-0.48-0.458-0.719c-0.262-0.406-0.532-0.804-0.814-1.197c-0.161-0.225-0.321-0.449-0.487-0.669
		c-0.071-0.094-0.136-0.192-0.207-0.285l-0.113-0.146c-0.363-0.462-0.74-0.915-1.175-1.409c-0.611-0.687-1.273-1.344-1.954-1.98
		c-0.129-0.12-0.255-0.243-0.386-0.361c-0.093-0.083-0.18-0.173-0.273-0.255l-0.192-0.167c-0.129-0.111-0.273-0.221-0.404-0.331
		c-0.115-0.096-0.231-0.19-0.347-0.284c-0.18-0.146-0.347-0.292-0.538-0.441l-0.132-0.104c-0.081-0.062-0.169-0.119-0.251-0.18
		c-0.034-0.025-0.068-0.048-0.102-0.073c-0.576-0.427-1.173-0.833-1.785-1.221c-0.208-0.132-0.413-0.266-0.624-0.393
		c-0.08-0.048-0.156-0.102-0.237-0.149l-0.313-0.18c-0.428-0.246-0.863-0.48-1.361-0.734l-0.254-0.13
		c-0.061-0.03-0.127-0.056-0.188-0.086c-0.397-0.193-0.799-0.375-1.205-0.551c-0.152-0.066-0.304-0.13-0.458-0.193
		c-0.426-0.176-0.857-0.344-1.292-0.5c-0.05-0.018-0.098-0.04-0.148-0.057l-0.439-0.148c-0.073-0.025-0.15-0.045-0.223-0.069
		c-0.291-0.095-0.583-0.185-0.878-0.272c-0.072-0.021-0.142-0.046-0.214-0.066L37.78,1.022c-0.047-0.013-0.096-0.024-0.144-0.036
		c-0.111-0.029-0.223-0.057-0.335-0.085c-0.375-0.095-0.759-0.185-1.162-0.269c-0.04-0.008-0.08-0.018-0.12-0.026
		c-0.013-0.003-0.024-0.006-0.037-0.008c-0.053-0.011-0.108-0.017-0.161-0.027c-0.505-0.1-1.015-0.186-1.529-0.259
		c-0.01-0.001-0.021-0.004-0.031-0.005c-0.174-0.024-0.35-0.046-0.532-0.067c-0.011-0.001-0.022-0.002-0.032-0.003
		c-0.423-0.052-0.849-0.095-1.277-0.129c-0.01-0.001-0.02-0.002-0.03-0.003l-0.539-0.041c-0.005,0-0.009,0-0.014,0
		C31.232,0.024,30.623,0,30.008,0c-0.615,0-1.223,0.024-1.829,0.061c-0.005,0-0.011,0-0.016,0l-0.536,0.041
		c-0.008,0.001-0.016,0.002-0.024,0.002c-0.427,0.034-0.852,0.077-1.274,0.129c-0.015,0.002-0.031,0.003-0.046,0.005l-0.528,0.066
		c-0.026,0.004-0.051,0.008-0.077,0.012c-0.17,0.025-0.34,0.052-0.509,0.079c-0.385,0.062-0.774,0.128-1.181,0.21
		c-0.049,0.01-0.096,0.024-0.144,0.034c-0.51,0.107-1.015,0.228-1.516,0.361c-0.028,0.008-0.058,0.013-0.087,0.021L21.787,1.15
		c-0.057,0.016-0.113,0.036-0.17,0.053c-0.313,0.091-0.623,0.186-0.932,0.288c-0.072,0.024-0.145,0.043-0.217,0.067l-0.438,0.148
		c-0.048,0.017-0.094,0.038-0.142,0.055c-0.448,0.161-0.891,0.333-1.329,0.515c-0.143,0.059-0.283,0.119-0.425,0.18
		c-0.404,0.175-0.805,0.356-1.2,0.548c-0.065,0.031-0.133,0.058-0.197,0.09L16.431,3.25c-0.132,0.067-0.272,0.149-0.404,0.219
		c-0.189,0.1-0.378,0.202-0.564,0.306c-0.13,0.072-0.25,0.131-0.384,0.208l-0.267,0.154c-0.077,0.045-0.15,0.097-0.227,0.143
		c-0.229,0.138-0.452,0.283-0.676,0.426c-0.591,0.377-1.167,0.769-1.723,1.18c-0.041,0.03-0.083,0.058-0.124,0.089
		c-0.083,0.062-0.172,0.119-0.253,0.182l-0.152,0.121c-0.167,0.129-0.323,0.267-0.487,0.399c-0.133,0.108-0.266,0.216-0.397,0.326
		c-0.124,0.104-0.256,0.204-0.377,0.309l-0.19,0.164c-0.091,0.08-0.176,0.167-0.266,0.249C9.78,7.867,9.627,8.015,9.472,8.161
		C9.033,8.573,8.604,9.003,8.185,9.446C8.046,9.594,7.903,9.739,7.766,9.89c-0.073,0.081-0.15,0.154-0.222,0.236
		c-0.392,0.443-0.77,0.898-1.157,1.392l-0.081,0.104c-0.072,0.093-0.136,0.19-0.207,0.284c-0.177,0.233-0.346,0.471-0.516,0.709
		c-0.241,0.338-0.475,0.678-0.701,1.024c-0.191,0.292-0.381,0.583-0.562,0.882c-0.042,0.069-0.089,0.135-0.13,0.204l-0.13,0.219
		l-0.001,0.03C1.488,19.395,0.008,24.526,0.008,30c0,8.873,3.875,16.854,10.018,22.352v0.019l0.345,0.299
		c0.162,0.14,0.33,0.272,0.495,0.409c0.047,0.039,0.093,0.077,0.14,0.116c0.315,0.259,0.636,0.51,0.961,0.755
		c0.061,0.046,0.122,0.093,0.184,0.139c0.322,0.239,0.649,0.471,0.98,0.697c0.063,0.043,0.125,0.086,0.188,0.129
		c0.335,0.225,0.674,0.442,1.017,0.652c0.064,0.04,0.128,0.08,0.193,0.12c0.094,0.057,0.187,0.119,0.282,0.175
		c0.169,0.1,0.344,0.187,0.514,0.284c0.216,0.122,0.433,0.243,0.652,0.359c0.254,0.135,0.509,0.265,0.765,0.392
		c0.215,0.106,0.431,0.209,0.649,0.31c0.269,0.125,0.538,0.25,0.81,0.367c0.204,0.088,0.412,0.169,0.618,0.253
		c0.285,0.115,0.57,0.233,0.858,0.339c0.21,0.077,0.424,0.145,0.635,0.217c0.454,0.155,0.91,0.3,1.371,0.433
		c0.323,0.093,0.645,0.187,0.972,0.27c0.178,0.045,0.357,0.083,0.536,0.124c0.374,0.087,0.749,0.17,1.128,0.243
		c0.137,0.026,0.275,0.05,0.412,0.074c0.442,0.079,0.887,0.148,1.336,0.207c0.084,0.011,0.168,0.022,0.253,0.032
		c0.518,0.064,1.04,0.115,1.566,0.152c0.019,0.001,0.038,0.004,0.057,0.006l0.136,0.009c0.157,0.01,0.313,0.024,0.471,0.032
		l0.737,0.05l-0.007-0.031C29.52,59.987,29.762,60,30.008,60c0.234,0,0.465-0.012,0.698-0.018l-0.008,0.033l0.777-0.053
		c0.154-0.007,0.306-0.021,0.459-0.031l0.143-0.01c0.019-0.001,0.038-0.004,0.057-0.006c0.526-0.037,1.048-0.088,1.566-0.152
		c0.084-0.01,0.168-0.021,0.253-0.032c0.449-0.059,0.894-0.129,1.336-0.207c0.137-0.024,0.275-0.048,0.412-0.074
		c0.379-0.073,0.755-0.156,1.128-0.243c0.179-0.041,0.358-0.079,0.536-0.124c0.327-0.083,0.649-0.176,0.972-0.27
		c0.461-0.133,0.917-0.278,1.371-0.433c0.212-0.073,0.426-0.14,0.635-0.217c0.288-0.106,0.573-0.224,0.858-0.339
		c0.207-0.083,0.414-0.165,0.618-0.253c0.272-0.117,0.541-0.241,0.81-0.367c0.218-0.101,0.434-0.204,0.649-0.31
		c0.256-0.127,0.511-0.258,0.765-0.392c0.219-0.117,0.436-0.237,0.652-0.359c0.171-0.096,0.345-0.184,0.514-0.284
		c0.094-0.055,0.185-0.116,0.279-0.173c0.07-0.042,0.138-0.086,0.208-0.129c0.336-0.207,0.669-0.419,0.998-0.64
		c0.071-0.048,0.141-0.097,0.212-0.145c0.323-0.221,0.642-0.447,0.957-0.681c0.068-0.051,0.136-0.103,0.204-0.154
		c0.317-0.24,0.629-0.484,0.936-0.736c0.056-0.046,0.112-0.093,0.168-0.139c0.165-0.137,0.334-0.271,0.497-0.412l0.345-0.299v-0.019
		C56.142,46.837,60.008,38.863,60.008,30z M51.294,34.391C44.418,32.831,36.741,32,29.011,32c-8.661,0-13.062,0.97-20.143,2.826
		c-1.974-5.647-3.039-12.651-2.827-19.288c0.165-0.273,0.34-0.54,0.515-0.807c0.088-0.135,0.171-0.271,0.262-0.405
		c0.155-0.229,0.318-0.451,0.48-0.675c0.131-0.181,0.261-0.363,0.396-0.541c0.499-0.658,1.025-1.296,1.579-1.907
		c0.069-0.076,0.142-0.149,0.212-0.224c0.44-0.475,0.898-0.932,1.37-1.376c0.141-0.133,0.28-0.267,0.424-0.397
		c0.252-0.227,0.509-0.448,0.769-0.667c0.13-0.109,0.262-0.216,0.395-0.323C12.71,8,12.98,7.784,13.257,7.577
		c0.044-0.033,0.091-0.064,0.136-0.097c0.51-0.377,1.035-0.733,1.57-1.075c0.216-0.138,0.431-0.278,0.651-0.41
		c0.266-0.16,0.537-0.314,0.809-0.465c0.186-0.104,0.374-0.205,0.562-0.304c0.27-0.143,0.541-0.285,0.817-0.419
		c0.386-0.187,0.779-0.367,1.178-0.538c0.106-0.046,0.212-0.09,0.319-0.134c0.42-0.174,0.844-0.339,1.273-0.493
		c0.244-0.088,0.491-0.169,0.738-0.25c0.286-0.093,0.573-0.182,0.863-0.266c0.233-0.068,0.465-0.137,0.7-0.199
		c0.108-0.029,0.218-0.056,0.327-0.083c0.365-0.092,0.732-0.178,1.103-0.255c0.031-0.006,0.059-0.014,0.09-0.02
		c0.07-0.014,0.143-0.024,0.213-0.038c0.459-0.09,0.921-0.168,1.384-0.235c0.189-0.027,0.381-0.049,0.571-0.073
		c0.406-0.05,0.813-0.091,1.222-0.123l0.164-0.013c0.117-0.009,0.232-0.02,0.349-0.027c1.132-0.07,2.291-0.07,3.424,0
		c0.144,0.009,0.287,0.022,0.431,0.033l0.083,0.006c0.418,0.033,0.833,0.074,1.266,0.129c0.013,0.002,0.027,0.004,0.04,0.005
		c0.151,0.019,0.302,0.036,0.451,0.057c0.443,0.063,0.894,0.142,1.356,0.229c0.199,0.039,0.397,0.079,0.595,0.122
		c0.408,0.089,0.815,0.184,1.217,0.29c0.28,0.074,0.556,0.155,0.832,0.237c0.195,0.058,0.401,0.122,0.612,0.19
		c0.288,0.093,0.575,0.189,0.859,0.291c0.397,0.143,0.79,0.297,1.179,0.457c0.159,0.065,0.317,0.132,0.474,0.2
		c0.37,0.16,0.736,0.326,1.095,0.5c0.754,0.366,1.488,0.766,2.202,1.197c0.203,0.122,0.402,0.252,0.602,0.38
		c0.492,0.313,0.974,0.64,1.444,0.983c0.104,0.076,0.212,0.148,0.314,0.225c0.274,0.205,0.54,0.419,0.806,0.634
		c0.13,0.105,0.26,0.211,0.388,0.318c0.258,0.217,0.514,0.436,0.764,0.662c0.163,0.147,0.322,0.3,0.482,0.451
		c0.381,0.36,0.752,0.731,1.113,1.112c0.147,0.155,0.296,0.307,0.441,0.467c0.218,0.24,0.428,0.487,0.637,0.735
		c0.113,0.134,0.225,0.267,0.334,0.402c0.201,0.247,0.398,0.497,0.59,0.751c0.129,0.171,0.253,0.344,0.379,0.518
		c0.166,0.23,0.334,0.458,0.493,0.693c0.084,0.124,0.161,0.251,0.243,0.376c0.18,0.275,0.36,0.551,0.531,0.832
		C54.182,22.004,53.173,28.82,51.294,34.391z M47.876,51.54c-0.48,0.398-0.976,0.777-1.481,1.143
		c-0.154,0.112-0.309,0.223-0.466,0.331c-0.514,0.357-1.038,0.698-1.572,1.018c-0.244,0.146-0.492,0.288-0.741,0.427
		c-0.135,0.075-0.269,0.151-0.404,0.224c-0.271,0.145-0.545,0.285-0.821,0.421c-0.138,0.069-0.276,0.137-0.415,0.203
		c-0.282,0.134-0.568,0.263-0.856,0.387c-0.135,0.059-0.271,0.117-0.407,0.174c-0.289,0.12-0.581,0.235-0.875,0.346
		c-0.146,0.055-0.292,0.108-0.438,0.16c-0.28,0.1-0.562,0.196-0.846,0.287c-0.178,0.057-0.357,0.112-0.536,0.165
		c-0.25,0.075-0.5,0.146-0.753,0.214c-0.237,0.063-0.474,0.122-0.713,0.179c-0.194,0.047-0.389,0.093-0.585,0.135
		c-0.32,0.069-0.642,0.132-0.965,0.19c-0.118,0.021-0.235,0.044-0.354,0.063c-0.409,0.068-0.82,0.127-1.234,0.177
		c-0.028,0.003-0.057,0.007-0.085,0.011l0.663-2.603c0.087-0.139,0.175-0.278,0.266-0.415c0.083-0.126,0.165-0.252,0.25-0.376
		c0.136-0.195,0.277-0.385,0.419-0.575c0.085-0.114,0.169-0.23,0.256-0.342c0.157-0.2,0.32-0.393,0.484-0.586
		c0.08-0.094,0.157-0.192,0.239-0.284c0.21-0.237,0.426-0.467,0.646-0.693c0.041-0.042,0.08-0.088,0.122-0.13
		c0.265-0.267,0.537-0.526,0.817-0.777c0.069-0.062,0.142-0.12,0.211-0.18c0.211-0.184,0.424-0.367,0.642-0.542
		c0.106-0.085,0.215-0.164,0.323-0.246c0.188-0.144,0.376-0.288,0.569-0.425c0.123-0.087,0.249-0.17,0.374-0.254
		c0.183-0.124,0.367-0.247,0.554-0.365c0.134-0.084,0.271-0.164,0.407-0.245c0.183-0.109,0.367-0.216,0.553-0.319
		c0.143-0.079,0.287-0.154,0.432-0.229c0.186-0.096,0.373-0.19,0.561-0.281c0.149-0.071,0.299-0.14,0.449-0.208
		c0.19-0.085,0.381-0.167,0.573-0.245c0.154-0.063,0.308-0.125,0.464-0.184c0.194-0.074,0.39-0.143,0.587-0.211
		c0.157-0.054,0.314-0.108,0.473-0.158c0.2-0.063,0.403-0.121,0.605-0.177c0.159-0.044,0.317-0.09,0.477-0.131
		c0.208-0.052,0.418-0.098,0.627-0.143c0.158-0.034,0.316-0.072,0.475-0.102c0.22-0.042,0.442-0.075,0.664-0.11
		c0.152-0.024,0.303-0.052,0.455-0.072c0.015-0.002,0.03-0.003,0.045-0.005v5.239C47.965,51.461,47.922,51.502,47.876,51.54z
		 M26.679,57.795c-0.435-0.051-0.866-0.113-1.295-0.184c-0.109-0.018-0.218-0.039-0.327-0.059c-0.334-0.059-0.666-0.124-0.997-0.195
		c-0.191-0.042-0.381-0.087-0.571-0.132c-0.245-0.058-0.489-0.118-0.731-0.183c-0.25-0.067-0.498-0.138-0.744-0.212
		c-0.183-0.054-0.366-0.11-0.548-0.168c-0.281-0.09-0.561-0.185-0.838-0.284c-0.15-0.053-0.3-0.108-0.449-0.164
		c-0.291-0.109-0.58-0.223-0.866-0.342c-0.14-0.058-0.28-0.118-0.42-0.179c-0.283-0.123-0.565-0.25-0.843-0.382
		c-0.144-0.068-0.287-0.14-0.431-0.211c-0.272-0.135-0.543-0.272-0.81-0.415c-0.139-0.075-0.276-0.153-0.414-0.23
		c-0.248-0.138-0.494-0.279-0.737-0.424c-0.528-0.316-1.046-0.653-1.556-1.006c-0.16-0.111-0.318-0.224-0.475-0.338
		c-0.504-0.365-0.999-0.743-1.479-1.141c-0.041-0.034-0.081-0.071-0.122-0.106v-5.256c0.015,0.002,0.03,0.003,0.044,0.005
		c0.163,0.021,0.323,0.051,0.485,0.077c0.214,0.034,0.429,0.065,0.641,0.106c0.166,0.032,0.33,0.071,0.495,0.107
		c0.205,0.045,0.41,0.089,0.613,0.14c0.164,0.042,0.327,0.09,0.49,0.135c0.201,0.057,0.402,0.113,0.6,0.176
		c0.16,0.051,0.319,0.107,0.478,0.161c0.197,0.068,0.394,0.137,0.589,0.211c0.157,0.06,0.312,0.124,0.466,0.187
		c0.193,0.079,0.385,0.161,0.575,0.246c0.151,0.068,0.302,0.139,0.451,0.211c0.19,0.091,0.378,0.185,0.564,0.282
		c0.145,0.076,0.29,0.153,0.433,0.233c0.186,0.103,0.371,0.21,0.554,0.319c0.138,0.082,0.275,0.165,0.411,0.251
		c0.185,0.117,0.366,0.238,0.547,0.36c0.129,0.087,0.257,0.174,0.384,0.265c0.183,0.131,0.363,0.267,0.541,0.405
		c0.118,0.091,0.237,0.18,0.354,0.274c0.183,0.147,0.361,0.301,0.539,0.455c0.106,0.092,0.214,0.182,0.318,0.276
		c0.187,0.17,0.369,0.346,0.549,0.523c0.088,0.086,0.179,0.169,0.265,0.257c0.206,0.21,0.406,0.427,0.603,0.647
		c0.055,0.062,0.114,0.12,0.168,0.182c0.503,0.575,0.975,1.182,1.412,1.818c0.048,0.071,0.093,0.145,0.14,0.216
		c0.15,0.225,0.297,0.452,0.438,0.684l0.551,2.407C26.709,57.799,26.694,57.797,26.679,57.795z M27.666,54
		c-0.068-0.106-0.142-0.207-0.211-0.312c-0.11-0.167-0.22-0.333-0.335-0.495c-0.129-0.184-0.263-0.365-0.397-0.545
		c-0.115-0.154-0.23-0.309-0.349-0.459c-0.144-0.182-0.294-0.359-0.443-0.536c-0.118-0.14-0.234-0.281-0.356-0.417
		c-0.164-0.184-0.334-0.362-0.503-0.54c-0.116-0.121-0.229-0.245-0.347-0.364c-0.194-0.194-0.394-0.38-0.595-0.566
		c-0.102-0.094-0.2-0.193-0.304-0.285c-0.296-0.264-0.598-0.519-0.907-0.766c-0.013-0.01-0.024-0.021-0.037-0.031
		c-0.323-0.256-0.654-0.503-0.99-0.74c-0.105-0.074-0.214-0.141-0.32-0.213c-0.234-0.159-0.469-0.317-0.709-0.467
		c-0.134-0.083-0.272-0.161-0.409-0.241c-0.218-0.129-0.435-0.258-0.657-0.379c-0.149-0.082-0.302-0.157-0.453-0.235
		c-0.215-0.11-0.429-0.221-0.648-0.324c-0.159-0.075-0.32-0.145-0.481-0.217c-0.216-0.096-0.432-0.19-0.651-0.279
		c-0.167-0.068-0.336-0.131-0.505-0.194c-0.218-0.082-0.436-0.161-0.657-0.236c-0.172-0.058-0.346-0.114-0.52-0.168
		c-0.223-0.069-0.447-0.135-0.672-0.197c-0.174-0.048-0.349-0.094-0.525-0.138c-0.231-0.057-0.464-0.11-0.697-0.159
		c-0.173-0.037-0.346-0.073-0.52-0.106c-0.243-0.045-0.487-0.084-0.732-0.121c-0.168-0.025-0.335-0.052-0.504-0.073
		c-0.07-0.009-0.138-0.022-0.208-0.03v-1.177c0-0.308-0.035-0.612-0.086-0.914l1.638,0.819C13.722,42.966,13.874,43,14.024,43
		c0.367,0,0.72-0.202,0.896-0.553c0.247-0.494,0.047-1.095-0.447-1.342L12.262,40l2.211-1.105c0.494-0.247,0.694-0.848,0.447-1.342
		c-0.248-0.494-0.848-0.692-1.342-0.447l-3.118,1.559c-0.037-0.076-0.074-0.153-0.11-0.229c-0.263-0.552-0.52-1.126-0.766-1.73
		C16.385,34.926,20.677,34,29.011,34c7.487,0,14.926,0.785,21.593,2.275c-0.134,0.342-0.271,0.675-0.41,1.001
		c-0.016,0.038-0.032,0.077-0.049,0.115c-0.113,0.262-0.229,0.516-0.346,0.767c-0.079,0.168-0.158,0.334-0.239,0.498l-3.102-1.551
		c-0.494-0.245-1.094-0.047-1.342,0.447c-0.247,0.494-0.047,1.095,0.447,1.342L47.774,40l-2.211,1.105
		c-0.494,0.247-0.694,0.848-0.447,1.342C45.292,42.798,45.645,43,46.012,43c0.15,0,0.303-0.034,0.446-0.105l1.632-0.816
		c-0.048,0.301-0.081,0.607-0.079,0.922l-0.001,1.166c-0.071,0.008-0.14,0.022-0.211,0.031c-0.164,0.021-0.326,0.046-0.488,0.071
		c-0.252,0.038-0.504,0.078-0.753,0.125c-0.165,0.031-0.329,0.066-0.492,0.1c-0.245,0.052-0.488,0.107-0.73,0.167
		c-0.165,0.041-0.328,0.084-0.492,0.129c-0.238,0.065-0.474,0.134-0.709,0.207c-0.163,0.051-0.325,0.103-0.486,0.157
		c-0.233,0.079-0.464,0.162-0.693,0.249c-0.158,0.059-0.315,0.119-0.472,0.182c-0.23,0.093-0.456,0.192-0.683,0.292
		c-0.151,0.067-0.303,0.133-0.453,0.204c-0.229,0.108-0.453,0.223-0.678,0.339c-0.142,0.073-0.285,0.144-0.425,0.22
		c-0.232,0.126-0.46,0.261-0.687,0.396c-0.127,0.075-0.256,0.147-0.381,0.225c-0.25,0.156-0.495,0.32-0.738,0.486
		c-0.097,0.066-0.196,0.127-0.292,0.195c-0.338,0.238-0.67,0.485-0.994,0.742c-0.006,0.005-0.012,0.011-0.019,0.016
		c-0.315,0.251-0.623,0.512-0.925,0.781c-0.106,0.094-0.206,0.194-0.31,0.291c-0.198,0.184-0.396,0.368-0.588,0.559
		c-0.121,0.121-0.237,0.248-0.355,0.373c-0.167,0.175-0.334,0.35-0.495,0.531c-0.123,0.138-0.241,0.281-0.361,0.423
		c-0.148,0.175-0.296,0.35-0.438,0.531c-0.12,0.152-0.236,0.308-0.353,0.464c-0.087,0.116-0.178,0.228-0.263,0.345
		c-0.046,0.063-0.087,0.131-0.132,0.195c-0.115,0.164-0.225,0.33-0.336,0.497c-0.069,0.105-0.143,0.206-0.211,0.312H27.666z
		 M2.008,30c0-3.715,0.734-7.26,2.053-10.507c0.288,7.627,2.05,15.15,4.884,20.621c0.202,0.394,0.409,0.775,0.62,1.14
		c0.302,0.525,0.462,1.125,0.461,1.746v1.001v2.005v3.582C5.071,44.534,2.008,37.62,2.008,30z M30.008,58
		c-0.4,0-0.797-0.014-1.193-0.03L28.363,56h2.88h0.478l-0.502,1.969C30.817,57.987,30.414,58,30.008,58z M50.011,46.006v-2.005
		v-1.054c-0.003-0.602,0.155-1.196,0.458-1.722c0.126-0.22,0.246-0.453,0.369-0.681c0.022-0.033,0.049-0.061,0.068-0.098
		c0.009-0.018,0.007-0.037,0.015-0.054c2.92-5.493,4.742-13.141,5.035-20.9c1.32,3.247,2.053,6.792,2.053,10.507
		c0,7.609-3.055,14.515-7.997,19.566V46.006z"/>
</g>
<g>
</g>
<g>
</g>
<g>
</g>
<g>
</g>
<g>
</g>
<g>
</g>
<g>
</g>
<g>
</g>
<g>
</g>
<g>
</g>
<g>
</g>
<g>
</g>
<g>
</g>
<g>
</g>
<g>
</g>
</svg>
