<?xml version="1.0" encoding="iso-8859-1"?>
<!-- Generator: Adobe Illustrator 18.0.0, SVG Export Plug-In . SVG Version: 6.00 Build 0)  -->
<!DOCTYPE svg PUBLIC "-//W3C//DTD SVG 1.1//EN" "http://www.w3.org/Graphics/SVG/1.1/DTD/svg11.dtd">
<svg version="1.1" id="Capa_1" xmlns="http://www.w3.org/2000/svg" xmlns:xlink="http://www.w3.org/1999/xlink" x="0px" y="0px"
	 viewBox="0 0 56.892 56.892" style="enable-background:new 0 0 56.892 56.892;" xml:space="preserve">
<g>
	<circle cx="7" cy="35.415" r="1"/>
	<circle cx="11" cy="35.415" r="1"/>
	<circle cx="7" cy="39.415" r="1"/>
	<circle cx="9" cy="37.415" r="1"/>
	<circle cx="11" cy="39.415" r="1"/>
	<circle cx="13" cy="41.415" r="1"/>
	<path d="M56.362,17.414c-0.567-1.151-1.498-2.022-2.612-2.506l1.375-1.374c1.168-1.17,1.168-3.073,0-4.243L55.124,9.29
		c-1.171-1.168-3.074-1.167-4.243,0.001l-3,3l-3-3c-1.129-1.129-3.113-1.129-4.242,0c-0.565,0.565-0.877,1.318-0.877,2.121
		c0,0.804,0.312,1.557,0.877,2.122l0.943,0.943h-9.545c1.59-1.066,2.932-2.66,2.932-5v-1H16.136c-1.879,0-3.722,0.32-5.475,0.953
		C4.284,11.73,0,17.832,0,24.613v11.823c0,6.64,5.401,12.041,12.041,12.041h18.428c2.481,0,4.5-2.019,4.5-4.5v-1
		c0-1.13-0.418-2.163-1.108-2.954c1.87-0.776,3.108-2.477,3.108-4.546c0-1.292-0.482-2.471-1.274-3.358
		c1.749-0.68,3.059-2.254,3.249-4.131c0.126-1.255-0.229-2.511-0.98-3.511h6.033h7h1.097c1.463,0,2.847-0.708,3.796-1.941
		C57.032,21.052,57.209,19.137,56.362,17.414z M52.295,10.706c0.391-0.391,1.027-0.388,1.414-0.001
		c0.391,0.39,0.391,1.025,0.001,1.415l-2.358,2.357h-0.355h-1.241c-0.008-0.018-0.019-0.034-0.026-0.052
		c-0.024-0.055-0.054-0.106-0.081-0.159c-0.047-0.092-0.097-0.183-0.154-0.269c-0.034-0.053-0.072-0.102-0.11-0.152
		c-0.033-0.044-0.06-0.091-0.096-0.133L52.295,10.706z M42.053,10.705c0.391-0.391,1.023-0.391,1.414,0l3,3l0.772,0.772H44.41
		l-2.357-2.357C41.663,11.729,41.663,11.096,42.053,10.705z M34.969,22.477h-1H22c-0.553,0-1,0.447-1,1s0.447,1,1,1h11.969
		c0.842,0,1.652,0.362,2.224,0.993c0.577,0.639,0.848,1.461,0.761,2.316c-0.152,1.509-1.546,2.69-3.173,2.69h-0.812h-0.903H23
		c-0.553,0-1,0.447-1,1c0,0.553,0.447,1,1,1h9.065c1.601,0,2.903,1.346,2.903,3c0,1.767-1.424,3-3.462,3h-0.538h-0.5H25
		c-0.553,0-1,0.447-1,1s0.447,1,1,1h5.469c1.379,0,2.5,1.121,2.5,2.5v1c0,1.379-1.121,2.5-2.5,2.5H12.041
		C6.504,46.477,2,41.973,2,36.436V24.613c0-5.94,3.753-11.286,9.339-13.302c1.536-0.554,3.149-0.834,4.797-0.834h16.686
		c-0.891,2.912-5.542,3.882-6.172,4H18c-0.553,0-1,0.447-1,1c0,0.553,0.447,1,1,1h8.738h1.23h15.613h0.414v6H34.969z M45.996,22.477
		v-6h2.072l0.928,0.001v5.999H45.996z M54.305,21.315L54.305,21.315c-0.568,0.738-1.375,1.162-2.212,1.162h-1.097v-5.997
		l0.746,0.001c1.433,0.024,2.398,0.948,2.825,1.815C55.07,19.32,54.973,20.448,54.305,21.315z"/>
	<path d="M30,17.477c-0.553,0-1,0.447-1,1v2c0,0.553,0.447,1,1,1s1-0.447,1-1v-2C31,17.925,30.553,17.477,30,17.477z"/>
	<path d="M33,17.477c-0.553,0-1,0.447-1,1v2c0,0.553,0.447,1,1,1s1-0.447,1-1v-2C34,17.925,33.553,17.477,33,17.477z"/>
</g>
<g>
</g>
<g>
</g>
<g>
</g>
<g>
</g>
<g>
</g>
<g>
</g>
<g>
</g>
<g>
</g>
<g>
</g>
<g>
</g>
<g>
</g>
<g>
</g>
<g>
</g>
<g>
</g>
<g>
</g>
</svg>
