<?xml version="1.0" encoding="iso-8859-1"?>
<!-- Generator: Adobe Illustrator 18.0.0, SVG Export Plug-In . SVG Version: 6.00 Build 0)  -->
<!DOCTYPE svg PUBLIC "-//W3C//DTD SVG 1.1//EN" "http://www.w3.org/Graphics/SVG/1.1/DTD/svg11.dtd">
<svg version="1.1" id="Capa_1" xmlns="http://www.w3.org/2000/svg" xmlns:xlink="http://www.w3.org/1999/xlink" x="0px" y="0px"
	 viewBox="0 0 60 60" style="enable-background:new 0 0 60 60;" xml:space="preserve">
<g>
	<circle cx="7" cy="37" r="1"/>
	<circle cx="11" cy="37" r="1"/>
	<circle cx="7" cy="41" r="1"/>
	<circle cx="9" cy="39" r="1"/>
	<circle cx="11" cy="41" r="1"/>
	<circle cx="13" cy="43" r="1"/>
	<path d="M48.691,16H32.037c1.59-1.066,2.932-2.66,2.932-5v-1H16.136c-1.879,0-3.722,0.32-5.475,0.953
		C4.284,13.253,0,19.354,0,26.136v11.823C0,44.599,5.401,50,12.041,50h18.428c2.481,0,4.5-2.019,4.5-4.5v-1
		c0-1.13-0.418-2.163-1.108-2.954c1.87-0.776,3.108-2.477,3.108-4.546c0-1.292-0.482-2.471-1.274-3.358
		c1.749-0.68,3.059-2.254,3.249-4.131C39.069,28.256,38.715,27,37.963,26h11.134c1.463,0,2.847-0.708,3.796-1.941
		c1.144-1.484,1.32-3.399,0.474-5.122C52.475,17.125,50.684,16,48.691,16z M51.309,22.838L51.309,22.838
		C50.74,23.576,49.934,24,49.097,24H34.969h-1H22c-0.553,0-1,0.447-1,1s0.447,1,1,1h11.969c0.842,0,1.652,0.362,2.224,0.993
		c0.577,0.639,0.848,1.461,0.761,2.316C36.801,30.818,35.407,32,33.78,32h-0.812h-0.903H23c-0.553,0-1,0.447-1,1s0.447,1,1,1h9.065
		c1.601,0,2.903,1.346,2.903,3c0,1.767-1.424,3-3.462,3h-0.538h-0.5H25c-0.553,0-1,0.447-1,1s0.447,1,1,1h5.469
		c1.379,0,2.5,1.121,2.5,2.5v1c0,1.379-1.121,2.5-2.5,2.5H12.041C6.504,48,2,43.496,2,37.959V26.136
		c0-5.94,3.753-11.286,9.339-13.302C12.875,12.28,14.488,12,16.136,12h16.686c-0.891,2.912-5.542,3.882-6.172,4H18
		c-0.553,0-1,0.447-1,1s0.447,1,1,1h8.738h1.23h20.723c1.464,0,2.447,0.94,2.88,1.819C52.074,20.843,51.977,21.971,51.309,22.838z"
		/>
	<path d="M30,19c-0.553,0-1,0.447-1,1v2c0,0.553,0.447,1,1,1s1-0.447,1-1v-2C31,19.447,30.553,19,30,19z"/>
	<path d="M33,19c-0.553,0-1,0.447-1,1v2c0,0.553,0.447,1,1,1s1-0.447,1-1v-2C34,19.447,33.553,19,33,19z"/>
	<path d="M55.031,18c0.256,0,0.512-0.098,0.707-0.293l2-2c0.391-0.391,0.391-1.023,0-1.414s-1.023-0.391-1.414,0l-2,2
		c-0.391,0.391-0.391,1.023,0,1.414C54.52,17.902,54.775,18,55.031,18z"/>
	<path d="M55.738,24.293c-0.391-0.391-1.023-0.391-1.414,0s-0.391,1.023,0,1.414l2,2C56.52,27.902,56.775,28,57.031,28
		s0.512-0.098,0.707-0.293c0.391-0.391,0.391-1.023,0-1.414L55.738,24.293z"/>
	<path d="M51.031,15c0.553,0,1-0.447,1-1v-2c0-0.553-0.447-1-1-1s-1,0.447-1,1v2C50.031,14.553,50.479,15,51.031,15z"/>
	<path d="M52.031,27c-0.553,0-1,0.447-1,1v2c0,0.553,0.447,1,1,1s1-0.447,1-1v-2C53.031,27.447,52.584,27,52.031,27z"/>
	<path d="M59,20h-2c-0.553,0-1,0.447-1,1s0.447,1,1,1h2c0.553,0,1-0.447,1-1S59.553,20,59,20z"/>
	<rect x="45" y="19" width="2" height="4"/>
</g>
<g>
</g>
<g>
</g>
<g>
</g>
<g>
</g>
<g>
</g>
<g>
</g>
<g>
</g>
<g>
</g>
<g>
</g>
<g>
</g>
<g>
</g>
<g>
</g>
<g>
</g>
<g>
</g>
<g>
</g>
</svg>
