<?xml version="1.0" encoding="iso-8859-1"?>
<!-- Generator: Adobe Illustrator 18.0.0, SVG Export Plug-In . SVG Version: 6.00 Build 0)  -->
<!DOCTYPE svg PUBLIC "-//W3C//DTD SVG 1.1//EN" "http://www.w3.org/Graphics/SVG/1.1/DTD/svg11.dtd">
<svg version="1.1" id="Capa_1" xmlns="http://www.w3.org/2000/svg" xmlns:xlink="http://www.w3.org/1999/xlink" x="0px" y="0px"
	 viewBox="0 0 60 60" style="enable-background:new 0 0 60 60;" xml:space="preserve">
<g>
	<path d="M25,21.992c1.771,0,3.541-0.563,5-1.681c1.459,1.118,3.229,1.681,5,1.681c2.062,0,4.125-0.758,5.694-2.272
		c0.397-0.384,0.409-1.017,0.025-1.414c-0.383-0.396-1.017-0.409-1.414-0.025c-2.374,2.291-6.237,2.291-8.611,0
		c-0.047-0.046-0.107-0.068-0.16-0.102c-0.053-0.034-0.101-0.078-0.158-0.101c-0.064-0.026-0.13-0.03-0.197-0.042
		c-0.06-0.011-0.118-0.031-0.179-0.031c-0.061,0-0.119,0.02-0.179,0.031c-0.067,0.012-0.133,0.016-0.197,0.042
		c-0.057,0.023-0.105,0.067-0.159,0.101c-0.053,0.034-0.112,0.056-0.16,0.102c-2.374,2.291-6.237,2.291-8.611,0
		c-0.396-0.384-1.03-0.371-1.414,0.025c-0.383,0.397-0.372,1.03,0.025,1.414C20.875,21.234,22.938,21.992,25,21.992z"/>
	<path d="M36.19,28.413C35.448,29.437,34.493,30,33.5,30s-1.948-0.563-2.69-1.587c-0.031-0.043-0.076-0.067-0.112-0.103
		c-0.038-0.039-0.064-0.086-0.11-0.119c-0.012-0.009-0.027-0.01-0.039-0.018c-0.059-0.039-0.123-0.06-0.188-0.086
		c-0.057-0.022-0.11-0.051-0.169-0.062c-0.065-0.013-0.13-0.007-0.196-0.007c-0.062,0-0.122-0.005-0.182,0.006
		c-0.062,0.012-0.118,0.041-0.177,0.065c-0.063,0.025-0.125,0.046-0.183,0.083c-0.013,0.008-0.028,0.009-0.04,0.018
		c-0.046,0.033-0.072,0.081-0.11,0.12c-0.036,0.036-0.081,0.06-0.112,0.103C28.448,29.437,27.493,30,26.5,30
		s-1.948-0.563-2.69-1.587c-0.325-0.446-0.949-0.548-1.397-0.223c-0.447,0.324-0.546,0.949-0.222,1.396
		C23.319,31.144,24.85,32,26.5,32c1.285,0,2.494-0.525,3.5-1.489C31.006,31.475,32.215,32,33.5,32c1.65,0,3.181-0.856,4.31-2.413
		c0.324-0.447,0.225-1.072-0.222-1.396S36.515,27.967,36.19,28.413z"/>
	<path d="M60,30c0-7.085-2.474-13.6-6.597-18.738l0.006-0.03l-0.303-0.365c-3.104-3.745-7.005-6.615-11.351-8.466
		c-0.041-0.017-0.081-0.036-0.121-0.053c-0.357-0.15-0.718-0.291-1.081-0.427c-0.134-0.05-0.267-0.102-0.402-0.15
		c-0.312-0.112-0.626-0.218-0.942-0.319c-0.194-0.063-0.389-0.124-0.585-0.183c-0.279-0.083-0.558-0.164-0.839-0.239
		c-0.241-0.065-0.483-0.125-0.726-0.184c-0.252-0.061-0.504-0.121-0.759-0.176c-0.278-0.06-0.559-0.112-0.84-0.164
		c-0.229-0.042-0.458-0.086-0.689-0.123c-0.313-0.05-0.63-0.091-0.947-0.131c-0.206-0.026-0.412-0.057-0.619-0.079
		c-0.358-0.038-0.72-0.064-1.082-0.09c-0.171-0.012-0.341-0.03-0.512-0.039C31.077,0.016,30.541,0,30,0s-1.077,0.016-1.611,0.044
		c-0.171,0.009-0.341,0.027-0.512,0.039c-0.362,0.025-0.724,0.051-1.082,0.09c-0.207,0.022-0.413,0.053-0.619,0.079
		c-0.317,0.04-0.633,0.081-0.947,0.131c-0.231,0.037-0.46,0.081-0.689,0.123c-0.281,0.052-0.562,0.104-0.84,0.164
		c-0.254,0.054-0.506,0.115-0.759,0.176c-0.243,0.059-0.485,0.119-0.726,0.184c-0.281,0.075-0.561,0.155-0.839,0.239
		c-0.196,0.059-0.391,0.12-0.585,0.183c-0.316,0.102-0.63,0.207-0.942,0.319c-0.135,0.049-0.268,0.1-0.401,0.15
		c-0.363,0.136-0.725,0.277-1.082,0.427c-0.04,0.017-0.079,0.035-0.119,0.052C13.9,4.252,9.998,7.122,6.893,10.867l-0.142,0.198
		C2.534,16.233,0,22.825,0,30c0,7.858,3.041,15.016,8.002,20.37v0.02l0.276,0.289c0.092,0.097,0.192,0.184,0.285,0.279
		c0.294,0.301,0.596,0.594,0.902,0.883c0.249,0.235,0.502,0.464,0.758,0.689c0.301,0.265,0.606,0.525,0.917,0.778
		c0.227,0.184,0.456,0.364,0.688,0.541c0.276,0.211,0.558,0.415,0.841,0.616c0.345,0.245,0.694,0.482,1.048,0.712
		c0.308,0.2,0.617,0.397,0.932,0.585c0.253,0.151,0.508,0.297,0.766,0.441c0.314,0.175,0.632,0.343,0.952,0.507
		c0.259,0.133,0.517,0.267,0.781,0.392c0.463,0.22,0.932,0.427,1.407,0.624c0.218,0.09,0.439,0.175,0.659,0.26
		c0.417,0.161,0.84,0.313,1.266,0.456c0.165,0.055,0.328,0.115,0.494,0.168c0.584,0.185,1.177,0.35,1.776,0.499
		c0.054,0.013,0.106,0.032,0.16,0.045c0.024,0.006,0.048,0.004,0.072,0.009C25.236,59.705,27.583,60,30,60
		c2.42,0,4.771-0.296,7.027-0.839c0.023-0.004,0.046-0.003,0.069-0.008c0.052-0.013,0.102-0.03,0.154-0.043
		c0.6-0.15,1.194-0.315,1.78-0.5c0.166-0.052,0.33-0.112,0.495-0.168c0.426-0.143,0.848-0.295,1.265-0.456
		c0.221-0.085,0.441-0.17,0.659-0.26c0.477-0.198,0.948-0.406,1.413-0.627c0.265-0.126,0.525-0.261,0.786-0.395
		c0.314-0.161,0.627-0.326,0.934-0.498c0.261-0.146,0.521-0.294,0.778-0.448c0.305-0.182,0.603-0.373,0.9-0.566
		c0.373-0.241,0.74-0.491,1.102-0.749c0.269-0.192,0.537-0.385,0.8-0.586c0.24-0.183,0.478-0.369,0.713-0.56
		c0.293-0.238,0.58-0.484,0.864-0.733c0.286-0.251,0.567-0.507,0.845-0.769c0.285-0.269,0.566-0.542,0.84-0.822
		c0.1-0.102,0.206-0.195,0.305-0.298l0.275-0.29v-0.02C56.961,45.011,60,37.855,60,30z M49.833,49.744
		c-0.165,0.166-0.337,0.325-0.506,0.486c-0.383,0.366-0.776,0.722-1.179,1.066c-0.144,0.123-0.286,0.248-0.431,0.367
		c-0.245,0.2-0.495,0.394-0.746,0.587c-0.143,0.109-0.287,0.218-0.432,0.324c-0.262,0.192-0.526,0.382-0.794,0.565
		c-0.128,0.087-0.258,0.171-0.388,0.256c-0.911,0.6-1.86,1.148-2.841,1.641c-0.176,0.088-0.351,0.178-0.529,0.263
		c-0.258,0.123-0.52,0.239-0.782,0.354c-0.219,0.096-0.44,0.189-0.661,0.279c-0.241,0.098-0.483,0.196-0.727,0.287
		c-0.283,0.106-0.569,0.204-0.855,0.301c-0.154,0.052-0.307,0.107-0.463,0.157c3.449-4.171,7.527-6.826,11.505-7.478v0.366
		C49.946,49.625,49.891,49.686,49.833,49.744z M27,39v-2h6v2H27z M21,42.5c0,2.72-0.898,5.362-2.545,7.528
		c-2.584-1.535-5.475-2.514-8.452-2.861V41h10.901C20.968,41.51,21,42.012,21,42.5z M20.981,56.501
		c-0.262-0.089-0.524-0.179-0.782-0.276c-0.256-0.096-0.51-0.198-0.762-0.301c-0.209-0.085-0.418-0.174-0.625-0.264
		c-0.27-0.118-0.54-0.238-0.806-0.365c-0.169-0.08-0.336-0.167-0.504-0.25c-0.986-0.494-1.939-1.043-2.854-1.646
		c-0.132-0.087-0.264-0.171-0.394-0.26c-0.265-0.181-0.526-0.369-0.785-0.559c-0.15-0.11-0.298-0.222-0.446-0.335
		c-0.247-0.189-0.492-0.379-0.732-0.575c-0.157-0.129-0.31-0.263-0.465-0.395c-0.369-0.316-0.729-0.641-1.082-0.975
		c-0.195-0.185-0.392-0.368-0.582-0.559c-0.055-0.055-0.106-0.113-0.16-0.168v-0.373c5.146,0.828,9.222,4.75,11.497,7.478
		C21.325,56.621,21.154,56.56,20.981,56.501z M22.589,39l-0.001-0.008L10,38.989V37h15v2H22.589z M9.355,15.494
		C10.687,16.448,12.294,17,14,17c0.552,0,1-0.447,1-1s-0.448-1-1-1c-2.185,0-4.176-1.176-5.237-3.078
		c-0.008-0.038-0.012-0.077-0.02-0.116c2.511-2.93,5.61-5.341,9.121-7.036c0.004-0.002,0.008-0.004,0.012-0.006
		c0.363-0.175,0.732-0.34,1.104-0.5c0.077-0.033,0.153-0.067,0.23-0.099c0.324-0.136,0.652-0.264,0.983-0.388
		c0.132-0.049,0.263-0.098,0.396-0.145c0.292-0.105,0.586-0.204,0.883-0.299c0.178-0.057,0.357-0.111,0.537-0.164
		c0.264-0.079,0.529-0.155,0.796-0.226c0.219-0.058,0.439-0.111,0.659-0.163c0.238-0.057,0.477-0.115,0.717-0.166
		c0.256-0.054,0.515-0.101,0.773-0.148c0.213-0.039,0.425-0.08,0.64-0.115c0.292-0.046,0.586-0.083,0.879-0.12
		c0.19-0.024,0.378-0.052,0.569-0.072c0.335-0.035,0.673-0.059,1.01-0.082c0.154-0.011,0.306-0.027,0.46-0.035
		C29.005,2.014,29.502,2,30,2s0.995,0.014,1.489,0.04c0.154,0.008,0.307,0.025,0.461,0.035c0.337,0.023,0.675,0.047,1.01,0.082
		c0.191,0.02,0.38,0.049,0.57,0.073c0.293,0.037,0.587,0.073,0.878,0.12c0.215,0.034,0.428,0.076,0.641,0.115
		c0.258,0.047,0.516,0.094,0.772,0.148c0.241,0.051,0.48,0.109,0.719,0.166c0.22,0.053,0.439,0.105,0.657,0.163
		c0.268,0.071,0.533,0.148,0.797,0.227c0.179,0.053,0.357,0.107,0.535,0.164c0.297,0.095,0.592,0.195,0.885,0.3
		c0.131,0.047,0.262,0.095,0.393,0.144c0.331,0.124,0.66,0.253,0.985,0.389c0.076,0.032,0.152,0.065,0.228,0.098
		c0.373,0.16,0.742,0.325,1.106,0.501c0.003,0.001,0.005,0.003,0.008,0.004c3.511,1.695,6.611,4.107,9.123,7.037
		c-0.008,0.039-0.013,0.078-0.02,0.117C50.175,13.824,48.184,15,46,15c-0.552,0-1,0.447-1,1s0.448,1,1,1
		c1.705,0,3.312-0.552,4.644-1.505C50.223,18.507,50,21.549,50,24.584V35h-7.382l2.276-4.553c0.247-0.494,0.047-1.095-0.447-1.342
		c-0.496-0.246-1.095-0.046-1.342,0.447L40.382,35H35H25h-5.382l-2.724-5.447c-0.247-0.493-0.846-0.693-1.342-0.447
		c-0.494,0.247-0.694,0.848-0.447,1.342L17.382,35H10V24.584C10,21.553,9.777,18.515,9.355,15.494z M35,37h15v2l-12.589-0.003
		L37.41,39H35V37z M39.096,41h10.907v6.167c-2.979,0.348-5.871,1.327-8.457,2.863C39.899,47.864,39,45.221,39,42.5
		C39,42.013,39.032,41.51,39.096,41z M52.003,47.286v-0.285V39H52v-2v-2V24.584c0-3.548,0.317-7.108,0.916-10.644
		C56.114,18.49,58,24.027,58,30C58,36.52,55.754,42.522,52.003,47.286z M7.085,13.939C7.681,17.454,8,21.023,8,24.584V35v2v4h0.002
		v6.001v0.292C4.248,42.527,2,36.523,2,30C2,24.027,3.886,18.49,7.085,13.939z M24.521,57.458c-0.043-0.144-0.105-0.283-0.198-0.41
		c-1.466-2.016-3.076-3.759-4.77-5.207C21.773,49.223,23,45.917,23,42.5c0-0.49-0.034-0.993-0.089-1.5H25h4v6c0,0.553,0.448,1,1,1
		s1-0.447,1-1v-6h4h2.089C37.035,41.508,37,42.01,37,42.5c0,3.419,1.227,6.727,3.449,9.344c-1.693,1.447-3.302,3.189-4.767,5.203
		c-0.092,0.127-0.154,0.267-0.197,0.41C33.711,57.811,31.877,58,30,58C28.125,58,26.294,57.811,24.521,57.458z"/>
</g>
<g>
</g>
<g>
</g>
<g>
</g>
<g>
</g>
<g>
</g>
<g>
</g>
<g>
</g>
<g>
</g>
<g>
</g>
<g>
</g>
<g>
</g>
<g>
</g>
<g>
</g>
<g>
</g>
<g>
</g>
</svg>
