<?xml version="1.0" encoding="iso-8859-1"?>
<!-- Generator: Adobe Illustrator 18.0.0, SVG Export Plug-In . SVG Version: 6.00 Build 0)  -->
<!DOCTYPE svg PUBLIC "-//W3C//DTD SVG 1.1//EN" "http://www.w3.org/Graphics/SVG/1.1/DTD/svg11.dtd">
<svg version="1.1" id="Capa_1" xmlns="http://www.w3.org/2000/svg" xmlns:xlink="http://www.w3.org/1999/xlink" x="0px" y="0px"
	 viewBox="0 0 60 60" style="enable-background:new 0 0 60 60;" xml:space="preserve">
<g>
	<circle cx="54" cy="40" r="1"/>
	<circle cx="56" cy="31" r="1"/>
	<circle cx="35.231" cy="39.949" r="1"/>
	<circle cx="38.231" cy="50.949" r="1"/>
	<circle cx="6" cy="39" r="1"/>
	<circle cx="4.231" cy="31.949" r="1"/>
	<path d="M27.731,43.949c-2.481,0-4.5,2.019-4.5,4.5s2.019,4.5,4.5,4.5s4.5-2.019,4.5-4.5S30.213,43.949,27.731,43.949z
		 M27.731,50.949c-1.379,0-2.5-1.121-2.5-2.5s1.121-2.5,2.5-2.5s2.5,1.121,2.5,2.5S29.11,50.949,27.731,50.949z"/>
	<path d="M59.966,31.374C59.986,30.918,60,30.461,60,30c0-0.635-0.027-1.263-0.066-1.888c-0.009-0.141-0.02-0.283-0.037-0.494
		c-0.001-0.009-0.002-0.017-0.003-0.026c-0.036-0.45-0.082-0.896-0.137-1.34c-0.002-0.015-0.003-0.03-0.005-0.046l-0.058-0.46
		c-0.002-0.015-0.006-0.03-0.008-0.046c-0.171-1.183-0.411-2.343-0.715-3.478c-0.009-0.034-0.015-0.069-0.025-0.103l-0.086-0.302
		c-0.032-0.113-0.068-0.229-0.102-0.342c-0.069-0.231-0.139-0.462-0.213-0.69c-0.066-0.206-0.132-0.411-0.208-0.633l-0.035-0.105
		c-0.016-0.044-0.036-0.089-0.052-0.133c-0.197-0.55-0.406-1.095-0.634-1.63c-0.02-0.047-0.044-0.095-0.064-0.142
		c-0.21-0.485-0.433-0.963-0.668-1.435c-0.04-0.081-0.071-0.16-0.112-0.241l-0.339-0.643l-0.002,0
		c-1.063-1.973-2.344-3.81-3.804-5.489l0.004-0.029l-0.311-0.346c-1.295-1.442-2.722-2.735-4.247-3.886
		c-0.062-0.047-0.123-0.095-0.185-0.142c-0.275-0.204-0.555-0.401-0.837-0.596c-0.15-0.104-0.3-0.209-0.452-0.31
		c-0.223-0.148-0.448-0.291-0.674-0.433c-0.226-0.142-0.454-0.283-0.684-0.419c-0.172-0.101-0.345-0.2-0.518-0.298
		c-0.297-0.168-0.598-0.331-0.901-0.49c-0.122-0.064-0.245-0.127-0.368-0.189c-0.366-0.184-0.736-0.36-1.11-0.53
		c-0.073-0.033-0.145-0.066-0.217-0.098c-0.43-0.191-0.865-0.371-1.305-0.542c-0.026-0.01-0.052-0.021-0.078-0.031
		c-2.833-1.091-5.869-1.767-9.037-1.946c-0.043-0.002-0.085-0.007-0.128-0.01C31.057,0.015,30.53,0,30,0
		c-5.34,0-10.354,1.409-14.702,3.864c-0.027,0.015-0.053,0.031-0.079,0.046c-0.384,0.219-0.763,0.444-1.137,0.679
		c-0.114,0.071-0.226,0.145-0.339,0.218c-0.278,0.18-0.553,0.363-0.825,0.552c-0.185,0.128-0.368,0.259-0.55,0.392
		c-0.189,0.138-0.376,0.277-0.562,0.419c-0.242,0.184-0.481,0.372-0.718,0.564c-0.115,0.094-0.229,0.189-0.343,0.284
		c-0.285,0.238-0.567,0.481-0.843,0.731C9.847,7.798,9.792,7.85,9.736,7.901c-0.317,0.291-0.63,0.587-0.935,0.892
		c-0.005,0.005-0.01,0.01-0.015,0.015C8.528,9.066,8.269,9.323,8.02,9.591L7.692,9.942l0.003,0.021
		c-1.129,1.255-2.15,2.609-3.057,4.041l-0.024-0.009L4.179,14.73c-0.094,0.159-0.176,0.324-0.267,0.485
		c-0.158,0.278-0.313,0.558-0.463,0.842c-0.052,0.1-0.112,0.197-0.163,0.297l-0.081,0.158c-0.038,0.076-0.07,0.155-0.107,0.23
		c-0.202,0.408-0.394,0.822-0.577,1.24c-0.045,0.102-0.094,0.202-0.138,0.304c-0.222,0.521-0.427,1.05-0.619,1.586
		c-0.015,0.041-0.033,0.082-0.048,0.123l-0.068,0.2c-0.032,0.093-0.058,0.19-0.089,0.283c-0.122,0.362-0.237,0.727-0.345,1.095
		c-0.018,0.062-0.04,0.122-0.058,0.184l-0.096,0.34c-0.009,0.033-0.015,0.068-0.024,0.102c-0.307,1.14-0.55,2.305-0.721,3.493
		c-0.002,0.012-0.005,0.024-0.006,0.036l-0.059,0.465c-0.003,0.027-0.006,0.055-0.009,0.082c-0.057,0.461-0.104,0.924-0.14,1.391
		c-0.001,0.012-0.002,0.021-0.003,0.033l-0.033,0.433c0,0.005,0,0.01,0,0.015C0.025,28.76,0,29.377,0,30
		c0,0.461,0.014,0.918,0.034,1.376l0.001,0.026c0.073,1.588,0.269,3.146,0.581,4.661c1.802,8.795,7.444,16.14,15.055,20.287
		c0.023,0.013,0.046,0.026,0.069,0.038c0.386,0.209,0.777,0.409,1.172,0.601c0.049,0.024,0.098,0.049,0.148,0.072
		c0.371,0.177,0.746,0.346,1.124,0.509c0.075,0.032,0.149,0.066,0.225,0.097c0.355,0.149,0.714,0.289,1.076,0.425
		c0.1,0.038,0.199,0.077,0.3,0.113c0.341,0.124,0.686,0.239,1.033,0.35c0.122,0.039,0.243,0.081,0.366,0.119
		c0.328,0.101,0.66,0.193,0.993,0.283c0.143,0.039,0.286,0.081,0.43,0.117c0.318,0.081,0.639,0.152,0.96,0.222
		c0.161,0.035,0.32,0.074,0.482,0.107c0.313,0.063,0.629,0.116,0.946,0.169c0.172,0.029,0.343,0.063,0.516,0.089
		c0.316,0.048,0.636,0.084,0.955,0.122c0.175,0.021,0.349,0.047,0.525,0.064c0.342,0.034,0.687,0.056,1.032,0.079
		c0.155,0.01,0.309,0.026,0.464,0.034C28.988,59.987,29.492,60,30,60s1.012-0.013,1.514-0.038c0.156-0.008,0.309-0.024,0.464-0.034
		c0.345-0.022,0.69-0.044,1.032-0.079c0.176-0.018,0.35-0.044,0.525-0.064c0.319-0.038,0.639-0.074,0.955-0.122
		c0.173-0.026,0.344-0.06,0.516-0.089c0.316-0.053,0.633-0.106,0.946-0.169c0.162-0.033,0.321-0.072,0.482-0.107
		c0.321-0.07,0.643-0.141,0.96-0.222c0.144-0.037,0.286-0.078,0.43-0.117c0.333-0.09,0.664-0.182,0.993-0.283
		c0.123-0.038,0.244-0.079,0.366-0.119c0.347-0.111,0.692-0.226,1.033-0.35c0.1-0.036,0.199-0.076,0.299-0.113
		c0.362-0.136,0.721-0.276,1.077-0.425c0.075-0.031,0.149-0.065,0.223-0.097c0.379-0.163,0.754-0.332,1.125-0.509
		c0.049-0.024,0.098-0.048,0.148-0.072c0.396-0.192,0.786-0.392,1.172-0.601c0.024-0.013,0.047-0.026,0.071-0.039
		c7.609-4.146,13.251-11.49,15.053-20.284c0.313-1.517,0.508-3.077,0.581-4.667L59.966,31.374z M57.967,31.298l-0.014,0.279
		c-0.002,0.037-0.006,0.072-0.008,0.109c-0.026,0.429-0.059,0.857-0.103,1.28c-0.003,0.032-0.009,0.063-0.012,0.096
		c-0.046,0.423-0.099,0.843-0.164,1.26c-0.028,0.178-0.064,0.354-0.095,0.531c-0.046,0.265-0.089,0.532-0.143,0.795
		c-1.681,8.176-6.937,15.062-14.057,18.948c-0.02,0.011-0.04,0.022-0.06,0.033c-0.36,0.196-0.726,0.382-1.096,0.562
		c-0.046,0.022-0.092,0.046-0.138,0.068c-0.346,0.166-0.696,0.323-1.049,0.475c-0.07,0.03-0.139,0.061-0.209,0.091
		c-0.332,0.14-0.668,0.271-1.006,0.397c-0.093,0.035-0.184,0.071-0.277,0.105c-0.318,0.116-0.64,0.223-0.963,0.327
		c-0.115,0.037-0.228,0.076-0.343,0.112c-0.307,0.094-0.617,0.18-0.928,0.264c-0.133,0.036-0.265,0.075-0.398,0.109
		c-0.298,0.076-0.599,0.142-0.901,0.208c-0.149,0.033-0.296,0.069-0.445,0.099c-0.291,0.059-0.585,0.108-0.879,0.157
		c-0.162,0.027-0.323,0.059-0.486,0.084c-0.292,0.044-0.588,0.078-0.883,0.113c-0.166,0.02-0.331,0.044-0.497,0.061
		c-0.314,0.031-0.632,0.052-0.949,0.073c-0.15,0.01-0.298,0.025-0.448,0.033C30.944,57.988,30.474,58,30,58
		s-0.944-0.012-1.412-0.036c-0.15-0.007-0.299-0.023-0.448-0.033c-0.317-0.021-0.635-0.041-0.949-0.073
		c-0.167-0.017-0.331-0.041-0.497-0.061c-0.295-0.035-0.591-0.068-0.883-0.113c-0.163-0.025-0.325-0.056-0.487-0.084
		c-0.294-0.05-0.588-0.099-0.878-0.157c-0.15-0.03-0.298-0.067-0.447-0.099c-0.301-0.066-0.602-0.133-0.9-0.208
		c-0.134-0.034-0.266-0.073-0.398-0.109c-0.311-0.084-0.621-0.169-0.928-0.264c-0.115-0.035-0.229-0.075-0.343-0.112
		c-0.323-0.104-0.645-0.211-0.963-0.327c-0.093-0.034-0.185-0.07-0.277-0.105c-0.338-0.127-0.675-0.258-1.007-0.398
		c-0.07-0.029-0.138-0.06-0.207-0.09c-0.354-0.152-0.704-0.31-1.05-0.476c-0.046-0.022-0.092-0.045-0.138-0.068
		c-0.37-0.18-0.736-0.366-1.096-0.562c-0.02-0.011-0.04-0.022-0.06-0.033C9.51,50.71,4.254,43.823,2.573,35.647
		c-0.054-0.263-0.097-0.529-0.143-0.795c-0.031-0.177-0.067-0.353-0.095-0.531c-0.064-0.417-0.118-0.837-0.164-1.26
		c-0.004-0.032-0.009-0.063-0.012-0.096c-0.045-0.424-0.078-0.851-0.103-1.28c-0.002-0.036-0.006-0.072-0.008-0.109l-0.014-0.275
		C2.013,30.87,2,30.437,2,30c0-0.585,0.023-1.164,0.059-1.739c0.004-0.063,0.01-0.126,0.014-0.189l0.024-0.308
		c0.034-0.435,0.079-0.867,0.133-1.299c0.02-0.156,0.037-0.313,0.06-0.468c0.159-1.112,0.389-2.219,0.68-3.294
		c0.051-0.188,0.105-0.375,0.16-0.562c0.101-0.344,0.209-0.683,0.32-1.018c0.065-0.195,0.129-0.391,0.198-0.584
		c0.178-0.494,0.369-0.986,0.576-1.473c0.04-0.093,0.084-0.184,0.125-0.277c0.17-0.388,0.349-0.772,0.536-1.152
		c0.075-0.151,0.154-0.301,0.231-0.45c0.131,0.885,0.26,1.775,0.391,2.667c1.312,9.018,2.669,18.343,6.155,26.763l0.119,0.289
		c0.865,2.108,2.314,5.637,4.837,5.637h0.203l0.187-0.079c2.314-0.979,3.181-3.201,3.813-4.823c0.427-1.095,0.807-2.21,1.174-3.288
		c0.928-2.723,1.804-5.295,3.383-7.604c1.198-1.752,4.428-5.56,8.556-3.101c2.755,1.641,3.619,4.952,4.455,8.155
		c0.238,0.914,0.485,1.858,0.771,2.74c1.211,3.729,2.784,7.574,5.269,7.829c1.31,0.131,2.516-0.751,3.587-2.63
		c1.96-3.435,2.8-7.261,3.612-10.96l0.469-2.107c0.944-4.214,2.872-12.818,3.935-16.971c0.044,0.112,0.09,0.223,0.133,0.336
		c0.071,0.185,0.141,0.371,0.209,0.561c0.097,0.271,0.189,0.545,0.278,0.82c0.066,0.205,0.132,0.421,0.196,0.639
		c0.066,0.224,0.131,0.448,0.192,0.674c0.284,1.056,0.511,2.15,0.67,3.252c0.026,0.179,0.046,0.359,0.069,0.539
		c0.051,0.413,0.093,0.833,0.133,1.332c0.002,0.022,0.003,0.044,0.005,0.066l0.026,0.339C57.977,28.838,58,29.415,58,30
		C58,30.435,57.987,30.868,57.967,31.298z M10.172,10.25c0.034-0.034,0.069-0.068,0.104-0.103c0.279-0.278,0.564-0.55,0.855-0.816
		c0.058-0.052,0.116-0.104,0.174-0.156c0.267-0.24,0.538-0.476,0.814-0.705c0.111-0.092,0.224-0.181,0.336-0.271
		c0.227-0.183,0.454-0.364,0.687-0.54c0.205-0.154,0.414-0.303,0.623-0.452c0.145-0.104,0.289-0.209,0.436-0.31
		C18.823,3.743,24.338,2,30,2c3.884,0,7.687,0.813,11.181,2.336c0.017,0.007,0.033,0.015,0.05,0.022
		c0.398,0.174,0.791,0.359,1.18,0.552c0.093,0.046,0.184,0.095,0.276,0.142c0.305,0.155,0.608,0.315,0.908,0.482
		c0.16,0.089,0.318,0.182,0.476,0.274c0.222,0.129,0.443,0.26,0.661,0.396c0.216,0.134,0.43,0.272,0.642,0.412
		c0.151,0.099,0.301,0.199,0.45,0.302c0.26,0.179,0.518,0.362,0.772,0.55c0.092,0.067,0.182,0.135,0.273,0.204
		c0.296,0.224,0.588,0.452,0.874,0.687c0.041,0.034,0.082,0.068,0.123,0.102c0.938,0.779,1.821,1.62,2.65,2.513
		c-0.516,3.481-1.365,6.961-2.188,10.33c-0.325,1.329-0.643,2.629-0.929,3.889l-0.259,1.148c-0.694,3.109-1.413,6.325-3.016,9.09
		c-0.613,1.058-1.128,1.394-1.371,1.379c-0.304-0.031-1.422-0.527-3.094-5.592c-0.238-0.722-0.441-1.488-0.657-2.3
		c-0.804-3.032-1.715-6.469-4.844-8.304c-3.456-2.022-7.348-0.769-10.157,3.275c-1.555,2.239-2.416,4.726-3.248,7.13
		c-0.322,0.93-0.655,1.891-1.021,2.815c-0.556,1.403-1.074,2.532-2.154,3.09c-0.949-0.283-2.033-2.879-2.403-3.765l-0.108-0.26
		c-2.95-7.008-4.187-15.084-5.252-22.275C9.935,10.5,10.051,10.372,10.172,10.25z M13.224,33.675l0.106,0.255
		c0.784,1.877,2.096,5.02,4.414,5.02h0.2l0.185-0.077c2.109-0.878,2.893-2.857,3.464-4.302c0.383-0.965,0.723-1.947,1.052-2.897
		c0.824-2.381,1.604-4.63,3.001-6.644c1.052-1.515,3.891-4.807,7.503-2.69c2.418,1.418,3.183,4.302,3.923,7.091
		c0.213,0.805,0.434,1.636,0.69,2.414c1.092,3.307,2.515,6.719,4.787,6.954c1.195,0.127,2.324-0.67,3.308-2.364
		c1.757-3.031,2.51-6.4,3.237-9.658l0.256-1.141c0.285-1.249,0.6-2.539,0.922-3.857c0.701-2.868,1.41-5.816,1.936-8.803
		c0.961,1.251,1.819,2.584,2.561,3.988c-0.658,1.719-1.734,6.377-4.625,19.275l-0.47,2.116c-0.78,3.553-1.587,7.228-3.396,10.397
		c-0.608,1.065-1.247,1.67-1.646,1.632c-0.458-0.047-1.723-0.771-3.57-6.457c-0.269-0.826-0.497-1.701-0.738-2.628
		c-0.895-3.426-1.908-7.309-5.367-9.369c-3.817-2.274-8.122-0.859-11.229,3.69c-1.733,2.535-2.695,5.358-3.625,8.088
		c-0.361,1.059-0.733,2.153-1.145,3.207c-0.64,1.642-1.238,2.961-2.511,3.607c-1.135-0.283-2.346-3.231-2.815-4.375l-0.121-0.295
		c-3.392-8.188-4.729-17.389-6.024-26.285c-0.182-1.252-0.363-2.499-0.55-3.741c-0.042-0.263-0.168-0.509-0.387-0.751
		c-0.041-0.046-0.098-0.08-0.142-0.123c0.521-0.814,1.082-1.599,1.682-2.353C9.122,19.47,10.408,26.985,13.224,33.675z"/>
</g>
<g>
</g>
<g>
</g>
<g>
</g>
<g>
</g>
<g>
</g>
<g>
</g>
<g>
</g>
<g>
</g>
<g>
</g>
<g>
</g>
<g>
</g>
<g>
</g>
<g>
</g>
<g>
</g>
<g>
</g>
</svg>
