<?xml version="1.0" encoding="iso-8859-1"?>
<!-- Generator: Adobe Illustrator 18.0.0, SVG Export Plug-In . SVG Version: 6.00 Build 0)  -->
<!DOCTYPE svg PUBLIC "-//W3C//DTD SVG 1.1//EN" "http://www.w3.org/Graphics/SVG/1.1/DTD/svg11.dtd">
<svg version="1.1" id="Capa_1" xmlns="http://www.w3.org/2000/svg" xmlns:xlink="http://www.w3.org/1999/xlink" x="0px" y="0px"
	 viewBox="0 0 60 60" style="enable-background:new 0 0 60 60;" xml:space="preserve">
<g>
	<path d="M55.989,18.077c-0.004-2.54-0.258-5.035-0.89-7.424c-0.47-1.776-1.474-3.502-2.9-5.083L52.2,5.556l-0.172-0.179
		c-1.024-1.1-2.25-2.128-3.671-3.042c-0.051-0.032-0.105-0.06-0.156-0.092c-0.007-0.005-0.011-0.012-0.018-0.017
		c-0.084-0.052-0.173-0.096-0.258-0.146c-0.182-0.107-0.364-0.214-0.551-0.313c-0.048-0.026-0.094-0.056-0.143-0.081
		c-0.014-0.007-0.03-0.006-0.045-0.013c-1.243-0.634-2.599-1.089-4.025-1.363c-0.012-0.003-0.021-0.011-0.032-0.013
		c-0.047-0.009-0.094-0.014-0.141-0.022c-0.208-0.038-0.419-0.068-0.629-0.098c-0.099-0.014-0.197-0.034-0.296-0.046
		c-0.008-0.001-0.014,0.002-0.022,0.002c-3.025-0.372-6.288,0.041-9.384,1.256c-0.011,0.004-0.023,0.002-0.034,0.006l-0.233,0.096
		c-0.026,0.01-0.052,0.019-0.078,0.03l-0.195,0.083c-0.094,0.041-0.187,0.082-0.281,0.115l0,0c-0.039,0.014-0.068,0.025-0.106,0.038
		L31.73,1.756c-0.002,0.001-0.004,0.003-0.006,0.004c-0.405,0.143-0.735,0.268-1,0.371c-0.888,0.344-0.935,0.353-2.291-0.046l0,0
		l-0.059-0.017c-0.033-0.01-0.057-0.017-0.092-0.027c-3.065-0.904-6.72-1.8-10.094-1.721c-0.002,0-0.003-0.001-0.005-0.001
		c-0.018,0-0.036,0.002-0.054,0.003c-0.305,0.008-0.607,0.025-0.907,0.05c-0.038,0.003-0.078,0.003-0.116,0.006
		c-0.007,0.001-0.012,0.005-0.019,0.006c-1.006,0.093-1.979,0.282-2.891,0.605c-0.421,0.149-0.837,0.332-1.249,0.531
		c-0.025,0.01-0.052,0.008-0.076,0.019c-0.334,0.162-0.658,0.336-0.97,0.521c-0.045,0.027-0.073,0.069-0.112,0.101
		C10.677,2.852,9.633,3.733,8.7,4.797C8.657,4.834,8.606,4.859,8.568,4.904L8.253,5.278l0.001,0.04
		C5.872,8.308,4.374,12.59,4.73,18.004C2.118,18.025,0,20.152,0,22.768v32.463C0,57.861,2.139,60,4.769,60h50.462
		C57.861,60,60,57.861,60,55.231V22.768C60,20.398,58.258,18.443,55.989,18.077z M9.116,7.486c0.068,0.015,0.133,0.039,0.204,0.039
		c0.029,0,0.059-0.001,0.089-0.004c0.55-0.049,0.957-0.534,0.908-1.084c-0.014-0.16-0.025-0.318-0.034-0.478
		c0.859-0.964,1.884-1.788,3.091-2.422c0.108-0.057,0.213-0.12,0.324-0.174c0.373-0.18,0.759-0.346,1.165-0.49
		c0.807-0.286,1.694-0.446,2.623-0.514c0.113-0.008,0.228-0.013,0.342-0.019c0.249-0.012,0.497-0.024,0.751-0.024
		c2.9,0,6.077,0.763,8.614,1.491l0.69,0.2c0.005,0.001,0.009,0.001,0.014,0.002c1.818,0.53,2.171,0.521,3.551-0.016
		c0.273-0.105,0.608-0.235,1.046-0.388c0.093-0.032,0.186-0.073,0.278-0.112c0.046-0.019,0.093-0.036,0.14-0.056l0.21-0.087
		c2.998-1.23,6.167-1.611,9.047-1.183c0.138,0.02,0.276,0.04,0.413,0.064c1.711,0.304,3.311,0.894,4.693,1.782
		c1.076,0.692,2.021,1.452,2.838,2.254c0.007,0.007,0.009,0.016,0.016,0.023c0.008,0.007,0.015,0.015,0.022,0.021
		c-0.001,0.013-0.003,0.024-0.004,0.037c-0.045,0.551,0.364,1.033,0.915,1.079c0.028,0.002,0.056,0.003,0.083,0.003
		c0.011,0,0.021-0.006,0.032-0.006c0.969,1.191,1.649,2.454,1.988,3.736c2.083,7.872-0.17,17.232-2.158,25.492
		c-0.365,1.52-0.724,3.006-1.046,4.445l-0.288,1.303c-0.78,3.553-1.587,7.228-3.396,10.396c-0.608,1.064-1.229,1.664-1.647,1.632
		c-0.458-0.047-1.724-0.771-3.569-6.456c-0.268-0.826-0.497-1.701-0.738-2.628c-0.895-3.426-1.908-7.309-5.368-9.369
		c-3.817-2.273-8.119-0.859-11.23,3.69c-1.732,2.534-2.694,5.356-3.624,8.085c-0.361,1.06-0.734,2.154-1.145,3.209
		c-0.64,1.642-1.239,2.961-2.511,3.608c-1.135-0.283-2.346-3.233-2.816-4.378l-0.12-0.292c-3.391-8.187-4.729-17.384-6.023-26.278
		c-0.183-1.255-0.364-2.504-0.551-3.742c0,0,0-0.001,0-0.001l0,0c-0.049-0.324-0.083-0.652-0.117-0.982L6.772,18.44
		C6.456,14.619,7.135,10.589,9.116,7.486z M58,55.231C58,56.758,56.758,58,55.231,58H4.769C3.242,58,2,56.758,2,55.231V22.768
		C2,21.242,3.242,20,4.769,20h0.163c0.008,0.06,0.017,0.12,0.026,0.18h0c0.186,1.236,0.367,2.481,0.549,3.732
		c1.312,9.016,2.668,18.339,6.155,26.756l0.117,0.285c0.866,2.109,2.315,5.641,4.839,5.641h0.203l0.187-0.079
		c2.314-0.98,3.18-3.202,3.812-4.824c0.427-1.095,0.807-2.211,1.175-3.29c0.927-2.722,1.803-5.293,3.382-7.602
		c1.197-1.752,4.427-5.561,8.555-3.101c2.756,1.641,3.62,4.953,4.457,8.156c0.238,0.913,0.485,1.857,0.771,2.739
		c1.21,3.728,2.782,7.573,5.267,7.828c1.297,0.134,2.516-0.751,3.588-2.63c1.96-3.434,2.8-7.26,3.612-10.959l0.286-1.294
		c0.32-1.43,0.676-2.906,1.039-4.415c1.304-5.419,2.714-11.3,2.992-17.019C57.124,20.421,58,21.49,58,22.768V55.231z"/>
	<circle cx="53.231" cy="50" r="1"/>
	<circle cx="56.231" cy="40" r="1"/>
	<circle cx="35.231" cy="44" r="1"/>
	<circle cx="38.231" cy="55" r="1"/>
	<circle cx="6.231" cy="52" r="1"/>
	<circle cx="4.231" cy="36" r="1"/>
	<path d="M27.731,48c-2.481,0-4.5,2.019-4.5,4.5s2.019,4.5,4.5,4.5s4.5-2.019,4.5-4.5S30.212,48,27.731,48z M27.731,55
		c-1.378,0-2.5-1.121-2.5-2.5s1.122-2.5,2.5-2.5s2.5,1.121,2.5,2.5S29.109,55,27.731,55z"/>
	<path d="M34.771,24.554c0.065,0,0.13-0.006,0.197-0.02c0.348-0.069,0.693-0.146,1.035-0.23c0.536-0.133,0.863-0.676,0.73-1.212
		c-0.134-0.537-0.68-0.86-1.211-0.729c-0.312,0.077-0.627,0.147-0.945,0.211c-0.542,0.107-0.893,0.635-0.785,1.176
		C33.886,24.224,34.303,24.554,34.771,24.554z"/>
	<path d="M39.589,23.01c0.138,0,0.278-0.028,0.411-0.089c0.324-0.146,0.643-0.3,0.957-0.46c0.492-0.252,0.687-0.854,0.435-1.346
		s-0.854-0.686-1.345-0.436c-0.286,0.146-0.576,0.286-0.87,0.419c-0.503,0.228-0.727,0.819-0.5,1.323
		C38.844,22.791,39.208,23.01,39.589,23.01z"/>
	<path d="M49.609,12.344c0.121,0.048,0.245,0.07,0.368,0.07c0.398,0,0.774-0.239,0.93-0.632c0.131-0.331,0.253-0.667,0.365-1.006
		c0.174-0.524-0.11-1.09-0.635-1.264c-0.525-0.171-1.091,0.11-1.264,0.635c-0.101,0.304-0.209,0.603-0.326,0.898
		C48.845,11.559,49.096,12.14,49.609,12.344z"/>
	<path d="M47.481,16.806c0.301,0,0.599-0.135,0.796-0.393c0.216-0.283,0.425-0.572,0.625-0.865c0.312-0.456,0.195-1.078-0.261-1.39
		c-0.457-0.312-1.078-0.195-1.39,0.261c-0.181,0.264-0.369,0.523-0.564,0.779c-0.335,0.438-0.251,1.066,0.187,1.402
		C47.057,16.739,47.27,16.806,47.481,16.806z"/>
	<path d="M43.92,20.396c0.215,0,0.432-0.069,0.615-0.212c0.281-0.22,0.556-0.445,0.823-0.677c0.417-0.361,0.463-0.993,0.101-1.41
		c-0.361-0.418-0.992-0.464-1.411-0.102c-0.242,0.21-0.491,0.414-0.745,0.612c-0.435,0.34-0.512,0.969-0.172,1.403
		C43.329,20.264,43.623,20.396,43.92,20.396z"/>
	<path d="M29.709,24.994C29.883,24.998,30.057,25,30.231,25c0.18,0,0.359-0.002,0.538-0.006c0.552-0.013,0.989-0.471,0.977-1.022
		c-0.013-0.553-0.48-0.993-1.022-0.978c-0.32,0.009-0.645,0.009-0.967,0c-0.55-0.016-1.01,0.425-1.023,0.977
		C28.72,24.522,29.157,24.98,29.709,24.994z"/>
	<path d="M11.571,15.571c0.201,0.293,0.409,0.581,0.625,0.863c0.197,0.257,0.494,0.392,0.794,0.392c0.212,0,0.426-0.067,0.608-0.206
		c0.438-0.336,0.521-0.964,0.185-1.402c-0.194-0.253-0.382-0.512-0.562-0.775c-0.312-0.456-0.935-0.572-1.39-0.261
		C11.376,14.493,11.259,15.115,11.571,15.571z"/>
	<path d="M9.561,11.806c0.155,0.393,0.532,0.632,0.93,0.632c0.122,0,0.247-0.022,0.368-0.07c0.514-0.203,0.765-0.784,0.562-1.298
		c-0.118-0.297-0.227-0.597-0.328-0.9c-0.174-0.524-0.74-0.806-1.265-0.634c-0.524,0.175-0.807,0.741-0.633,1.265
		C9.307,11.139,9.429,11.474,9.561,11.806z"/>
	<path d="M19.522,22.47c0.314,0.159,0.632,0.313,0.955,0.458c0.133,0.061,0.273,0.089,0.411,0.089c0.381,0,0.745-0.219,0.912-0.588
		c0.228-0.504,0.004-1.096-0.5-1.323c-0.295-0.134-0.586-0.273-0.873-0.419c-0.493-0.253-1.095-0.053-1.344,0.439
		C18.833,21.618,19.03,22.22,19.522,22.47z"/>
	<path d="M24.479,24.309c0.34,0.083,0.683,0.159,1.03,0.229c0.067,0.014,0.134,0.02,0.199,0.02c0.466,0,0.883-0.327,0.979-0.802
		c0.11-0.541-0.24-1.069-0.782-1.179c-0.319-0.064-0.636-0.135-0.95-0.212c-0.536-0.134-1.079,0.196-1.209,0.733
		C23.615,23.636,23.943,24.178,24.479,24.309z"/>
	<path d="M15.94,20.196c0.183,0.144,0.4,0.213,0.616,0.213c0.297,0,0.591-0.132,0.788-0.384c0.34-0.435,0.264-1.063-0.171-1.403
		c-0.255-0.2-0.504-0.404-0.748-0.613c-0.419-0.361-1.05-0.313-1.41,0.105c-0.36,0.419-0.313,1.05,0.105,1.41
		C15.387,19.755,15.661,19.978,15.94,20.196z"/>
</g>
<g>
</g>
<g>
</g>
<g>
</g>
<g>
</g>
<g>
</g>
<g>
</g>
<g>
</g>
<g>
</g>
<g>
</g>
<g>
</g>
<g>
</g>
<g>
</g>
<g>
</g>
<g>
</g>
<g>
</g>
</svg>
