<?xml version="1.0" encoding="iso-8859-1"?>
<!-- Generator: Adobe Illustrator 18.0.0, SVG Export Plug-In . SVG Version: 6.00 Build 0)  -->
<!DOCTYPE svg PUBLIC "-//W3C//DTD SVG 1.1//EN" "http://www.w3.org/Graphics/SVG/1.1/DTD/svg11.dtd">
<svg version="1.1" id="Capa_1" xmlns="http://www.w3.org/2000/svg" xmlns:xlink="http://www.w3.org/1999/xlink" x="0px" y="0px"
	 viewBox="0 0 59.995 59.995" style="enable-background:new 0 0 59.995 59.995;" xml:space="preserve">
<path d="M58.485,15.94l-2.338-2.338l0.132-0.132c0.391-0.391,0.391-1.023,0-1.414L52.792,8.57l0.971-0.971
	c0.391-0.391,0.391-1.023,0-1.414s-1.023-0.391-1.414,0l-0.971,0.971L47.89,3.667c-0.391-0.391-1.023-0.391-1.414,0l-0.132,0.132
	l-2.337-2.337c-1.95-1.95-5.123-1.948-7.071,0l-1.055,1.055c-1.949,1.949-1.949,5.122,0,7.071l2.337,2.337l-0.132,0.132
	c-0.188,0.188-0.293,0.442-0.293,0.707c0,0.266,0.105,0.52,0.293,0.708l3.488,3.488l-3.907,3.907l-2.378-0.549
	c-1.098-0.254-2.226,0.071-3.021,0.867L5.271,48.18c0,0.001-0.001,0.001-0.001,0.001l-3.856,3.856
	c-0.881,0.88-1.366,2.051-1.366,3.297c0,1.246,0.485,2.417,1.366,3.297c0.909,0.909,2.104,1.363,3.297,1.363
	c1.194,0,2.389-0.455,3.298-1.363l33.325-33.326c0.588-0.588,0.812-1.45,0.582-2.25c-0.229-0.799-0.875-1.412-1.686-1.599
	l-0.266-0.061l3.024-3.023l3.488,3.488c0.195,0.195,0.451,0.293,0.707,0.293s0.512-0.098,0.707-0.292l0.132-0.132l2.337,2.337
	c0.975,0.975,2.255,1.462,3.535,1.462c1.281,0,2.562-0.487,3.536-1.462l1.055-1.055C60.435,21.062,60.435,17.89,58.485,15.94z
	 M13.443,50.369l-2.354-5.179l2.375-2.375l2.354,5.179L13.443,50.369z M9.557,54.255l-2.354-5.179l2.375-2.375l2.354,5.179
	L9.557,54.255z M6.595,57.218c-1.038,1.037-2.727,1.039-3.767,0c-0.503-0.503-0.78-1.172-0.78-1.883s0.277-1.38,0.78-1.883
	l2.865-2.865l2.354,5.179L6.595,57.218z M39.92,23.892L17.329,46.484l-2.354-5.179l18.706-18.706
	c0.236-0.237,0.551-0.365,0.876-0.365c0.094,0,0.188,0.011,0.282,0.033l4.942,1.141c0.137,0.031,0.19,0.126,0.212,0.201
	C40.015,23.683,40.02,23.792,39.92,23.892z M37.295,3.931l1.055-1.055c1.169-1.168,3.072-1.169,4.243,0l3.044,3.044v0l0.132,0.132
	l-5.297,5.298l-0.132-0.132v0l-3.045-3.044C36.126,7.004,36.126,5.101,37.295,3.931z M41.179,13.471l6.711-6.712
	c0.045-0.045,0.085-0.093,0.119-0.144l5.322,5.322c-0.051,0.035-0.099,0.075-0.144,0.12l-6.712,6.712
	c-0.045,0.044-0.085,0.093-0.119,0.144l-5.322-5.322C41.086,13.556,41.134,13.516,41.179,13.471z M57.071,21.597l-1.055,1.055
	c-1.17,1.168-3.073,1.17-4.243,0l-3.041-3.041c-0.001-0.001-0.002-0.003-0.003-0.004l-0.132-0.132l5.297-5.297l0.132,0.132v0
	l3.045,3.044C58.24,18.524,58.24,20.427,57.071,21.597z"/>
<g>
</g>
<g>
</g>
<g>
</g>
<g>
</g>
<g>
</g>
<g>
</g>
<g>
</g>
<g>
</g>
<g>
</g>
<g>
</g>
<g>
</g>
<g>
</g>
<g>
</g>
<g>
</g>
<g>
</g>
</svg>
