<?xml version="1.0" encoding="iso-8859-1"?>
<!-- Generator: Adobe Illustrator 18.0.0, SVG Export Plug-In . SVG Version: 6.00 Build 0)  -->
<!DOCTYPE svg PUBLIC "-//W3C//DTD SVG 1.1//EN" "http://www.w3.org/Graphics/SVG/1.1/DTD/svg11.dtd">
<svg version="1.1" id="Capa_1" xmlns="http://www.w3.org/2000/svg" xmlns:xlink="http://www.w3.org/1999/xlink" x="0px" y="0px"
	 viewBox="0 0 60 60" style="enable-background:new 0 0 60 60;" xml:space="preserve">
<path d="M59.282,36.504c0.014-0.063,0.03-0.125,0.043-0.188c0.141-0.654,0.261-1.315,0.358-1.984
	c0.011-0.078,0.019-0.155,0.03-0.233c0.077-0.56,0.137-1.125,0.182-1.694c0.013-0.156,0.026-0.312,0.036-0.469
	C59.972,31.295,60,30.651,60,30c0-0.484-0.013-0.966-0.037-1.447c-0.009-0.198-0.027-0.393-0.04-0.59
	c-0.019-0.276-0.037-0.552-0.063-0.826c-0.024-0.249-0.055-0.496-0.085-0.743c-0.026-0.216-0.052-0.432-0.082-0.647
	c-0.039-0.276-0.085-0.551-0.132-0.824c-0.031-0.18-0.062-0.36-0.097-0.539c-0.056-0.294-0.116-0.586-0.181-0.877
	c-0.035-0.155-0.071-0.31-0.108-0.465c-0.073-0.304-0.149-0.607-0.23-0.908c-0.038-0.139-0.078-0.277-0.118-0.415
	c-0.089-0.309-0.18-0.617-0.278-0.922c-0.042-0.13-0.088-0.259-0.132-0.388c-0.104-0.307-0.209-0.614-0.322-0.917
	c-0.05-0.132-0.104-0.263-0.156-0.395c-0.116-0.295-0.23-0.59-0.355-0.881c-0.074-0.174-0.157-0.345-0.235-0.518
	c-0.11-0.244-0.216-0.489-0.333-0.729c-0.203-0.419-0.416-0.834-0.638-1.244c-0.02-0.037-0.042-0.073-0.062-0.109
	c-0.21-0.384-0.429-0.764-0.656-1.14c-0.022-0.036-0.046-0.072-0.068-0.108c-0.229-0.374-0.465-0.743-0.711-1.108
	c-0.019-0.029-0.04-0.057-0.06-0.086c-0.25-0.368-0.508-0.731-0.774-1.088c-0.02-0.026-0.04-0.052-0.059-0.078
	c-0.268-0.356-0.543-0.707-0.827-1.052c-0.021-0.026-0.043-0.051-0.065-0.077c-0.184-0.222-0.366-0.446-0.557-0.664l-0.385-0.438
	L52.14,9.779C46.65,3.774,38.758,0,30,0C22.039,0,14.798,3.123,9.422,8.2L9.396,8.178L8.742,8.833
	C3.857,13.738,0.878,20.038,0.169,26.83c-0.004,0.04-0.01,0.079-0.015,0.119c-0.042,0.421-0.072,0.845-0.097,1.27
	c-0.005,0.086-0.014,0.17-0.019,0.256C0.013,28.981,0,29.489,0,30c0,0.525,0.014,1.048,0.041,1.566
	c0.012,0.235,0.036,0.469,0.054,0.703c0.021,0.281,0.038,0.563,0.067,0.842c0.029,0.277,0.069,0.552,0.105,0.827
	c0.031,0.233,0.057,0.468,0.093,0.7c0.043,0.279,0.098,0.555,0.149,0.832c0.042,0.229,0.081,0.458,0.129,0.685
	c0.055,0.262,0.119,0.521,0.181,0.781c0.058,0.243,0.114,0.486,0.177,0.726c0.063,0.238,0.133,0.474,0.202,0.711
	c0.076,0.262,0.153,0.524,0.236,0.784c0.069,0.215,0.144,0.429,0.218,0.642c0.096,0.278,0.195,0.555,0.299,0.829
	c0.077,0.202,0.157,0.402,0.238,0.602c0.111,0.274,0.226,0.547,0.345,0.817c0.047,0.108,0.088,0.217,0.137,0.325l0.287,0.632
	l0.009-0.001C7.82,53.052,18.114,60,30,60c13.372,0,24.725-8.796,28.587-20.905l0.01-0.001l0.188-0.639
	c0.018-0.06,0.029-0.121,0.046-0.181C58.998,37.691,59.149,37.101,59.282,36.504z M57.945,31.681
	c-0.009,0.146-0.022,0.291-0.033,0.437c-0.033,0.435-0.075,0.87-0.128,1.303c-0.016,0.134-0.033,0.268-0.051,0.401
	c-0.073,0.526-0.157,1.05-0.259,1.572c-0.005,0.024-0.008,0.048-0.013,0.071c-0.115,0.58-0.25,1.157-0.402,1.73
	c-0.004,0.013-0.008,0.026-0.011,0.039c-3.316,0.143-6.619-1.324-8.23-3.713c-2.253-3.342-2.109-8.997-1.225-13.175l0.022-0.106
	c0.432-2.043,1.571-7.431,3.803-8.246c0.038,0.045,0.078,0.088,0.115,0.133c0.424,0.51,0.824,1.036,1.208,1.571
	c0.103,0.144,0.207,0.287,0.307,0.432c0.381,0.553,0.742,1.118,1.082,1.695c0.075,0.127,0.147,0.255,0.22,0.383
	c0.349,0.615,0.679,1.24,0.979,1.878c0.035,0.073,0.067,0.148,0.101,0.222c0.648,1.406,1.181,2.863,1.587,4.358
	c0.009,0.034,0.02,0.067,0.029,0.101c0.195,0.729,0.357,1.467,0.493,2.211c0.016,0.087,0.032,0.175,0.047,0.263
	c0.125,0.724,0.223,1.455,0.29,2.19c0.009,0.1,0.015,0.202,0.023,0.302C57.961,28.483,58,29.24,58,30
	C58,30.561,57.979,31.121,57.945,31.681z M50.035,10.468c-2.75,1.702-3.834,6.788-4.377,9.357l-0.022,0.106
	c-0.443,2.093-0.702,4.537-0.609,6.944c-0.524-1.495-1.171-2.979-2.153-4.219c-1.408-1.777-3.991-3.753-6.337-3.893
	c-0.656-0.041-1.34,0.018-2.12,0.174l-0.524-2.479l2.393-0.479c0.541-0.108,0.893-0.635,0.784-1.177
	c-0.107-0.541-0.629-0.9-1.177-0.784l-2.413,0.483l-0.625-2.96l2.459-0.568c0.538-0.124,0.874-0.661,0.75-1.199
	c-0.125-0.538-0.661-0.873-1.199-0.75l-2.423,0.559L31.473,5h-5.621l-1.355,6.418l-2.632,0.607c-0.538,0.124-0.874,0.661-0.75,1.199
	C21.222,13.688,21.633,14,22.088,14c0.074,0,0.15-0.008,0.226-0.025l1.727-0.398l-0.62,2.938l-2.527,0.505
	c-0.541,0.108-0.893,0.635-0.784,1.177C20.203,18.672,20.621,19,21.088,19c0.064,0,0.131-0.006,0.197-0.02l1.685-0.337l-0.383,1.814
	c-1.407-0.072-2.83-0.044-4.086,0.35c-1.829,0.576-3.03,2.548-3.845,4.684c0.022-0.387,0.042-0.773,0.083-1.176l0.009-0.088
	l-0.007-0.089c-0.282-3.799-0.793-6.91-1.559-9.51c-0.708-2.404-1.415-3.959-2.31-5.051C15.882,4.884,22.609,2,30,2
	C37.847,2,44.946,5.249,50.035,10.468z M30.236,46.805c-0.817-0.402-6.588-3.414-6.588-8.043c0-0.553-0.447-1-1-1s-1,0.447-1,1
	c0,4.193,3.391,7.149,5.72,8.689c-0.061,0.025-0.118,0.051-0.185,0.074c-3.763,1.304-8.69-0.186-10.758-3.253
	c-2.253-3.342-2.11-8.997-1.225-13.175l0.022-0.107c0.437-2.066,1.597-7.555,3.88-8.273c0.703-0.222,1.525-0.295,2.385-0.295
	c0.224,0,0.453,0.005,0.682,0.014l-0.283,1.339c-0.265,1.255,0.038,2.551,0.83,3.557c0.792,1.005,1.98,1.602,3.261,1.637
	c1.703,0.046,3.676,0.047,5.376-0.005c1.279-0.039,2.467-0.638,3.257-1.643c0.789-1.005,1.09-2.298,0.826-3.55l-0.607-2.879
	c0.599-0.117,1.108-0.16,1.589-0.131c1.637,0.098,3.739,1.689,4.887,3.139c1.026,1.294,1.658,3.02,2.189,4.691
	c0.751,2.365,2.974,10.463,0.028,15.337c-1.132,1.874-2.867,2.996-5.304,3.431c-1.749,0.311-3.364,0.343-5.077,0.096
	c-0.383-0.055-0.879-0.183-1.357-0.308C31.262,47.01,30.731,46.881,30.236,46.805z M3.253,38.289
	c-0.08-0.256-0.149-0.517-0.221-0.777c-0.05-0.18-0.106-0.359-0.153-0.541c-0.097-0.377-0.182-0.758-0.264-1.141
	c-0.015-0.068-0.033-0.135-0.047-0.204c-0.084-0.41-0.156-0.824-0.222-1.241c-0.007-0.045-0.017-0.089-0.024-0.135
	c-0.063-0.415-0.115-0.833-0.16-1.253c-0.005-0.049-0.013-0.097-0.018-0.146c-0.041-0.401-0.069-0.805-0.092-1.21
	c-0.004-0.07-0.012-0.14-0.016-0.21C2.012,30.957,2,30.48,2,30c0-0.468,0.013-0.933,0.035-1.395
	c0.006-0.115,0.017-0.228,0.024-0.343c0.022-0.353,0.046-0.706,0.08-1.055c0.01-0.105,0.025-0.21,0.037-0.315
	c0.041-0.364,0.084-0.728,0.139-1.088c0.011-0.073,0.024-0.146,0.036-0.219c0.064-0.399,0.133-0.797,0.213-1.191
	c0.006-0.029,0.012-0.057,0.018-0.085c1.051-5.071,3.48-9.641,6.874-13.308c0.658,0.872,1.214,2.175,1.809,4.193
	c0.72,2.443,1.202,5.39,1.476,9.006c-0.238,2.385-0.152,4.544,0.257,6.423L13,30.821c0.017,2.092-1.78,6.625-4.203,8.361
	c-1.288,0.922-2.829,1.497-4.589,1.713C3.845,40.039,3.527,39.169,3.253,38.289z M30.906,11.992l0.613,2.903l-5.964,1.193
	l0.635-3.007L30.906,11.992z M26.645,10.922L27.473,7h2.379l0.641,3.034L26.645,10.922z M31.931,16.851l0.545,2.582l0,0l1.003,4.75
	c0.142,0.67-0.02,1.362-0.442,1.899c-0.423,0.538-1.059,0.858-1.745,0.879c-1.665,0.051-3.595,0.05-5.26,0.005
	c-0.686-0.019-1.321-0.337-1.744-0.875c-0.319-0.404-0.49-0.895-0.495-1.399c-0.002-0.168,0.015-0.337,0.051-0.505l0.699-3.309
	l0.06-0.285l0,0l0.502-2.377L31.931,16.851z M30,58C19.159,58,9.745,51.803,5.094,42.77c1.829-0.312,3.467-0.959,4.867-1.963
	c0.99-0.709,1.905-1.801,2.679-3.04c0.125,2.811,0.736,5.56,2.126,7.621C16.705,48.266,20.504,50,24.239,50
	c1.229,0,2.451-0.188,3.598-0.585c0.334-0.116,0.615-0.251,0.88-0.38c0.479-0.235,0.691-0.328,1.082-0.28
	c0.412,0.049,0.956,0.19,1.482,0.327c0.533,0.138,1.084,0.281,1.577,0.352c1.931,0.274,3.746,0.241,5.712-0.107
	c2.994-0.533,5.236-2.002,6.664-4.365c1.941-3.212,1.974-7.483,1.498-11.027c0.134,0.241,0.275,0.477,0.427,0.703
	c1.9,2.818,5.497,4.56,9.268,4.6C52.602,50.15,42.203,58,30,58z"/>
<g>
</g>
<g>
</g>
<g>
</g>
<g>
</g>
<g>
</g>
<g>
</g>
<g>
</g>
<g>
</g>
<g>
</g>
<g>
</g>
<g>
</g>
<g>
</g>
<g>
</g>
<g>
</g>
<g>
</g>
</svg>
