<?xml version="1.0" encoding="iso-8859-1"?>
<!-- Generator: Adobe Illustrator 18.0.0, SVG Export Plug-In . SVG Version: 6.00 Build 0)  -->
<!DOCTYPE svg PUBLIC "-//W3C//DTD SVG 1.1//EN" "http://www.w3.org/Graphics/SVG/1.1/DTD/svg11.dtd">
<svg version="1.1" id="Capa_1" xmlns="http://www.w3.org/2000/svg" xmlns:xlink="http://www.w3.org/1999/xlink" x="0px" y="0px"
	 viewBox="0 0 60.005 60.005" style="enable-background:new 0 0 60.005 60.005;" xml:space="preserve">
<path d="M54.767,10.658c-0.818-3.094-3.213-6.048-6.742-8.317c-4.351-2.797-10.497-3.11-16.046-0.813l-0.192,0.082
	c-0.095,0.041-0.188,0.082-0.281,0.114c-0.466,0.162-0.822,0.3-1.113,0.413c-0.924,0.358-0.924,0.357-2.442-0.09
	c-4.335-1.277-9.854-2.552-14.086-1.052c-5.73,2.03-10.81,8.751-9.239,19.189c0.185,1.226,0.364,2.461,0.545,3.703
	c0.431,2.954,0.875,6.009,1.396,9.025v0.001c0.243,1.405,1.076,2.652,2.285,3.421c0.813,0.517,1.751,0.784,2.691,0.784
	c0.437,0,0.874-0.058,1.3-0.174c2.294-0.628,4.841-1.097,7.666-1.418l1.328,6.069l-2.347,0.427
	c-0.544,0.099-0.904,0.619-0.805,1.162c0.087,0.483,0.508,0.821,0.982,0.821c0.06,0,0.119-0.005,0.18-0.017l2.417-0.439l0.863,3.945
	l-2.655,0.531c-0.541,0.108-0.893,0.635-0.784,1.177c0.095,0.476,0.513,0.804,0.979,0.804c0.064,0,0.131-0.006,0.197-0.02
	l2.689-0.538l0.924,4.223l-1.983,0.35c-0.544,0.096-0.907,0.614-0.811,1.158c0.085,0.485,0.507,0.826,0.983,0.826
	c0.058,0,0.116-0.005,0.175-0.016l2.063-0.364l0.958,4.38h9.609l1.421-6.495l2.948-0.52c0.544-0.096,0.907-0.614,0.811-1.158
	c-0.096-0.544-0.616-0.915-1.158-0.811l-2.139,0.377l1.078-4.926l2.431-0.486c0.541-0.108,0.893-0.635,0.784-1.177
	c-0.107-0.542-0.629-0.896-1.177-0.784l-1.572,0.314l0.869-3.973l2.078-0.378c0.544-0.099,0.904-0.619,0.805-1.162
	c-0.098-0.544-0.618-0.913-1.162-0.805l-1.258,0.229l0.602-2.753c2.415,0.266,4.6,0.637,6.6,1.134
	c1.359,0.339,2.755,0.124,3.935-0.602c1.154-0.711,1.956-1.83,2.257-3.152C55.312,25.474,56.619,17.658,54.767,10.658z
	 M33.863,58.005h-6.391l-0.597-2.728l7.888-1.392L33.863,58.005z M35.226,51.774l-8.778,1.549l-0.933-4.268L36.292,46.9
	L35.226,51.774z M36.758,44.767l-11.671,2.334l-0.855-3.91l13.404-2.437L36.758,44.767z M38.099,38.638l-14.294,2.599l-1.292-5.907
	c0.096-0.008,0.189-0.019,0.286-0.026c0.286-0.023,0.579-0.043,0.87-0.064c0.462-0.033,0.929-0.063,1.405-0.088
	c0.267-0.014,0.535-0.028,0.806-0.04c0.543-0.024,1.097-0.043,1.658-0.059c0.227-0.006,0.45-0.015,0.68-0.02
	c0.8-0.017,1.614-0.028,2.451-0.028c0.801,0,1.575,0.009,2.334,0.022c0.381,0.007,0.748,0.019,1.118,0.03
	c0.341,0.01,0.683,0.019,1.016,0.031c0.501,0.02,0.992,0.043,1.476,0.07c0.16,0.009,0.321,0.017,0.48,0.026
	c0.569,0.034,1.129,0.073,1.677,0.117c0.02,0.002,0.039,0.003,0.059,0.005L38.099,38.638z M51.675,32.432
	c-0.182,0.795-0.663,1.468-1.355,1.894c-0.719,0.442-1.571,0.572-2.404,0.364c-2.027-0.503-4.231-0.882-6.652-1.156l0.002-0.01
	l-0.578-0.056c-2.961-0.309-6.255-0.463-10.02-0.463c-0.905,0-1.783,0.011-2.64,0.03c-0.24,0.005-0.468,0.017-0.704,0.024
	c-0.604,0.018-1.207,0.036-1.79,0.064c-0.341,0.016-0.669,0.039-1.004,0.059c-0.449,0.027-0.901,0.052-1.34,0.085
	c-0.409,0.03-0.804,0.068-1.203,0.104c-0.264,0.024-0.535,0.042-0.795,0.069l-1.116,0.112l0.003,0.013
	c-2.846,0.333-5.429,0.811-7.764,1.45c-0.817,0.224-1.666,0.092-2.391-0.369c-0.734-0.467-1.24-1.223-1.388-2.074
	c-0.517-2.99-0.959-6.032-1.388-8.973c-0.181-1.245-0.361-2.483-0.546-3.712c-1.01-6.71,1.05-14.57,7.929-17.008
	c3.731-1.321,9.123-0.014,12.853,1.085c1.993,0.589,2.307,0.591,3.73,0.036c0.273-0.105,0.608-0.235,1.047-0.388
	c0.141-0.049,0.28-0.108,0.421-0.169l0.16-0.069c4.956-2.048,10.395-1.8,14.2,0.647c3.108,1.999,5.2,4.537,5.891,7.147
	C54.575,17.751,53.305,25.279,51.675,32.432z"/>
<g>
</g>
<g>
</g>
<g>
</g>
<g>
</g>
<g>
</g>
<g>
</g>
<g>
</g>
<g>
</g>
<g>
</g>
<g>
</g>
<g>
</g>
<g>
</g>
<g>
</g>
<g>
</g>
<g>
</g>
</svg>
