<?xml version="1.0" encoding="iso-8859-1"?>
<!-- Generator: Adobe Illustrator 18.0.0, SVG Export Plug-In . SVG Version: 6.00 Build 0)  -->
<!DOCTYPE svg PUBLIC "-//W3C//DTD SVG 1.1//EN" "http://www.w3.org/Graphics/SVG/1.1/DTD/svg11.dtd">
<svg version="1.1" id="Capa_1" xmlns="http://www.w3.org/2000/svg" xmlns:xlink="http://www.w3.org/1999/xlink" x="0px" y="0px"
	 viewBox="0 0 58.598 58.598" style="enable-background:new 0 0 58.598 58.598;" xml:space="preserve">
<g>
	<path d="M54.065,10.657c-0.818-3.094-3.213-6.048-6.743-8.317c-4.348-2.797-10.497-3.108-16.044-0.814l-0.195,0.083
		c-0.095,0.041-0.188,0.082-0.28,0.114c-0.465,0.162-0.822,0.3-1.113,0.413c-0.923,0.358-0.924,0.357-2.442-0.09
		c-4.335-1.277-9.854-2.552-14.086-1.052c-5.73,2.03-10.81,8.751-9.238,19.189c0.186,1.234,0.367,2.479,0.548,3.729
		c1.312,9.017,2.668,18.341,6.155,26.76l0.119,0.289c0.866,2.108,2.315,5.637,4.837,5.637h0.203l0.187-0.079
		c2.315-0.98,3.181-3.202,3.813-4.824l-1.863-0.727c-0.64,1.642-1.239,2.961-2.512,3.608c-1.134-0.283-2.345-3.231-2.815-4.375
		l-0.121-0.295C9.084,41.719,7.745,32.52,6.451,23.625c-0.183-1.254-0.364-2.501-0.55-3.738c-1.01-6.71,1.05-14.57,7.929-17.008
		c3.694-1.309,9.014-0.039,12.74,1.052c6.425,3.65,6.424,5.228,6.399,11.753l-0.003,1.32c0,0.553,0.448,1,1,1s1-0.447,1-1
		l0.003-1.313C34.99,9.971,34.982,7.278,30.413,4c0,0,0,0,0,0c0.274-0.106,0.608-0.235,1.047-0.388
		c0.14-0.049,0.278-0.107,0.417-0.168l0.164-0.07c4.952-2.047,10.393-1.8,14.199,0.647c3.109,1.999,5.201,4.537,5.891,7.147
		c2.083,7.872-0.17,17.233-2.159,25.493c-0.365,1.519-0.723,3.005-1.045,4.444l-0.289,1.306c-0.78,3.553-1.587,7.226-3.395,10.393
		c-0.608,1.066-1.232,1.657-1.647,1.633c-0.458-0.047-1.723-0.771-3.569-6.456l-1.902,0.617c1.21,3.728,2.783,7.573,5.267,7.828
		c1.308,0.137,2.516-0.751,3.589-2.63c1.958-3.433,2.799-7.257,3.611-10.955l0.287-1.298c0.321-1.43,0.676-2.905,1.039-4.414
		C53.961,28.64,56.277,19.017,54.065,10.657z"/>
	<path d="M38.614,42.282c-0.174-0.523-0.74-0.809-1.265-0.632l-0.684,0.228v-3.892l1.316-0.439c0.524-0.174,0.807-0.74,0.632-1.265
		c-0.174-0.523-0.74-0.809-1.265-0.632l-0.684,0.228v-3.892l1.316-0.439c0.524-0.174,0.807-0.74,0.632-1.265
		c-0.174-0.523-0.74-0.809-1.265-0.632l-0.684,0.228v-1.28v-4.414l-3.586-3.586h-6.828l-3.586,3.586v4.414v2v3.633l-1.303,0.414
		c-0.526,0.167-0.817,0.729-0.65,1.256c0.135,0.426,0.529,0.697,0.953,0.697c0.101,0,0.203-0.015,0.303-0.047l0.697-0.221v3.902
		l-1.303,0.414c-0.526,0.167-0.817,0.729-0.65,1.256c0.135,0.426,0.529,0.697,0.953,0.697c0.101,0,0.203-0.015,0.303-0.047
		l0.697-0.221v3.902l-1.303,0.414c-0.526,0.167-0.817,0.729-0.65,1.256c0.135,0.426,0.529,0.697,0.953,0.697
		c0.101,0,0.203-0.015,0.303-0.047l0.697-0.221v2.268h2v3.333l3.5,4.667h3l3.5-4.667v-3.333h2v-6.613l1.316-0.439
		C38.506,43.373,38.789,42.806,38.614,42.282z M24.665,25.012l2.414-2.414h5.172l2.414,2.414v3.586h-10V25.012z M34.665,48.598h-2
		v4.667l-2.5,3.333h-1l-2.5-3.333v-4.667h-2v-0.903l4.303-1.366c0.526-0.167,0.817-0.729,0.65-1.256
		c-0.167-0.527-0.731-0.819-1.256-0.65l-3.697,1.174v-3.901l4.303-1.366c0.526-0.167,0.817-0.729,0.65-1.256
		c-0.167-0.527-0.731-0.819-1.256-0.65l-3.697,1.174v-3.901l4.303-1.366c0.526-0.167,0.817-0.729,0.65-1.256
		c-0.167-0.527-0.731-0.819-1.256-0.65l-3.697,1.174v-2.998h9.839l-2.156,0.719c-0.524,0.174-0.807,0.74-0.632,1.265
		c0.14,0.419,0.53,0.684,0.949,0.684c0.104,0,0.211-0.017,0.316-0.052l1.684-0.561v3.893l-2.316,0.772
		c-0.524,0.174-0.807,0.74-0.632,1.265c0.14,0.419,0.53,0.684,0.949,0.684c0.104,0,0.211-0.017,0.316-0.052l1.684-0.561v3.893
		l-2.316,0.772c-0.524,0.174-0.807,0.74-0.632,1.265c0.14,0.419,0.53,0.684,0.949,0.684c0.104,0,0.211-0.017,0.316-0.052
		l1.684-0.561V48.598z"/>
</g>
<g>
</g>
<g>
</g>
<g>
</g>
<g>
</g>
<g>
</g>
<g>
</g>
<g>
</g>
<g>
</g>
<g>
</g>
<g>
</g>
<g>
</g>
<g>
</g>
<g>
</g>
<g>
</g>
<g>
</g>
</svg>
