<?xml version="1.0" encoding="iso-8859-1"?>
<!-- Generator: Adobe Illustrator 18.0.0, SVG Export Plug-In . SVG Version: 6.00 Build 0)  -->
<!DOCTYPE svg PUBLIC "-//W3C//DTD SVG 1.1//EN" "http://www.w3.org/Graphics/SVG/1.1/DTD/svg11.dtd">
<svg version="1.1" id="Capa_1" xmlns="http://www.w3.org/2000/svg" xmlns:xlink="http://www.w3.org/1999/xlink" x="0px" y="0px"
	 viewBox="0 0 60.001 60.001" style="enable-background:new 0 0 60.001 60.001;" xml:space="preserve">
<g>
	<path d="M59.326,25.725c0.005-0.025,0.012-0.054,0.017-0.079l0.022-0.104c0.969-4.579,1.078-10.848-1.523-14.706
		c-2.577-3.823-8.438-5.628-13.071-4.026c-0.333,0.115-0.614,0.251-0.878,0.38c-0.479,0.234-0.69,0.325-1.083,0.279
		c-0.414-0.049-0.959-0.19-1.486-0.327c-0.531-0.138-1.081-0.28-1.573-0.352c-1.932-0.274-3.748-0.242-5.711,0.107
		c-2.995,0.534-5.237,2.002-6.665,4.365c-0.009,0.014-0.015,0.03-0.023,0.045c-0.861-2.533-2.492-5.284-4.388-6.642
		c-3.927-2.813-9.433-2.925-16.364-0.333C3.104,5.638-0.286,9.356,0.019,14.715c0.175,3.082,0.655,6.727,1.335,10.359
		c-0.831,0.588-1.354,1.546-1.354,2.593v19.806c0,5.548,4.514,10.062,10.062,10.062H49.94c5.548,0,10.061-4.514,10.061-10.062
		V27.666C60.001,26.959,59.757,26.28,59.326,25.725z M7.298,6.204c3.097-1.158,5.854-1.737,8.256-1.737
		c2.46,0,4.547,0.607,6.243,1.822c2.423,1.736,4.22,6.27,4.204,8.359l-0.003,0.2c-0.024,0.111-0.036,0.232-0.058,0.345
		c-0.057,0.3-0.112,0.6-0.152,0.904c-0.03,0.222-0.051,0.452-0.073,0.681c-0.02,0.218-0.039,0.435-0.052,0.653
		c-0.018,0.282-0.03,0.568-0.036,0.859c-0.002,0.137-0.001,0.273-0.001,0.409c-0.002,0.827,0.027,1.677,0.116,2.57
		c-0.093,1.228-0.212,2.373-0.354,3.453l-0.088,0.605c-0.203,1.397-0.439,2.636-0.715,3.758c-0.01,0.039-0.019,0.08-0.029,0.12
		c-0.092,0.37-0.189,0.727-0.291,1.072c-1.773,6.023-3.024,6.194-10.255,6.194c-3.869,0-7.983-0.595-9.168-5.008
		c-0.156-0.581-0.306-1.182-0.453-1.789c-0.052-0.213-0.103-0.429-0.154-0.646c-0.105-0.448-0.207-0.9-0.307-1.356
		c-0.041-0.189-0.084-0.375-0.124-0.565c-0.916-4.31-1.58-8.885-1.786-12.506C1.769,10.258,4.491,7.254,7.298,6.204z M58.001,47.472
		c0,4.445-3.616,8.062-8.061,8.062H10.062c-4.445,0-8.062-3.616-8.062-8.062V28.243c0.048,0.218,0.099,0.425,0.148,0.641
		c0.088,0.385,0.175,0.772,0.267,1.152c0.161,0.666,0.325,1.317,0.494,1.946c1.544,5.753,6.743,6.49,11.1,6.49
		c7.542,0,10.03-0.348,12.174-7.63c0.144-0.488,0.276-1,0.401-1.525c0.011-0.047,0.023-0.093,0.033-0.14
		c0.128-0.545,0.248-1.108,0.358-1.696c0.014,0.049,0.03,0.096,0.044,0.144c0.055,0.185,0.104,0.346,0.151,0.496
		c0.012,0.039,0.024,0.079,0.036,0.118c0.333,1.049,0.719,2.114,1.203,3.128c0.371,0.778,0.793,1.529,1.326,2.2
		c0.477,0.603,1.064,1.201,1.698,1.732l1.284-1.533c-0.531-0.444-1.02-0.943-1.415-1.441c-1.026-1.295-1.659-3.021-2.189-4.692
		c-0.003-0.008-0.006-0.019-0.008-0.027c-0.107-0.338-0.209-0.686-0.308-1.037c-0.032-0.115-0.065-0.241-0.099-0.366
		c-0.057-0.213-0.113-0.428-0.167-0.644c-0.309-1.24-0.625-2.798-0.797-4.473c-0.054-0.535-0.092-1.058-0.11-1.565
		c0-0.006,0-0.011,0-0.017c-0.057-1.59,0.059-3.037,0.348-4.318l0.002-0.031c0.234-1.021,0.588-1.992,1.112-2.859
		c1.132-1.874,2.867-2.996,5.304-3.431c1.749-0.31,3.361-0.342,5.077-0.096c0.382,0.055,0.876,0.183,1.355,0.307
		c0.517,0.134,1.042,0.262,1.533,0.338c1.635,0.808,3.131,1.883,4.328,3.123c0.196,0.203,0.458,0.305,0.719,0.305
		c0.25,0,0.501-0.094,0.695-0.281c0.397-0.384,0.408-1.017,0.024-1.414c-0.847-0.875-1.832-1.667-2.893-2.368
		c0.065-0.027,0.126-0.055,0.197-0.079c3.764-1.308,8.69,0.186,10.758,3.253c2.252,3.341,2.109,8.996,1.225,13.175l-0.022,0.105
		c-0.018,0.084-0.039,0.182-0.059,0.278l-0.064,0.297c-0.5,2.319-1.066,4.126-1.693,5.412c-0.001,0.002-0.002,0.003-0.003,0.005
		c-0.146,0.299-0.296,0.565-0.449,0.808c-0.016,0.026-0.031,0.053-0.048,0.078c-0.149,0.23-0.302,0.432-0.458,0.608
		c-0.032,0.036-0.065,0.066-0.097,0.1c-0.125,0.132-0.252,0.245-0.381,0.343c-0.044,0.033-0.086,0.068-0.131,0.097
		c-0.163,0.107-0.328,0.196-0.497,0.249l0.601,1.908c0.218-0.069,0.426-0.158,0.627-0.264c0.146-0.077,0.283-0.172,0.421-0.266
		c0.046-0.032,0.095-0.057,0.14-0.091c0.175-0.13,0.341-0.276,0.502-0.432c0.002-0.002,0.003-0.003,0.005-0.005
		c0.815-0.793,1.456-1.907,1.972-3.166c0.002-0.005,0.004-0.01,0.006-0.016c0.075-0.183,0.151-0.365,0.221-0.553V47.472z"/>
	<path d="M51.317,26.482c0.524-0.174,0.807-0.74,0.632-1.265c-0.174-0.523-0.739-0.809-1.265-0.632l-0.684,0.228v-1.28v-4.414
		l-3.586-3.586h-6.828l-3.586,3.586v4.414v2v3.633l-1.303,0.414c-0.526,0.167-0.817,0.729-0.65,1.256
		c0.135,0.426,0.529,0.697,0.953,0.697c0.101,0,0.203-0.015,0.303-0.047l0.697-0.221v3.902l-1.303,0.414
		c-0.526,0.167-0.817,0.729-0.65,1.256c0.135,0.426,0.529,0.697,0.953,0.697c0.101,0,0.203-0.015,0.303-0.047l0.697-0.221v3.902
		l-1.303,0.414c-0.526,0.167-0.817,0.729-0.65,1.256c0.135,0.426,0.529,0.697,0.953,0.697c0.101,0,0.203-0.015,0.303-0.047
		l0.697-0.221v2.268h2v3.333l3.5,4.667h3l3.5-4.667v-3.333h2v-6.613l1.316-0.439c0.524-0.174,0.807-0.74,0.632-1.265
		c-0.174-0.523-0.739-0.809-1.265-0.632l-0.684,0.228v-3.892l1.316-0.439c0.524-0.174,0.807-0.74,0.632-1.265
		c-0.174-0.523-0.739-0.809-1.265-0.632l-0.684,0.228v-3.892L51.317,26.482z M38.001,19.947l2.414-2.414h5.172l2.414,2.414v3.586
		h-10V19.947z M48.001,31.48l-2.316,0.772c-0.524,0.174-0.807,0.74-0.632,1.265c0.14,0.419,0.53,0.684,0.949,0.684
		c0.104,0,0.211-0.017,0.316-0.052l1.684-0.561v3.893l-2.316,0.772c-0.524,0.174-0.807,0.74-0.632,1.265
		c0.14,0.419,0.53,0.684,0.949,0.684c0.104,0,0.211-0.017,0.316-0.052l1.684-0.561v3.946h-2V48.2l-2.5,3.333h-1l-2.5-3.333v-4.667
		h-2V42.63l4.303-1.366c0.526-0.167,0.817-0.729,0.65-1.256c-0.167-0.527-0.732-0.819-1.256-0.65l-3.697,1.174V36.63l4.303-1.366
		c0.526-0.167,0.817-0.729,0.65-1.256c-0.167-0.527-0.732-0.82-1.256-0.65l-3.697,1.174V30.63l4.303-1.366
		c0.526-0.167,0.817-0.729,0.65-1.256c-0.167-0.527-0.732-0.82-1.256-0.65l-3.697,1.174v-2.998h9.839l-2.156,0.719
		c-0.524,0.174-0.807,0.74-0.632,1.265c0.14,0.419,0.53,0.684,0.949,0.684c0.104,0,0.211-0.017,0.316-0.052l1.684-0.561V31.48z"/>
</g>
<g>
</g>
<g>
</g>
<g>
</g>
<g>
</g>
<g>
</g>
<g>
</g>
<g>
</g>
<g>
</g>
<g>
</g>
<g>
</g>
<g>
</g>
<g>
</g>
<g>
</g>
<g>
</g>
<g>
</g>
</svg>
