<?xml version="1.0" encoding="iso-8859-1"?>
<!-- Generator: Adobe Illustrator 18.0.0, SVG Export Plug-In . SVG Version: 6.00 Build 0)  -->
<!DOCTYPE svg PUBLIC "-//W3C//DTD SVG 1.1//EN" "http://www.w3.org/Graphics/SVG/1.1/DTD/svg11.dtd">
<svg version="1.1" id="Capa_1" xmlns="http://www.w3.org/2000/svg" xmlns:xlink="http://www.w3.org/1999/xlink" x="0px" y="0px"
	 viewBox="0 0 60 60" style="enable-background:new 0 0 60 60;" xml:space="preserve">
<path d="M60,30C60,14.129,47.609,1.104,31.994,0.074l-0.009-0.009l-0.376-0.021c-0.002,0-0.004,0-0.006,0
	C31.072,0.016,30.538,0,30,0c-0.763,0-1.518,0.038-2.267,0.094c-0.11,0.008-0.221,0.016-0.331,0.025
	C17.5,0.974,8.961,6.655,4.153,14.796c-0.023,0.038-0.044,0.077-0.067,0.115c-0.771,1.319-1.443,2.701-2.008,4.138
	c-0.034,0.088-0.07,0.174-0.104,0.262c-0.27,0.705-0.514,1.422-0.731,2.152c-0.007,0.024-0.017,0.046-0.024,0.07l-0.18,0.611
	l0.008,0.007C0.369,24.655,0,27.284,0,30c0,8.337,3.421,15.888,8.93,21.33l-0.003,0.016l0.4,0.382
	c0.139,0.132,0.284,0.257,0.426,0.386c0.061,0.056,0.122,0.111,0.183,0.166c0.3,0.271,0.605,0.535,0.915,0.793
	c0.054,0.045,0.108,0.089,0.162,0.134c0.324,0.266,0.652,0.524,0.985,0.775c0.044,0.033,0.087,0.065,0.131,0.098
	c0.348,0.259,0.701,0.511,1.059,0.754c0.034,0.023,0.067,0.045,0.101,0.068c0.368,0.248,0.741,0.488,1.12,0.719
	c0.031,0.019,0.062,0.038,0.092,0.056c0.381,0.231,0.766,0.453,1.156,0.666c0.035,0.019,0.069,0.038,0.104,0.057
	c0.385,0.209,0.775,0.408,1.168,0.599c0.046,0.022,0.092,0.045,0.138,0.067c0.382,0.183,0.767,0.357,1.156,0.523
	c0.064,0.028,0.128,0.055,0.193,0.083c0.37,0.155,0.743,0.302,1.119,0.442c0.089,0.033,0.177,0.067,0.266,0.099
	c0.353,0.128,0.709,0.248,1.068,0.362c0.114,0.037,0.228,0.074,0.343,0.11c0.336,0.103,0.674,0.197,1.013,0.288
	c0.139,0.037,0.278,0.076,0.418,0.112c0.319,0.081,0.641,0.153,0.964,0.223c0.161,0.035,0.322,0.073,0.484,0.105
	c0.307,0.061,0.616,0.114,0.926,0.166c0.178,0.03,0.355,0.063,0.535,0.09c0.305,0.045,0.612,0.081,0.918,0.117
	c0.185,0.022,0.368,0.048,0.553,0.066c0.329,0.032,0.659,0.054,0.99,0.076c0.164,0.011,0.326,0.027,0.491,0.035
	C29.002,59.987,29.5,60,30,60c0.497,0,0.992-0.013,1.485-0.038c0.173-0.008,0.344-0.025,0.517-0.037
	c0.318-0.021,0.636-0.042,0.952-0.073c0.202-0.02,0.401-0.047,0.602-0.071c0.286-0.034,0.572-0.067,0.857-0.109
	c0.203-0.03,0.403-0.066,0.604-0.1c0.281-0.047,0.562-0.095,0.842-0.151c0.194-0.039,0.385-0.082,0.578-0.124
	c0.286-0.063,0.572-0.127,0.856-0.198c0.177-0.044,0.352-0.092,0.527-0.14c0.3-0.081,0.599-0.165,0.897-0.255
	c0.153-0.046,0.304-0.095,0.456-0.144c0.32-0.103,0.638-0.21,0.953-0.323c0.125-0.045,0.25-0.091,0.374-0.138
	c0.341-0.128,0.68-0.261,1.016-0.401c0.096-0.04,0.192-0.08,0.287-0.121c0.362-0.155,0.72-0.318,1.076-0.487
	c0.069-0.033,0.137-0.065,0.205-0.098c0.379-0.184,0.754-0.377,1.125-0.577c0.043-0.023,0.087-0.047,0.131-0.07
	c0.391-0.214,0.777-0.436,1.16-0.668c0.023-0.014,0.047-0.028,0.07-0.042c0.396-0.241,0.787-0.492,1.172-0.752
	c0.01-0.006,0.019-0.013,0.029-0.019c0.392-0.265,0.778-0.54,1.158-0.824c0.004-0.003,0.008-0.006,0.012-0.009
	c0.382-0.286,0.758-0.582,1.128-0.887c0.001-0.001,0.002-0.001,0.002-0.002c0.483-0.398,0.958-0.807,1.419-1.238l0.336-0.314
	l-0.001-0.025C56.476,46.104,60,38.458,60,30z M50.776,30.02l-0.497,1.984c-8.389,1.495-24.689,4.404-37.475,6.706
	c0.559-1.38,1.065-2.531,1.451-3.374l8.141-2.28l4.749,0.805c0.057,0.009,0.112,0.014,0.168,0.014c0.479,0,0.902-0.345,0.985-0.833
	c0.092-0.544-0.274-1.061-0.819-1.153l-3.293-0.559l0.938-1.173c0.345-0.432,0.274-1.061-0.156-1.406
	c-0.432-0.345-1.06-0.272-1.406,0.156l-1.799,2.249l-7.969,2.232l-2.114-1.864c3.797-1.792,10.077-4.456,16.687-7.26
	c7.457-3.163,15.149-6.427,19.431-8.519C50.879,19.762,52.021,25.037,50.776,30.02z M48.788,50.743
	c-1.979,1.794-4.215,3.31-6.646,4.485c-0.018,0.009-0.037,0.017-0.055,0.026c-0.374,0.18-0.753,0.351-1.136,0.515
	c-0.068,0.029-0.136,0.056-0.204,0.084c-0.333,0.139-0.67,0.272-1.009,0.399c-0.108,0.04-0.216,0.078-0.324,0.116
	c-0.302,0.108-0.606,0.211-0.912,0.309c-0.139,0.044-0.279,0.087-0.418,0.129c-0.279,0.084-0.56,0.164-0.842,0.24
	c-0.162,0.043-0.324,0.086-0.487,0.126c-0.264,0.066-0.531,0.127-0.798,0.185c-0.179,0.039-0.357,0.078-0.537,0.113
	c-0.257,0.051-0.517,0.095-0.776,0.139c-0.188,0.031-0.375,0.064-0.564,0.092c-0.263,0.039-0.529,0.07-0.795,0.101
	c-0.184,0.022-0.367,0.046-0.551,0.064c-0.294,0.029-0.59,0.048-0.886,0.068c-0.158,0.01-0.315,0.025-0.474,0.033
	C30.918,57.987,30.46,58,30,58c-0.462,0-0.922-0.013-1.379-0.035c-0.152-0.007-0.304-0.022-0.456-0.032
	c-0.305-0.02-0.609-0.04-0.912-0.07c-0.173-0.017-0.346-0.04-0.518-0.06c-0.281-0.033-0.562-0.066-0.84-0.107
	c-0.172-0.025-0.343-0.056-0.514-0.084c-0.28-0.047-0.56-0.095-0.837-0.15c-0.16-0.032-0.319-0.067-0.478-0.101
	c-0.29-0.063-0.579-0.129-0.865-0.2c-0.141-0.035-0.282-0.073-0.423-0.11c-0.306-0.082-0.61-0.168-0.911-0.259
	c-0.119-0.036-0.237-0.073-0.355-0.11c-0.326-0.104-0.65-0.214-0.971-0.329c-0.091-0.033-0.182-0.065-0.272-0.099
	c-0.351-0.131-0.699-0.268-1.044-0.412c-0.059-0.025-0.118-0.049-0.177-0.074c-0.377-0.161-0.75-0.329-1.118-0.506
	c-0.028-0.013-0.056-0.026-0.084-0.04c-2.467-1.194-4.733-2.74-6.733-4.572c0.383-1.772,0.896-3.667,1.533-5.65h35.887
	L48.788,50.743z M11.198,43c0.225-0.656,0.466-1.327,0.724-2.02c0.011-0.028,0.021-0.057,0.032-0.085
	c5.752-1.036,12.322-2.215,18.61-3.34L45.741,43H11.198z M50.048,34.076l0.377,8.479l-15.908-5.707
	C40.554,35.769,46.088,34.782,50.048,34.076z M46.435,14.184c-4.311,2.071-11.691,5.203-18.848,8.239
	c-1.177,0.5-2.342,0.994-3.487,1.481L40.317,8.198l5.907,5.766C46.297,14.035,46.364,14.111,46.435,14.184z M19.18,25.884
	c-0.052,0.051-0.08,0.114-0.119,0.173c-3.669,1.579-6.846,2.981-9.012,4.029l-2.55-2.248l25.768-15.597L19.18,25.884z M7.719,25.367
	l-4.394-3.875c0.007-0.022,0.015-0.044,0.022-0.066c0.209-0.651,0.444-1.29,0.699-1.918c0.026-0.065,0.051-0.131,0.077-0.196
	c0.26-0.628,0.545-1.243,0.848-1.846c0.042-0.083,0.085-0.165,0.127-0.248C9.47,8.756,18.002,2.947,27.603,2.11
	c0.108-0.009,0.216-0.017,0.324-0.025C28.613,2.033,29.304,2,30,2c0.38,0,0.758,0.014,1.134,0.029l5.795,5.657L7.719,25.367z M2,30
	c0-2.188,0.26-4.315,0.737-6.36l3.189,2.812l-1.793,1.085l5.599,4.937l0,0l2.589,2.282c-0.49,1.079-1.142,2.591-1.834,4.372
	l-0.003,0l-0.117,0.308c-0.26,0.676-0.523,1.39-0.786,2.134c-0.035,0.098-0.07,0.197-0.104,0.294
	c-0.208,0.595-0.415,1.201-0.617,1.829L8.44,45h2.113c-0.427,1.373-0.801,2.707-1.11,3.986C4.827,43.992,2,37.321,2,30z M50.535,45
	h2.002l-0.521-11.696l0.421-1.685l0,0l0.278-1.114c1.362-5.45,0.168-11.21-3.105-15.667l0.041-0.021l-0.818-0.968
	c-0.011-0.013-0.02-0.022-0.031-0.035c-0.169-0.2-0.341-0.398-0.52-0.591c-0.226-0.248-0.446-0.48-0.663-0.692l-7.156-6.986
	l-1.768,1.07l-4.389-4.284C47.709,4.41,58,16.025,58,30c0,7.244-2.765,13.854-7.295,18.83L50.535,45z"/>
<g>
</g>
<g>
</g>
<g>
</g>
<g>
</g>
<g>
</g>
<g>
</g>
<g>
</g>
<g>
</g>
<g>
</g>
<g>
</g>
<g>
</g>
<g>
</g>
<g>
</g>
<g>
</g>
<g>
</g>
</svg>
