<?xml version="1.0" encoding="iso-8859-1"?>
<!-- Generator: Adobe Illustrator 18.0.0, SVG Export Plug-In . SVG Version: 6.00 Build 0)  -->
<!DOCTYPE svg PUBLIC "-//W3C//DTD SVG 1.1//EN" "http://www.w3.org/Graphics/SVG/1.1/DTD/svg11.dtd">
<svg version="1.1" id="Capa_1" xmlns="http://www.w3.org/2000/svg" xmlns:xlink="http://www.w3.org/1999/xlink" x="0px" y="0px"
	 viewBox="0 0 60 60" style="enable-background:new 0 0 60 60;" xml:space="preserve">
<path d="M60,30C60,14.129,47.609,1.104,31.994,0.074l-0.009-0.009l-0.376-0.021c-0.002,0-0.004,0-0.007,0
	C31.072,0.016,30.538,0,30,0c-0.763,0-1.518,0.038-2.267,0.094c-0.11,0.008-0.221,0.016-0.331,0.025
	C17.503,0.974,8.966,6.651,4.158,14.789c-0.027,0.045-0.052,0.092-0.079,0.137c-0.764,1.309-1.431,2.68-1.992,4.104
	c-0.039,0.099-0.079,0.197-0.117,0.296c-0.265,0.695-0.506,1.401-0.72,2.12c-0.009,0.03-0.021,0.058-0.03,0.087l-0.179,0.611
	l0.008,0.007C0.369,24.655,0,27.285,0,30c0,8.337,3.421,15.888,8.93,21.33l-0.003,0.017l0.4,0.382
	c0.142,0.136,0.291,0.263,0.436,0.395c0.054,0.05,0.108,0.099,0.163,0.148c0.307,0.277,0.619,0.547,0.935,0.81
	c0.047,0.039,0.095,0.078,0.142,0.117c0.33,0.271,0.665,0.535,1.005,0.79c0.037,0.028,0.074,0.056,0.112,0.083
	c0.355,0.264,0.714,0.52,1.079,0.768c0.027,0.018,0.055,0.037,0.082,0.055c0.375,0.252,0.754,0.496,1.138,0.73
	c0.025,0.015,0.05,0.03,0.074,0.045c0.387,0.234,0.778,0.46,1.174,0.676c0.029,0.016,0.058,0.032,0.087,0.047
	c0.391,0.212,0.785,0.414,1.185,0.608c0.041,0.02,0.082,0.04,0.124,0.06c0.386,0.185,0.776,0.361,1.17,0.53
	c0.06,0.026,0.12,0.052,0.18,0.077c0.374,0.157,0.751,0.305,1.132,0.447c0.085,0.032,0.169,0.064,0.254,0.095
	c0.357,0.129,0.717,0.25,1.079,0.366c0.111,0.036,0.221,0.072,0.333,0.106c0.339,0.104,0.68,0.199,1.022,0.291
	c0.137,0.037,0.272,0.075,0.41,0.11c0.322,0.081,0.646,0.154,0.97,0.224c0.16,0.035,0.318,0.072,0.479,0.104
	c0.309,0.062,0.62,0.115,0.931,0.167c0.177,0.03,0.352,0.063,0.53,0.089c0.306,0.046,0.614,0.081,0.923,0.118
	c0.183,0.022,0.366,0.047,0.55,0.066c0.329,0.033,0.661,0.054,0.992,0.076c0.163,0.011,0.326,0.027,0.49,0.035
	C29.002,59.987,29.5,60,30,60c0.497,0,0.992-0.013,1.485-0.038c0.173-0.008,0.344-0.025,0.517-0.037
	c0.318-0.021,0.636-0.042,0.952-0.073c0.201-0.02,0.4-0.047,0.601-0.071c0.287-0.034,0.573-0.067,0.858-0.109
	c0.202-0.03,0.401-0.066,0.602-0.1c0.282-0.048,0.564-0.096,0.844-0.151c0.193-0.038,0.383-0.082,0.575-0.124
	c0.288-0.063,0.574-0.128,0.86-0.199c0.175-0.044,0.349-0.091,0.523-0.138c0.302-0.081,0.603-0.166,0.902-0.257
	c0.151-0.046,0.3-0.094,0.449-0.142c0.322-0.103,0.643-0.212,0.961-0.326c0.122-0.044,0.244-0.089,0.365-0.135
	c0.345-0.129,0.687-0.264,1.027-0.406c0.092-0.038,0.184-0.077,0.276-0.117c0.366-0.157,0.729-0.322,1.089-0.493
	c0.064-0.031,0.128-0.061,0.192-0.092c0.384-0.187,0.764-0.382,1.14-0.585c0.039-0.021,0.077-0.041,0.116-0.062
	c0.396-0.216,0.788-0.442,1.175-0.677c0.018-0.011,0.037-0.022,0.055-0.033c0.401-0.244,0.797-0.498,1.188-0.762
	c0.005-0.003,0.009-0.006,0.014-0.009c1.307-0.884,2.555-1.869,3.725-2.964l0.336-0.315l-0.001-0.024C56.476,46.104,60,38.458,60,30
	z M48.836,29.536l-0.842,3.362l0.794,17.844c-1.98,1.795-4.217,3.312-6.649,4.487c-0.013,0.006-0.027,0.012-0.04,0.019
	c-0.379,0.182-0.763,0.356-1.151,0.521c-0.064,0.027-0.129,0.053-0.193,0.08c-0.337,0.141-0.677,0.275-1.021,0.403
	c-0.104,0.039-0.209,0.076-0.314,0.113c-0.305,0.109-0.612,0.214-0.922,0.313c-0.136,0.043-0.273,0.085-0.41,0.126
	c-0.281,0.085-0.565,0.166-0.85,0.242c-0.16,0.043-0.32,0.085-0.481,0.124c-0.266,0.066-0.535,0.128-0.804,0.186
	c-0.177,0.038-0.354,0.077-0.532,0.112c-0.259,0.051-0.519,0.096-0.781,0.14c-0.187,0.031-0.373,0.064-0.561,0.091
	c-0.264,0.039-0.531,0.07-0.798,0.102c-0.183,0.021-0.365,0.046-0.549,0.064c-0.294,0.029-0.591,0.048-0.888,0.068
	c-0.158,0.01-0.315,0.025-0.473,0.033C30.918,57.987,30.46,58,30,58c-0.463,0-0.922-0.013-1.379-0.035
	c-0.152-0.007-0.303-0.022-0.455-0.032c-0.305-0.02-0.611-0.04-0.913-0.07c-0.173-0.017-0.344-0.04-0.516-0.06
	c-0.282-0.033-0.564-0.066-0.844-0.107c-0.171-0.025-0.34-0.055-0.51-0.083c-0.282-0.047-0.563-0.095-0.842-0.151
	c-0.158-0.031-0.315-0.066-0.473-0.1c-0.292-0.063-0.583-0.129-0.872-0.202c-0.139-0.035-0.278-0.072-0.416-0.109
	c-0.308-0.082-0.615-0.169-0.919-0.262c-0.116-0.035-0.231-0.071-0.347-0.108c-0.329-0.105-0.656-0.216-0.98-0.332
	c-0.087-0.031-0.175-0.063-0.262-0.095c-0.355-0.132-0.707-0.271-1.056-0.417c-0.055-0.023-0.111-0.045-0.166-0.069
	c-0.381-0.163-0.759-0.333-1.131-0.512c-0.023-0.011-0.047-0.022-0.071-0.033c-2.469-1.194-4.736-2.741-6.738-4.574
	c1.785-8.287,5.739-16.117,5.779-16.197l0.352-0.69L3.326,21.492c0.007-0.022,0.015-0.044,0.022-0.066
	c0.209-0.651,0.444-1.29,0.699-1.918c0.026-0.065,0.051-0.131,0.077-0.196c0.26-0.628,0.545-1.243,0.849-1.846
	c0.042-0.083,0.085-0.165,0.127-0.248C9.47,8.756,18.002,2.947,27.603,2.11c0.108-0.009,0.216-0.017,0.324-0.025
	C28.613,2.033,29.304,2,30,2c0.38,0,0.757,0.014,1.133,0.029l13.693,13.367C48.566,19.046,50.103,24.464,48.836,29.536z M2,30
	c0-2.188,0.26-4.315,0.737-6.359l12.028,10.605c-0.968,2.011-3.714,8.044-5.322,14.741C4.828,43.992,2,37.321,2,30z M50.006,33.102
	l0.77-3.081c1.439-5.759-0.305-11.911-4.551-16.057L34.308,2.332C47.709,4.41,58,16.025,58,30c0,7.244-2.765,13.854-7.295,18.83
	L50.006,33.102z"/>
<g>
</g>
<g>
</g>
<g>
</g>
<g>
</g>
<g>
</g>
<g>
</g>
<g>
</g>
<g>
</g>
<g>
</g>
<g>
</g>
<g>
</g>
<g>
</g>
<g>
</g>
<g>
</g>
<g>
</g>
</svg>
