<?xml version="1.0" encoding="iso-8859-1"?>
<!-- Generator: Adobe Illustrator 18.0.0, SVG Export Plug-In . SVG Version: 6.00 Build 0)  -->
<!DOCTYPE svg PUBLIC "-//W3C//DTD SVG 1.1//EN" "http://www.w3.org/Graphics/SVG/1.1/DTD/svg11.dtd">
<svg version="1.1" id="Capa_1" xmlns="http://www.w3.org/2000/svg" xmlns:xlink="http://www.w3.org/1999/xlink" x="0px" y="0px"
	 viewBox="0 0 60 60" style="enable-background:new 0 0 60 60;" xml:space="preserve">
<g>
	<path d="M59.969,31.208C59.989,30.785,60,30.382,60,30s-0.011-0.785-0.031-1.208c-0.014-0.358-0.038-0.714-0.065-1.069
		c-0.001-0.014-0.001-0.026-0.002-0.04l-0.066-0.867l-0.007,0C58.234,11.765,45.466,0,30,0C14.484,0,1.682,11.84,0.153,26.96
		l-0.004,0l-0.063,0.863c-0.001,0.013-0.001,0.023-0.002,0.036c-0.023,0.319-0.042,0.638-0.055,0.96C0.012,29.231,0,29.624,0,30
		s0.012,0.769,0.03,1.181c0.013,0.322,0.032,0.641,0.055,0.96c0.001,0.013,0.001,0.023,0.002,0.036l0.063,0.863l0.004,0
		C1.682,48.16,14.484,60,30,60c15.466,0,28.234-11.765,29.829-26.815l0.007,0l0.066-0.867c0.001-0.014,0.001-0.026,0.002-0.04
		C59.932,31.922,59.955,31.566,59.969,31.208z M57.964,31.297C50.419,31.751,40.89,32,31,32c-10.898,0-21.137-0.294-28.97-0.831
		C2.014,30.781,2,30.392,2,30s0.014-0.781,0.03-1.169C9.863,28.294,20.102,28,31,28c9.89,0,19.419,0.249,26.964,0.703
		C57.988,29.165,58,29.594,58,30S57.988,30.835,57.964,31.297z M30,2c14.32,0,26.156,10.807,27.798,24.693
		C50.256,26.247,40.814,26,31,26c-10.809,0-20.974,0.29-28.814,0.816C3.772,12.871,15.637,2,30,2z M30,58
		C15.637,58,3.772,47.129,2.186,33.184C10.026,33.71,20.191,34,31,34c9.814,0,19.256-0.247,26.798-0.693
		C56.156,47.193,44.32,58,30,58z"/>
	<path d="M30,7c5.14,0,10,1.658,14.056,4.793c0.182,0.141,0.397,0.209,0.611,0.209c0.299,0,0.595-0.133,0.792-0.388
		c0.338-0.437,0.258-1.065-0.179-1.403C40.87,6.802,35.587,5,30,5c-0.552,0-1,0.448-1,1S29.448,7,30,7z"/>
	<path d="M21,8.745c0.125,0,0.252-0.024,0.375-0.074c0.626-0.253,1.271-0.481,1.916-0.678c0.941-0.286,1.908-0.514,2.874-0.675
		c0.545-0.091,0.913-0.607,0.821-1.151s-0.606-0.91-1.151-0.821c-1.051,0.176-2.103,0.423-3.126,0.735
		c-0.702,0.214-1.403,0.462-2.083,0.737c-0.512,0.207-0.759,0.79-0.552,1.302C20.23,8.509,20.605,8.745,21,8.745z"/>
	<path d="M46.264,46.264c-3.635,3.634-8.244,5.899-13.329,6.55c-0.548,0.07-0.935,0.571-0.865,1.119
		c0.064,0.505,0.495,0.873,0.99,0.873c0.042,0,0.085-0.002,0.128-0.008c5.528-0.707,10.539-3.168,14.489-7.119
		c0.391-0.39,0.391-1.023,0-1.414S46.654,45.873,46.264,46.264z"/>
	<path d="M52.491,38.452c-0.509-0.214-1.095,0.021-1.311,0.531c-0.262,0.619-0.557,1.236-0.875,1.834
		c-0.463,0.867-0.986,1.711-1.555,2.51c-0.32,0.45-0.216,1.074,0.234,1.395c0.176,0.125,0.379,0.186,0.58,0.186
		c0.313,0,0.62-0.146,0.815-0.419c0.619-0.868,1.188-1.787,1.691-2.73c0.346-0.65,0.666-1.321,0.952-1.994
		C53.237,39.255,53,38.668,52.491,38.452z"/>
</g>
<g>
</g>
<g>
</g>
<g>
</g>
<g>
</g>
<g>
</g>
<g>
</g>
<g>
</g>
<g>
</g>
<g>
</g>
<g>
</g>
<g>
</g>
<g>
</g>
<g>
</g>
<g>
</g>
<g>
</g>
</svg>
