<?xml version="1.0" encoding="iso-8859-1"?>
<!-- Generator: Adobe Illustrator 18.0.0, SVG Export Plug-In . SVG Version: 6.00 Build 0)  -->
<!DOCTYPE svg PUBLIC "-//W3C//DTD SVG 1.1//EN" "http://www.w3.org/Graphics/SVG/1.1/DTD/svg11.dtd">
<svg version="1.1" id="Capa_1" xmlns="http://www.w3.org/2000/svg" xmlns:xlink="http://www.w3.org/1999/xlink" x="0px" y="0px"
	 viewBox="0 0 59.998 59.998" style="enable-background:new 0 0 59.998 59.998;" xml:space="preserve">
<g>
	<path d="M59.13,49.933c-3.954-7.817-4.88-14.927-5.697-21.199c-0.373-2.867-0.726-5.576-1.333-8.133
		c-1.467-6.181-4.786-9.937-9.864-11.16c-2.35-0.568-4.819-0.099-6.778,1.284c-0.544,0.384-1.027,0.832-1.456,1.322V6.499v-4h-8v4
		v5.547c-0.429-0.49-0.912-0.938-1.456-1.322c-1.959-1.383-4.429-1.853-6.778-1.284c-5.077,1.224-8.396,4.979-9.864,11.16
		c-0.616,2.593-0.972,5.458-1.349,8.492c-0.821,6.609-1.753,14.101-5.682,21.868c-1.004,1.984-1.14,3.502-0.414,4.64
		c1.008,1.581,3.368,1.898,6.312,1.898c0.951,0,1.963-0.033,3.01-0.067l0.625-0.021c4.333-0.137,7.89-0.784,10.719-1.937
		c0.188-0.024,0.357-0.096,0.497-0.209c4-1.77,6.436-4.629,7.355-8.629c0.697-3.035,0.152-7.095-0.374-11.02
		c-0.309-2.302-0.601-4.475-0.601-6.204c0-1.099,0.894-1.992,2.009-1.992c1.098,0,1.991,0.894,1.991,1.992
		c0,1.729-0.292,3.902-0.601,6.204c-0.526,3.925-1.071,7.984-0.374,11.02c1.582,6.886,7.656,10.401,18.571,10.747
		c4.029,0.133,8.35-0.063,9.863-2.44C60.275,53.663,60.164,51.978,59.13,49.933z M32.001,10.499h-4v-2h4V10.499z M32.001,12.499v2
		h-4v-2H32.001z M29.616,18.374c-0.069-0.014-0.133-0.038-0.199-0.059c-0.053-0.016-0.108-0.028-0.159-0.048
		c-0.087-0.035-0.168-0.081-0.249-0.128c-0.025-0.014-0.052-0.025-0.077-0.04c-0.086-0.055-0.165-0.119-0.241-0.186
		c-0.016-0.014-0.033-0.025-0.049-0.039c-0.067-0.063-0.127-0.134-0.186-0.206c-0.021-0.025-0.045-0.048-0.064-0.074
		c-0.039-0.052-0.069-0.11-0.103-0.166c-0.034-0.057-0.072-0.112-0.1-0.172c-0.009-0.018-0.014-0.038-0.022-0.056
		c-0.043-0.099-0.081-0.201-0.107-0.307c-0.001-0.003-0.002-0.006-0.003-0.01c-0.021-0.088-0.029-0.18-0.039-0.271
		c-0.004-0.038-0.01-0.075-0.012-0.114h3.987c-0.001,0.039-0.008,0.076-0.012,0.114c-0.009,0.092-0.017,0.184-0.039,0.271
		c-0.001,0.003-0.002,0.006-0.003,0.01c-0.027,0.108-0.065,0.211-0.109,0.311c-0.008,0.017-0.012,0.035-0.02,0.051
		c-0.029,0.063-0.068,0.12-0.104,0.178c-0.033,0.053-0.062,0.11-0.099,0.159c-0.021,0.028-0.047,0.053-0.069,0.08
		c-0.057,0.07-0.115,0.139-0.181,0.2c-0.017,0.016-0.036,0.028-0.053,0.042c-0.075,0.066-0.153,0.129-0.237,0.182
		c-0.025,0.016-0.054,0.027-0.08,0.042c-0.08,0.046-0.16,0.091-0.246,0.126c-0.051,0.02-0.106,0.032-0.159,0.048
		c-0.066,0.021-0.13,0.045-0.199,0.059c-0.125,0.024-0.253,0.038-0.384,0.038S29.741,18.399,29.616,18.374z M28.001,4.499h4v2h-4
		V4.499z M51.4,55.414c0.353-0.154,0.601-0.505,0.601-0.915c0-0.552-0.448-1-1-1s-1,0.448-1,1c0,0.406,0.244,0.752,0.592,0.909
		c-0.365-0.006-0.687-0.016-0.932-0.023c-1.385-0.044-2.671-0.143-3.878-0.288c0.129-0.168,0.219-0.369,0.219-0.598
		c0-0.552-0.448-1-1-1s-1,0.448-1,1c0,0.123,0.029,0.238,0.07,0.346c-3.059-0.532-5.47-1.449-7.273-2.772
		c0.119-0.165,0.203-0.356,0.203-0.574c0-0.552-0.448-1-1-1c-0.262,0-0.496,0.106-0.674,0.271c-0.549-0.597-1.006-1.259-1.385-1.977
		c0.03-0.094,0.059-0.19,0.059-0.294c0-0.409-0.247-0.759-0.599-0.913c-0.166-0.448-0.314-0.909-0.427-1.397
		c-0.187-0.815-0.261-1.75-0.27-2.749c0.095,0.03,0.191,0.06,0.296,0.06c0.552,0,1-0.448,1-1s-0.448-1-1-1
		c-0.087,0-0.166,0.029-0.247,0.05c0.081-1.309,0.24-2.692,0.42-4.085c0.466-0.085,0.827-0.474,0.827-0.965
		c0-0.401-0.24-0.742-0.581-0.901c0.232-1.731,0.445-3.385,0.534-4.868c0.019-0.076,0.047-0.149,0.047-0.231
		c0-0.058-0.023-0.107-0.033-0.162c0.014-0.312,0.033-0.63,0.033-0.925c0-2.201-1.79-3.992-4.008-3.992
		c-2.201,0-3.992,1.791-3.992,3.992c0,0.294,0.019,0.613,0.033,0.925c-0.009,0.055-0.033,0.105-0.033,0.162
		c0,0.082,0.028,0.155,0.047,0.231c0.089,1.483,0.302,3.136,0.534,4.868c-0.341,0.159-0.581,0.5-0.581,0.901
		c0,0.491,0.36,0.88,0.827,0.965c0.18,1.393,0.338,2.775,0.42,4.085c-0.081-0.021-0.159-0.05-0.247-0.05c-0.552,0-1,0.448-1,1
		s0.448,1,1,1c0.105,0,0.201-0.03,0.296-0.06c-0.01,0.999-0.083,1.934-0.27,2.749c-0.112,0.49-0.264,0.952-0.433,1.401
		c-0.348,0.156-0.592,0.503-0.592,0.909c0,0.097,0.029,0.186,0.055,0.275c-0.384,0.718-0.848,1.38-1.405,1.98
		c-0.176-0.153-0.399-0.254-0.65-0.254c-0.552,0-1,0.448-1,1c0,0.206,0.077,0.387,0.185,0.547c-1.813,1.331-4.226,2.266-7.257,2.811
		c0.043-0.112,0.072-0.231,0.072-0.357c0-0.552-0.448-1-1-1s-1,0.448-1,1c0,0.236,0.094,0.444,0.231,0.615
		c-1.213,0.151-2.504,0.255-3.89,0.299l-0.628,0.02c-0.151,0.005-0.305,0.01-0.458,0.015c0.425-0.115,0.745-0.487,0.745-0.948
		c0-0.552-0.448-1-1-1s-1,0.448-1,1c0,0.485,0.353,0.871,0.812,0.962c-1.917,0.057-3.875,0.078-5.195-0.194
		c0.228-0.183,0.383-0.452,0.383-0.768c0-0.552-0.448-1-1-1c-0.458,0-0.828,0.315-0.947,0.735c-0.117-0.52,0.076-1.331,0.603-2.371
		c1.005-1.986,1.818-3.947,2.489-5.877c0.172,0.301,0.484,0.512,0.855,0.512c0.552,0,1-0.448,1-1s-0.448-1-1-1
		c-0.138,0-0.27,0.028-0.389,0.079c0.486-1.542,0.886-3.063,1.222-4.558c0.097-0.154,0.167-0.325,0.167-0.52
		c0-0.047-0.021-0.088-0.027-0.133c0.603-2.822,0.995-5.549,1.328-8.154c0.18,0.177,0.426,0.287,0.699,0.287c0.552,0,1-0.448,1-1
		s-0.448-1-1-1c-0.187,0-0.352,0.065-0.502,0.155c0.013-0.104,0.026-0.21,0.039-0.314c0.164-1.323,0.328-2.606,0.507-3.85
		c0.531-0.024,0.956-0.455,0.956-0.991c0-0.429-0.272-0.787-0.651-0.93c0.149-0.862,0.308-1.706,0.498-2.506
		c0.428-1.803,1.03-3.331,1.778-4.64c0.116,0.047,0.242,0.076,0.375,0.076c0.552,0,1-0.448,1-1c0-0.269-0.109-0.511-0.282-0.69
		c0.489-0.597,1.03-1.119,1.618-1.573c0.177,0.159,0.406,0.263,0.663,0.263c0.552,0,1-0.448,1-1c0-0.093-0.029-0.176-0.053-0.262
		c0.711-0.354,1.461-0.654,2.287-0.854c0.513-0.123,1.026-0.185,1.534-0.185c1.289,0,2.538,0.395,3.622,1.159
		c1.472,1.04,2.422,2.644,2.606,4.399c0.013,0.127,0.049,0.245,0.073,0.367c0.012,0.069,0.025,0.136,0.04,0.203
		c0.036,0.145,0.081,0.284,0.131,0.421c0.045,0.127,0.091,0.251,0.148,0.371c0.039,0.081,0.083,0.157,0.127,0.234
		c0.083,0.149,0.17,0.295,0.271,0.432c0.036,0.048,0.076,0.091,0.113,0.137c0.12,0.148,0.244,0.29,0.383,0.419
		c0.035,0.032,0.073,0.059,0.109,0.09c0.15,0.129,0.303,0.252,0.471,0.358c0.04,0.025,0.083,0.044,0.124,0.067
		c0.17,0.099,0.343,0.194,0.529,0.267c0.056,0.022,0.117,0.034,0.174,0.054c0.176,0.061,0.352,0.121,0.538,0.156
		c0.14,0.027,0.287,0.031,0.432,0.044c0.106,0.009,0.208,0.032,0.316,0.032h0.043c0.108,0,0.21-0.023,0.316-0.032
		c0.145-0.012,0.292-0.016,0.432-0.044c0.186-0.036,0.363-0.096,0.539-0.157c0.057-0.02,0.117-0.031,0.173-0.054
		c0.185-0.074,0.358-0.168,0.529-0.267c0.041-0.024,0.084-0.042,0.124-0.067c0.168-0.106,0.322-0.229,0.471-0.358
		c0.036-0.031,0.075-0.058,0.109-0.09c0.139-0.129,0.264-0.271,0.383-0.419c0.037-0.046,0.077-0.089,0.113-0.137
		c0.101-0.137,0.188-0.282,0.272-0.432c0.044-0.077,0.088-0.153,0.127-0.234c0.057-0.121,0.103-0.245,0.148-0.372
		c0.05-0.137,0.095-0.276,0.131-0.421c0.016-0.067,0.028-0.135,0.04-0.204c0.024-0.123,0.06-0.24,0.073-0.367
		c0.185-1.756,1.135-3.359,2.606-4.399c1.511-1.066,3.342-1.409,5.156-0.975c0.826,0.199,1.576,0.5,2.287,0.854
		c-0.024,0.085-0.053,0.169-0.053,0.261c0,0.552,0.448,1,1,1c0.257,0,0.486-0.104,0.663-0.263c0.588,0.454,1.13,0.976,1.619,1.573
		c-0.173,0.18-0.282,0.422-0.282,0.691c0,0.552,0.448,1,1,1c0.133,0,0.259-0.029,0.375-0.076c0.748,1.309,1.35,2.837,1.778,4.64
		c0.193,0.811,0.353,1.651,0.503,2.505c-0.382,0.141-0.657,0.5-0.657,0.931c0,0.541,0.432,0.976,0.969,0.994
		c0.168,1.138,0.324,2.301,0.48,3.5c0.03,0.227,0.06,0.457,0.09,0.686c-0.158-0.104-0.336-0.179-0.539-0.179c-0.552,0-1,0.448-1,1
		s0.448,1,1,1c0.295,0,0.553-0.133,0.736-0.336c0.34,2.507,0.747,5.137,1.382,7.888c-0.07,0.136-0.119,0.285-0.119,0.449
		c0,0.332,0.172,0.611,0.42,0.793c0.388,1.53,0.851,3.095,1.42,4.697c-0.175-0.288-0.478-0.49-0.84-0.49c-0.552,0-1,0.448-1,1
		s0.448,1,1,1s1-0.448,1-1c0-0.061-0.024-0.114-0.035-0.172c0.651,1.792,1.427,3.627,2.379,5.508
		c0.693,1.371,0.838,2.392,0.43,3.033c-0.002,0.004-0.006,0.006-0.008,0.01c-0.183-0.226-0.452-0.379-0.765-0.379
		c-0.552,0-1,0.448-1,1c0,0.144,0.033,0.279,0.088,0.403C54.716,55.316,52.859,55.41,51.4,55.414z"/>
	<path d="M44.964,31.492c0.013,0,0.024,0.007,0.037,0.007c0.552,0,1-0.448,1-1s-0.448-1-1-1c-0.365,0-0.671,0.206-0.845,0.498
		c-0.408-0.684-0.861-1.329-1.342-1.947c0.109-0.16,0.188-0.343,0.188-0.551c0-0.552-0.448-1-1-1c-0.159,0-0.304,0.045-0.438,0.111
		c-1.645-1.712-3.59-3.059-5.741-3.939c4.286-1.294,7.178-3.983,7.178-7.172c0-0.553-0.447-1-1-1s-1,0.447-1,1c0,3.252-5.037,6-11,6
		s-11-2.748-11-6c0-0.553-0.447-1-1-1s-1,0.447-1,1c0,3.189,2.892,5.878,7.178,7.172c-2.151,0.88-4.095,2.227-5.741,3.939
		c-0.134-0.066-0.279-0.111-0.438-0.111c-0.552,0-1,0.448-1,1c0,0.208,0.079,0.391,0.188,0.551
		c-0.481,0.618-0.935,1.263-1.342,1.947c-0.174-0.292-0.48-0.498-0.845-0.498c-0.552,0-1,0.448-1,1s0.448,1,1,1
		c0.013,0,0.024-0.007,0.037-0.007c-1.298,2.682-2.037,5.75-2.037,9.007c0,0.553,0.447,1,1,1s1-0.447,1-1
		c0-1.043,0.096-2.06,0.255-3.052c0.425-0.115,0.745-0.487,0.745-0.948c0-0.317-0.157-0.588-0.388-0.771
		c1.825-7.057,7.579-12.229,14.388-12.229s12.563,5.172,14.388,12.229c-0.231,0.183-0.388,0.454-0.388,0.771
		c0,0.462,0.319,0.833,0.745,0.948c0.159,0.992,0.255,2.008,0.255,3.052c0,0.553,0.447,1,1,1s1-0.447,1-1
		C47.001,37.242,46.262,34.174,44.964,31.492z"/>
	<circle cx="21.001" cy="12.499" r="1"/>
	<circle cx="15.001" cy="18.499" r="1"/>
	<circle cx="24.001" cy="15.499" r="1"/>
	<circle cx="36.001" cy="15.499" r="1"/>
	<circle cx="39.001" cy="12.499" r="1"/>
	<circle cx="45.001" cy="18.499" r="1"/>
	<circle cx="12.001" cy="21.499" r="1"/>
	<circle cx="18.001" cy="21.499" r="1"/>
	<circle cx="42.001" cy="21.499" r="1"/>
	<circle cx="48.001" cy="21.499" r="1"/>
	<circle cx="12.001" cy="27.499" r="1"/>
	<circle cx="15.001" cy="24.499" r="1"/>
	<circle cx="21.001" cy="30.499" r="1"/>
	<circle cx="24.001" cy="27.499" r="1"/>
	<circle cx="36.001" cy="27.499" r="1"/>
	<circle cx="45.001" cy="24.499" r="1"/>
	<circle cx="39.001" cy="30.499" r="1"/>
	<circle cx="48.001" cy="27.499" r="1"/>
	<circle cx="12.001" cy="33.499" r="1"/>
	<circle cx="18.001" cy="33.499" r="1"/>
	<circle cx="24.001" cy="33.499" r="1"/>
	<circle cx="36.001" cy="33.499" r="1"/>
	<circle cx="42.001" cy="33.499" r="1"/>
	<circle cx="48.001" cy="33.499" r="1"/>
	<circle cx="9.001" cy="36.499" r="1"/>
	<circle cx="9.001" cy="42.499" r="1"/>
	<circle cx="12.001" cy="39.499" r="1"/>
	<circle cx="21.001" cy="36.499" r="1"/>
	<circle cx="15.001" cy="42.499" r="1"/>
	<circle cx="21.001" cy="42.499" r="1"/>
	<circle cx="18.001" cy="39.499" r="1"/>
	<circle cx="24.001" cy="39.499" r="1"/>
	<circle cx="36.001" cy="39.499" r="1"/>
	<circle cx="39.001" cy="36.499" r="1"/>
	<circle cx="39.001" cy="42.499" r="1"/>
	<circle cx="45.001" cy="42.499" r="1"/>
	<circle cx="42.001" cy="39.499" r="1"/>
	<circle cx="48.001" cy="39.499" r="1"/>
	<circle cx="51.001" cy="36.499" r="1"/>
	<circle cx="51.001" cy="42.499" r="1"/>
	<circle cx="12.001" cy="45.499" r="1"/>
	<circle cx="18.001" cy="45.499" r="1"/>
	<circle cx="24.001" cy="45.499" r="1"/>
	<circle cx="36.001" cy="45.499" r="1"/>
	<circle cx="42.001" cy="45.499" r="1"/>
	<circle cx="48.001" cy="45.499" r="1"/>
	<circle cx="9.001" cy="48.499" r="1"/>
	<circle cx="6.001" cy="51.499" r="1"/>
	<circle cx="12.001" cy="51.499" r="1"/>
	<circle cx="15.001" cy="48.499" r="1"/>
	<circle cx="21.001" cy="48.499" r="1"/>
	<circle cx="18.001" cy="51.499" r="1"/>
	<circle cx="39.001" cy="48.499" r="1"/>
	<circle cx="45.001" cy="48.499" r="1"/>
	<circle cx="42.001" cy="51.499" r="1"/>
	<circle cx="48.001" cy="51.499" r="1"/>
	<circle cx="51.001" cy="48.499" r="1"/>
	<circle cx="54.001" cy="51.499" r="1"/>
</g>
<g>
</g>
<g>
</g>
<g>
</g>
<g>
</g>
<g>
</g>
<g>
</g>
<g>
</g>
<g>
</g>
<g>
</g>
<g>
</g>
<g>
</g>
<g>
</g>
<g>
</g>
<g>
</g>
<g>
</g>
</svg>
