<?xml version="1.0" encoding="iso-8859-1"?>
<!-- Generator: Adobe Illustrator 18.0.0, SVG Export Plug-In . SVG Version: 6.00 Build 0)  -->
<!DOCTYPE svg PUBLIC "-//W3C//DTD SVG 1.1//EN" "http://www.w3.org/Graphics/SVG/1.1/DTD/svg11.dtd">
<svg version="1.1" id="Capa_1" xmlns="http://www.w3.org/2000/svg" xmlns:xlink="http://www.w3.org/1999/xlink" x="0px" y="0px"
	 viewBox="0 0 59 59" style="enable-background:new 0 0 59 59;" xml:space="preserve">
<path d="M48.771,34.411c-0.002-0.4-0.021-0.794-0.049-1.186c-0.003-0.034-0.004-0.067-0.006-0.101
	c-0.05-0.655-0.126-1.302-0.248-1.933L48.439,31h-0.016c-1.127-5.48-4.938-9.99-10.919-12.658V16h1.475
	c0.841,0,1.525-0.684,1.525-1.525v-2.95c0-0.841-0.684-1.525-1.525-1.525h-1.475V6.013V1.498C37.504,0.672,36.832,0,36.006,0h-2.502
	h-10h-0.502c-0.826,0-1.498,0.672-1.498,1.498V10h-1.475c-0.841,0-1.525,0.684-1.525,1.525v2.95c0,0.841,0.684,1.525,1.525,1.525
	h1.475v2.342c-8.097,3.612-12.233,10.594-11.087,18.804l2.736,18.547C13.431,57.578,15.078,59,16.984,59h25.04
	c1.906,0,3.553-1.422,3.831-3.307l2.737-18.555c0.065-0.467,0.11-0.933,0.14-1.398c0.021-0.312,0.024-0.62,0.029-0.928
	C48.764,34.678,48.772,34.544,48.771,34.411z M45.263,46H26.504V33h20.192c0.032,0.323,0.055,0.649,0.067,0.979
	c0.006,0.165,0.003,0.331,0.004,0.497c0.001,0.246-0.002,0.493-0.012,0.742c-0.006,0.147-0.013,0.294-0.023,0.442
	c-0.027,0.395-0.062,0.792-0.118,1.195L45.263,46z M33.504,8.5c0-0.827,0.673-1.5,1.5-1.5c0.188,0,0.356,0.037,0.5,0.09V9.91
	C35.36,9.963,35.193,10,35.004,10C34.177,10,33.504,9.327,33.504,8.5z M31.333,2c-0.413,1.164-1.525,2-2.829,2s-2.416-0.836-2.829-2
	H31.333z M23.605,2c0.465,2.279,2.484,4,4.899,4s4.434-1.721,4.899-4h2.101v3.041C35.339,5.017,35.173,5,35.004,5
	c-1.93,0-3.5,1.57-3.5,3.5c0,0.539,0.133,1.044,0.351,1.5h-1.402c-0.252-2.244-2.139-4-4.449-4c-0.925,0-1.784,0.282-2.5,0.762V2
	H23.605z M28.454,10h-4.899c0.232-1.14,1.242-2,2.45-2S28.221,8.86,28.454,10z M20.504,14v-2h1h0.183h7.767h8.05h1v2h-1h-16H20.504z
	 M43.877,55.401C43.742,56.313,42.946,57,42.024,57h-25.04c-0.921,0-1.718-0.688-1.853-1.599l-2.735-18.539
	c-1.04-7.45,2.882-13.782,10.491-16.938l0.617-0.256V16h12v3.668l0.617,0.256C41.632,22.21,45.195,26.167,46.354,31h-21.85v17
	h20.464L43.877,55.401z"/>
<g>
</g>
<g>
</g>
<g>
</g>
<g>
</g>
<g>
</g>
<g>
</g>
<g>
</g>
<g>
</g>
<g>
</g>
<g>
</g>
<g>
</g>
<g>
</g>
<g>
</g>
<g>
</g>
<g>
</g>
</svg>
