<?xml version="1.0" encoding="iso-8859-1"?>
<!-- Generator: Adobe Illustrator 18.0.0, SVG Export Plug-In . SVG Version: 6.00 Build 0)  -->
<!DOCTYPE svg PUBLIC "-//W3C//DTD SVG 1.1//EN" "http://www.w3.org/Graphics/SVG/1.1/DTD/svg11.dtd">
<svg version="1.1" id="Capa_1" xmlns="http://www.w3.org/2000/svg" xmlns:xlink="http://www.w3.org/1999/xlink" x="0px" y="0px"
	 viewBox="0 0 59.072 59.072" style="enable-background:new 0 0 59.072 59.072;" xml:space="preserve">
<g>
	<path d="M59.072,14.13L59.072,14.13c0.023-2.36-0.903-4.596-2.611-6.296c-1.787-1.781-4.268-2.795-6.823-2.795
		c-0.045,0-0.09,0-0.135,0.001c-3.924,0.055-7.803,0.677-11.531,1.848c-0.524,0.163-1.126-0.007-1.578-0.46
		c-2.78-2.78-6.476-4.339-10.406-4.391c-0.016,0-0.03,0-0.045,0c-1.57,0-2.909,1.089-3.125,2.55c-0.128,0.871,0.126,1.75,0.697,2.41
		c0.57,0.66,1.397,1.039,2.27,1.039c0.711,0,1.728,0.28,2.94,0.812c0.434,0.19,0.713,0.585,0.746,1.056
		c0.032,0.464-0.185,0.887-0.581,1.132c-0.428,0.266-0.851,0.537-1.269,0.818c-1.205,0.808-2.654,1.121-4.093,0.874
		c-0.818-0.139-1.65-0.209-2.471-0.209c-3.934,0-7.651,1.513-10.469,4.26c-1.175,1.146-1.33,2.921-0.362,4.129
		c0.573,0.714,1.425,1.126,2.336,1.129c0.003,0,0.007,0,0.011,0c0.906,0,1.755-0.404,2.329-1.11c0.842-1.034,1.749-1.69,2.696-1.95
		c1.414-0.387,2.215-0.505,2.655-0.531c-0.42,0.655-1.349,1.701-1.957,2.388c-0.837,0.942-1.703,1.917-2.256,2.774
		c-0.209,0.323-0.588,0.491-0.994,0.468c-0.327-0.024-0.657-0.038-0.989-0.038c-3.932,0-7.646,1.511-10.463,4.255
		c-1.139,1.11-1.326,2.849-0.438,4.043c0.524,0.706,1.325,1.148,2.195,1.212c0.88,0.058,1.725-0.253,2.341-0.871
		c0.623-0.623,1.845-1.25,3.531-1.813c0.343-0.113,0.571,0.076,0.655,0.162s0.266,0.323,0.143,0.66
		c-0.353,0.967-0.671,1.955-0.947,2.938c-0.279,0.994-1.061,1.792-2.112,2.14c-3.743,1.246-6.798,3.864-8.601,7.374
		c-0.717,1.396-0.339,3.091,0.878,3.942c0.722,0.506,1.623,0.671,2.466,0.456c0.847-0.215,1.556-0.785,1.946-1.564
		c0.321-0.643,1.075-1.153,2.068-1.401c0.864-0.217,1.555-0.146,1.855-0.054c0.068,3.408,1.354,6.042,3.637,7.436
		c5.193,3.169,10.369,1.216,12.801-2.351c0.441-0.646,0.82-1.779,1.16-3.463c0.084-0.416,0.355-0.754,0.745-0.928
		c0.396-0.177,0.834-0.151,1.203,0.065c2.723,1.604,4.428,4.552,4.45,7.696c0.011,1.566,1.151,2.876,2.654,3.046
		c0.113,0.013,0.227,0.019,0.34,0.019c0.737,0,1.452-0.269,2.004-0.762c0.637-0.568,1.002-1.384,1.002-2.237
		c0-6.829-4.635-12.767-11.128-14.485c0.442-1.066,1.194-1.872,2.177-2.311c1.261-0.565,2.726-0.455,4.119,0.308
		c2.126,1.164,3.664,3.082,4.331,5.403c0.423,1.472,1.905,2.441,3.375,2.199c0.848-0.138,1.597-0.629,2.055-1.349
		c0.46-0.72,0.591-1.604,0.36-2.427c-1.299-4.617-4.777-8.36-9.306-10.014c-0.502-0.183-0.863-0.613-0.968-1.15
		c-0.104-0.536,0.063-1.048,0.497-1.437c0.204-0.182,0.448-0.304,0.688-0.343c4.536-0.732,8.997,2.177,10.145,6.631
		c0.391,1.515,1.864,2.541,3.354,2.312c0.842-0.122,1.595-0.595,2.066-1.298s0.624-1.577,0.42-2.398
		c-0.854-3.416-2.899-6.436-5.762-8.502c-0.516-0.373-0.434-0.919-0.396-1.077c0.036-0.154,0.201-0.664,0.809-0.765
		c1.202-0.197,2.435-0.298,3.676-0.298c0.001,0,0.002,0,0.003,0c0.452,0,0.84,0.164,1.065,0.451c1.241,1.58,1.905,3.476,1.92,5.482
		c0.011,1.567,1.151,2.877,2.654,3.047c0.85,0.097,1.707-0.174,2.344-0.743c0.637-0.568,1.002-1.384,1.002-2.237
		c0-2.524-0.646-5.024-1.869-7.231c-0.442-0.798-0.414-1.733,0.073-2.382C58.43,17.885,59.051,16.055,59.072,14.13z M55.676,18.222
		c-0.96,1.279-1.047,3.065-0.224,4.552c1.06,1.911,1.619,4.077,1.619,6.263c0,0.288-0.118,0.554-0.334,0.746
		c-0.215,0.192-0.498,0.283-0.787,0.246c-0.481-0.054-0.875-0.535-0.879-1.072c-0.018-2.455-0.829-4.773-2.348-6.705
		c-0.607-0.772-1.568-1.215-2.647-1.215c-0.001,0-0.003,0-0.005,0c-1.338,0-2.68,0.109-3.989,0.325
		c-1.216,0.2-2.147,1.073-2.431,2.279c-0.282,1.199,0.179,2.438,1.174,3.156c2.479,1.791,4.252,4.406,4.991,7.365
		c0.069,0.277,0.02,0.562-0.141,0.8c-0.159,0.237-0.405,0.392-0.693,0.434c-0.485,0.074-0.991-0.303-1.128-0.833
		c-1.403-5.443-6.847-8.996-12.403-8.105c-0.62,0.102-1.208,0.387-1.741,0.863c-0.917,0.823-1.323,2.046-1.086,3.271
		c0.238,1.232,1.077,2.224,2.245,2.649c3.926,1.434,6.94,4.677,8.065,8.676c0.078,0.278,0.035,0.566-0.12,0.811
		c-0.155,0.242-0.4,0.402-0.69,0.449c-0.472,0.082-0.986-0.271-1.132-0.777c-0.815-2.838-2.695-5.184-5.293-6.604
		c-1.929-1.055-4.077-1.193-5.896-0.38c-1.79,0.801-3.097,2.459-3.598,4.602l-0.197,1.067l1.02,0.196
		c6.109,1.174,10.543,6.539,10.543,12.757c0,0.288-0.118,0.554-0.334,0.746s-0.497,0.283-0.787,0.246
		c-0.481-0.054-0.875-0.534-0.879-1.071c-0.028-3.844-2.11-7.448-5.436-9.406c-0.515-0.303-1.097-0.456-1.681-0.456
		c-0.46,0-0.921,0.096-1.352,0.287c-0.988,0.441-1.678,1.301-1.892,2.359c-0.383,1.899-0.723,2.543-0.852,2.731
		c-1.899,2.784-5.978,4.29-10.106,1.771c-2.214-1.352-2.681-4.013-2.682-6.007c0-0.307-0.119-1.336-1.638-1.694
		c-1.756-0.417-4.93,0.25-6.072,2.532c-0.13,0.26-0.366,0.45-0.648,0.521c-0.286,0.071-0.58,0.018-0.828-0.156
		c-0.396-0.276-0.503-0.888-0.245-1.39c1.563-3.041,4.209-5.311,7.473-6.396c1.661-0.551,2.927-1.855,3.387-3.49
		c0.262-0.935,0.565-1.874,0.9-2.792c0.35-0.957,0.125-2.008-0.587-2.74s-1.752-0.989-2.723-0.665
		c-2.008,0.669-3.459,1.441-4.313,2.295c-0.206,0.206-0.49,0.314-0.78,0.29c-0.295-0.021-0.556-0.167-0.736-0.41
		c-0.323-0.434-0.138-1.062,0.229-1.418c2.439-2.377,5.66-3.687,9.066-3.687c0.283,0,0.563,0.012,0.84,0.032
		c1.127,0.086,2.219-0.441,2.824-1.377c0.47-0.729,1.283-1.646,2.07-2.532c1.885-2.122,3.246-3.655,2.454-4.93
		c-0.619-0.997-2.023-1.047-5.176-0.184c-1.357,0.373-2.609,1.254-3.719,2.617c-0.264,0.324-0.6,0.373-0.778,0.373
		c-0.001,0-0.003,0-0.004,0c-0.179-0.001-0.518-0.051-0.782-0.38c-0.353-0.44-0.176-1.081,0.198-1.446
		c2.949-2.876,7.098-4.211,11.208-3.51c1.939,0.33,3.909-0.091,5.541-1.186c0.398-0.267,0.8-0.526,1.207-0.778
		c1.024-0.633,1.608-1.772,1.524-2.974c-0.085-1.208-0.828-2.261-1.938-2.747c-1.485-0.65-2.744-0.979-3.743-0.979
		c-0.29,0-0.566-0.126-0.757-0.347c-0.193-0.224-0.275-0.512-0.231-0.811c0.078-0.53,0.642-0.842,1.148-0.842
		c0.006,0,0.011,0,0.017,0c3.406,0.044,6.609,1.396,9.029,3.815c0.969,0.971,2.34,1.332,3.581,0.943
		c3.543-1.113,7.23-1.704,10.959-1.756c2.06-0.044,4.08,0.777,5.52,2.211c1.322,1.316,2.041,3.042,2.022,4.858
		C57.056,15.605,56.573,17.027,55.676,18.222z"/>
	<path d="M18.072,43.036c-2.206,0-4,1.794-4,4s1.794,4,4,4s4-1.794,4-4S20.278,43.036,18.072,43.036z M18.072,49.036
		c-1.103,0-2-0.897-2-2s0.897-2,2-2s2,0.897,2,2S19.174,49.036,18.072,49.036z"/>
	<path d="M20.072,32.036c-2.206,0-4,1.794-4,4s1.794,4,4,4s4-1.794,4-4S22.278,32.036,20.072,32.036z M20.072,38.036
		c-1.103,0-2-0.897-2-2s0.897-2,2-2s2,0.897,2,2S21.174,38.036,20.072,38.036z"/>
	<path d="M25.072,22.036c-2.206,0-4,1.794-4,4s1.794,4,4,4s4-1.794,4-4S27.278,22.036,25.072,22.036z M25.072,28.036
		c-1.103,0-2-0.897-2-2s0.897-2,2-2s2,0.897,2,2S26.174,28.036,25.072,28.036z"/>
	<path d="M34.072,15.036c-2.206,0-4,1.794-4,4s1.794,4,4,4s4-1.794,4-4S36.278,15.036,34.072,15.036z M34.072,21.036
		c-1.103,0-2-0.897-2-2s0.897-2,2-2s2,0.897,2,2S35.174,21.036,34.072,21.036z"/>
	<path d="M45.072,11.036c-2.206,0-4,1.794-4,4s1.794,4,4,4s4-1.794,4-4S47.278,11.036,45.072,11.036z M45.072,17.036
		c-1.103,0-2-0.897-2-2s0.897-2,2-2s2,0.897,2,2S46.174,17.036,45.072,17.036z"/>
</g>
<g>
</g>
<g>
</g>
<g>
</g>
<g>
</g>
<g>
</g>
<g>
</g>
<g>
</g>
<g>
</g>
<g>
</g>
<g>
</g>
<g>
</g>
<g>
</g>
<g>
</g>
<g>
</g>
<g>
</g>
</svg>
