<?xml version="1.0" encoding="iso-8859-1"?>
<!-- Generator: Adobe Illustrator 18.0.0, SVG Export Plug-In . SVG Version: 6.00 Build 0)  -->
<!DOCTYPE svg PUBLIC "-//W3C//DTD SVG 1.1//EN" "http://www.w3.org/Graphics/SVG/1.1/DTD/svg11.dtd">
<svg version="1.1" id="Capa_1" xmlns="http://www.w3.org/2000/svg" xmlns:xlink="http://www.w3.org/1999/xlink" x="0px" y="0px"
	 viewBox="0 0 59.998 59.998" style="enable-background:new 0 0 59.998 59.998;" xml:space="preserve">
<path d="M50.978,0c-4.963,0-9,4.038-9,9c0,2.122,0.742,4.07,1.975,5.611l-6.268,6.268l-2.423-0.559
	c-1.093-0.253-2.227,0.071-3.022,0.867L1.386,52.04c-0.881,0.88-1.366,2.051-1.366,3.297c0,1.246,0.485,2.417,1.366,3.297
	c0.909,0.909,2.104,1.363,3.297,1.363c1.194,0,2.389-0.455,3.298-1.363l33.327-33.326c0.587-0.588,0.81-1.45,0.58-2.249
	c-0.229-0.799-0.875-1.412-1.686-1.599l-0.22-0.051l5.384-5.385C46.907,17.258,48.856,18,50.978,18c4.963,0,9-4.038,9-9
	S55.941,0,50.978,0z M13.415,50.372l-2.354-5.179l2.375-2.375l2.354,5.179L13.415,50.372z M9.53,54.257l-2.354-5.179l2.375-2.375
	l2.354,5.179L9.53,54.257z M6.567,57.22c-1.038,1.037-2.727,1.039-3.767,0c-0.503-0.503-0.78-1.172-0.78-1.883
	s0.277-1.38,0.78-1.883l2.865-2.866l2.354,5.179L6.567,57.22z M39.893,23.895L17.301,46.486l-2.354-5.179l18.706-18.706
	c0.236-0.237,0.551-0.365,0.876-0.365c0.094,0,0.188,0.011,0.283,0.033l2.754,0.636c0.131,0.06,0.269,0.096,0.411,0.096
	c0.001,0,0.002-0.001,0.003-0.001l1.773,0.409c0.137,0.031,0.191,0.127,0.212,0.201C39.987,23.686,39.991,23.795,39.893,23.895z
	 M50.978,16c-3.859,0-7-3.14-7-7s3.141-7,7-7s7,3.14,7,7S54.837,16,50.978,16z"/>
<g>
</g>
<g>
</g>
<g>
</g>
<g>
</g>
<g>
</g>
<g>
</g>
<g>
</g>
<g>
</g>
<g>
</g>
<g>
</g>
<g>
</g>
<g>
</g>
<g>
</g>
<g>
</g>
<g>
</g>
</svg>
