<?xml version="1.0" encoding="iso-8859-1"?>
<!-- Generator: Adobe Illustrator 18.0.0, SVG Export Plug-In . SVG Version: 6.00 Build 0)  -->
<!DOCTYPE svg PUBLIC "-//W3C//DTD SVG 1.1//EN" "http://www.w3.org/Graphics/SVG/1.1/DTD/svg11.dtd">
<svg version="1.1" id="Capa_1" xmlns="http://www.w3.org/2000/svg" xmlns:xlink="http://www.w3.org/1999/xlink" x="0px" y="0px"
	 viewBox="0 0 56.664 56.664" style="enable-background:new 0 0 56.664 56.664;" xml:space="preserve">
<g>
	<circle cx="15.271" cy="22.601" r="1"/>
	<circle cx="16.271" cy="26.601" r="1"/>
	<circle cx="17.271" cy="30.601" r="1"/>
	<circle cx="18.271" cy="34.601" r="1"/>
	<circle cx="19.271" cy="38.601" r="1"/>
	<circle cx="20.271" cy="32.601" r="1"/>
	<circle cx="19.271" cy="28.601" r="1"/>
	<circle cx="18.271" cy="24.601" r="1"/>
	<path d="M55.634,18.799c-1.018-1.396-2.592-2.198-4.32-2.198c-2.514,0-4.904,0.789-6.913,2.232
		c-0.092-0.639-0.214-1.271-0.378-1.891c-0.669-2.529-2.106-6.974-4.211-8.326c-2.874-1.85-7.099-2.064-10.77-0.547L28.93,8.117
		c-0.057,0.024-0.112,0.05-0.164,0.068c-0.302,0.104-0.533,0.193-0.722,0.267c-0.47,0.182-0.472,0.183-1.315-0.066
		c-2.809-0.829-6.388-1.653-9.179-0.663c-3.977,1.409-5.908,6.757-6.231,11.491c-1.442-1.001-3.055-1.744-4.755-2.172
		c-1.859-0.471-3.772,0.097-5.103,1.514c-1.341,1.432-1.802,3.476-1.203,5.333l7.465,23.141c0.497,1.539,1.916,2.572,3.532,2.572
		h34.052c1.616,0,3.035-1.033,3.532-2.572L56.4,23.587C56.931,21.942,56.651,20.197,55.634,18.799z M18.218,9.607
		c0.672-0.237,1.438-0.334,2.242-0.334c1.921,0,4.067,0.548,5.702,1.03c1.333,0.392,1.623,0.395,2.605,0.013
		c0.171-0.065,0.38-0.147,0.656-0.243c0.101-0.035,0.2-0.077,0.387-0.158c3.034-1.253,6.617-1.099,8.919,0.382
		c1.073,0.689,2.392,3.499,3.359,7.156c0.302,1.139,0.452,2.333,0.497,3.558c0.032,0.85,0.011,1.719-0.053,2.597
		c-0.005,0.072-0.011,0.144-0.017,0.216c-0.033,0.416-0.074,0.833-0.124,1.251c-0.003,0.028-0.006,0.057-0.01,0.085
		c-0.057,0.469-0.124,0.939-0.198,1.408c-0.002,0.011-0.004,0.021-0.005,0.032c-0.069,0.435-0.146,0.869-0.226,1.301
		c-0.014,0.074-0.027,0.148-0.041,0.221c-0.083,0.435-0.169,0.868-0.26,1.296c-0.001,0.004-0.001,0.008-0.002,0.012
		c-0.091,0.429-0.185,0.852-0.28,1.271c-0.029,0.128-0.059,0.256-0.088,0.384c-0.07,0.304-0.14,0.605-0.21,0.901
		c-0.119,0.503-0.239,1.003-0.357,1.496c-0.232,0.966-0.46,1.911-0.665,2.827l-0.185,0.836c-0.513,2.332-0.996,4.535-2.117,6.499
		c-0.392,0.687-0.647,0.828-0.683,0.851c-0.002,0-0.004,0.001-0.006,0.001c-0.063-0.015-0.54-0.188-1.32-2.078
		c-0.013-0.032-0.026-0.06-0.039-0.093c-0.031-0.077-0.065-0.166-0.097-0.249c-0.032-0.081-0.062-0.156-0.095-0.243
		c-0.012-0.033-0.026-0.072-0.038-0.106c-0.119-0.323-0.244-0.678-0.375-1.081c-0.171-0.525-0.315-1.084-0.464-1.651
		c-0.023-0.087-0.047-0.176-0.07-0.263c-0.274-1.045-0.576-2.14-1.065-3.146c-0.031-0.064-0.071-0.124-0.104-0.188
		c-0.106-0.205-0.213-0.411-0.337-0.606c-0.149-0.234-0.316-0.458-0.495-0.674c-0.017-0.02-0.029-0.043-0.046-0.063
		c-0.198-0.233-0.416-0.453-0.656-0.659c-0.002-0.001-0.003-0.003-0.004-0.004c-0.242-0.207-0.507-0.398-0.798-0.572
		c-0.175-0.104-0.351-0.195-0.528-0.277c-0.057-0.026-0.116-0.047-0.174-0.071c-0.122-0.051-0.245-0.1-0.368-0.141
		c-0.066-0.022-0.133-0.039-0.199-0.058c-0.118-0.034-0.237-0.065-0.356-0.089c-0.069-0.014-0.139-0.026-0.209-0.037
		c-0.113-0.018-0.226-0.031-0.34-0.041c-0.048-0.004-0.095-0.015-0.143-0.017c-0.023-0.001-0.045,0.004-0.068,0.003
		c-1.891-0.071-3.769,1.029-5.241,3.182c-1.13,1.651-1.749,3.47-2.348,5.228c-0.23,0.676-0.462,1.354-0.723,2.024
		c-0.364,0.932-0.68,1.643-1.285,2.022c-0.01-0.006-0.019-0.011-0.029-0.019c-0.012-0.009-0.025-0.019-0.039-0.031
		c-0.021-0.018-0.044-0.04-0.068-0.064c-0.016-0.016-0.031-0.032-0.048-0.051c-0.025-0.028-0.053-0.063-0.081-0.098
		c-0.019-0.024-0.039-0.049-0.059-0.077c-0.03-0.041-0.063-0.09-0.095-0.139c-0.023-0.035-0.046-0.068-0.07-0.107
		c-0.035-0.056-0.073-0.123-0.111-0.189c-0.027-0.046-0.052-0.089-0.08-0.141c-0.041-0.075-0.085-0.163-0.13-0.25
		c-0.03-0.058-0.058-0.111-0.089-0.175c-0.051-0.104-0.107-0.226-0.162-0.346c-0.028-0.062-0.055-0.115-0.084-0.181
		c-0.087-0.196-0.179-0.409-0.276-0.646l-0.079-0.191c-2.139-5.163-2.986-10.987-3.806-16.62c-0.115-0.797-0.23-1.59-0.349-2.377
		c-0.002-0.011-0.002-0.023-0.004-0.034c-0.074-0.5-0.117-1.014-0.132-1.529c-0.001-0.038-0.005-0.075-0.006-0.114l-0.006-0.221
		C13.193,16.539,14.799,10.819,18.218,9.607z M54.496,22.974l-7.562,23.441c-0.229,0.709-0.883,1.186-1.628,1.186H11.255
		c-0.745,0-1.399-0.477-1.628-1.186L2.162,23.274c-0.382-1.185-0.099-2.438,0.759-3.352c0.634-0.678,1.479-1.042,2.358-1.042
		c0.264,0,0.53,0.033,0.796,0.1c1.922,0.483,3.718,1.428,5.219,2.739c0.002,0.046,0.011,0.091,0.014,0.138
		c0.03,0.445,0.069,0.879,0.131,1.287c0.118,0.783,0.233,1.573,0.349,2.366c0.837,5.755,1.702,11.705,3.937,17.099l0.076,0.186
		c0.117,0.284,0.255,0.61,0.407,0.944c0.037,0.081,0.07,0.16,0.109,0.242c0.053,0.112,0.115,0.223,0.173,0.334
		c0.051,0.099,0.099,0.199,0.154,0.297c0.057,0.101,0.123,0.196,0.184,0.294c0.065,0.105,0.126,0.212,0.197,0.312
		c0.061,0.087,0.131,0.162,0.197,0.244c0.08,0.1,0.156,0.205,0.242,0.296c0.069,0.073,0.148,0.129,0.222,0.194
		c0.093,0.083,0.181,0.172,0.281,0.241c0.081,0.056,0.171,0.089,0.257,0.134c0.104,0.055,0.204,0.12,0.315,0.158
		c0.095,0.033,0.201,0.037,0.301,0.055c0.107,0.02,0.207,0.056,0.32,0.059l0.047,0c0.002,0,0.003,0.001,0.005,0.001h0.203
		l0.005-0.002l0.289-0.077c1.613-0.684,2.22-2.24,2.621-3.27c0.271-0.696,0.512-1.401,0.752-2.104
		c0.581-1.707,1.13-3.318,2.105-4.745c0.472-0.69,1.722-2.252,3.315-2.307c0.073,0,0.146-0.002,0.221,0.005
		c0.179,0.015,0.359,0.051,0.539,0.105c0.055,0.016,0.111,0.037,0.167,0.057c0.2,0.073,0.401,0.158,0.601,0.278
		c0.406,0.242,0.742,0.544,1.026,0.894c0.103,0.127,0.192,0.267,0.283,0.405c0.034,0.052,0.074,0.099,0.106,0.153
		c0.592,0.985,0.915,2.224,1.25,3.509c0.158,0.606,0.314,1.203,0.497,1.764c0.094,0.289,0.192,0.577,0.293,0.862
		c0.01,0.03,0.021,0.06,0.031,0.09c0.095,0.266,0.195,0.526,0.297,0.782c0.021,0.052,0.041,0.103,0.062,0.155
		c0.1,0.242,0.204,0.477,0.312,0.704c0.027,0.057,0.054,0.114,0.082,0.17c0.109,0.22,0.222,0.43,0.34,0.63
		c0.03,0.051,0.06,0.1,0.091,0.149c0.122,0.197,0.249,0.381,0.382,0.55c0.029,0.037,0.059,0.072,0.089,0.108
		c0.14,0.167,0.285,0.32,0.437,0.451c0.027,0.023,0.054,0.042,0.081,0.064c0.16,0.129,0.326,0.24,0.501,0.322
		c0.024,0.011,0.049,0.018,0.073,0.028c0.177,0.076,0.362,0.131,0.555,0.153c0.011,0.001,0.02,0.007,0.031,0.008
		c0.28,0.031,0.551-0.004,0.814-0.091c0.71-0.192,1.359-0.767,1.929-1.763c1.271-2.231,1.812-4.689,2.334-7.067l0.182-0.821
		c0.186-0.828,0.39-1.681,0.599-2.551c0.117-0.488,0.207-1.007,0.283-1.627c0.02-0.085,0.04-0.175,0.061-0.26
		c0.06-0.256,0.12-0.513,0.18-0.771c0.035-0.151,0.069-0.301,0.104-0.453c0.09-0.4,0.179-0.801,0.265-1.205
		c0.002-0.01,0.004-0.02,0.007-0.031c0.098-0.461,0.191-0.925,0.279-1.39c0.003-0.015,0.005-0.03,0.008-0.044
		c0.086-0.454,0.166-0.909,0.24-1.365c0.003-0.021,0.007-0.043,0.01-0.064c0.226-1.405,0.386-2.816,0.439-4.213
		c0.002-0.063,0.005-0.126,0.007-0.189c0.014-0.444,0.019-0.886,0.009-1.327c0-0.008,0-0.015,0-0.023
		c1.84-1.701,4.208-2.633,6.716-2.633c1.082,0,2.067,0.502,2.704,1.376C54.654,20.852,54.829,21.943,54.496,22.974z"/>
	<circle cx="41.271" cy="22.601" r="1"/>
	<circle cx="40.271" cy="26.601" r="1"/>
	<circle cx="39.271" cy="30.601" r="1"/>
	<circle cx="38.271" cy="34.601" r="1"/>
	<circle cx="37.271" cy="38.601" r="1"/>
	<circle cx="36.271" cy="32.601" r="1"/>
	<circle cx="37.271" cy="28.601" r="1"/>
	<circle cx="38.271" cy="24.601" r="1"/>
</g>
<g>
</g>
<g>
</g>
<g>
</g>
<g>
</g>
<g>
</g>
<g>
</g>
<g>
</g>
<g>
</g>
<g>
</g>
<g>
</g>
<g>
</g>
<g>
</g>
<g>
</g>
<g>
</g>
<g>
</g>
</svg>
