<?xml version="1.0" encoding="iso-8859-1"?>
<!-- Generator: Adobe Illustrator 18.0.0, SVG Export Plug-In . SVG Version: 6.00 Build 0)  -->
<!DOCTYPE svg PUBLIC "-//W3C//DTD SVG 1.1//EN" "http://www.w3.org/Graphics/SVG/1.1/DTD/svg11.dtd">
<svg version="1.1" id="Capa_1" xmlns="http://www.w3.org/2000/svg" xmlns:xlink="http://www.w3.org/1999/xlink" x="0px" y="0px"
	 viewBox="0 0 56.599 56.599" style="enable-background:new 0 0 56.599 56.599;" xml:space="preserve">
<g>
	<path d="M53.065,10.657c-0.818-3.096-3.213-6.05-6.742-8.317c-4.349-2.796-10.498-3.11-16.047-0.813l-0.182,0.077
		c-0.097,0.042-0.191,0.084-0.292,0.119c-0.465,0.161-0.822,0.3-1.113,0.413c-0.923,0.356-0.922,0.357-2.44-0.09
		c-4.335-1.277-9.852-2.553-14.087-1.053c-5.73,2.031-10.809,8.753-9.238,19.19c0.187,1.235,0.367,2.48,0.549,3.731
		c1.313,9.016,2.668,18.339,6.155,26.758l0.12,0.291c0.865,2.107,2.314,5.635,4.836,5.635h0.203l0.187-0.079
		c2.315-0.98,3.181-3.202,3.812-4.824c0.427-1.095,0.807-2.21,1.174-3.288c0.483-1.418,0.955-2.794,1.517-4.115
		c1.27,2.585,3.865,6.799,7.292,6.799c0.401,0,0.815-0.059,1.239-0.184c2.255-0.669,3.386-2.998,4.211-4.698l0.065-0.135
		c0.173-0.356,0.394-0.769,0.631-1.215c0.239-0.449,0.5-0.948,0.756-1.46c0.25,0.806,0.468,1.635,0.682,2.457
		c0.238,0.914,0.485,1.859,0.771,2.741c1.211,3.729,2.784,7.574,5.268,7.829c1.293,0.128,2.515-0.751,3.588-2.63
		c1.96-3.435,2.801-7.261,3.613-10.961l0.285-1.293c0.32-1.43,0.676-2.905,1.039-4.413C52.961,28.64,55.277,19.018,53.065,10.657z
		 M33.149,43.92c-0.25,0.471-0.48,0.904-0.664,1.28l-0.066,0.137c-0.699,1.441-1.57,3.235-2.979,3.653
		c-3.327,1.001-6.391-6.004-6.729-6.804l-0.089-0.211c0.106-0.189,0.208-0.36,0.31-0.528c0.134-0.217,0.267-0.433,0.412-0.645
		c0.075-0.109,0.158-0.227,0.248-0.35c1.356-1.852,4.434-5.055,8.308-2.75c0.321,0.191,0.611,0.409,0.883,0.643
		c0.101,0.087,0.193,0.188,0.29,0.282c0.156,0.152,0.311,0.305,0.452,0.47c0.131,0.155,0.256,0.324,0.378,0.496
		c0.081,0.112,0.162,0.223,0.237,0.339c0.161,0.25,0.315,0.515,0.462,0.8c0.015,0.029,0.031,0.057,0.045,0.085
		C34.256,41.841,33.672,42.939,33.149,43.92z M48.973,36.661c-0.366,1.519-0.724,3.005-1.046,4.444l-0.288,1.301
		c-0.78,3.555-1.587,7.229-3.396,10.398c-0.608,1.066-1.211,1.655-1.647,1.633c-0.458-0.047-1.722-0.771-3.569-6.457
		c-0.269-0.826-0.497-1.702-0.738-2.629c-0.789-3.021-1.673-6.396-4.245-8.565c-0.008-0.007-0.016-0.012-0.024-0.019
		c-0.337-0.282-0.7-0.547-1.099-0.784c-3.817-2.271-8.12-0.857-11.229,3.69c-0.175,0.256-0.347,0.525-0.522,0.817
		c-1.411,2.317-2.272,4.83-3.103,7.271c-0.361,1.059-0.733,2.153-1.145,3.207c-0.64,1.642-1.238,2.961-2.512,3.608
		c-1.133-0.283-2.344-3.229-2.813-4.373l-0.122-0.297c-3.392-8.188-4.729-17.386-6.023-26.28c-0.183-1.255-0.364-2.503-0.55-3.74
		c-1.01-6.71,1.05-14.57,7.928-17.009c1.12-0.396,2.389-0.557,3.717-0.557c3.058,0,6.428,0.849,9.024,1.611
		c6.423,3.649,6.423,5.228,6.397,11.753l-0.003,1.32c0,0.553,0.447,1,1,1s1-0.447,1-1l0.003-1.313
		C33.991,9.972,33.983,7.278,29.413,4l0.001,0c0.273-0.106,0.607-0.236,1.041-0.387c0.146-0.051,0.291-0.112,0.438-0.176
		l0.149-0.064c4.951-2.047,10.392-1.8,14.199,0.648c3.108,1.998,5.2,4.536,5.891,7.147C53.215,19.041,50.961,28.402,48.973,36.661z"
		/>
	<circle cx="17.665" cy="13.005" r="1"/>
	<circle cx="15.665" cy="15.005" r="1"/>
	<circle cx="15.665" cy="19.005" r="1"/>
	<circle cx="7.665" cy="19.005" r="1"/>
	<circle cx="19.665" cy="15.005" r="1"/>
	<circle cx="21.665" cy="13.005" r="1"/>
	<circle cx="17.665" cy="9.005" r="1"/>
	<circle cx="15.665" cy="11.005" r="1"/>
	<circle cx="19.665" cy="11.005" r="1"/>
	<circle cx="21.665" cy="9.005" r="1"/>
	<circle cx="9.665" cy="13.005" r="1"/>
	<circle cx="7.665" cy="15.005" r="1"/>
	<circle cx="11.665" cy="15.005" r="1"/>
	<circle cx="13.665" cy="13.005" r="1"/>
	<circle cx="9.665" cy="9.005" r="1"/>
	<circle cx="7.665" cy="11.005" r="1"/>
	<circle cx="11.665" cy="11.005" r="1"/>
	<circle cx="13.665" cy="9.005" r="1"/>
	<circle cx="13.665" cy="5.005" r="1"/>
	<circle cx="11.665" cy="7.005" r="1"/>
	<circle cx="15.665" cy="7.005" r="1"/>
	<circle cx="19.665" cy="7.005" r="1"/>
	<circle cx="17.665" cy="17.005" r="1"/>
	<circle cx="13.665" cy="17.005" r="1"/>
	<circle cx="11.665" cy="19.005" r="1"/>
	<circle cx="9.665" cy="17.005" r="1"/>
	<circle cx="17.665" cy="5.005" r="1"/>
</g>
<g>
</g>
<g>
</g>
<g>
</g>
<g>
</g>
<g>
</g>
<g>
</g>
<g>
</g>
<g>
</g>
<g>
</g>
<g>
</g>
<g>
</g>
<g>
</g>
<g>
</g>
<g>
</g>
<g>
</g>
</svg>
