<?xml version="1.0" encoding="iso-8859-1"?>
<!-- Generator: Adobe Illustrator 18.0.0, SVG Export Plug-In . SVG Version: 6.00 Build 0)  -->
<!DOCTYPE svg PUBLIC "-//W3C//DTD SVG 1.1//EN" "http://www.w3.org/Graphics/SVG/1.1/DTD/svg11.dtd">
<svg version="1.1" id="Capa_1" xmlns="http://www.w3.org/2000/svg" xmlns:xlink="http://www.w3.org/1999/xlink" x="0px" y="0px"
	 viewBox="0 0 60.003 60.003" style="enable-background:new 0 0 60.003 60.003;" xml:space="preserve">
<g>
	<path d="M13.403,14.777l0.431,0.241c2.661,1.488,8.28,3.984,16.014,3.984c5.651,0,11.288-1.386,15.871-3.9l0.469-0.258l0.046-0.532
		c0.243-2.78,0.089-5.157-0.47-7.268c-0.544-2.054-2.12-4.007-4.44-5.5c-2.867-1.843-6.902-2.052-10.533-0.548l-0.13,0.055
		c-0.051,0.022-0.1,0.045-0.153,0.063c-0.302,0.104-0.533,0.193-0.722,0.267c-0.47,0.182-0.471,0.183-1.315-0.066
		c-2.809-0.829-6.389-1.653-9.179-0.663c-5.252,1.86-6.854,7.667-6.111,12.596L13.403,14.777z M19.959,2.537
		c2.275-0.805,5.625,0.012,7.944,0.696c1.333,0.392,1.623,0.395,2.605,0.013c0.171-0.065,0.38-0.147,0.648-0.24
		c0.099-0.034,0.197-0.075,0.296-0.118l0.1-0.042c3.037-1.257,6.368-1.11,8.688,0.381c1.898,1.223,3.174,2.76,3.589,4.33
		c0.463,1.749,0.612,3.731,0.453,6.045c-4.158,2.166-9.385,3.401-14.436,3.401c-5.14,0-10.433-1.271-14.608-3.496l-0.081-0.557
		C14.538,8.834,15.782,4.018,19.959,2.537z"/>
	<path d="M58.277,28.529c-0.706-0.97-1.8-1.526-3-1.526h-2.244c-4.418,0-8.468,2.493-10.512,6.329
		c-0.527-0.821-1.137-1.593-1.832-2.294c-0.947-0.956-1.97-2.398-3.053-3.927c-2.478-3.494-5.039-7.108-8.124-7.108
		c-2.997,0-5.467,3.746-7.854,7.369c-1.069,1.622-2.079,3.154-3.018,4.159c-0.626,0.67-1.159,1.406-1.64,2.169
		c-2.681-4.156-7.288-6.697-12.274-6.697c-1.2,0-2.294,0.557-3,1.526c-0.707,0.971-0.901,2.182-0.533,3.324l8.251,25.577
		c0.497,1.539,1.916,2.572,3.532,2.572h34.052c1.616,0,3.035-1.033,3.532-2.572l8.251-25.577
		C59.179,30.711,58.984,29.5,58.277,28.529z M20.101,32.897c1.055-1.129,2.109-2.729,3.227-4.424c1.899-2.883,4.265-6.47,6.185-6.47
		c2.052,0,4.41,3.328,6.492,6.266c1.132,1.597,2.201,3.104,3.265,4.178c1.081,1.09,1.923,2.376,2.522,3.766
		c0.065,0.151,0.12,0.305,0.179,0.458c0.113,0.293,0.215,0.59,0.306,0.891c0.042,0.141,0.089,0.28,0.126,0.421
		c0.107,0.408,0.193,0.823,0.259,1.241c0.022,0.141,0.038,0.283,0.056,0.424c0.045,0.36,0.075,0.722,0.089,1.085
		c0.004,0.102,0.014,0.203,0.015,0.305c0.006,0.449-0.017,0.899-0.059,1.349c-0.011,0.115-0.025,0.23-0.039,0.345
		c-0.057,0.468-0.131,0.935-0.242,1.399c-0.211,0.881-0.417,1.743-0.604,2.581l-0.184,0.829c-0.513,2.335-0.997,4.54-2.118,6.506
		c-0.428,0.748-0.695,0.851-0.69,0.855c-0.085-0.02-0.807-0.295-1.963-3.854c-0.171-0.525-0.315-1.084-0.464-1.651
		c-0.586-2.244-1.25-4.789-3.577-6.175c-2.607-1.551-5.529-0.613-7.625,2.453c-1.13,1.652-1.75,3.471-2.349,5.229
		c-0.23,0.676-0.461,1.354-0.722,2.023c-0.363,0.933-0.68,1.644-1.284,2.022c-0.221-0.146-0.67-0.676-1.426-2.519l-0.076-0.186
		c-0.964-2.327-1.751-5.004-2.408-8.184c-0.093-0.45-0.152-0.901-0.196-1.353c-0.01-0.101-0.019-0.202-0.026-0.303
		c-0.032-0.443-0.046-0.886-0.032-1.326c0.002-0.063,0.01-0.126,0.013-0.19c0.017-0.364,0.055-0.726,0.103-1.086
		c0.021-0.155,0.042-0.31,0.069-0.465c0.054-0.312,0.123-0.621,0.2-0.928c0.072-0.284,0.156-0.565,0.249-0.845
		c0.048-0.148,0.098-0.295,0.152-0.442c0.094-0.255,0.193-0.509,0.304-0.76C18.386,35.105,19.139,33.926,20.101,32.897z
		 M56.906,31.24l-8.251,25.577c-0.229,0.709-0.883,1.186-1.628,1.186H12.976c-0.745,0-1.399-0.477-1.628-1.186L3.097,31.24
		c-0.17-0.527-0.081-1.086,0.245-1.533s0.83-0.704,1.384-0.704c4.58,0,8.793,2.484,11.022,6.492c0.034,0.123,0.07,0.244,0.106,0.366
		c-0.085,0.205-0.147,0.419-0.223,0.627c-0.082,0.223-0.16,0.446-0.23,0.671c-0.068,0.219-0.135,0.437-0.192,0.659
		c-0.112,0.429-0.207,0.86-0.28,1.296c-0.021,0.128-0.034,0.256-0.052,0.384c-0.059,0.424-0.1,0.85-0.122,1.277
		c-0.005,0.093-0.014,0.185-0.016,0.278c-0.016,0.508-0.002,1.018,0.036,1.527c0.008,0.104,0.019,0.208,0.029,0.313
		c0.05,0.525,0.119,1.051,0.227,1.573c0.683,3.305,1.507,6.1,2.52,8.544l0.073,0.18c0.585,1.426,1.564,3.813,3.413,3.813h0.203
		l0.187-0.079c1.613-0.684,2.22-2.24,2.621-3.27c0.271-0.696,0.512-1.401,0.752-2.104c0.581-1.707,1.13-3.318,2.105-4.745
		c0.704-1.028,2.598-3.268,4.951-1.863c1.623,0.966,2.129,2.906,2.665,4.961c0.158,0.606,0.314,1.203,0.497,1.764
		c0.807,2.481,1.871,5.043,3.657,5.226c0.999,0.116,1.876-0.523,2.636-1.854c1.271-2.231,1.812-4.689,2.334-7.067l0.182-0.821
		c0.186-0.828,0.39-1.681,0.599-2.552c0.083-0.344,0.149-0.689,0.205-1.036c0.016-0.1,0.028-0.201,0.042-0.302
		c0.036-0.256,0.067-0.512,0.09-0.769c0.009-0.104,0.017-0.208,0.023-0.312c0.018-0.273,0.028-0.545,0.031-0.817
		c0.001-0.079,0.003-0.158,0.003-0.238c-0.004-0.728-0.062-1.453-0.173-2.168c-0.005-0.033-0.012-0.066-0.018-0.099
		c-0.052-0.32-0.115-0.638-0.188-0.953c-0.016-0.068-0.033-0.136-0.049-0.204c-0.074-0.298-0.156-0.594-0.248-0.887
		c-0.016-0.052-0.031-0.104-0.048-0.155c-0.113-0.347-0.235-0.69-0.374-1.028l0.06-0.272c1.461-3.804,5.17-6.354,9.251-6.354h2.244
		c0.554,0,1.058,0.257,1.384,0.704S57.076,30.713,56.906,31.24z"/>
</g>
<g>
</g>
<g>
</g>
<g>
</g>
<g>
</g>
<g>
</g>
<g>
</g>
<g>
</g>
<g>
</g>
<g>
</g>
<g>
</g>
<g>
</g>
<g>
</g>
<g>
</g>
<g>
</g>
<g>
</g>
</svg>
