<?xml version="1.0" encoding="iso-8859-1"?>
<!-- Generator: Adobe Illustrator 18.0.0, SVG Export Plug-In . SVG Version: 6.00 Build 0)  -->
<!DOCTYPE svg PUBLIC "-//W3C//DTD SVG 1.1//EN" "http://www.w3.org/Graphics/SVG/1.1/DTD/svg11.dtd">
<svg version="1.1" id="Capa_1" xmlns="http://www.w3.org/2000/svg" xmlns:xlink="http://www.w3.org/1999/xlink" x="0px" y="0px"
	 viewBox="0 0 60 60" style="enable-background:new 0 0 60 60;" xml:space="preserve">
<g>
	<circle cx="38" cy="12" r="1"/>
	<circle cx="34" cy="12" r="1"/>
	<circle cx="32" cy="14" r="1"/>
	<circle cx="36" cy="14" r="1"/>
	<circle cx="40" cy="14" r="1"/>
	<circle cx="20" cy="14" r="1"/>
	<circle cx="18" cy="16" r="1"/>
	<circle cx="22" cy="16" r="1"/>
	<circle cx="20" cy="18" r="1"/>
	<circle cx="38" cy="16" r="1"/>
	<circle cx="40" cy="18" r="1"/>
	<circle cx="42" cy="20" r="1"/>
	<circle cx="24" cy="14" r="1"/>
	<circle cx="28" cy="14" r="1"/>
	<path d="M59.282,36.504c0.014-0.063,0.03-0.125,0.043-0.188c0.141-0.654,0.261-1.315,0.358-1.984
		c0.011-0.078,0.019-0.155,0.03-0.233c0.077-0.56,0.137-1.125,0.182-1.694c0.013-0.156,0.026-0.312,0.036-0.469
		C59.972,31.295,60,30.651,60,30c0-0.484-0.013-0.966-0.037-1.447c-0.009-0.198-0.027-0.393-0.04-0.59
		c-0.019-0.276-0.037-0.552-0.063-0.826c-0.024-0.249-0.055-0.496-0.085-0.743c-0.026-0.216-0.052-0.432-0.082-0.647
		c-0.039-0.276-0.085-0.551-0.132-0.824c-0.031-0.18-0.062-0.36-0.097-0.539c-0.056-0.294-0.116-0.586-0.181-0.877
		c-0.035-0.155-0.071-0.31-0.108-0.465c-0.073-0.304-0.148-0.607-0.23-0.908c-0.038-0.139-0.078-0.277-0.118-0.415
		c-0.089-0.309-0.18-0.617-0.278-0.922c-0.042-0.13-0.088-0.259-0.132-0.388c-0.104-0.307-0.209-0.614-0.322-0.917
		c-0.05-0.132-0.104-0.263-0.156-0.395c-0.116-0.295-0.23-0.59-0.355-0.881c-0.075-0.174-0.157-0.345-0.235-0.518
		c-0.11-0.244-0.216-0.489-0.333-0.729c-0.203-0.419-0.416-0.834-0.638-1.244c-0.02-0.037-0.042-0.073-0.062-0.109
		c-0.21-0.384-0.429-0.764-0.656-1.14c-0.022-0.036-0.046-0.072-0.068-0.108c-0.229-0.374-0.465-0.743-0.711-1.108
		c-0.019-0.029-0.04-0.057-0.06-0.086c-0.25-0.368-0.508-0.731-0.774-1.088c-0.02-0.026-0.04-0.052-0.06-0.078
		c-0.267-0.356-0.543-0.707-0.827-1.052c-0.021-0.026-0.043-0.051-0.065-0.077c-0.184-0.222-0.366-0.446-0.557-0.664l-0.385-0.438
		L52.14,9.779C46.65,3.774,38.758,0,30,0C22.039,0,14.798,3.123,9.422,8.2L9.396,8.178L8.742,8.833
		C3.857,13.738,0.878,20.038,0.169,26.83c-0.004,0.04-0.01,0.079-0.015,0.119c-0.042,0.421-0.072,0.845-0.097,1.27
		c-0.005,0.086-0.014,0.17-0.019,0.256C0.013,28.981,0,29.489,0,30c0,0.525,0.014,1.048,0.041,1.566
		c0.012,0.235,0.036,0.469,0.054,0.703c0.021,0.281,0.038,0.563,0.067,0.842c0.029,0.277,0.069,0.552,0.105,0.827
		c0.031,0.233,0.057,0.468,0.093,0.7c0.043,0.279,0.098,0.555,0.149,0.832c0.042,0.229,0.081,0.458,0.129,0.685
		c0.055,0.262,0.119,0.521,0.181,0.781c0.058,0.243,0.114,0.486,0.177,0.726c0.063,0.238,0.133,0.474,0.202,0.711
		c0.076,0.262,0.153,0.524,0.236,0.784c0.069,0.215,0.144,0.429,0.218,0.642c0.096,0.278,0.195,0.555,0.299,0.829
		c0.077,0.202,0.157,0.402,0.238,0.602c0.111,0.274,0.226,0.547,0.345,0.817c0.047,0.108,0.088,0.217,0.137,0.325l0.287,0.632
		l0.009-0.001C7.82,53.052,18.114,60,30,60c13.372,0,24.725-8.796,28.587-20.905l0.01-0.001l0.188-0.639
		c0.018-0.06,0.029-0.121,0.046-0.181C58.998,37.691,59.149,37.101,59.282,36.504z M57.945,31.681
		c-0.009,0.146-0.022,0.291-0.033,0.437c-0.033,0.435-0.075,0.87-0.128,1.303c-0.016,0.134-0.033,0.268-0.051,0.401
		c-0.073,0.526-0.157,1.05-0.259,1.572c-0.005,0.024-0.008,0.048-0.013,0.071c-0.115,0.58-0.25,1.157-0.402,1.73
		c-0.003,0.013-0.008,0.026-0.011,0.039c-3.317,0.143-6.619-1.324-8.23-3.713c-2.253-3.342-2.109-8.997-1.225-13.175l0.022-0.106
		c0.432-2.043,1.571-7.431,3.803-8.246c0.038,0.045,0.078,0.088,0.115,0.133c0.424,0.51,0.824,1.036,1.208,1.571
		c0.103,0.144,0.207,0.287,0.307,0.432c0.381,0.553,0.742,1.118,1.082,1.695c0.075,0.127,0.148,0.255,0.22,0.383
		c0.349,0.615,0.679,1.24,0.979,1.878c0.035,0.073,0.067,0.148,0.101,0.222c0.648,1.406,1.18,2.863,1.587,4.358
		c0.009,0.034,0.02,0.067,0.029,0.101c0.195,0.729,0.357,1.467,0.493,2.211c0.016,0.087,0.032,0.175,0.047,0.263
		c0.125,0.724,0.223,1.455,0.29,2.19c0.009,0.1,0.015,0.202,0.023,0.302C57.961,28.483,58,29.24,58,30
		C58,30.561,57.979,31.121,57.945,31.681z M50.035,10.468c-2.438,1.509-3.566,5.67-4.168,8.388
		c-0.175-0.663-0.341-1.224-0.467-1.622c-0.589-1.853-1.302-3.781-2.527-5.329c-1.408-1.777-3.992-3.754-6.338-3.892
		c-1.778-0.111-3.497,0.479-5.152,1.046c-1.416,0.484-2.754,0.942-4.046,0.952c-0.825-0.01-1.729-0.074-2.704-0.159
		c-2.106-0.185-4.286-0.374-6.132,0.205c-2.566,0.809-3.901,4.357-4.659,7.262c-0.195-0.952-0.413-1.85-0.66-2.689
		c-0.708-2.404-1.415-3.959-2.31-5.051C15.882,4.884,22.609,2,30,2C37.847,2,44.946,5.249,50.035,10.468z M30.235,36.054
		c-0.818-0.402-6.588-3.398-6.588-8.043c0-0.553-0.447-1-1-1s-1,0.447-1,1c0,4.192,3.391,7.149,5.72,8.688
		c-0.061,0.025-0.119,0.052-0.185,0.074c-3.761,1.305-8.69-0.188-10.758-3.254c-1.242-1.842-1.739-4.389-1.802-7.002
		c0.007-0.708,0.037-1.435,0.116-2.201l0.009-0.088l-0.007-0.089c-0.012-0.156-0.026-0.303-0.038-0.457
		c0.103-1.165,0.277-2.298,0.497-3.338l0.022-0.106c0.077-0.365,0.178-0.841,0.303-1.374C15.669,18.943,15.825,19,16,19
		c0.552,0,1-0.448,1-1c0-0.548-0.442-0.991-0.988-0.998c0.435-1.483,1.03-3.036,1.813-4.038C17.883,12.975,17.938,13,18,13
		c0.548,0,0.99-0.441,0.997-0.987c0.036-0.014,0.069-0.036,0.105-0.048c0.581-0.183,1.254-0.251,1.96-0.274
		C21.03,11.789,21,11.89,21,12c0,0.552,0.448,1,1,1s1-0.448,1-1c0-0.099-0.029-0.188-0.056-0.278
		c0.503,0.033,1.011,0.077,1.515,0.122c0.194,0.017,0.375,0.028,0.564,0.043C25.018,11.926,25,11.96,25,12c0,0.552,0.448,1,1,1
		s1-0.448,1-1c0-0.001,0-0.002,0-0.003c0.116,0.003,0.237,0.012,0.353,0.013c0.57-0.004,1.13-0.088,1.685-0.198
		C29.025,11.875,29,11.933,29,12c0,0.552,0.448,1,1,1s1-0.448,1-1c0-0.242-0.097-0.456-0.241-0.629
		c0.427-0.135,0.852-0.276,1.271-0.419c1.035-0.354,2.029-0.675,2.993-0.835C35.083,10.611,35.489,11,36,11
		c0.517,0,0.927-0.397,0.98-0.9c1.531,0.363,3.305,1.758,4.325,3.046c0.466,0.588,0.843,1.272,1.174,1.993
		C42.335,15.058,42.177,15,42,15c-0.552,0-1,0.448-1,1s0.448,1,1,1c0.458,0,0.828-0.315,0.947-0.735
		c0.127,0.338,0.247,0.676,0.361,1.018C43.119,17.465,43,17.718,43,18c0,0.491,0.361,0.881,0.828,0.965
		c0.888,3.196,2.275,9.94-0.306,14.21c-1.132,1.874-2.867,2.996-5.304,3.431c-1.749,0.311-3.362,0.343-5.076,0.096
		c-0.383-0.055-0.877-0.183-1.355-0.307C31.264,36.26,30.732,36.13,30.235,36.054z M12.997,30.623L13,30.821
		c0.017,2.092-1.78,6.625-4.203,8.361c-1.288,0.922-2.829,1.497-4.589,1.713c-0.363-0.857-0.681-1.726-0.955-2.606
		c-0.08-0.256-0.149-0.517-0.221-0.777c-0.05-0.18-0.106-0.359-0.153-0.541c-0.097-0.377-0.183-0.758-0.264-1.141
		c-0.015-0.068-0.033-0.135-0.047-0.204c-0.084-0.41-0.156-0.824-0.222-1.241c-0.007-0.045-0.017-0.089-0.024-0.135
		c-0.063-0.415-0.115-0.833-0.16-1.253c-0.005-0.049-0.013-0.097-0.018-0.146c-0.041-0.401-0.069-0.805-0.092-1.21
		c-0.004-0.07-0.012-0.14-0.016-0.21C2.012,30.957,2,30.48,2,30c0-0.468,0.013-0.933,0.035-1.395
		c0.006-0.115,0.017-0.228,0.024-0.343c0.022-0.353,0.046-0.706,0.081-1.055c0.01-0.105,0.025-0.21,0.037-0.315
		c0.04-0.364,0.084-0.728,0.139-1.088c0.011-0.073,0.024-0.146,0.036-0.219c0.064-0.399,0.133-0.797,0.213-1.191
		c0.006-0.029,0.012-0.057,0.018-0.085c1.051-5.071,3.48-9.641,6.873-13.308c0.658,0.872,1.214,2.175,1.809,4.193
		c0.687,2.333,1.156,5.131,1.435,8.525c-0.076,0.967-0.105,1.956-0.076,2.941C12.62,28.084,12.734,29.417,12.997,30.623z M30,58
		C19.159,58,9.745,51.803,5.094,42.77c1.829-0.312,3.467-0.959,4.867-1.963c1.93-1.382,3.588-4.208,4.436-6.779
		c0.118,0.207,0.238,0.412,0.37,0.608c1.939,2.877,5.738,4.611,9.473,4.611c1.229,0,2.452-0.188,3.599-0.585
		c0.332-0.115,0.613-0.25,0.877-0.379c0.48-0.234,0.687-0.327,1.085-0.28c0.413,0.049,0.958,0.19,1.484,0.327
		c0.532,0.138,1.081,0.28,1.574,0.352c1.931,0.274,3.746,0.241,5.712-0.107c2.994-0.533,5.236-2.002,6.664-4.365
		c0.333-0.552,0.596-1.142,0.824-1.747c0.296,0.78,0.656,1.514,1.101,2.174c1.9,2.818,5.497,4.56,9.268,4.6
		C52.602,50.15,42.203,58,30,58z"/>
</g>
<g>
</g>
<g>
</g>
<g>
</g>
<g>
</g>
<g>
</g>
<g>
</g>
<g>
</g>
<g>
</g>
<g>
</g>
<g>
</g>
<g>
</g>
<g>
</g>
<g>
</g>
<g>
</g>
<g>
</g>
</svg>
