<?xml version="1.0" encoding="iso-8859-1"?>
<!-- Generator: Adobe Illustrator 18.0.0, SVG Export Plug-In . SVG Version: 6.00 Build 0)  -->
<!DOCTYPE svg PUBLIC "-//W3C//DTD SVG 1.1//EN" "http://www.w3.org/Graphics/SVG/1.1/DTD/svg11.dtd">
<svg version="1.1" id="Capa_1" xmlns="http://www.w3.org/2000/svg" xmlns:xlink="http://www.w3.org/1999/xlink" x="0px" y="0px"
	 viewBox="0 0 56.598 56.598" style="enable-background:new 0 0 56.598 56.598;" xml:space="preserve">
<g>
	<path d="M53.065,10.656c-0.819-3.095-3.213-6.049-6.743-8.317c-4.348-2.796-10.496-3.107-16.048-0.813l-0.177,0.076
		c-0.098,0.042-0.193,0.085-0.294,0.12c-0.465,0.161-0.822,0.3-1.113,0.412c-0.923,0.359-0.922,0.358-2.441-0.089
		c-4.334-1.277-9.853-2.553-14.086-1.053c-5.73,2.031-10.81,8.753-9.238,19.19c0.186,1.236,0.367,2.483,0.55,3.736
		c1.312,9.015,2.668,18.336,6.154,26.753l0.12,0.29c0.866,2.108,2.315,5.636,4.836,5.636h0.203l0.187-0.079
		c2.314-0.979,3.18-3.202,3.813-4.824c0.426-1.094,0.806-2.209,1.173-3.286c0.483-1.419,0.955-2.795,1.517-4.117
		c1.27,2.585,3.865,6.799,7.292,6.799c0.402,0,0.815-0.058,1.24-0.184c2.254-0.668,3.384-2.996,4.21-4.696l0.066-0.137
		c0.174-0.357,0.395-0.771,0.633-1.22c0.238-0.448,0.498-0.945,0.754-1.456c0.25,0.807,0.468,1.635,0.682,2.458
		c0.239,0.913,0.485,1.858,0.771,2.74c1.21,3.729,2.783,7.574,5.268,7.829c1.311,0.136,2.515-0.751,3.588-2.63
		c1.959-3.434,2.799-7.259,3.611-10.958l0.287-1.296c0.32-1.43,0.676-2.904,1.039-4.412C52.96,28.64,55.276,19.017,53.065,10.656z
		 M33.151,43.915c-0.251,0.472-0.482,0.908-0.666,1.284l-0.067,0.138c-0.7,1.441-1.57,3.235-2.979,3.652
		c-3.332,1.001-6.392-6.004-6.729-6.802l-0.089-0.213c0.105-0.187,0.206-0.356,0.306-0.521c0.135-0.219,0.269-0.437,0.416-0.651
		c1.197-1.751,4.428-5.557,8.555-3.101c0.321,0.191,0.61,0.409,0.883,0.642c0.102,0.088,0.195,0.19,0.293,0.285
		c0.155,0.151,0.308,0.303,0.448,0.467c0.133,0.157,0.259,0.327,0.383,0.501c0.079,0.11,0.159,0.218,0.233,0.332
		c0.163,0.253,0.319,0.521,0.468,0.81c0.014,0.026,0.028,0.052,0.041,0.078C34.256,41.838,33.673,42.935,33.151,43.915z
		 M48.972,36.661c-0.366,1.519-0.723,3.004-1.045,4.443l-0.289,1.305c-0.781,3.553-1.587,7.227-3.396,10.396
		c-0.608,1.065-1.231,1.653-1.647,1.632c-0.458-0.047-1.723-0.771-3.569-6.457c-0.268-0.826-0.497-1.702-0.739-2.628
		c-0.789-3.023-1.673-6.399-4.247-8.568c-0.006-0.005-0.012-0.009-0.017-0.014c-0.338-0.284-0.703-0.549-1.103-0.787
		c-3.818-2.271-8.12-0.857-11.23,3.69c-1.733,2.536-2.695,5.359-3.625,8.09c-0.36,1.058-0.733,2.151-1.143,3.205
		c-0.64,1.642-1.239,2.961-2.512,3.608c-1.134-0.283-2.344-3.23-2.814-4.374l-0.122-0.296c-3.39-8.187-4.729-17.383-6.022-26.275
		c-0.183-1.256-0.365-2.506-0.551-3.745c-1.01-6.71,1.05-14.57,7.929-17.009c1.12-0.396,2.388-0.557,3.716-0.557
		c3.058,0,6.428,0.849,9.025,1.61c6.423,3.65,6.423,5.228,6.398,11.755l-0.003,1.318c0,0.553,0.448,1,1,1s1-0.447,1-1l0.003-1.312
		c0.022-5.721,0.014-8.415-4.556-11.693l0.001,0c0.273-0.106,0.608-0.236,1.042-0.388c0.147-0.05,0.292-0.112,0.439-0.176
		l0.147-0.063c4.953-2.048,10.394-1.799,14.2,0.648c3.108,1.998,5.2,4.536,5.891,7.147C53.214,19.04,50.96,28.402,48.972,36.661z"/>
	<path d="M13.832,5.705c-5.238,1.856-6.764,8.42-5.964,13.733c0.075,0.496,0.501,0.852,0.987,0.852c0.05,0,0.1-0.004,0.15-0.011
		c0.546-0.083,0.922-0.592,0.84-1.138C9.164,14.613,10.33,9.067,14.5,7.59c0.521-0.185,0.793-0.756,0.608-1.276
		C14.924,5.792,14.351,5.519,13.832,5.705z"/>
</g>
<g>
</g>
<g>
</g>
<g>
</g>
<g>
</g>
<g>
</g>
<g>
</g>
<g>
</g>
<g>
</g>
<g>
</g>
<g>
</g>
<g>
</g>
<g>
</g>
<g>
</g>
<g>
</g>
<g>
</g>
</svg>
