<?xml version="1.0" encoding="iso-8859-1"?>
<!-- Generator: Adobe Illustrator 18.0.0, SVG Export Plug-In . SVG Version: 6.00 Build 0)  -->
<!DOCTYPE svg PUBLIC "-//W3C//DTD SVG 1.1//EN" "http://www.w3.org/Graphics/SVG/1.1/DTD/svg11.dtd">
<svg version="1.1" id="Capa_1" xmlns="http://www.w3.org/2000/svg" xmlns:xlink="http://www.w3.org/1999/xlink" x="0px" y="0px"
	 viewBox="0 0 60 60" style="enable-background:new 0 0 60 60;" xml:space="preserve">
<g>
	<path d="M55.267,27h-2.244c-4.419,0-8.469,2.493-10.513,6.33c-0.527-0.821-1.137-1.593-1.832-2.295
		c-0.948-0.956-1.971-2.399-3.054-3.928C35.147,23.613,32.586,20,29.501,20c-2.998,0-5.467,3.746-7.855,7.369
		c-1.069,1.622-2.079,3.154-3.018,4.159c-0.626,0.67-1.158,1.406-1.64,2.169C14.307,29.541,9.7,27,4.714,27
		c-1.2,0-2.293,0.557-3,1.526c-0.707,0.971-0.9,2.182-0.532,3.324l8.251,25.577C9.928,58.966,11.348,60,12.965,60h34.051
		c1.617,0,3.036-1.033,3.532-2.572l8.251-25.577c0.368-1.143,0.174-2.354-0.532-3.324C57.56,27.557,56.467,27,55.267,27z
		 M20.09,32.894c1.054-1.129,2.109-2.729,3.226-4.424c1.9-2.883,4.265-6.47,6.185-6.47c2.051,0,4.41,3.328,6.491,6.265
		c1.132,1.597,2.201,3.105,3.265,4.179c1.082,1.092,1.925,2.378,2.524,3.77c0.063,0.147,0.117,0.297,0.174,0.445
		c0.115,0.298,0.219,0.601,0.312,0.907c0.041,0.137,0.087,0.272,0.123,0.41c0.108,0.41,0.194,0.825,0.26,1.245
		c0.022,0.141,0.038,0.282,0.055,0.424c0.045,0.358,0.075,0.718,0.089,1.08c0.004,0.104,0.014,0.208,0.016,0.313
		c0.006,0.447-0.016,0.895-0.058,1.342c-0.011,0.118-0.025,0.237-0.04,0.354c-0.057,0.466-0.13,0.932-0.241,1.394
		c-0.212,0.881-0.417,1.743-0.605,2.581l-0.184,0.832c-0.513,2.333-0.997,4.537-2.119,6.503c-0.427,0.748-0.694,0.851-0.69,0.855
		c-0.084-0.02-0.807-0.295-1.962-3.854c-0.17-0.525-0.315-1.084-0.464-1.65c-0.586-2.245-1.25-4.79-3.578-6.176
		c-2.606-1.552-5.528-0.613-7.625,2.453c-1.129,1.652-1.749,3.47-2.347,5.228c-0.23,0.677-0.461,1.354-0.722,2.024
		c-0.364,0.934-0.681,1.646-1.287,2.024c-0.228-0.147-0.671-0.689-1.421-2.516l-0.078-0.19c-0.962-2.324-1.75-5.001-2.408-8.184
		c-0.093-0.448-0.151-0.898-0.195-1.348c-0.01-0.104-0.02-0.208-0.027-0.312c-0.032-0.441-0.046-0.882-0.032-1.32
		c0.002-0.065,0.01-0.129,0.014-0.194c0.017-0.364,0.055-0.726,0.103-1.085c0.021-0.154,0.042-0.307,0.069-0.46
		c0.055-0.321,0.126-0.639,0.206-0.954c0.07-0.271,0.151-0.54,0.239-0.808c0.05-0.155,0.102-0.309,0.159-0.462
		c0.093-0.251,0.19-0.502,0.3-0.749C18.374,35.104,19.128,33.924,20.09,32.894z M56.896,31.237l-8.251,25.577
		C48.416,57.523,47.761,58,47.016,58H12.965c-0.746,0-1.4-0.477-1.629-1.186L3.085,31.237c-0.17-0.527-0.08-1.086,0.246-1.533
		S4.161,29,4.714,29c4.581,0,8.794,2.484,11.023,6.492c0.034,0.123,0.07,0.245,0.106,0.366c-0.081,0.196-0.14,0.4-0.213,0.599
		c-0.087,0.236-0.17,0.472-0.244,0.711c-0.066,0.213-0.131,0.425-0.187,0.641c-0.113,0.431-0.209,0.865-0.282,1.303
		c-0.021,0.127-0.034,0.254-0.051,0.382c-0.059,0.423-0.1,0.848-0.121,1.275c-0.005,0.095-0.014,0.188-0.017,0.283
		c-0.016,0.507-0.001,1.014,0.036,1.522c0.008,0.107,0.019,0.213,0.029,0.32c0.05,0.524,0.119,1.048,0.227,1.57
		c0.684,3.308,1.508,6.103,2.52,8.545l0.076,0.185C18.201,54.617,19.18,57,21.027,57h0.203l0.187-0.079
		c1.612-0.683,2.219-2.239,2.621-3.27c0.271-0.697,0.512-1.402,0.752-2.105c0.581-1.706,1.13-3.317,2.105-4.744
		c0.111-0.162,0.254-0.355,0.42-0.558c0.892-1.087,2.544-2.49,4.53-1.305c1.623,0.966,2.13,2.907,2.666,4.962
		c0.158,0.605,0.314,1.202,0.497,1.763c0.806,2.481,1.87,5.043,3.658,5.226c0.987,0.104,1.874-0.521,2.634-1.854
		c1.272-2.23,1.813-4.688,2.335-7.065l0.182-0.823c0.186-0.828,0.39-1.681,0.599-2.552c0.083-0.345,0.149-0.692,0.206-1.04
		c0.016-0.096,0.026-0.192,0.04-0.287c0.037-0.262,0.069-0.524,0.092-0.786c0.009-0.1,0.016-0.199,0.022-0.299
		c0.019-0.278,0.029-0.555,0.031-0.833c0.001-0.075,0.003-0.15,0.003-0.226c-0.004-0.729-0.062-1.455-0.173-2.171
		c-0.005-0.034-0.013-0.068-0.018-0.103c-0.052-0.318-0.115-0.634-0.187-0.947c-0.016-0.071-0.034-0.141-0.051-0.211
		c-0.073-0.295-0.154-0.586-0.245-0.876c-0.017-0.055-0.033-0.11-0.051-0.166c-0.113-0.345-0.235-0.687-0.373-1.023l0.061-0.272
		C45.232,31.551,48.941,29,53.023,29h2.244c0.553,0,1.058,0.257,1.383,0.704S57.066,30.71,56.896,31.237z"/>
	<path d="M58.001,10.242H43.87c-6.586,0-12.778-2.564-17.434-7.221l-2.728-2.728c-0.002-0.002-0.003-0.002-0.005-0.004
		c-0.084-0.083-0.181-0.143-0.284-0.192c-0.029-0.013-0.058-0.021-0.088-0.032c-0.09-0.032-0.182-0.051-0.277-0.056
		C23.035,0.01,23.019,0,23.001,0h-12c-0.552,0-1,0.447-1,1v12c0,3.519,2.613,6.432,6,6.92v3.358c-0.595,0.347-1,0.985-1,1.722
		c0,1.103,0.897,2,2,2s2-0.897,2-2c0-0.737-0.405-1.375-1-1.722V19.92c3.387-0.488,6-3.401,6-6.92v-1.403
		c4.81,4.241,11.112,6.645,17.605,6.645h16.395c0.552,0,1-0.447,1-1v-6C59.001,10.689,58.553,10.242,58.001,10.242z M49.619,16.242
		l-2-4h3.303l2.337,4H49.619z M45.383,12.242l2,4h-3.764l-2.052-4.104c0.762,0.065,1.53,0.104,2.303,0.104H45.383z M22.001,2v1h-2
		c-0.552,0-1,0.447-1,1s0.448,1,1,1h2v4.242V11h-10V5h2c0.552,0,1-0.447,1-1s-0.448-1-1-1h-2V2H22.001z M17.001,18
		c-2.757,0-5-2.243-5-5h10C22.001,15.757,19.758,18,17.001,18z M24.001,3.414l1.021,1.021c3.908,3.909,8.819,6.446,14.151,7.389
		l2.206,4.412c-6.54-0.061-12.857-2.741-17.379-7.387V3.414z M57.001,16.242h-1.426l-2.337-4h3.763V16.242z"/>
</g>
<g>
</g>
<g>
</g>
<g>
</g>
<g>
</g>
<g>
</g>
<g>
</g>
<g>
</g>
<g>
</g>
<g>
</g>
<g>
</g>
<g>
</g>
<g>
</g>
<g>
</g>
<g>
</g>
<g>
</g>
</svg>
