<?xml version="1.0" encoding="iso-8859-1"?>
<!-- Generator: Adobe Illustrator 18.0.0, SVG Export Plug-In . SVG Version: 6.00 Build 0)  -->
<!DOCTYPE svg PUBLIC "-//W3C//DTD SVG 1.1//EN" "http://www.w3.org/Graphics/SVG/1.1/DTD/svg11.dtd">
<svg version="1.1" id="Capa_1" xmlns="http://www.w3.org/2000/svg" xmlns:xlink="http://www.w3.org/1999/xlink" x="0px" y="0px"
	 viewBox="0 0 60 60" style="enable-background:new 0 0 60 60;" xml:space="preserve">
<g>
	<path d="M12,33c-0.553,0-1,0.448-1,1s0.447,1,1,1h9V25h-9c-0.553,0-1,0.448-1,1s0.447,1,1,1h7v2h-7c-0.553,0-1,0.448-1,1
		s0.447,1,1,1h7v2H12z"/>
	<path d="M26,25c-0.553,0-1,0.448-1,1v9h10v-9c0-0.552-0.447-1-1-1s-1,0.448-1,1v7h-2v-7c0-0.552-0.447-1-1-1s-1,0.448-1,1v7h-2v-7
		C27,25.448,26.553,25,26,25z"/>
	<path d="M49,34c0-0.552-0.447-1-1-1h-7v-2h7c0.553,0,1-0.448,1-1s-0.447-1-1-1h-7v-2h7c0.553,0,1-0.448,1-1s-0.447-1-1-1h-9v10h9
		C48.553,35,49,34.552,49,34z"/>
	<path d="M19,46v-7c0-0.552-0.447-1-1-1s-1,0.448-1,1v5h-1v-5c0-0.552-0.447-1-1-1s-1,0.448-1,1v5h-1v-5c0-0.552-0.447-1-1-1
		s-1,0.448-1,1v7H19z"/>
	<path d="M27,40v5c0,0.552,0.447,1,1,1s1-0.448,1-1v-7h-8v7c0,0.552,0.447,1,1,1s1-0.448,1-1v-5h1v5c0,0.552,0.447,1,1,1
		s1-0.448,1-1v-5H27z"/>
	<path d="M31,39c0,0.552,0.447,1,1,1h5v1h-5c-0.553,0-1,0.448-1,1s0.447,1,1,1h5v1h-5c-0.553,0-1,0.448-1,1s0.447,1,1,1h7v-8h-7
		C31.447,38,31,38.448,31,39z"/>
	<path d="M48,40c0.553,0,1-0.448,1-1s-0.447-1-1-1h-7v8h7c0.553,0,1-0.448,1-1s-0.447-1-1-1h-5v-1h5c0.553,0,1-0.448,1-1
		s-0.447-1-1-1h-5v-1H48z"/>
	<path d="M23,19c-0.553,0-1,0.448-1,1s0.447,1,1,1h15V5H23c-0.553,0-1,0.448-1,1s0.447,1,1,1h13v5H23c-0.553,0-1,0.448-1,1
		s0.447,1,1,1h13v5H23z"/>
	<path d="M12,53c-0.553,0-1,0.448-1,1s0.447,1,1,1h5v-6h-5c-0.553,0-1,0.448-1,1s0.447,1,1,1h3v2H12z"/>
	<path d="M43,50c0,0.552,0.447,1,1,1h3v2h-3c-0.553,0-1,0.448-1,1s0.447,1,1,1h5v-6h-5C43.447,49,43,49.448,43,50z"/>
	<path d="M40,49c-0.553,0-1,0.448-1,1v3h-2v-3c0-0.552-0.447-1-1-1s-1,0.448-1,1v5h6v-5C41,49.448,40.553,49,40,49z"/>
	<path d="M32,51c0.553,0,1-0.448,1-1s-0.447-1-1-1h-5v6h5c0.553,0,1-0.448,1-1s-0.447-1-1-1h-3v-2H32z"/>
	<path d="M19,54c0,0.552,0.447,1,1,1s1-0.448,1-1v-3h2v3c0,0.552,0.447,1,1,1s1-0.448,1-1v-5h-6V54z"/>
	<path d="M5,0v60h50V0H5z M53,58H7V2h46V58z"/>
</g>
<g>
</g>
<g>
</g>
<g>
</g>
<g>
</g>
<g>
</g>
<g>
</g>
<g>
</g>
<g>
</g>
<g>
</g>
<g>
</g>
<g>
</g>
<g>
</g>
<g>
</g>
<g>
</g>
<g>
</g>
</svg>
