<?xml version="1.0" encoding="iso-8859-1"?>
<!-- Generator: Adobe Illustrator 18.0.0, SVG Export Plug-In . SVG Version: 6.00 Build 0)  -->
<!DOCTYPE svg PUBLIC "-//W3C//DTD SVG 1.1//EN" "http://www.w3.org/Graphics/SVG/1.1/DTD/svg11.dtd">
<svg version="1.1" id="Capa_1" xmlns="http://www.w3.org/2000/svg" xmlns:xlink="http://www.w3.org/1999/xlink" x="0px" y="0px"
	 viewBox="0 0 59 59" style="enable-background:new 0 0 59 59;" xml:space="preserve">
<g>
	<path d="M41.5,6h-2V4h-4V3h-4V0h-12v14h2v1h-3v6h3v1h-3v30h3v1h-3v6h14v-6h-3v-1h3V22h-3v-1h3v-6h-3v-1h2v-3h4v-1h4V8h2
		c0.552,0,1-0.447,1-1S42.052,6,41.5,6z M30.5,55v2h-10v-2h1h8H30.5z M27.5,53h-4v-1h4V53z M30.5,24v26h-1h-8h-1V24h1h8H30.5z
		 M27.5,22h-4v-1h4V22z M30.5,17v2h-1h-8h-1v-2h1h8H30.5z M27.5,15h-4v-1h4V15z M29.5,12h-8V2h8v1v8V12z M31.5,5h2v4h-2V5z M37.5,8
		h-2V6h2V8z"/>
	<path d="M18.5,2c0-0.553-0.448-1-1-1s-1,0.447-1,1v10c0,0.553,0.448,1,1,1s1-0.447,1-1V2z"/>
</g>
<g>
</g>
<g>
</g>
<g>
</g>
<g>
</g>
<g>
</g>
<g>
</g>
<g>
</g>
<g>
</g>
<g>
</g>
<g>
</g>
<g>
</g>
<g>
</g>
<g>
</g>
<g>
</g>
<g>
</g>
</svg>
