<?xml version="1.0" encoding="iso-8859-1"?>
<!-- Generator: Adobe Illustrator 18.0.0, SVG Export Plug-In . SVG Version: 6.00 Build 0)  -->
<!DOCTYPE svg PUBLIC "-//W3C//DTD SVG 1.1//EN" "http://www.w3.org/Graphics/SVG/1.1/DTD/svg11.dtd">
<svg version="1.1" id="Capa_1" xmlns="http://www.w3.org/2000/svg" xmlns:xlink="http://www.w3.org/1999/xlink" x="0px" y="0px"
	 viewBox="0 0 60.166 60.166" style="enable-background:new 0 0 60.166 60.166;" xml:space="preserve">
<g>
	<path d="M52.94,38.126c4.362-5.669,7.143-11.842,7.143-15.96c0-3.428-0.816-5.695-2.495-6.933
		c-1.452-1.069-3.151-1.052-4.403-1.067h-0.102c-0.991,0-1.974,0.229-2.844,0.661c-0.348,0.175-0.747,0.112-1.066-0.164
		c-1.111-0.966-2.563-1.497-4.09-1.497c-0.991,0-1.974,0.229-2.844,0.661c-0.347,0.174-0.746,0.111-1.066-0.164
		c-1.111-0.966-2.563-1.497-4.09-1.497c-1.844,0-3.524,0.797-4.634,2.06L29.808,3.17c-0.128-0.537-0.667-0.865-1.205-0.74
		c-0.537,0.128-0.868,0.668-0.74,1.205L30.49,14.63c-1.287-0.486-2.609-0.848-3.951-1.092c-0.156-0.029-0.313-0.058-0.47-0.084
		c-0.225-0.036-0.45-0.07-0.676-0.099c-0.353-0.047-0.706-0.084-1.059-0.113c-0.075-0.006-0.149-0.016-0.223-0.021
		c-0.463-0.033-0.925-0.047-1.385-0.049c-0.048,0-0.095-0.005-0.143-0.005c-0.125,0-0.25,0.007-0.375,0.009
		c-0.097,0.002-0.195-0.001-0.292,0.002l-1.836-7.684c-0.128-0.537-0.669-0.865-1.205-0.74c-0.537,0.128-0.868,0.668-0.74,1.205
		l1.761,7.37c-5.176,0.609-9.928,2.966-13.59,6.802C2.022,24.619-0.18,30.516,0.108,36.734c0.525,11.327,9.811,20.724,21.14,21.393
		c0.451,0.027,0.9,0.04,1.348,0.04c2.652,0,5.248-0.467,7.743-1.393l0.785,2.674c0.129,0.437,0.527,0.719,0.96,0.719
		c0.093,0,0.188-0.013,0.281-0.04c0.53-0.156,0.834-0.712,0.679-1.241l-1.089-3.71l-2.113-8.839l-1.96-8.201
		c0.716-0.61,1.798-0.936,3.226-0.969c2.057-0.082,3.072,0.776,4.005,2.027c0.861,1.155,1.561,2.483,2.089,3.968l0.166,0.517
		c0.149,0.463,0.287,0.931,0.4,1.403l1.789,7.486c0,0,0,0.001,0,0.001l1.555,6.506c0.109,0.459,0.52,0.768,0.972,0.768
		c0.077,0,0.155-0.009,0.233-0.027c0.537-0.128,0.868-0.668,0.74-1.205l-0.99-4.141c1.38-0.348,2.725-0.818,4.006-1.415
		c3.743-1.746,6.95-4.535,9.294-8.07c0.415-0.269,0.736-0.62,0.936-1.054C57.1,42.199,55.687,39.886,52.94,38.126z M54.487,43.091
		c-0.054,0.116-0.182,0.212-0.341,0.295c-0.002,0.001-0.004,0.001-0.005,0.001c-0.436,0.218-1.173,0.298-2.086,0.2
		c-0.042-0.005-0.081-0.007-0.124-0.012c-0.173-0.021-0.357-0.054-0.542-0.088c-0.109-0.021-0.219-0.042-0.331-0.067
		c-0.161-0.036-0.325-0.076-0.492-0.122c-0.167-0.046-0.338-0.099-0.512-0.156c-0.135-0.044-0.269-0.085-0.407-0.135
		c-0.324-0.118-0.654-0.249-0.993-0.406c-0.7-0.323-1.358-0.704-1.94-1.115c-0.11-0.078-0.201-0.156-0.303-0.235
		c-0.159-0.121-0.318-0.242-0.462-0.366c-0.116-0.101-0.214-0.2-0.316-0.3c-0.112-0.109-0.224-0.217-0.323-0.326
		c-0.102-0.112-0.193-0.222-0.277-0.33c-0.05-0.065-0.101-0.13-0.145-0.193c-0.061-0.089-0.109-0.172-0.157-0.255
		c-0.046-0.081-0.094-0.162-0.128-0.239c-0.032-0.072-0.052-0.137-0.072-0.203c-0.021-0.067-0.044-0.134-0.054-0.195
		c-0.012-0.081-0.007-0.151,0.003-0.218c0.005-0.039,0.002-0.083,0.014-0.116c0.006-0.015,0.011-0.03,0.017-0.045
		c0.014-0.026,0.045-0.052,0.067-0.078c0.035-0.042,0.071-0.082,0.123-0.119c0.048-0.034,0.114-0.064,0.178-0.095
		c0.056-0.026,0.109-0.054,0.174-0.076c0.078-0.027,0.175-0.047,0.27-0.068c0.078-0.017,0.151-0.037,0.238-0.049
		c0.189-0.027,0.399-0.046,0.645-0.046h0.001c1.193,0,2.695,0.377,4.123,1.036C53.332,40.357,54.82,42.368,54.487,43.091z
		 M28.452,27.056c-0.055,0.016-0.095,0.019-0.146,0.031c-0.132,0.032-0.264,0.062-0.371,0.071c-0.029,0.003-0.049-0.001-0.076,0
		c-0.113,0.004-0.218,0.001-0.3-0.016c-0.017-0.004-0.028-0.01-0.044-0.015c-0.075-0.021-0.138-0.048-0.182-0.083
		c-0.01-0.01-0.021-0.02-0.031-0.031c-0.027-0.025-0.042-0.069-0.064-0.103c-0.042-0.064-0.083-0.129-0.106-0.22
		c-0.006-0.021-0.006-0.05-0.011-0.073c-0.023-0.115-0.04-0.24-0.037-0.39c0-0.003,0.001-0.007,0.001-0.01
		c0.017-0.693,0.326-1.721,0.984-2.868c0.047-0.082,0.109-0.168,0.16-0.252c0.127-0.209,0.253-0.417,0.403-0.631
		c0.213-0.304,0.449-0.612,0.711-0.921c0.213-0.252,0.429-0.487,0.644-0.707c1.506-1.532,3.063-2.321,3.978-2.324l0.014,0
		c0.134,0.003,0.312,0.029,0.427,0.115c0.005,0.004,0.012,0.005,0.017,0.009c0.063,0.053,0.11,0.137,0.147,0.235
		c0.02,0.053,0.031,0.128,0.044,0.196c0.012,0.062,0.027,0.118,0.031,0.189c0.006,0.085-0.002,0.19-0.006,0.292
		c-0.004,0.078-0.003,0.15-0.013,0.235c-0.024,0.193-0.063,0.405-0.13,0.647c-0.08,0.287-0.187,0.587-0.319,0.894
		c-0.397,0.92-1.018,1.903-1.779,2.802v0.001c-1.015,1.199-2.217,2.176-3.298,2.681C28.858,26.921,28.644,27,28.452,27.056z
		 M21.365,56.13c-10.321-0.609-18.78-9.17-19.259-19.488c-0.263-5.667,1.743-11.04,5.648-15.13
		c3.842-4.025,9.002-6.259,14.553-6.332c3.068-0.032,6.251,0.657,9.152,2.047c-0.903,0.467-1.837,1.158-2.735,2.046
		c-0.03,0.029-0.059,0.06-0.089,0.09c-0.278,0.28-0.554,0.574-0.823,0.891c-0.18,0.213-0.35,0.427-0.513,0.642
		c-0.041,0.054-0.077,0.108-0.117,0.162c-0.121,0.164-0.239,0.327-0.35,0.491c-0.036,0.053-0.068,0.107-0.103,0.16
		c-0.109,0.167-0.215,0.333-0.314,0.5c-0.026,0.044-0.05,0.088-0.075,0.132c-0.103,0.178-0.2,0.354-0.29,0.531
		c-0.016,0.032-0.031,0.063-0.047,0.095c-0.095,0.19-0.183,0.378-0.263,0.565c-0.008,0.019-0.016,0.038-0.024,0.056
		c-0.085,0.201-0.161,0.399-0.229,0.595c-0.002,0.007-0.004,0.013-0.007,0.02c-0.143,0.417-0.246,0.821-0.308,1.208
		c-0.02-0.011-0.042-0.019-0.062-0.03c-0.326-0.182-0.658-0.347-0.997-0.489c-0.062-0.026-0.125-0.045-0.187-0.069
		c-0.279-0.11-0.561-0.208-0.847-0.29c-0.11-0.032-0.22-0.059-0.331-0.087c-0.254-0.063-0.509-0.115-0.767-0.156
		c-0.107-0.017-0.214-0.037-0.322-0.05c-0.357-0.044-0.717-0.073-1.078-0.073c-1.495,0-2.904,0.338-4.163,0.923l-1.63-1.63
		c-0.391-0.391-1.023-0.391-1.414,0s-0.391,1.023,0,1.414l1.275,1.275c-2.172,1.651-3.568,4.181-3.568,7.018
		c0,1.028,0.203,2.038,0.565,3h-1.565c-0.553,0-1,0.447-1,1s0.447,1,1,1h2.092c-0.055,0.335-0.092,0.669-0.092,1
		c0,0.73,0.119,1.431,0.339,2.079c0.533,1.572,1.661,2.825,3.104,3.454l-1.275,1.912c-0.307,0.46-0.183,1.08,0.277,1.387
		c0.171,0.113,0.363,0.168,0.554,0.168c0.323,0,0.641-0.156,0.833-0.445l1.306-1.959c1.285,1.305,3.013,2.138,4.901,2.35
		c0.316,0.036,0.637,0.054,0.961,0.054c1.419,0,2.804-0.353,4.027-1.023c0.286,0.027,0.576,0.031,0.869,0.009l1.836,7.682
		C27.108,55.866,24.27,56.302,21.365,56.13z M36.715,37.998c-1.011-1.357-2.564-2.872-5.655-2.832
		c-2.272,0.054-3.971,0.734-5.047,2.023l-0.321,0.385l1.809,7.571c-0.152-0.004-0.305-0.002-0.454-0.024l-0.356-0.053l-0.309,0.187
		c-0.983,0.596-2.124,0.911-3.298,0.911c-0.521,0-1.031-0.061-1.52-0.178c-1.222-0.292-2.314-0.934-3.124-1.849
		c-0.162-0.183-0.313-0.377-0.451-0.581c0,0-0.001,0-0.001-0.001l0,0l-0.261-0.384l-0.46-0.049l0,0
		c-1.588-0.168-2.834-1.492-3.12-3.204c-0.041-0.245-0.062-0.497-0.062-0.755c0-0.469,0.084-0.953,0.249-1.438l0.158-0.467
		l-0.273-0.41c-0.742-1.112-1.134-2.387-1.134-3.686c0-3.859,3.364-7,7.5-7c0.236,0,0.471,0.012,0.706,0.037
		c1.572,0.163,3.098,0.876,4.411,2.06c0.052,0.047,0.106,0.089,0.157,0.137c0.012,0.013,0.026,0.024,0.038,0.037l0.127,0.127
		c0.118,0.099,0.243,0.186,0.375,0.261c0.037,0.021,0.078,0.034,0.115,0.053c0.098,0.049,0.197,0.098,0.302,0.135
		c0.048,0.016,0.1,0.025,0.149,0.038c0.101,0.028,0.201,0.058,0.307,0.075c0.056,0.009,0.115,0.01,0.173,0.016
		c0.105,0.011,0.209,0.023,0.318,0.024c0.007,0,0.014,0.002,0.021,0.002c0.072,0,0.148-0.01,0.222-0.015
		c0.088-0.005,0.173-0.006,0.263-0.018c0.087-0.011,0.178-0.033,0.268-0.049c0.089-0.017,0.175-0.029,0.265-0.051
		c0.107-0.026,0.218-0.065,0.327-0.099c0.077-0.024,0.153-0.043,0.231-0.071c0.19-0.069,0.384-0.148,0.58-0.24
		c0.338-0.158,0.681-0.347,1.022-0.565c1.026-0.653,2.048-1.562,2.958-2.636c0.91-1.075,1.636-2.234,2.111-3.354
		c0.158-0.373,0.288-0.742,0.388-1.102c0.177-0.638,0.251-1.229,0.227-1.76c-0.001-0.03-0.008-0.057-0.01-0.087
		c-0.01-0.145-0.023-0.289-0.048-0.424c-0.003-0.014-0.008-0.027-0.011-0.041c-0.029-0.148-0.065-0.291-0.112-0.427
		c-0.014-0.041-0.036-0.077-0.052-0.117c-0.042-0.104-0.083-0.209-0.136-0.305c-0.026-0.047-0.061-0.088-0.09-0.133
		c-0.052-0.081-0.101-0.165-0.162-0.239c-0.086-0.106-0.184-0.202-0.288-0.293c-0.01-0.008-0.017-0.019-0.026-0.027h0
		c-0.001-0.001-0.001-0.001-0.002-0.002c-0.002-0.002-0.005-0.002-0.007-0.004c-0.164-0.137-0.347-0.243-0.538-0.331
		c-0.036-0.017-0.072-0.036-0.109-0.051c-0.19-0.077-0.391-0.13-0.602-0.162c-0.013-0.002-0.023-0.008-0.036-0.01
		c-0.064-0.039-0.13-0.073-0.193-0.111c-0.189-0.123-0.403-0.25-0.665-0.391c0.674-1.139,2.02-1.884,3.523-1.884
		c1.044,0,2.031,0.357,2.779,1.008c0.921,0.798,2.203,0.975,3.269,0.443c1.501-0.745,3.494-0.52,4.731,0.557
		c0.921,0.799,2.203,0.974,3.269,0.443c0.594-0.295,1.269-0.451,1.952-0.451h0.104c1.064,0.015,2.293-0.001,3.216,0.678
		c1.115,0.822,1.681,2.612,1.681,5.322c0,3.704-2.758,9.653-6.917,14.988c-1.704-0.786-3.464-1.219-4.958-1.219h-0.001
		c0,0,0,0-0.001,0c-1.765,0-3.017,0.607-3.511,1.682l-0.005,0.011c-0.003,0.006-0.007,0.01-0.009,0.016
		c-0.011,0.024-0.016,0.05-0.026,0.074l-0.026,0.065c-0.075,0.196-0.16,0.385-0.246,0.572c-0.022,0.048-0.041,0.098-0.064,0.145
		c-0.087,0.18-0.183,0.353-0.281,0.524c-0.026,0.045-0.049,0.093-0.076,0.137c-0.097,0.162-0.202,0.317-0.308,0.47
		c-0.034,0.049-0.065,0.1-0.1,0.148c-0.102,0.14-0.21,0.271-0.32,0.403c-0.046,0.056-0.091,0.115-0.138,0.169
		c-0.102,0.116-0.211,0.224-0.319,0.333c-0.062,0.062-0.121,0.127-0.185,0.186c-0.1,0.094-0.206,0.18-0.311,0.268
		c-0.078,0.066-0.155,0.134-0.236,0.196c-0.098,0.075-0.199,0.142-0.3,0.211c-0.095,0.065-0.189,0.132-0.286,0.192
		c-0.096,0.059-0.197,0.112-0.296,0.166c-0.082,0.045-0.163,0.09-0.247,0.131C38.343,40.544,37.607,39.193,36.715,37.998z
		 M47.391,50.059l-1.1-1.1c-0.391-0.391-1.023-0.391-1.414,0s-0.391,1.023,0,1.414l0.695,0.695
		c-0.115,0.056-0.227,0.118-0.343,0.172c-1.16,0.54-2.375,0.972-3.625,1.289l-0.102-0.426c0,0,0,0,0,0l-1.789-7.487
		c-0.053-0.221-0.109-0.44-0.168-0.657c0.022-0.01,0.044-0.021,0.066-0.031c0.326-0.152,0.638-0.329,0.942-0.519
		c0.074-0.046,0.146-0.094,0.219-0.142l1.605,1.605c0.195,0.195,0.451,0.293,0.707,0.293s0.512-0.098,0.707-0.293
		c0.391-0.391,0.391-1.023,0-1.414l-1.482-1.482c0.016-0.017,0.033-0.033,0.05-0.05c0.047-0.05,0.099-0.095,0.145-0.146
		c0.242-0.267,0.469-0.551,0.683-0.847c0.016-0.022,0.035-0.041,0.051-0.063c0.129,0.188,0.271,0.377,0.432,0.566
		c0.063,0.074,0.145,0.144,0.213,0.217c0.143,0.157,0.295,0.312,0.457,0.466c0.071,0.067,0.136,0.135,0.21,0.201
		c0.252,0.226,0.531,0.446,0.823,0.661c0.056,0.041,0.11,0.082,0.167,0.123c0.309,0.22,0.638,0.432,0.985,0.636
		c0.053,0.031,0.108,0.061,0.162,0.092c0.36,0.205,0.734,0.403,1.13,0.586c0.411,0.19,0.823,0.356,1.233,0.501
		c0.266,0.095,0.523,0.166,0.783,0.242c0.134,0.039,0.27,0.086,0.402,0.12c0.294,0.076,0.576,0.129,0.859,0.179
		c0.1,0.018,0.202,0.042,0.301,0.056c0.258,0.039,0.504,0.059,0.749,0.076c0.09,0.007,0.187,0.024,0.275,0.028
		C50.98,47.38,49.281,48.875,47.391,50.059z"/>
	<path d="M33.052,39.792c-0.138-0.535-0.688-0.855-1.218-0.72c-0.535,0.138-0.857,0.684-0.72,1.218l4.414,17.138l0.419,1.428
		c0.129,0.436,0.527,0.718,0.96,0.718c0.093,0,0.188-0.013,0.282-0.04c0.529-0.156,0.833-0.712,0.678-1.242L33.052,39.792z"/>
	<path d="M24.509,10.099c0.107,0.462,0.519,0.773,0.973,0.773c0.075,0,0.151-0.009,0.228-0.026c0.538-0.125,0.873-0.662,0.747-1.2
		L24.39,0.773c-0.125-0.538-0.664-0.87-1.2-0.747c-0.538,0.125-0.873,0.662-0.747,1.2L24.509,10.099z"/>
</g>
<g>
</g>
<g>
</g>
<g>
</g>
<g>
</g>
<g>
</g>
<g>
</g>
<g>
</g>
<g>
</g>
<g>
</g>
<g>
</g>
<g>
</g>
<g>
</g>
<g>
</g>
<g>
</g>
<g>
</g>
</svg>
