<?xml version="1.0" encoding="iso-8859-1"?>
<!-- Generator: Adobe Illustrator 18.0.0, SVG Export Plug-In . SVG Version: 6.00 Build 0)  -->
<!DOCTYPE svg PUBLIC "-//W3C//DTD SVG 1.1//EN" "http://www.w3.org/Graphics/SVG/1.1/DTD/svg11.dtd">
<svg version="1.1" id="Capa_1" xmlns="http://www.w3.org/2000/svg" xmlns:xlink="http://www.w3.org/1999/xlink" x="0px" y="0px"
	 viewBox="0 0 60 60" style="enable-background:new 0 0 60 60;" xml:space="preserve">
<g>
	<circle cx="31" cy="40" r="1"/>
	<circle cx="37" cy="29" r="1"/>
	<circle cx="28" cy="32" r="1"/>
	<circle cx="30" cy="24" r="1"/>
	<circle cx="36" cy="16" r="1"/>
	<circle cx="29" cy="10" r="1"/>
	<path d="M23,11h-2c-0.553,0-1,0.448-1,1s0.447,1,1,1h2c0.553,0,1-0.448,1-1S23.553,11,23,11z"/>
	<path d="M23,15h-2c-0.553,0-1,0.448-1,1s0.447,1,1,1h2c0.553,0,1-0.448,1-1S23.553,15,23,15z"/>
	<path d="M23,19h-2c-0.553,0-1,0.448-1,1s0.447,1,1,1h2c0.553,0,1-0.448,1-1S23.553,19,23,19z"/>
	<path d="M23,23h-2c-0.553,0-1,0.448-1,1s0.447,1,1,1h2c0.553,0,1-0.448,1-1S23.553,23,23,23z"/>
	<path d="M23,27h-2c-0.553,0-1,0.448-1,1s0.447,1,1,1h2c0.553,0,1-0.448,1-1S23.553,27,23,27z"/>
	<path d="M23,31h-2c-0.553,0-1,0.448-1,1s0.447,1,1,1h2c0.553,0,1-0.448,1-1S23.553,31,23,31z"/>
	<path d="M23,35h-2c-0.553,0-1,0.448-1,1s0.447,1,1,1h2c0.553,0,1-0.448,1-1S23.553,35,23,35z"/>
	<path d="M23,39h-2c-0.553,0-1,0.448-1,1s0.447,1,1,1h2c0.553,0,1-0.448,1-1S23.553,39,23,39z"/>
	<path d="M45.148,3H36V0H24v3h-9.148C13.279,3,12,4.279,12,5.852v39.297C12,46.721,13.279,48,14.852,48H26v3h3v3.799
		c0,0.876-0.365,1.732-1.002,2.35c-0.59,0.572-1.315,0.874-2.128,0.85C23.7,57.93,22,56.173,22,54h-0.007
		c-0.13-2.763-2.141-4.89-4.779-4.996c-1.33-0.061-2.584,0.437-3.563,1.379C12.602,51.391,12,52.806,12,54.266V59
		c0,0.552,0.447,1,1,1s1-0.448,1-1v-4.734c0-0.918,0.378-1.808,1.036-2.44c0.584-0.562,1.341-0.845,2.098-0.823
		C18.795,51.069,20,52.45,20,54.286h0.007c0.144,3.127,2.64,5.611,5.801,5.711c1.334,0.043,2.599-0.46,3.582-1.412
		c1.023-0.992,1.61-2.372,1.61-3.786V51h3v-3h11.148C46.721,48,48,46.721,48,45.148V5.852C48,4.279,46.721,3,45.148,3z M32,49h-4v-1
		v-3h4v3V49z M26,43h-9V8h26v35h-9H26z M46,45.148C46,45.618,45.618,46,45.148,46H34v-1h11V6H30H15v39h11v1H14.852
		C14.382,46,14,45.618,14,45.148V5.852C14,5.382,14.382,5,14.852,5H26V2h4h4v3h11.148C45.618,5,46,5.382,46,5.852V45.148z"/>
	<path d="M31,5h1c0.553,0,1-0.448,1-1s-0.447-1-1-1h-1c0-0.552-0.447-1-1-1s-1,0.448-1,1h-1c-0.553,0-1,0.448-1,1s0.447,1,1,1h1
		c0,0.552,0.447,1,1,1S31,5.552,31,5z"/>
</g>
<g>
</g>
<g>
</g>
<g>
</g>
<g>
</g>
<g>
</g>
<g>
</g>
<g>
</g>
<g>
</g>
<g>
</g>
<g>
</g>
<g>
</g>
<g>
</g>
<g>
</g>
<g>
</g>
<g>
</g>
</svg>
