<?xml version="1.0" encoding="iso-8859-1"?>
<!-- Generator: Adobe Illustrator 18.0.0, SVG Export Plug-In . SVG Version: 6.00 Build 0)  -->
<!DOCTYPE svg PUBLIC "-//W3C//DTD SVG 1.1//EN" "http://www.w3.org/Graphics/SVG/1.1/DTD/svg11.dtd">
<svg version="1.1" id="Capa_1" xmlns="http://www.w3.org/2000/svg" xmlns:xlink="http://www.w3.org/1999/xlink" x="0px" y="0px"
	 viewBox="0 0 59.998 59.998" style="enable-background:new 0 0 59.998 59.998;" xml:space="preserve">
<path d="M59.381,0.076c-0.375-0.155-0.804-0.07-1.09,0.217l-2,2c-0.391,0.391-0.391,1.023,0,1.414s1.023,0.391,1.414,0l0.293-0.293
	V8h-7c-0.265,0-0.52,0.105-0.707,0.293L37.697,20.887l-2.459-0.567c-1.091-0.251-2.226,0.071-3.021,0.867L1.364,52.04
	c-1.818,1.818-1.818,4.776,0,6.595c0.909,0.909,2.104,1.364,3.297,1.364c1.194,0,2.389-0.455,3.297-1.364l33.326-33.326
	c0.588-0.588,0.811-1.45,0.582-2.249c-0.229-0.799-0.875-1.412-1.685-1.599l-0.186-0.043L51.412,10h7.586c0.552,0,1-0.448,1-1V1
	C59.998,0.596,59.754,0.231,59.381,0.076z M13.393,50.372l-2.354-5.179l2.376-2.376l2.354,5.179L13.393,50.372z M9.507,54.257
	l-2.354-5.179l2.375-2.375l2.354,5.179L9.507,54.257z M6.544,57.22c-1.038,1.038-2.727,1.039-3.767,0
	c-1.038-1.039-1.038-2.729,0-3.767l2.866-2.866l2.354,5.179L6.544,57.22z M39.87,23.895L17.278,46.486l-2.354-5.179l18.706-18.706
	c0.237-0.236,0.55-0.364,0.875-0.364c0.094,0,0.188,0.011,0.282,0.033l2.824,0.652c0.037,0.016,0.077,0.016,0.115,0.027l2.003,0.462
	c0.137,0.031,0.191,0.127,0.212,0.201C39.965,23.686,39.969,23.795,39.87,23.895z"/>
<g>
</g>
<g>
</g>
<g>
</g>
<g>
</g>
<g>
</g>
<g>
</g>
<g>
</g>
<g>
</g>
<g>
</g>
<g>
</g>
<g>
</g>
<g>
</g>
<g>
</g>
<g>
</g>
<g>
</g>
</svg>
