<?xml version="1.0" encoding="iso-8859-1"?>
<!-- Generator: Adobe Illustrator 18.0.0, SVG Export Plug-In . SVG Version: 6.00 Build 0)  -->
<!DOCTYPE svg PUBLIC "-//W3C//DTD SVG 1.1//EN" "http://www.w3.org/Graphics/SVG/1.1/DTD/svg11.dtd">
<svg version="1.1" id="Capa_1" xmlns="http://www.w3.org/2000/svg" xmlns:xlink="http://www.w3.org/1999/xlink" x="0px" y="0px"
	 viewBox="0 0 59.998 59.998" style="enable-background:new 0 0 59.998 59.998;" xml:space="preserve">
<path d="M58.998,0h-4c-0.552,0-1,0.448-1,1v7h-3c-0.265,0-0.52,0.105-0.707,0.293L37.697,20.887l-2.459-0.567
	c-1.092-0.251-2.226,0.071-3.021,0.867L1.364,52.04c-1.818,1.818-1.818,4.776,0,6.595c0.909,0.909,2.104,1.364,3.297,1.364
	c1.194,0,2.389-0.455,3.297-1.364l33.326-33.326c0.588-0.588,0.811-1.45,0.582-2.249c-0.229-0.799-0.875-1.412-1.685-1.599
	l-0.186-0.043L51.412,10h3.586h4c0.552,0,1-0.448,1-1V1C59.998,0.448,59.55,0,58.998,0z M13.393,50.371l-2.354-5.179l2.376-2.376
	l2.354,5.179L13.393,50.371z M9.507,54.257l-2.354-5.179l2.375-2.375l2.354,5.179L9.507,54.257z M6.544,57.22
	c-1.038,1.038-2.728,1.039-3.767,0c-1.038-1.039-1.038-2.729,0-3.767l2.866-2.866l2.354,5.179L6.544,57.22z M39.87,23.895
	L17.278,46.486l-2.354-5.179l18.706-18.706c0.237-0.236,0.55-0.364,0.875-0.364c0.094,0,0.188,0.011,0.282,0.033l2.824,0.652
	c0.037,0.016,0.077,0.016,0.115,0.027l2.003,0.462c0.137,0.031,0.191,0.127,0.212,0.201C39.965,23.686,39.969,23.795,39.87,23.895z
	 M57.998,8h-2V2h2V8z"/>
<g>
</g>
<g>
</g>
<g>
</g>
<g>
</g>
<g>
</g>
<g>
</g>
<g>
</g>
<g>
</g>
<g>
</g>
<g>
</g>
<g>
</g>
<g>
</g>
<g>
</g>
<g>
</g>
<g>
</g>
</svg>
