<?xml version="1.0" encoding="iso-8859-1"?>
<!-- Generator: Adobe Illustrator 18.0.0, SVG Export Plug-In . SVG Version: 6.00 Build 0)  -->
<!DOCTYPE svg PUBLIC "-//W3C//DTD SVG 1.1//EN" "http://www.w3.org/Graphics/SVG/1.1/DTD/svg11.dtd">
<svg version="1.1" id="Capa_1" xmlns="http://www.w3.org/2000/svg" xmlns:xlink="http://www.w3.org/1999/xlink" x="0px" y="0px"
	 viewBox="0 0 60 60" style="enable-background:new 0 0 60 60;" xml:space="preserve">
<g>
	<path d="M50,13V0H10v13h3v1h-3v6h3v1.917V54v6h34v-6V22v-2h3v-6h-3v-1H50z M12,11V2h36v9h-1h-2V9h-2v2h-2V9h-2v2h-2V9h-2v2h-2V9h-2
		v2h-2V9h-2v2h-2V9h-2v2h-2V9h-2v2h-2V9h-2v2h-2H12z M15,23.917h2V52h-2V23.917z M45,27h-8v2h8v2h-8v2h8v2h-8v2h8v2h-8v2h8v2h-8v2h8
		v2h-8v2h8v3H31V24h14V27z M48,16v2h-3v4H29v32h16v4H15v-4h4V21.917h-4V18h-3v-2h1h34H48z M45,14H15v-1h30V14z"/>
	<rect x="17" y="18" width="6" height="2"/>
	<rect x="26" y="18" width="12" height="2"/>
	<rect x="41" y="18" width="2" height="2"/>
</g>
<g>
</g>
<g>
</g>
<g>
</g>
<g>
</g>
<g>
</g>
<g>
</g>
<g>
</g>
<g>
</g>
<g>
</g>
<g>
</g>
<g>
</g>
<g>
</g>
<g>
</g>
<g>
</g>
<g>
</g>
</svg>
