<?xml version="1.0" encoding="iso-8859-1"?>
<!-- Generator: Adobe Illustrator 18.0.0, SVG Export Plug-In . SVG Version: 6.00 Build 0)  -->
<!DOCTYPE svg PUBLIC "-//W3C//DTD SVG 1.1//EN" "http://www.w3.org/Graphics/SVG/1.1/DTD/svg11.dtd">
<svg version="1.1" id="Capa_1" xmlns="http://www.w3.org/2000/svg" xmlns:xlink="http://www.w3.org/1999/xlink" x="0px" y="0px"
	 viewBox="0 0 60 60" style="enable-background:new 0 0 60 60;" xml:space="preserve">
<g>
	<path d="M30,9c0.552,0,1-0.448,1-1V6c0-0.552-0.448-1-1-1s-1,0.448-1,1v2C29,8.552,29.448,9,30,9z"/>
	<path d="M30,36c0.552,0,1-0.448,1-1v-2c0-0.552-0.448-1-1-1s-1,0.448-1,1v2C29,35.552,29.448,36,30,36z"/>
	<path d="M30,18c0.552,0,1-0.448,1-1v-2c0-0.552-0.448-1-1-1s-1,0.448-1,1v2C29,17.552,29.448,18,30,18z"/>
	<path d="M30,45c0.552,0,1-0.448,1-1v-2c0-0.552-0.448-1-1-1s-1,0.448-1,1v2C29,44.552,29.448,45,30,45z"/>
	<path d="M30,54c0.552,0,1-0.448,1-1v-2c0-0.552-0.448-1-1-1s-1,0.448-1,1v2C29,53.552,29.448,54,30,54z"/>
	<path d="M30,27c0.552,0,1-0.448,1-1v-2c0-0.552-0.448-1-1-1s-1,0.448-1,1v2C29,26.552,29.448,27,30,27z"/>
	<path d="M53,0H7C6.448,0,6,0.448,6,1v58c0,0.552,0.448,1,1,1h46c0.553,0,1-0.448,1-1V1C54,0.448,53.553,0,53,0z M52,58H8V2h44V58z"
		/>
	<path d="M15,14l5.996,0c0.015,0,0.029,0,0.044,0c2.712,0,4.933-2.196,4.96-4.919c0.014-1.323-0.505-2.587-1.459-3.558
		C23.587,4.555,22.333,4.013,21,4h-3h-2.99c-0.017,0-0.033,0-0.049,0C12.249,4,10.029,6.196,10,8.919
		c-0.014,1.323,0.505,2.587,1.459,3.558C12.413,13.446,13.667,13.987,15,14z M23.114,6.926c0.58,0.589,0.894,1.347,0.886,2.135
		c-0.017,1.627-1.342,2.94-2.96,2.939c-0.013,0-0.025,0.001-0.04,0l-2,0V6h1.99C21.78,6.008,22.535,6.337,23.114,6.926z M14.97,6
		c0.01,0,0.02,0,0.03,0h2v6h-1.99c-0.791-0.008-1.545-0.337-2.125-0.926C12.306,10.485,11.992,9.727,12,8.94
		C12.017,7.313,13.342,6,14.97,6z"/>
	<path d="M15,28l5.996,0c0.015,0,0.029,0,0.044,0c2.712,0,4.933-2.196,4.96-4.919c0.014-1.323-0.505-2.587-1.459-3.558
		C23.587,18.555,22.333,18.013,21,18h-3h-2.99c-2.725-0.003-4.981,2.18-5.01,4.919c-0.014,1.323,0.505,2.587,1.459,3.558
		C12.413,27.446,13.667,27.987,15,28z M23.114,20.926c0.58,0.589,0.894,1.347,0.886,2.135c-0.017,1.627-1.342,2.94-2.96,2.939
		c-0.013,0-0.025,0-0.04,0l-2,0v-6h1.99C21.78,20.008,22.535,20.337,23.114,20.926z M14.97,20c0.01,0,0.02,0,0.03,0h2v6h-1.99
		c-0.791-0.008-1.545-0.337-2.125-0.926c-0.579-0.589-0.894-1.347-0.885-2.134C12.017,21.313,13.342,20,14.97,20z"/>
	<path d="M15,42l5.996,0c0.015,0,0.029,0,0.044,0c2.712,0,4.933-2.196,4.96-4.919c0.014-1.323-0.505-2.587-1.459-3.558
		C23.587,32.555,22.333,32.013,21,32h-3h-2.99c-0.017,0-0.033,0-0.049,0c-2.711,0-4.932,2.196-4.96,4.919
		c-0.014,1.323,0.505,2.587,1.459,3.558C12.413,41.446,13.667,41.987,15,42z M23.114,34.926c0.58,0.589,0.894,1.347,0.886,2.135
		c-0.017,1.627-1.342,2.94-2.96,2.939c-0.013,0-0.025,0.001-0.04,0l-2,0v-6h1.99C21.78,34.008,22.535,34.337,23.114,34.926z
		 M14.97,34c0.01,0,0.02,0,0.03,0h2v6h-1.99c-0.791-0.008-1.545-0.337-2.125-0.926c-0.579-0.589-0.894-1.347-0.885-2.134
		C12.017,35.313,13.342,34,14.97,34z"/>
	<path d="M15,56l5.996,0c0.015,0,0.029,0,0.044,0c2.712,0,4.933-2.196,4.96-4.919c0.014-1.323-0.505-2.587-1.459-3.558
		C23.587,46.555,22.333,46.013,21,46h-3h-2.99c-2.725,0-4.981,2.18-5.01,4.919c-0.014,1.323,0.505,2.587,1.459,3.558
		C12.413,55.446,13.667,55.987,15,56z M23.114,48.926c0.58,0.589,0.894,1.347,0.886,2.135c-0.017,1.627-1.342,2.94-2.96,2.939
		c-0.013,0-0.025,0-0.04,0l-2,0v-6h1.99C21.78,48.008,22.535,48.337,23.114,48.926z M14.97,48c0.01,0,0.02,0,0.03,0h2v6h-1.99
		c-0.791-0.008-1.545-0.337-2.125-0.926c-0.579-0.589-0.894-1.347-0.885-2.134C12.017,49.313,13.342,48,14.97,48z"/>
	<path d="M39,14l5.996,0c0.015,0,0.029,0,0.044,0c2.711,0,4.932-2.196,4.96-4.919c0.014-1.324-0.505-2.587-1.459-3.558
		C47.588,4.555,46.333,4.013,45,4h-3h-2.99c-0.017,0-0.033,0-0.049,0C36.249,4,34.029,6.196,34,8.919
		c-0.014,1.323,0.505,2.587,1.459,3.558C36.413,13.446,37.667,13.987,39,14z M47.114,6.926C47.693,7.515,48.008,8.273,48,9.061
		c-0.017,1.627-1.342,2.94-2.96,2.939c-0.013,0-0.025,0.001-0.04,0l-2,0V6h1.99C45.781,6.008,46.535,6.337,47.114,6.926z M38.97,6
		c0.01,0,0.02,0,0.03,0h2v6h-1.99c-0.791-0.008-1.545-0.337-2.125-0.926C36.306,10.485,35.992,9.727,36,8.94
		C36.017,7.313,37.342,6,38.97,6z"/>
	<path d="M39,28l5.996,0c0.015,0,0.029,0,0.044,0c2.711,0,4.932-2.196,4.96-4.919c0.014-1.324-0.505-2.587-1.459-3.558
		C47.588,18.555,46.333,18.013,45,18h-3h-2.99c-2.734-0.003-4.981,2.18-5.01,4.919c-0.014,1.323,0.505,2.587,1.459,3.558
		C36.413,27.446,37.667,27.987,39,28z M47.114,20.926c0.579,0.589,0.894,1.347,0.886,2.135c-0.017,1.627-1.342,2.94-2.96,2.939
		c-0.013,0-0.025,0-0.04,0l-2,0v-6h1.99C45.781,20.008,46.535,20.337,47.114,20.926z M38.97,20c0.01,0,0.02,0,0.03,0h2v6h-1.99
		c-0.791-0.008-1.545-0.337-2.125-0.926c-0.579-0.589-0.894-1.347-0.885-2.134C36.017,21.313,37.342,20,38.97,20z"/>
	<path d="M39,42l5.996,0c0.015,0,0.029,0,0.044,0c2.711,0,4.932-2.196,4.96-4.919c0.014-1.324-0.505-2.587-1.459-3.558
		C47.588,32.555,46.333,32.013,45,32h-3h-2.99c-0.017,0-0.033,0-0.049,0c-2.711,0-4.932,2.196-4.96,4.919
		c-0.014,1.323,0.505,2.587,1.459,3.558C36.413,41.446,37.667,41.987,39,42z M47.114,34.926c0.579,0.589,0.894,1.347,0.886,2.135
		c-0.017,1.627-1.342,2.94-2.96,2.939c-0.013,0-0.025,0.001-0.04,0l-2,0v-6h1.99C45.781,34.008,46.535,34.337,47.114,34.926z
		 M38.97,34c0.01,0,0.02,0,0.03,0h2v6h-1.99c-0.791-0.008-1.545-0.337-2.125-0.926c-0.579-0.589-0.894-1.347-0.885-2.134
		C36.017,35.313,37.342,34,38.97,34z"/>
	<path d="M39,56l5.996,0c0.015,0,0.029,0,0.044,0c2.711,0,4.932-2.196,4.96-4.919c0.014-1.324-0.505-2.587-1.459-3.558
		C47.588,46.555,46.333,46.013,45,46h-3h-2.99c-2.734,0-4.981,2.18-5.01,4.919c-0.014,1.323,0.505,2.587,1.459,3.558
		C36.413,55.446,37.667,55.987,39,56z M47.114,48.926c0.579,0.589,0.894,1.347,0.886,2.135c-0.017,1.627-1.342,2.94-2.96,2.939
		c-0.013,0-0.025,0-0.04,0l-2,0v-6h1.99C45.781,48.008,46.535,48.337,47.114,48.926z M38.97,48c0.01,0,0.02,0,0.03,0h2v6h-1.99
		c-0.791-0.008-1.545-0.337-2.125-0.926c-0.579-0.589-0.894-1.347-0.885-2.134C36.017,49.313,37.342,48,38.97,48z"/>
</g>
<g>
</g>
<g>
</g>
<g>
</g>
<g>
</g>
<g>
</g>
<g>
</g>
<g>
</g>
<g>
</g>
<g>
</g>
<g>
</g>
<g>
</g>
<g>
</g>
<g>
</g>
<g>
</g>
<g>
</g>
</svg>
