<?xml version="1.0" encoding="iso-8859-1"?>
<!-- Generator: Adobe Illustrator 18.0.0, SVG Export Plug-In . SVG Version: 6.00 Build 0)  -->
<!DOCTYPE svg PUBLIC "-//W3C//DTD SVG 1.1//EN" "http://www.w3.org/Graphics/SVG/1.1/DTD/svg11.dtd">
<svg version="1.1" id="Capa_1" xmlns="http://www.w3.org/2000/svg" xmlns:xlink="http://www.w3.org/1999/xlink" x="0px" y="0px"
	 viewBox="0 0 59.471 59.471" style="enable-background:new 0 0 59.471 59.471;" xml:space="preserve">
<g>
	<path d="M55.898,3.572c-7.797-7.796-25.877-2.405-40.305,12.021C1.167,30.02-4.225,48.1,3.573,55.898
		c2.424,2.424,5.84,3.573,9.833,3.573c8.851,0,20.53-5.652,30.472-15.594C58.304,29.451,63.696,11.37,55.898,3.572z M42.464,42.463
		C28.817,56.109,12.004,61.502,4.987,54.484c-7.018-7.018-1.626-23.83,12.021-37.477C26.594,7.421,37.741,1.909,45.959,1.909
		c3.48,0,6.438,0.99,8.525,3.078C61.502,12.004,56.11,28.816,42.464,42.463z"/>
	<path d="M35.506,9.926c-2.943,2.943-3.848,6.478-2.104,8.222c0.598,0.598,1.406,0.884,2.328,0.884c1.769,0,3.959-1.054,5.894-2.988
		c2.943-2.943,3.848-6.478,2.104-8.222C41.982,6.078,38.449,6.983,35.506,9.926z M40.209,14.63
		c-2.323,2.324-4.706,2.791-5.394,2.104c-0.687-0.687-0.218-3.071,2.104-5.394c1.685-1.685,3.402-2.394,4.48-2.394
		c0.408,0,0.725,0.102,0.913,0.29C43,9.923,42.532,12.307,40.209,14.63z"/>
	<path d="M17.969,19.478C10.378,27.063,6.213,34.335,5.237,41.71c-0.073,0.547,0.313,1.05,0.86,1.123
		c0.044,0.006,0.089,0.009,0.133,0.009c0.494,0,0.923-0.366,0.99-0.869c0.917-6.922,4.896-13.817,12.164-21.079
		c0.391-0.391,0.391-1.023,0-1.415C18.993,19.088,18.359,19.088,17.969,19.478z"/>
	<path d="M7.314,47.357c-0.117-0.54-0.65-0.883-1.189-0.765c-0.54,0.117-0.882,0.649-0.765,1.189
		c0.436,2.012,1.374,3.785,2.712,5.126c0.195,0.196,0.452,0.294,0.708,0.294c0.255,0,0.511-0.097,0.706-0.292
		c0.391-0.39,0.392-1.023,0.002-1.414C8.421,50.426,7.67,48.995,7.314,47.357z"/>
</g>
<g>
</g>
<g>
</g>
<g>
</g>
<g>
</g>
<g>
</g>
<g>
</g>
<g>
</g>
<g>
</g>
<g>
</g>
<g>
</g>
<g>
</g>
<g>
</g>
<g>
</g>
<g>
</g>
<g>
</g>
</svg>
