<?xml version="1.0" encoding="iso-8859-1"?>
<!-- Generator: Adobe Illustrator 18.0.0, SVG Export Plug-In . SVG Version: 6.00 Build 0)  -->
<!DOCTYPE svg PUBLIC "-//W3C//DTD SVG 1.1//EN" "http://www.w3.org/Graphics/SVG/1.1/DTD/svg11.dtd">
<svg version="1.1" id="Capa_1" xmlns="http://www.w3.org/2000/svg" xmlns:xlink="http://www.w3.org/1999/xlink" x="0px" y="0px"
	 viewBox="0 0 60.007 60.007" style="enable-background:new 0 0 60.007 60.007;" xml:space="preserve">
<g>
	<path d="M55.047,4.96C51.849,1.761,47.58,0,43.027,0s-8.822,1.761-12.021,4.96L18.279,17.687l-0.001,0c0,0,0,0,0,0L4.971,30.995
		c-6.628,6.628-6.628,17.413,0,24.042c3.314,3.314,7.667,4.971,12.021,4.971c4.354,0,8.707-1.657,12.021-4.971l26.035-26.035
		c3.199-3.198,4.96-7.467,4.96-12.021S58.246,8.158,55.047,4.96z M53.633,27.587L27.599,53.622c-5.848,5.849-15.364,5.849-21.213,0
		c-5.849-5.849-5.849-15.365,0-21.213l12.6-12.6l5.159,5.16c0.195,0.195,0.451,0.293,0.707,0.293s0.512-0.098,0.707-0.293
		c0.391-0.391,0.391-1.023,0-1.414L20.4,18.395L32.421,6.374C35.241,3.553,39.008,2,43.027,2s7.786,1.553,10.606,4.374
		c2.821,2.82,4.374,6.587,4.374,10.606S56.454,24.767,53.633,27.587z"/>
	<path d="M51.512,8.495c-0.391-0.391-1.023-0.391-1.414,0s-0.391,1.023,0,1.414c1.876,1.876,2.91,4.388,2.91,7.071
		s-1.033,5.195-2.91,7.071l-7.238,7.238c-0.391,0.391-0.391,1.023,0,1.414c0.195,0.195,0.451,0.293,0.707,0.293
		s0.512-0.098,0.707-0.293l7.238-7.238c2.254-2.253,3.496-5.267,3.496-8.485S53.766,10.749,51.512,8.495z"/>
	<path d="M32.778,41.382c-0.236,0.303-0.518,0.618-0.86,0.962c-2.231,2.245-5.798,2.735-8.478,1.167
		c-4.494-2.632-8.728-1.835-11.328,2.13c-0.303,0.461-0.174,1.082,0.288,1.384c0.169,0.111,0.359,0.164,0.547,0.164
		c0.326,0,0.645-0.159,0.837-0.452c2.707-4.125,6.578-2.712,8.645-1.501c3.512,2.056,7.996,1.447,10.907-1.482
		c0.4-0.402,0.734-0.776,1.02-1.144c0.339-0.436,0.261-1.064-0.175-1.403C33.747,40.868,33.119,40.946,32.778,41.382z"/>
	<path d="M15.935,29.784c0.989-0.914,1.924-1.777,2.783-2.637c0.391-0.391,0.391-1.023,0-1.414s-1.023-0.391-1.414,0
		c-0.832,0.831-1.752,1.682-2.727,2.582c-5.21,4.813-11.694,10.803-8.873,18.757c0.146,0.41,0.531,0.666,0.942,0.666
		c0.111,0,0.224-0.019,0.334-0.058c0.521-0.185,0.792-0.756,0.608-1.277C5.21,39.691,10.908,34.428,15.935,29.784z"/>
	<path d="M26.718,19.148l9.238-9.238l-0.65-0.763l-0.764-0.651l-9.238,9.238c-0.391,0.391-0.391,1.023,0,1.414
		c0.195,0.195,0.451,0.293,0.707,0.293S26.523,19.343,26.718,19.148z"/>
	<path d="M31.989,29.984c-0.391-0.391-1.023-0.391-1.414,0c-0.391,0.39-0.391,1.023,0,1.414l7.871,7.872
		c0.195,0.195,0.451,0.293,0.707,0.293s0.512-0.098,0.707-0.293c0.391-0.39,0.391-1.023,0-1.414L31.989,29.984z"/>
</g>
<g>
</g>
<g>
</g>
<g>
</g>
<g>
</g>
<g>
</g>
<g>
</g>
<g>
</g>
<g>
</g>
<g>
</g>
<g>
</g>
<g>
</g>
<g>
</g>
<g>
</g>
<g>
</g>
<g>
</g>
</svg>
