<?xml version="1.0" encoding="iso-8859-1"?>
<!-- Generator: Adobe Illustrator 18.0.0, SVG Export Plug-In . SVG Version: 6.00 Build 0)  -->
<!DOCTYPE svg PUBLIC "-//W3C//DTD SVG 1.1//EN" "http://www.w3.org/Graphics/SVG/1.1/DTD/svg11.dtd">
<svg version="1.1" id="Capa_1" xmlns="http://www.w3.org/2000/svg" xmlns:xlink="http://www.w3.org/1999/xlink" x="0px" y="0px"
	 viewBox="0 0 60.008 60.008" style="enable-background:new 0 0 60.008 60.008;" xml:space="preserve">
<g>
	<path d="M55.048,4.972c-6.627-6.629-17.413-6.629-24.042,0L4.971,31.006c-6.628,6.628-6.628,17.413,0,24.042
		c3.198,3.199,7.467,4.96,12.021,4.96s8.822-1.761,12.021-4.96l26.035-26.035c3.199-3.198,4.96-7.467,4.96-12.021
		S58.246,8.17,55.048,4.972z M27.598,53.634c-2.82,2.821-6.587,4.374-10.606,4.374s-7.786-1.553-10.606-4.374
		c-5.849-5.849-5.849-15.365,0-21.213l12.6-12.6l21.213,21.213L27.598,53.634z M53.634,27.599L41.613,39.62L20.399,18.406
		L32.42,6.386c1.638-1.638,3.567-2.799,5.619-3.52c-0.008,0.05-0.029,0.094-0.029,0.146c0,0.552,0.448,1,1,1s1-0.448,1-1
		c0-0.247-0.099-0.466-0.248-0.641C40.836,2.133,41.93,2,43.027,2c0.532,0,1.064,0.035,1.593,0.091
		c-0.359,0.152-0.61,0.507-0.61,0.921c0,0.552,0.448,1,1,1s1-0.448,1-1c0-0.322-0.162-0.596-0.399-0.779
		c2.693,0.467,5.274,1.678,7.431,3.618c-0.009,0.054-0.032,0.104-0.032,0.16c0,0.552,0.448,1,1,1c0.057,0,0.107-0.023,0.162-0.033
		c1.888,2.099,3.124,4.647,3.601,7.408c-0.183-0.224-0.451-0.376-0.763-0.376c-0.552,0-1,0.448-1,1c0,0.552,0.448,1,1,1
		c0.409,0,0.758-0.247,0.913-0.599c0.054,0.521,0.085,1.048,0.085,1.579c0,1.113-0.131,2.204-0.363,3.264
		c-0.174-0.146-0.39-0.244-0.635-0.244c-0.552,0-1,0.448-1,1c0,0.552,0.448,1,1,1c0.05,0,0.092-0.021,0.14-0.028
		C56.418,24.074,55.239,25.993,53.634,27.599z"/>
	<circle cx="30.01" cy="12.012" r="1"/>
	<circle cx="36.01" cy="6.012" r="1"/>
	<circle cx="36.01" cy="12.012" r="1"/>
	<circle cx="42.01" cy="6.012" r="1"/>
	<circle cx="42.01" cy="12.012" r="1"/>
	<circle cx="33.01" cy="9.012" r="1"/>
	<circle cx="39.01" cy="9.012" r="1"/>
	<circle cx="48.01" cy="6.012" r="1"/>
	<circle cx="48.01" cy="12.012" r="1"/>
	<circle cx="54.01" cy="12.012" r="1"/>
	<circle cx="45.01" cy="9.012" r="1"/>
	<circle cx="51.01" cy="9.012" r="1"/>
	<circle cx="24.01" cy="18.012" r="1"/>
	<circle cx="30.01" cy="18.012" r="1"/>
	<circle cx="30.01" cy="24.012" r="1"/>
	<circle cx="27.01" cy="15.012" r="1"/>
	<circle cx="27.01" cy="21.012" r="1"/>
	<circle cx="33.01" cy="15.012" r="1"/>
	<circle cx="36.01" cy="18.012" r="1"/>
	<circle cx="36.01" cy="24.012" r="1"/>
	<circle cx="42.01" cy="18.012" r="1"/>
	<circle cx="42.01" cy="24.012" r="1"/>
	<circle cx="39.01" cy="15.012" r="1"/>
	<circle cx="33.01" cy="21.012" r="1"/>
	<circle cx="39.01" cy="21.012" r="1"/>
	<circle cx="45.01" cy="15.012" r="1"/>
	<circle cx="48.01" cy="18.012" r="1"/>
	<circle cx="48.01" cy="24.012" r="1"/>
	<circle cx="54.01" cy="18.012" r="1"/>
	<circle cx="54.01" cy="24.012" r="1"/>
	<circle cx="51.01" cy="15.012" r="1"/>
	<circle cx="45.01" cy="21.012" r="1"/>
	<circle cx="51.01" cy="21.012" r="1"/>
	<circle cx="33.01" cy="27.012" r="1"/>
	<circle cx="36.01" cy="30.012" r="1"/>
	<circle cx="42.01" cy="30.012" r="1"/>
	<circle cx="42.01" cy="36.012" r="1"/>
	<circle cx="39.01" cy="27.012" r="1"/>
	<circle cx="39.01" cy="33.012" r="1"/>
	<circle cx="45.01" cy="27.012" r="1"/>
	<circle cx="48.01" cy="30.012" r="1"/>
	<circle cx="51.01" cy="27.012" r="1"/>
	<circle cx="45.01" cy="33.012" r="1"/>
</g>
<g>
</g>
<g>
</g>
<g>
</g>
<g>
</g>
<g>
</g>
<g>
</g>
<g>
</g>
<g>
</g>
<g>
</g>
<g>
</g>
<g>
</g>
<g>
</g>
<g>
</g>
<g>
</g>
<g>
</g>
</svg>
