<?xml version="1.0" encoding="iso-8859-1"?>
<!-- Generator: Adobe Illustrator 18.0.0, SVG Export Plug-In . SVG Version: 6.00 Build 0)  -->
<!DOCTYPE svg PUBLIC "-//W3C//DTD SVG 1.1//EN" "http://www.w3.org/Graphics/SVG/1.1/DTD/svg11.dtd">
<svg version="1.1" id="Capa_1" xmlns="http://www.w3.org/2000/svg" xmlns:xlink="http://www.w3.org/1999/xlink" x="0px" y="0px"
	 viewBox="0 0 59.99 59.99" style="enable-background:new 0 0 59.99 59.99;" xml:space="preserve">
<g>
	<path d="M23.265,18.623l-1.303,0.414c-0.526,0.167-0.817,0.729-0.65,1.256c0.135,0.426,0.529,0.697,0.953,0.697
		c0.101,0,0.203-0.015,0.303-0.047l0.697-0.221v3.902l-1.303,0.414c-0.526,0.167-0.817,0.729-0.65,1.256
		c0.135,0.426,0.529,0.697,0.953,0.697c0.101,0,0.203-0.015,0.303-0.047l0.697-0.221v3.902l-1.303,0.414
		c-0.526,0.167-0.817,0.729-0.65,1.256c0.135,0.426,0.529,0.697,0.953,0.697c0.101,0,0.203-0.015,0.303-0.047l0.697-0.221v2.268h2
		v3.333l3.5,4.667h3l3.5-4.667V34.99h2v-6.613l1.316-0.439c0.524-0.174,0.807-0.74,0.632-1.265
		c-0.174-0.523-0.739-0.808-1.265-0.632l-0.684,0.228v-3.892l1.316-0.439c0.524-0.174,0.807-0.74,0.632-1.265
		c-0.174-0.523-0.739-0.808-1.265-0.632l-0.684,0.228v-3.892l1.316-0.439c0.419-0.139,0.671-0.53,0.671-0.948h16.473l-0.106-1.097
		c-0.099-1.021-0.254-1.482-0.435-2.019c-0.087-0.26-0.188-0.559-0.304-0.995c-0.818-3.095-3.213-6.049-6.742-8.318
		C43.624-0.341,37.326-0.82,32.094,1.345l-0.19,0.081c-0.095,0.041-0.188,0.082-0.286,0.116c-0.465,0.161-0.822,0.3-1.113,0.413
		c-0.922,0.357-0.921,0.358-2.441-0.09c-3.245-0.958-9.39-2.314-14.086-0.649C8.234,3.251,5.066,7.522,4.561,13.911L4.476,14.99
		h18.789V18.623z M6.671,12.99c0.685-4.993,3.302-8.233,7.975-9.89c4.32-1.529,10.428-0.031,12.853,0.683
		c1.991,0.589,2.305,0.591,3.731,0.036c0.273-0.106,0.608-0.236,1.042-0.388c0.143-0.049,0.284-0.108,0.427-0.17l0.16-0.068
		c4.645-1.922,10.219-1.509,14.199,1.05c3.108,1.999,5.2,4.537,5.891,7.148c0.13,0.491,0.243,0.828,0.342,1.121
		c0.059,0.174,0.108,0.322,0.152,0.478H35.265v1.947l-2.316,0.772c-0.524,0.174-0.807,0.74-0.632,1.265
		c0.14,0.419,0.53,0.684,0.949,0.684c0.104,0,0.211-0.017,0.316-0.052l1.684-0.561v3.893l-2.316,0.772
		c-0.524,0.174-0.807,0.74-0.632,1.265c0.14,0.419,0.53,0.684,0.949,0.684c0.104,0,0.211-0.017,0.316-0.052l1.684-0.561v3.893
		l-2.316,0.772c-0.524,0.174-0.807,0.74-0.632,1.265c0.14,0.419,0.53,0.684,0.949,0.684c0.104,0,0.211-0.017,0.316-0.052
		l1.684-0.561v3.946h-2v4.667l-2.5,3.333h-1l-2.5-3.333V32.99h-2v-0.903l4.303-1.366c0.526-0.167,0.817-0.729,0.65-1.256
		c-0.167-0.527-0.732-0.819-1.256-0.65l-3.697,1.174v-3.901l4.303-1.366c0.526-0.167,0.817-0.729,0.65-1.256
		c-0.167-0.527-0.732-0.819-1.256-0.65l-3.697,1.174v-3.901l4.303-1.366c0.526-0.167,0.817-0.729,0.65-1.256
		c-0.167-0.527-0.732-0.819-1.256-0.65l-3.697,1.174V12.99H6.671z"/>
	<path d="M55.309,18.99H42.265v2H53.48c0.408,6.189-1.127,12.199-2.614,18.02c-0.459,1.795-0.934,3.651-1.345,5.488l-0.29,1.31
		c-0.78,3.551-1.587,7.223-3.394,10.39c-0.608,1.065-1.232,1.691-1.647,1.632c-0.458-0.047-1.724-0.771-3.569-6.456
		c-0.633-1.949-1.411-4.437-2.313-7.395c-0.014-0.045-0.028-0.088-0.043-0.13l-0.038-0.133l-0.012,0.004
		c-0.325-0.77-0.841-0.809-1.233-0.692l-0.949,0.284l0.185,0.647c-0.458,1.259-1.194,2.735-1.742,3.834l-0.464,0.939
		c-0.699,1.44-1.57,3.232-2.978,3.649c-2.515,0.753-4.827-3.408-6.207-5.891c-0.212-0.382-0.406-0.73-0.581-1.028l-0.333-0.551
		l-0.625,0.05c-0.51,0.04-1.144,0.09-4.771,9.399c-0.64,1.642-1.239,2.96-2.512,3.607c-1.134-0.283-2.345-3.231-2.815-4.376
		l-0.121-0.294c-3.39-8.187-4.729-17.383-6.023-26.277c-0.183-1.256-0.364-2.505-0.551-3.743l-0.064-0.424
		c-0.135-0.884-0.185-1.207-0.158-1.864h11.994v-2H4.41l-0.073,0.921c-0.126,1.597-0.091,1.9,0.115,3.246l0.064,0.418
		c0.186,1.236,0.367,2.481,0.549,3.734c1.312,9.016,2.668,18.338,6.154,26.755l0.119,0.288c0.866,2.108,2.315,5.638,4.837,5.638
		h0.203l0.187-0.079c2.314-0.98,3.18-3.201,3.813-4.823c0.952-2.443,2.211-5.369,3.006-7.074c1.699,3.027,4.402,7.413,8.216,6.286
		c2.253-0.668,3.383-2.995,4.208-4.693l0.454-0.921c0.26-0.521,0.561-1.124,0.858-1.755c0.603,1.95,1.137,3.646,1.597,5.06
		c1.21,3.728,2.782,7.573,5.267,7.829c1.312,0.134,2.515-0.751,3.588-2.631c1.958-3.432,2.798-7.254,3.61-10.951l0.288-1.302
		c0.405-1.809,0.876-3.649,1.331-5.431c1.603-6.271,3.259-12.754,2.594-19.611L55.309,18.99z"/>
</g>
<g>
</g>
<g>
</g>
<g>
</g>
<g>
</g>
<g>
</g>
<g>
</g>
<g>
</g>
<g>
</g>
<g>
</g>
<g>
</g>
<g>
</g>
<g>
</g>
<g>
</g>
<g>
</g>
<g>
</g>
</svg>
