<?xml version="1.0" encoding="iso-8859-1"?>
<!-- Generator: Adobe Illustrator 18.0.0, SVG Export Plug-In . SVG Version: 6.00 Build 0)  -->
<!DOCTYPE svg PUBLIC "-//W3C//DTD SVG 1.1//EN" "http://www.w3.org/Graphics/SVG/1.1/DTD/svg11.dtd">
<svg version="1.1" id="Capa_1" xmlns="http://www.w3.org/2000/svg" xmlns:xlink="http://www.w3.org/1999/xlink" x="0px" y="0px"
	 viewBox="0 0 60 60" style="enable-background:new 0 0 60 60;" xml:space="preserve">
<g>
	<path d="M22.334,19.665c-0.179,0.063-0.315,0.115-0.428,0.159c-0.072,0.028-0.126,0.052-0.076,0.058
		c-0.094-0.012-0.211-0.051-0.405-0.108c-1.675-0.497-3.819-0.986-5.535-0.375c-3.244,1.153-4.24,4.709-3.789,7.722l0.199,1.359
		c0.485,3.343,0.986,6.8,2.29,9.959l0.044,0.105C15.01,39.463,15.641,41,16.986,41h0.204l0.188-0.08
		c1.091-0.464,1.479-1.46,1.735-2.12c0.157-0.407,0.298-0.819,0.438-1.23c0.324-0.956,0.631-1.858,1.158-2.633
		c0.418-0.612,1.268-1.551,2.272-0.949c0.783,0.468,1.053,1.505,1.339,2.604c0.093,0.357,0.185,0.709,0.292,1.04
		c0.531,1.639,1.197,3.174,2.464,3.303c0.518,0.046,1.27-0.127,1.926-1.281c0.763-1.341,1.08-2.789,1.387-4.19l0.104-0.474
		c0.116-0.52,0.245-1.056,0.377-1.604c0.411-1.714,0.843-3.551,1.03-5.384h3.202c0.465,2.279,2.484,4,4.899,4c2.757,0,5-2.243,5-5
		s-2.243-5-5-5c-2.414,0-4.434,1.721-4.899,4h-3.109c-0.018-0.892-0.117-1.773-0.341-2.625c-0.34-1.288-1.31-2.502-2.731-3.419
		c-1.762-1.134-4.231-1.269-6.449-0.35L22.334,19.665z M40,24c1.654,0,3,1.346,3,3s-1.346,3-3,3s-3-1.346-3-3S38.346,24,40,24z
		 M23.238,21.453c1.596-0.66,3.4-0.587,4.597,0.185c1.001,0.646,1.67,1.443,1.882,2.247c0.177,0.673,0.26,1.383,0.277,2.115H28
		c-0.553,0-1,0.447-1,1s0.447,1,1,1h1.887c-0.186,1.649-0.584,3.339-0.963,4.917c-0.134,0.56-0.265,1.105-0.383,1.636l-0.106,0.481
		c-0.287,1.313-0.559,2.554-1.171,3.63c-0.014,0.023-0.027,0.047-0.04,0.067c-0.159-0.259-0.397-0.758-0.709-1.717
		c-0.095-0.295-0.176-0.608-0.259-0.927c-0.34-1.305-0.762-2.929-2.248-3.817c-1.684-1.005-3.627-0.401-4.951,1.539
		c-0.682,1-1.047,2.076-1.399,3.117c-0.131,0.384-0.261,0.769-0.408,1.148c-0.114,0.294-0.211,0.516-0.312,0.679
		c-0.186-0.315-0.376-0.778-0.454-0.969l-0.045-0.111c-1.208-2.928-1.691-6.26-2.159-9.481l-0.2-1.369
		c-0.319-2.13,0.32-4.772,2.48-5.54c0.339-0.121,0.73-0.17,1.146-0.17c0.886,0,1.873,0.223,2.713,0.456l-1.706,2.558L21.586,27
		l-1.293,1.293l1.414,1.414L24.414,27l-3.127-3.127l1.493-2.24c0.067-0.026,0.123-0.048,0.212-0.079
		C23.06,21.53,23.127,21.502,23.238,21.453z"/>
	<path d="M0,3v54h60V3H0z M58,55H2V5h56V55z"/>
	<path d="M6,10h9c0.553,0,1-0.447,1-1s-0.447-1-1-1H6C5.447,8,5,8.447,5,9S5.447,10,6,10z"/>
	<path d="M6,14h17c0.553,0,1-0.447,1-1s-0.447-1-1-1H6c-0.553,0-1,0.447-1,1S5.447,14,6,14z"/>
	<path d="M54,42h-4c-0.553,0-1,0.447-1,1s0.447,1,1,1h4c0.553,0,1-0.447,1-1S54.553,42,54,42z"/>
	<path d="M54,46h-8c-0.553,0-1,0.447-1,1s0.447,1,1,1h8c0.553,0,1-0.447,1-1S54.553,46,54,46z"/>
	<path d="M54,50h-4c-0.553,0-1,0.447-1,1s0.447,1,1,1h4c0.553,0,1-0.447,1-1S54.553,50,54,50z"/>
	<path d="M6,48h1c0.553,0,1-0.447,1-1s-0.447-1-1-1H6c-0.553,0-1,0.447-1,1S5.447,48,6,48z"/>
	<path d="M11,46h-1c-0.553,0-1,0.447-1,1s0.447,1,1,1h1c0.553,0,1-0.447,1-1S11.553,46,11,46z"/>
	<path d="M15,46h-1c-0.553,0-1,0.447-1,1s0.447,1,1,1h1c0.553,0,1-0.447,1-1S15.553,46,15,46z"/>
	<path d="M6,52h4c0.553,0,1-0.447,1-1s-0.447-1-1-1H6c-0.553,0-1,0.447-1,1S5.447,52,6,52z"/>
	<path d="M14.29,50.29C14.109,50.479,14,50.74,14,51s0.109,0.52,0.29,0.71C14.479,51.899,14.74,52,15,52s0.52-0.101,0.71-0.29
		C15.89,51.52,16,51.26,16,51s-0.11-0.521-0.29-0.71C15.34,49.92,14.66,49.92,14.29,50.29z"/>
	<path d="M53,14h1c0.553,0,1-0.447,1-1s-0.447-1-1-1h-1c-0.553,0-1,0.447-1,1S52.447,14,53,14z"/>
	<path d="M49,14h1c0.553,0,1-0.447,1-1s-0.447-1-1-1h-1c-0.553,0-1,0.447-1,1S48.447,14,49,14z"/>
	<path d="M45,14h1c0.553,0,1-0.447,1-1s-0.447-1-1-1h-1c-0.553,0-1,0.447-1,1S44.447,14,45,14z"/>
	<path d="M42,34h-1c-0.553,0-1,0.447-1,1s0.447,1,1,1h1c0.553,0,1-0.447,1-1S42.553,34,42,34z"/>
	<path d="M38,34h-1c-0.553,0-1,0.447-1,1s0.447,1,1,1h1c0.553,0,1-0.447,1-1S38.553,34,38,34z"/>
	<path d="M53,10h1c0.553,0,1-0.447,1-1s-0.447-1-1-1h-1c-0.553,0-1,0.447-1,1S52.447,10,53,10z"/>
	<path d="M49,10h1c0.553,0,1-0.447,1-1s-0.447-1-1-1h-1c-0.553,0-1,0.447-1,1S48.447,10,49,10z"/>
	<path d="M45,10h1c0.553,0,1-0.447,1-1s-0.447-1-1-1h-1c-0.553,0-1,0.447-1,1S44.447,10,45,10z"/>
</g>
<g>
</g>
<g>
</g>
<g>
</g>
<g>
</g>
<g>
</g>
<g>
</g>
<g>
</g>
<g>
</g>
<g>
</g>
<g>
</g>
<g>
</g>
<g>
</g>
<g>
</g>
<g>
</g>
<g>
</g>
</svg>
