<?xml version="1.0" encoding="iso-8859-1"?>
<!-- Generator: Adobe Illustrator 18.0.0, SVG Export Plug-In . SVG Version: 6.00 Build 0)  -->
<!DOCTYPE svg PUBLIC "-//W3C//DTD SVG 1.1//EN" "http://www.w3.org/Graphics/SVG/1.1/DTD/svg11.dtd">
<svg version="1.1" id="Capa_1" xmlns="http://www.w3.org/2000/svg" xmlns:xlink="http://www.w3.org/1999/xlink" x="0px" y="0px"
	 viewBox="0 0 60 60" style="enable-background:new 0 0 60 60;" xml:space="preserve">
<g>
	<path d="M0,3v54h60V3H0z M58,55H2V5h56V55z"/>
	<path d="M6,13h9c0.553,0,1-0.447,1-1s-0.447-1-1-1H6c-0.553,0-1,0.447-1,1S5.447,13,6,13z"/>
	<path d="M6,17h17c0.553,0,1-0.447,1-1s-0.447-1-1-1H6c-0.553,0-1,0.447-1,1S5.447,17,6,17z"/>
	<path d="M49,41c0,0.553,0.447,1,1,1h4c0.553,0,1-0.447,1-1s-0.447-1-1-1h-4C49.447,40,49,40.447,49,41z"/>
	<path d="M54,44h-8c-0.553,0-1,0.447-1,1s0.447,1,1,1h8c0.553,0,1-0.447,1-1S54.553,44,54,44z"/>
	<path d="M54,48h-4c-0.553,0-1,0.447-1,1s0.447,1,1,1h4c0.553,0,1-0.447,1-1S54.553,48,54,48z"/>
	<path d="M20.101,30.164L20.224,31h-4.325c-0.465-2.279-2.484-4-4.899-4c-2.757,0-5,2.243-5,5s2.243,5,5,5
		c2.414,0,4.434-1.721,4.899-4h4.621c0.432,2.861,0.959,5.76,2.07,8.444l0.043,0.104C23.01,42.465,23.641,44,24.986,44h0.203
		l0.188-0.079c1.091-0.463,1.479-1.457,1.735-2.115c0.158-0.406,0.299-0.816,0.438-1.227c0.324-0.952,0.631-1.851,1.159-2.623
		c0.113-0.167,1.146-1.619,2.274-0.944c0.782,0.466,1.052,1.498,1.337,2.592c0.093,0.356,0.185,0.706,0.292,1.037
		c0.531,1.634,1.197,3.164,2.463,3.294c0.52,0.053,1.27-0.128,1.927-1.278c0.762-1.337,1.079-2.78,1.386-4.177l0.104-0.472
		c0.115-0.514,0.242-1.043,0.372-1.584c0.215-0.897,0.425-1.822,0.614-2.759C40.286,33.876,41.128,34,42,34c5.514,0,10-4.486,10-10
		c0-2.526-0.949-4.829-2.499-6.591l0.007-0.033l-0.382-0.388c-0.015-0.015-0.031-0.028-0.046-0.042
		c-0.064-0.064-0.134-0.122-0.2-0.184c-1.601-1.523-3.611-2.462-5.782-2.698c-0.027-0.003-0.053-0.009-0.08-0.012
		C42.682,14.018,42.342,14,42,14c-0.314,0-0.625,0.019-0.934,0.047c-0.095,0.009-0.189,0.023-0.283,0.035
		c-0.214,0.026-0.427,0.058-0.638,0.098c-0.106,0.02-0.21,0.042-0.315,0.065c-0.198,0.044-0.394,0.095-0.588,0.152
		c-0.103,0.03-0.207,0.057-0.31,0.091c-0.197,0.064-0.391,0.137-0.583,0.214c-0.127,0.05-0.254,0.1-0.378,0.155
		c-0.215,0.096-0.429,0.196-0.637,0.308c-0.168,0.089-0.329,0.189-0.491,0.287c-0.083,0.05-0.167,0.098-0.248,0.151
		c-0.168,0.109-0.331,0.225-0.492,0.343c-0.042,0.031-0.086,0.058-0.128,0.089l-0.564,0.428l0.01,0.03
		c-1.662,1.459-2.836,3.454-3.248,5.717c-0.582,0.1-1.16,0.241-1.7,0.464l-0.136,0.058c-0.178,0.062-0.314,0.115-0.426,0.158
		c-0.073,0.028-0.127,0.052-0.08,0.058c-0.093-0.011-0.21-0.05-0.403-0.106c-1.673-0.494-3.815-0.984-5.534-0.374
		C20.646,23.614,19.649,27.16,20.101,30.164z M11,35c-1.654,0-3-1.346-3-3s1.346-3,3-3s3,1.346,3,3S12.654,35,11,35z M37.775,17.219
		c0.293-0.184,0.597-0.346,0.907-0.49c0.028-0.013,0.054-0.027,0.082-0.04c0.315-0.141,0.639-0.259,0.968-0.357
		c0.06-0.018,0.121-0.031,0.182-0.047c0.265-0.072,0.533-0.129,0.805-0.173c0.09-0.015,0.18-0.03,0.271-0.042
		C41.323,16.029,41.659,16,42,16c0.264,0,0.526,0.014,0.784,0.04c0.071,0.007,0.14,0.02,0.21,0.029
		c0.189,0.024,0.378,0.05,0.563,0.086c0.072,0.014,0.142,0.033,0.214,0.049c0.182,0.042,0.363,0.086,0.541,0.139
		c0.065,0.02,0.129,0.043,0.194,0.064c0.18,0.06,0.359,0.124,0.533,0.195c0.06,0.025,0.119,0.051,0.178,0.078
		c0.173,0.076,0.343,0.158,0.509,0.246c0.06,0.031,0.118,0.064,0.177,0.097c0.159,0.089,0.314,0.184,0.466,0.283
		c0.063,0.042,0.127,0.084,0.189,0.127c0.139,0.097,0.273,0.198,0.405,0.303c0.07,0.056,0.14,0.111,0.208,0.169
		c0.048,0.041,0.093,0.086,0.14,0.128c-0.698,3.08-1.49,6.062-3.033,8.768c-0.608,1.064-1.243,1.697-1.646,1.631
		c-0.458-0.047-1.723-0.77-3.57-6.456c-0.267-0.824-0.495-1.697-0.736-2.621c-0.182-0.696-0.369-1.41-0.578-2.119
		C37.757,17.23,37.766,17.225,37.775,17.219z M36.068,18.651c0.11,0.405,0.217,0.811,0.322,1.21c0.238,0.91,0.484,1.853,0.77,2.732
		c1.211,3.729,2.784,7.574,5.269,7.829c0.086,0.009,0.172,0.013,0.257,0.013c1.21,0,2.329-0.888,3.33-2.643
		c1.406-2.464,2.238-5.16,2.89-7.813C49.597,21.162,50,22.534,50,24c0,4.411-3.589,8-8,8c-1.034,0-2.021-0.204-2.929-0.563
		c-0.365-0.144-0.712-0.314-1.045-0.504c-0.046-0.026-0.09-0.055-0.135-0.082c-0.271-0.161-0.527-0.339-0.773-0.528
		c-0.06-0.046-0.123-0.088-0.181-0.136c-0.241-0.196-0.464-0.41-0.679-0.631c-0.102-0.106-0.201-0.215-0.297-0.327
		c-0.131-0.151-0.254-0.308-0.373-0.468c-0.124-0.166-0.241-0.336-0.352-0.511c-0.118-0.188-0.231-0.378-0.333-0.575
		c-0.067-0.128-0.129-0.259-0.189-0.391c-0.107-0.238-0.204-0.48-0.287-0.728c-0.032-0.096-0.065-0.191-0.094-0.289
		c-0.086-0.293-0.154-0.594-0.206-0.899c-0.017-0.097-0.032-0.195-0.045-0.293C34.034,24.721,34,24.364,34,24
		C34,21.943,34.787,20.07,36.068,18.651z M25.707,24.181c1.043,0,2.24,0.308,3.152,0.576c0.801,0.237,1.081,0.266,1.773-0.005
		c0.094-0.037,0.209-0.081,0.347-0.13c0.073-0.024,0.146-0.054,0.258-0.103c0.246-0.103,0.504-0.188,0.766-0.256
		c0.002,0.081,0.019,0.158,0.023,0.238c0.015,0.306,0.043,0.609,0.086,0.907c0.019,0.137,0.038,0.273,0.062,0.407
		c0.058,0.314,0.131,0.622,0.218,0.925c0.052,0.185,0.113,0.366,0.175,0.546c0.085,0.243,0.174,0.483,0.276,0.717
		c0.082,0.189,0.174,0.372,0.268,0.555c0.079,0.153,0.162,0.302,0.248,0.449c0.112,0.192,0.222,0.385,0.346,0.569
		c0.067,0.1,0.144,0.192,0.215,0.29c0.242,0.332,0.501,0.648,0.783,0.948c0.128,0.137,0.257,0.271,0.392,0.4
		c0.136,0.129,0.272,0.256,0.415,0.377c0.25,0.214,0.51,0.417,0.781,0.606c0.041,0.029,0.078,0.062,0.12,0.09
		c0.351,0.238,0.723,0.445,1.104,0.637c0.026,0.013,0.049,0.031,0.075,0.043c-0.195,1.007-0.437,2.011-0.671,2.988
		c-0.133,0.551-0.262,1.091-0.379,1.613l-0.106,0.48c-0.287,1.308-0.559,2.542-1.17,3.615c-0.015,0.024-0.027,0.047-0.041,0.068
		c-0.159-0.258-0.397-0.755-0.709-1.712c-0.096-0.294-0.177-0.606-0.259-0.924c-0.34-1.301-0.762-2.92-2.249-3.806
		c-1.906-1.137-3.902,0.002-4.949,1.535c-0.682,0.997-1.047,2.069-1.4,3.106c-0.131,0.383-0.261,0.766-0.408,1.145
		c-0.114,0.293-0.211,0.515-0.312,0.678c-0.187-0.314-0.377-0.778-0.455-0.969l-0.045-0.109c-0.987-2.384-1.488-5.037-1.894-7.679
		H26c0.553,0,1-0.447,1-1s-0.447-1-1-1h-3.755l-0.166-1.133c-0.319-2.121,0.32-4.753,2.479-5.518
		C24.898,24.229,25.29,24.181,25.707,24.181z"/>
	<path d="M7,44h1c0.553,0,1-0.447,1-1s-0.447-1-1-1H7c-0.553,0-1,0.447-1,1S6.447,44,7,44z"/>
	<path d="M12,42h-1c-0.553,0-1,0.447-1,1s0.447,1,1,1h1c0.553,0,1-0.447,1-1S12.553,42,12,42z"/>
	<path d="M16,42h-1c-0.553,0-1,0.447-1,1s0.447,1,1,1h1c0.553,0,1-0.447,1-1S16.553,42,16,42z"/>
	<path d="M11,46H7c-0.553,0-1,0.447-1,1s0.447,1,1,1h4c0.553,0,1-0.447,1-1S11.553,46,11,46z"/>
	<path d="M15.29,46.29C15.109,46.479,15,46.729,15,47c0,0.27,0.109,0.52,0.29,0.71C15.479,47.89,15.74,48,16,48s0.52-0.11,0.71-0.29
		C16.89,47.52,17,47.27,17,47c0-0.26-0.11-0.521-0.29-0.71C16.33,45.92,15.67,45.92,15.29,46.29z"/>
</g>
<g>
</g>
<g>
</g>
<g>
</g>
<g>
</g>
<g>
</g>
<g>
</g>
<g>
</g>
<g>
</g>
<g>
</g>
<g>
</g>
<g>
</g>
<g>
</g>
<g>
</g>
<g>
</g>
<g>
</g>
</svg>
