<?xml version="1.0" encoding="iso-8859-1"?>
<!-- Generator: Adobe Illustrator 18.0.0, SVG Export Plug-In . SVG Version: 6.00 Build 0)  -->
<!DOCTYPE svg PUBLIC "-//W3C//DTD SVG 1.1//EN" "http://www.w3.org/Graphics/SVG/1.1/DTD/svg11.dtd">
<svg version="1.1" id="Capa_1" xmlns="http://www.w3.org/2000/svg" xmlns:xlink="http://www.w3.org/1999/xlink" x="0px" y="0px"
	 viewBox="0 0 60 60" style="enable-background:new 0 0 60 60;" xml:space="preserve">
<g>
	<path d="M0,3v54h60V3H0z M58,55H2V5h56V55z"/>
	<path d="M6,10h4c0.553,0,1-0.447,1-1s-0.447-1-1-1H6C5.447,8,5,8.447,5,9S5.447,10,6,10z"/>
	<path d="M6,14h8c0.553,0,1-0.447,1-1s-0.447-1-1-1H6c-0.553,0-1,0.447-1,1S5.447,14,6,14z"/>
	<path d="M51,10h4c0.553,0,1-0.447,1-1s-0.447-1-1-1h-4c-0.553,0-1,0.447-1,1S50.447,10,51,10z"/>
	<path d="M47,14h8c0.553,0,1-0.447,1-1s-0.447-1-1-1h-8c-0.553,0-1,0.447-1,1S46.447,14,47,14z"/>
	<path d="M55,16h-4c-0.553,0-1,0.447-1,1s0.447,1,1,1h4c0.553,0,1-0.447,1-1S55.553,16,55,16z"/>
	<path d="M44,47c0,0.553,0.447,1,1,1h1c0.553,0,1-0.447,1-1s-0.447-1-1-1h-1C44.447,46,44,46.447,44,47z"/>
	<path d="M50,46h-1c-0.553,0-1,0.447-1,1s0.447,1,1,1h1c0.553,0,1-0.447,1-1S50.553,46,50,46z"/>
	<path d="M54,46h-1c-0.553,0-1,0.447-1,1s0.447,1,1,1h1c0.553,0,1-0.447,1-1S54.553,46,54,46z"/>
	<path d="M49,50h-4c-0.553,0-1,0.447-1,1s0.447,1,1,1h4c0.553,0,1-0.447,1-1S49.553,50,49,50z"/>
	<path d="M53.29,50.29C53.109,50.479,53,50.729,53,51c0,0.27,0.109,0.52,0.29,0.71C53.479,51.899,53.74,52,54,52
		s0.52-0.101,0.71-0.29C54.89,51.52,55,51.26,55,51s-0.11-0.521-0.29-0.71C54.34,49.92,53.66,49.92,53.29,50.29z"/>
	<path d="M14,51h-1c-0.553,0-1,0.447-1,1s0.447,1,1,1h1c0.553,0,1-0.447,1-1S14.553,51,14,51z"/>
	<path d="M10,51H9c-0.553,0-1,0.447-1,1s0.447,1,1,1h1c0.553,0,1-0.447,1-1S10.553,51,10,51z"/>
	<path d="M5,53h1c0.553,0,1-0.447,1-1s-0.447-1-1-1H5c-0.553,0-1,0.447-1,1S4.447,53,5,53z"/>
	<path d="M14,47h-1c-0.553,0-1,0.447-1,1s0.447,1,1,1h1c0.553,0,1-0.447,1-1S14.553,47,14,47z"/>
	<path d="M10,47H9c-0.553,0-1,0.447-1,1s0.447,1,1,1h1c0.553,0,1-0.447,1-1S10.553,47,10,47z"/>
	<path d="M5,49h1c0.553,0,1-0.447,1-1s-0.447-1-1-1H5c-0.553,0-1,0.447-1,1S4.447,49,5,49z"/>
	<path d="M15,27.509v9.586C15,42.005,18.995,46,23.905,46h12.189C41.005,46,45,42.005,45,37.095v-9.586
		c0-1.301-0.89-2.387-2.089-2.711c0.242-2.135,0.236-4.266-0.294-6.27c-0.428-1.619-1.662-3.152-3.476-4.317
		c-2.239-1.441-5.389-1.61-8.225-0.437l-0.2,0.085c-0.231,0.08-0.41,0.149-0.555,0.205c-0.116,0.046-0.195,0.083-0.247,0.097
		c-0.089-0.004-0.446-0.108-0.598-0.153c-2.168-0.641-4.935-1.275-7.119-0.499c-4.116,1.458-5.377,5.987-4.8,9.828l0.203,1.375
		C16.15,24.825,15,26.029,15,27.509z M22.866,15.393c0.484-0.172,1.039-0.241,1.625-0.241c1.425,0,3.034,0.412,4.261,0.773
		c1.057,0.311,1.338,0.312,2.134,0.003c0.128-0.049,0.283-0.109,0.481-0.179c0.085-0.028,0.168-0.063,0.315-0.128
		c2.236-0.924,4.681-0.821,6.377,0.271c1.393,0.896,2.324,2.013,2.624,3.147c0.972,3.674-0.1,8.127-1.045,12.055
		c-0.178,0.735-0.351,1.455-0.507,2.152l-0.139,0.626c-0.386,1.757-0.75,3.416-1.585,4.879c-0.143,0.251-0.256,0.392-0.329,0.467
		c-0.195-0.19-0.629-0.797-1.247-2.699c-0.128-0.395-0.236-0.813-0.348-1.239c-0.457-1.75-0.975-3.733-2.827-4.837
		c-2.101-1.25-4.443-0.51-6.113,1.934c-0.876,1.281-1.352,2.678-1.812,4.028c-0.174,0.511-0.348,1.022-0.545,1.528
		c-0.225,0.577-0.423,1.033-0.733,1.31c-0.224-0.247-0.518-0.813-0.877-1.687l-0.061-0.146c-1.611-3.891-2.253-8.296-2.873-12.556
		l-0.267-1.815C18.921,20.01,19.824,16.471,22.866,15.393z M17,27.509c0-0.452,0.367-0.819,0.819-0.819h0.073
		c0.58,3.891,1.27,7.848,2.777,11.486l0.058,0.141c0.468,1.137,1.25,3.039,2.813,3.039h0.203l0.188-0.079
		c1.317-0.559,1.801-1.798,2.12-2.617c0.208-0.533,0.392-1.072,0.575-1.61c0.436-1.279,0.847-2.488,1.568-3.544
		c0.615-0.899,1.883-2.274,3.439-1.344c1.148,0.684,1.521,2.111,1.915,3.623c0.121,0.465,0.241,0.922,0.381,1.352
		c0.668,2.058,1.492,3.981,2.982,4.135c0.868,0.082,1.606-0.429,2.233-1.528c0.986-1.728,1.4-3.616,1.802-5.441l0.136-0.617
		c0.154-0.688,0.325-1.396,0.5-2.122c0.366-1.52,0.748-3.115,1.033-4.729C42.842,26.979,43,27.22,43,27.509v9.586
		C43,40.902,39.902,44,36.095,44H23.905C20.098,44,17,40.902,17,37.095V27.509z"/>
</g>
<g>
</g>
<g>
</g>
<g>
</g>
<g>
</g>
<g>
</g>
<g>
</g>
<g>
</g>
<g>
</g>
<g>
</g>
<g>
</g>
<g>
</g>
<g>
</g>
<g>
</g>
<g>
</g>
<g>
</g>
</svg>
