<?xml version="1.0" encoding="iso-8859-1"?>
<!-- Generator: Adobe Illustrator 18.0.0, SVG Export Plug-In . SVG Version: 6.00 Build 0)  -->
<!DOCTYPE svg PUBLIC "-//W3C//DTD SVG 1.1//EN" "http://www.w3.org/Graphics/SVG/1.1/DTD/svg11.dtd">
<svg version="1.1" id="Capa_1" xmlns="http://www.w3.org/2000/svg" xmlns:xlink="http://www.w3.org/1999/xlink" x="0px" y="0px"
	 viewBox="0 0 46.069 46.069" style="enable-background:new 0 0 46.069 46.069;" xml:space="preserve">
<g>
	<path d="M21.078,21.164c-0.509-2.88-5.46-3.152-6.447-3.178h-0.025c-0.982,0-2.785,0.481-3.313,2.288
		c-0.345,1.183-0.148,3.203,0.893,4.777c0.759,1.147,1.826,1.834,3.086,1.983c0.187,0.022,0.374,0.033,0.56,0.033
		c1.389,0,2.749-0.61,3.801-1.723C20.784,24.127,21.325,22.564,21.078,21.164z M18.179,23.971c-0.754,0.798-1.723,1.192-2.671,1.078
		c-0.667-0.079-1.224-0.449-1.654-1.101c-0.701-1.061-0.822-2.489-0.641-3.113c0.229-0.784,1.261-0.844,1.39-0.849
		c1.748,0.05,4.346,0.618,4.507,1.525C19.242,22.268,18.877,23.233,18.179,23.971z"/>
	<path d="M31.566,17.987H31.54c-0.988,0.025-5.939,0.298-6.447,3.178c-0.247,1.399,0.294,2.963,1.446,4.182
		c1.052,1.112,2.411,1.723,3.8,1.723c0.187,0,0.374-0.011,0.561-0.033c1.26-0.149,2.326-0.836,3.085-1.983
		c1.042-1.574,1.237-3.595,0.893-4.776C34.351,18.469,32.548,17.987,31.566,17.987z M32.317,23.95
		c-0.431,0.65-0.986,1.021-1.653,1.1c-0.945,0.114-1.917-0.28-2.671-1.077c-0.698-0.738-1.063-1.704-0.931-2.46
		c0.16-0.903,2.758-1.474,4.508-1.525c0.131,0.005,1.159,0.065,1.388,0.849C33.139,21.459,33.018,22.889,32.317,23.95z"/>
	<path d="M24.267,30.469c-0.03-0.074-0.071-0.21-0.111-0.335c-0.024-0.077-0.054-0.17-0.092-0.27L24.06,29.21l-0.68-0.104
		c-0.093-0.028-0.19-0.042-0.315-0.04c-0.139-0.002-0.244,0.014-0.344,0.05l-0.656,0.117v0.636
		c-0.038,0.098-0.066,0.189-0.091,0.265c-0.039,0.126-0.08,0.262-0.078,0.272l-2.403,4.205c-0.418,0.731-0.557,1.553-0.389,2.314
		c0.249,1.119,1.055,1.784,2.158,1.784c0.011,0,0.021,0,0.031,0c0.606-0.006,1.182-0.212,1.664-0.596
		c0.053-0.044,0.16-0.042,0.217,0.001c0.482,0.383,1.058,0.589,1.661,0.595c0.011,0,0.021,0,0.031,0c1.104,0,1.91-0.665,2.159-1.784
		c0.169-0.76,0.031-1.582-0.388-2.313L24.267,30.469z M25.072,36.492c-0.029,0.133-0.068,0.192-0.077,0.2
		c0,0.001-0.044,0.002-0.139,0.018c-0.159-0.002-0.307-0.056-0.438-0.16c-0.785-0.625-1.922-0.625-2.707,0
		c-0.132,0.104-0.278,0.158-0.439,0.16c-0.097-0.016-0.135-0.016-0.136-0.016c-0.011-0.011-0.05-0.07-0.079-0.2
		c-0.06-0.271,0.003-0.595,0.172-0.89l1.837-3.214l1.836,3.214v0.001C25.07,35.899,25.133,36.222,25.072,36.492z"/>
	<path d="M8.563,12.918c0.469-0.292,0.612-0.908,0.321-1.378c-0.292-0.47-0.907-0.61-1.378-0.321
		c-1.594,0.991-2.472,2.358-2.472,3.85s0.878,2.858,2.472,3.85c0.165,0.102,0.347,0.15,0.527,0.15c0.334,0,0.661-0.167,0.851-0.472
		c0.291-0.47,0.147-1.086-0.321-1.378c-0.985-0.612-1.528-1.376-1.528-2.15S7.577,13.531,8.563,12.918z"/>
	<path d="M37.506,17.219c-0.469,0.292-0.612,0.908-0.321,1.378c0.189,0.305,0.517,0.472,0.851,0.472c0.181,0,0.362-0.049,0.527-0.15
		c1.594-0.991,2.472-2.358,2.472-3.85s-0.878-2.858-2.472-3.85c-0.471-0.289-1.086-0.148-1.378,0.321
		c-0.291,0.47-0.147,1.086,0.321,1.378c0.985,0.612,1.528,1.376,1.528,2.15S38.491,16.607,37.506,17.219z"/>
	<path d="M44.915,29.228c-0.07-0.303-0.178-0.587-0.302-0.86c-0.027-0.06-0.054-0.119-0.083-0.177
		c-0.132-0.26-0.282-0.506-0.459-0.731c-0.026-0.034-0.057-0.063-0.084-0.095c-0.165-0.198-0.347-0.378-0.544-0.542
		c-0.045-0.038-0.087-0.078-0.134-0.114c-0.223-0.171-0.462-0.32-0.717-0.445c-0.021-0.011-0.039-0.027-0.06-0.038l0.272-0.769
		c2.218-8.442,1.434-14.965-2.33-19.385c-5.779-6.787-16.432-6.105-17.637-6.007C21.633-0.034,10.98-0.715,5.201,6.072
		C1.438,10.492,0.653,17.014,2.88,25.49l0.281,0.937c-0.037,0.022-0.067,0.054-0.103,0.077c-0.173,0.111-0.337,0.234-0.492,0.368
		c-0.046,0.04-0.094,0.075-0.137,0.116c-0.186,0.176-0.357,0.368-0.511,0.576c-0.033,0.045-0.06,0.094-0.092,0.14
		c-0.119,0.175-0.226,0.36-0.32,0.553c-0.032,0.066-0.064,0.131-0.093,0.199c-0.106,0.247-0.198,0.502-0.261,0.773
		c-0.37,1.6,0.122,3.202,1.291,4.276c-0.06,0.946-0.01,2.783,1.056,4.117c0.689,0.863,1.702,1.363,2.927,1.445l0.54,0.035
		c3.446,0.22,4.067,0.26,4.067,2.967v2.09c0,1.054,0.856,1.91,1.91,1.91h20.18c1.054,0,1.91-0.856,1.91-1.91v-2.09
		c0-2.707,0.621-2.747,4.067-2.967l0.54-0.035c1.225-0.082,2.237-0.582,2.927-1.445c1.065-1.334,1.115-3.171,1.056-4.117
		C44.793,32.43,45.285,30.827,44.915,29.228z M42.696,32.979l-0.715-0.715l-0.485,0.361l0.091,0.597
		c0.087,0.567,0.149,2.241-0.585,3.155c-0.339,0.423-0.827,0.649-1.493,0.693l-0.535,0.035c-3.318,0.212-5.939,0.38-5.939,4.963v2
		h-3v-2c0-0.553-0.447-1-1-1s-1,0.447-1,1v2h-2v-2c0-0.553-0.447-1-1-1s-1,0.447-1,1v2h-2v-2c0-0.553-0.447-1-1-1s-1,0.447-1,1v2h-2
		v-2c0-0.553-0.447-1-1-1s-1,0.447-1,1v2h-3v-2c0-4.583-2.621-4.751-5.939-4.963L6.56,37.071c-0.666-0.044-1.154-0.271-1.493-0.693
		c-0.734-0.914-0.672-2.588-0.586-3.152l-0.027-0.68l-0.476-0.362c-0.912-0.694-1.051-1.749-0.876-2.504
		c0.052-0.223,0.134-0.427,0.233-0.617c0.032-0.06,0.073-0.112,0.109-0.169c0.078-0.122,0.161-0.239,0.258-0.343
		c0.052-0.056,0.109-0.106,0.166-0.156c0.1-0.088,0.208-0.167,0.323-0.237c0.066-0.04,0.132-0.079,0.203-0.113
		c0.176-0.083,0.359-0.157,0.559-0.197c1.837-0.365,3.079-1.021,3.692-1.952c0.375-0.567,0.509-1.229,0.39-1.922v-2.906
		c0-0.553-0.447-1-1-1s-1,0.447-1,1v3l0.021,0.206c0.057,0.267-0.009,0.413-0.08,0.521c-0.125,0.19-0.562,0.636-1.922,0.98
		l-0.249-0.826C2.766,17.18,3.409,11.268,6.718,7.375c5.317-6.256,15.92-5.32,16.024-5.312l0.097,0.01l0.095-0.01
		c0.104-0.009,10.708-0.942,16.024,5.312c3.309,3.893,3.952,9.805,1.938,17.49l-0.284,0.796c-1.042-0.323-1.407-0.696-1.519-0.866
		c-0.071-0.107-0.137-0.254-0.08-0.521l0.021-3.206c0-0.553-0.447-1-1-1s-1,0.447-1,1v2.906c-0.119,0.692,0.015,1.354,0.39,1.922
		c0.475,0.721,1.332,1.275,2.547,1.659L39.96,27.59l1.103,0.248l0.057,0.012c0.04,0.008,0.072,0.029,0.111,0.039
		c0.189,0.047,0.374,0.103,0.54,0.19c0.182,0.096,0.343,0.221,0.491,0.36c0.014,0.013,0.034,0.021,0.048,0.035
		c0.119,0.118,0.212,0.261,0.304,0.405c0.031,0.048,0.074,0.085,0.102,0.136c0.111,0.202,0.196,0.424,0.251,0.664
		c0.175,0.755,0.036,1.81-0.876,2.504L42.696,32.979z"/>
</g>
<g>
</g>
<g>
</g>
<g>
</g>
<g>
</g>
<g>
</g>
<g>
</g>
<g>
</g>
<g>
</g>
<g>
</g>
<g>
</g>
<g>
</g>
<g>
</g>
<g>
</g>
<g>
</g>
<g>
</g>
</svg>
