<?xml version="1.0" encoding="iso-8859-1"?>
<!-- Generator: Adobe Illustrator 18.0.0, SVG Export Plug-In . SVG Version: 6.00 Build 0)  -->
<!DOCTYPE svg PUBLIC "-//W3C//DTD SVG 1.1//EN" "http://www.w3.org/Graphics/SVG/1.1/DTD/svg11.dtd">
<svg version="1.1" id="Capa_1" xmlns="http://www.w3.org/2000/svg" xmlns:xlink="http://www.w3.org/1999/xlink" x="0px" y="0px"
	 viewBox="0 0 60 60" style="enable-background:new 0 0 60 60;" xml:space="preserve">
<path d="M55.802,45.281c0.165-0.278,0.328-0.557,0.484-0.84c0.204-0.37,0.398-0.747,0.587-1.126c0.167-0.337,0.326-0.676,0.48-1.018
	c0.153-0.34,0.302-0.682,0.443-1.029c0.102-0.252,0.204-0.503,0.299-0.758c0.201-0.536,0.391-1.078,0.562-1.628
	c0.057-0.183,0.104-0.368,0.157-0.553c0.131-0.451,0.251-0.906,0.361-1.365c0.048-0.203,0.097-0.406,0.141-0.611
	c0.132-0.61,0.25-1.225,0.345-1.849c0.015-0.1,0.024-0.202,0.038-0.302c0.079-0.557,0.14-1.12,0.187-1.687
	c0.015-0.177,0.029-0.355,0.041-0.532C59.97,31.327,60,30.666,60,29.999c0-0.688-0.032-1.369-0.078-2.046
	c-0.012-0.175-0.025-0.35-0.04-0.525c-0.056-0.658-0.126-1.313-0.224-1.958c-0.01-0.066-0.023-0.132-0.034-0.198
	c-0.096-0.601-0.213-1.195-0.344-1.784c-0.045-0.201-0.09-0.401-0.139-0.602c-0.149-0.609-0.309-1.213-0.494-1.806
	c-0.048-0.153-0.104-0.302-0.154-0.454c-0.157-0.477-0.326-0.949-0.507-1.415c-0.083-0.214-0.165-0.428-0.253-0.641
	c-0.23-0.556-0.474-1.106-0.736-1.645c-0.09-0.185-0.189-0.367-0.283-0.551c-0.219-0.427-0.447-0.848-0.685-1.262
	c-0.105-0.183-0.206-0.367-0.315-0.548c-0.312-0.518-0.64-1.024-0.982-1.52c-0.055-0.08-0.101-0.164-0.157-0.243l-1.532-2.185
	l-0.019,0.176C48.12,4.924,41.021,0.949,33,0.149V0.141l-0.932-0.063c-0.019-0.001-0.034-0.002-0.052-0.003
	c-0.276-0.018-0.552-0.034-0.83-0.045c-0.824-0.037-1.547-0.037-2.371,0c-0.278,0.011-0.554,0.027-0.83,0.045
	c-0.019,0.001-0.033,0.002-0.052,0.003L27,0.141v0.009c-8.021,0.8-15.12,4.774-20.024,10.643l-0.019-0.176l-1.532,2.185
	c-0.056,0.079-0.102,0.163-0.157,0.243c-0.342,0.497-0.67,1.003-0.982,1.52c-0.109,0.181-0.21,0.365-0.315,0.548
	c-0.238,0.415-0.466,0.836-0.685,1.262c-0.094,0.184-0.192,0.366-0.283,0.551c-0.262,0.539-0.506,1.089-0.736,1.645
	c-0.088,0.212-0.17,0.426-0.253,0.641c-0.18,0.466-0.35,0.938-0.507,1.415c-0.05,0.152-0.106,0.301-0.154,0.454
	c-0.185,0.594-0.346,1.198-0.494,1.806c-0.049,0.2-0.095,0.4-0.139,0.602c-0.131,0.589-0.249,1.183-0.344,1.784
	c-0.01,0.066-0.024,0.132-0.034,0.198c-0.098,0.646-0.168,1.3-0.224,1.958c-0.015,0.175-0.028,0.35-0.04,0.525
	C0.032,28.63,0,29.311,0,29.999c0,0.667,0.03,1.328,0.073,1.984c0.012,0.178,0.026,0.355,0.041,0.532
	c0.047,0.567,0.109,1.13,0.187,1.687c0.014,0.1,0.023,0.202,0.038,0.302c0.094,0.623,0.213,1.238,0.345,1.849
	c0.044,0.204,0.093,0.407,0.141,0.611c0.11,0.459,0.23,0.914,0.361,1.365c0.053,0.184,0.101,0.37,0.157,0.553
	c0.171,0.55,0.361,1.092,0.562,1.628C2,40.765,2.102,41.016,2.204,41.268c0.141,0.346,0.289,0.689,0.443,1.029
	c0.154,0.342,0.313,0.681,0.48,1.018c0.189,0.38,0.383,0.756,0.587,1.126c0.156,0.283,0.318,0.562,0.484,0.84
	c0.158,0.265,0.322,0.526,0.487,0.786c0.136,0.213,0.258,0.433,0.399,0.644l1.476,2.196l0.024-0.185
	C11.499,54.855,18.761,59.027,27,59.849v0.009l0.932,0.063c0.018,0.001,0.033,0.002,0.051,0.003
	c0.284,0.019,0.569,0.035,0.856,0.046c0.409,0.018,0.796,0.029,1.161,0.029s0.753-0.012,1.161-0.029
	c0.286-0.011,0.572-0.027,0.856-0.046c0.018-0.001,0.032-0.002,0.051-0.003L33,59.857v-0.009
	c8.239-0.822,15.501-4.994,20.415-11.127l0.024,0.185l1.476-2.196c0.141-0.21,0.263-0.431,0.399-0.644
	C55.48,45.807,55.644,45.546,55.802,45.281z M57.952,31.594c-0.01,0.174-0.027,0.346-0.04,0.52c-0.026,0.354-0.057,0.708-0.097,1.06
	c-0.023,0.206-0.051,0.411-0.078,0.616c-0.043,0.316-0.091,0.63-0.145,0.943c-0.037,0.218-0.075,0.437-0.117,0.653
	c-0.058,0.298-0.125,0.594-0.193,0.889c-0.051,0.22-0.097,0.442-0.153,0.66c-0.086,0.339-0.185,0.674-0.284,1.009
	c-0.119,0.402-0.248,0.8-0.385,1.194c-0.067,0.195-0.132,0.39-0.204,0.583c-0.111,0.298-0.229,0.591-0.349,0.884
	c-0.067,0.164-0.135,0.327-0.205,0.49c-0.134,0.308-0.271,0.614-0.415,0.917c-0.057,0.121-0.118,0.24-0.177,0.359
	c-0.122,0.247-0.247,0.491-0.376,0.734C54.252,38.5,54,33.467,54,28.374c0-4.12,0.159-8.129,0.474-11.956
	c0.031,0.057,0.066,0.111,0.097,0.168c0.215,0.392,0.42,0.789,0.615,1.19c0.116,0.239,0.224,0.482,0.333,0.724
	c0.121,0.268,0.242,0.536,0.354,0.807c0.098,0.236,0.191,0.475,0.282,0.715c0.1,0.26,0.195,0.522,0.286,0.785
	c0.082,0.235,0.164,0.47,0.24,0.708c0.103,0.323,0.196,0.649,0.287,0.976c0.065,0.233,0.13,0.465,0.189,0.7
	c0.109,0.435,0.209,0.872,0.296,1.313c0.039,0.198,0.072,0.398,0.107,0.597c0.06,0.34,0.116,0.681,0.164,1.024
	c0.028,0.203,0.054,0.407,0.078,0.611c0.042,0.365,0.076,0.731,0.104,1.098c0.013,0.176,0.03,0.35,0.04,0.527
	C57.98,28.905,58,29.451,58,29.999C58,30.533,57.981,31.064,57.952,31.594z M34.819,35.999H33h-6h-1.819l0.667-4H27h6h1.153
	L34.819,35.999z M33.153,53.999H33h-6h-0.153l-0.363-2.18l0-0.001l-0.303-1.82H27h6h0.819L33.153,53.999z M31,57.974
	c-0.333,0.012-0.665,0.025-1,0.025s-0.667-0.014-1-0.025v-1.975h2V57.974z M31,47.999h-2v-1h2V47.999z M27,44.999h-2v-4h2h6h2v4h-2
	H27z M31,38.999h-2v-1h2V38.999z M31,29.999h-2v-1h2V29.999z M31,11.999h-2v-1h2V11.999z M32.819,26.999h-5.639l0.667-4h4.306
	L32.819,26.999z M31,20.999h-2v-1h2V20.999z M32.819,17.999h-5.639l0.667-4h4.306L32.819,17.999z M28,8.999v-4h4v4H28z M31,2.999h-2
	V2.024c0.333-0.012,0.665-0.025,1-0.025s0.667,0.014,1,0.025V2.999z M6,28.374c0,5.093-0.252,10.126-0.734,14.73
	c-0.129-0.242-0.254-0.487-0.376-0.734c-0.059-0.12-0.12-0.239-0.177-0.359c-0.144-0.303-0.282-0.61-0.416-0.919
	c-0.07-0.161-0.137-0.324-0.204-0.486c-0.121-0.293-0.239-0.588-0.35-0.886c-0.072-0.193-0.136-0.389-0.204-0.583
	c-0.137-0.394-0.265-0.792-0.385-1.194c-0.099-0.335-0.198-0.67-0.284-1.009c-0.056-0.218-0.102-0.44-0.153-0.66
	c-0.068-0.295-0.135-0.591-0.193-0.889c-0.042-0.217-0.08-0.435-0.117-0.653c-0.053-0.313-0.102-0.628-0.145-0.943
	c-0.028-0.205-0.055-0.41-0.078-0.616c-0.04-0.352-0.07-0.705-0.097-1.06c-0.013-0.173-0.03-0.346-0.04-0.52
	C2.019,31.064,2,30.533,2,29.999c0-0.548,0.02-1.094,0.052-1.637c0.01-0.177,0.027-0.351,0.04-0.527
	c0.028-0.367,0.062-0.734,0.104-1.098c0.024-0.204,0.05-0.408,0.078-0.611c0.048-0.343,0.104-0.684,0.164-1.024
	c0.035-0.199,0.068-0.4,0.107-0.597c0.088-0.441,0.188-0.878,0.296-1.313c0.059-0.235,0.125-0.467,0.189-0.7
	c0.091-0.327,0.184-0.653,0.287-0.976c0.076-0.238,0.158-0.473,0.24-0.708c0.092-0.263,0.187-0.524,0.286-0.785
	c0.092-0.24,0.185-0.48,0.283-0.716c0.112-0.27,0.232-0.537,0.353-0.804c0.11-0.243,0.218-0.487,0.334-0.726
	c0.195-0.401,0.4-0.797,0.615-1.19c0.031-0.057,0.065-0.112,0.097-0.168C5.841,20.245,6,24.254,6,28.374z M6.955,45.878
	C7.637,40.536,8,34.498,8,28.374C8,23.261,7.753,18.32,7.275,13.67C11.812,7.375,18.891,3.03,27,2.162v0.944
	c-0.583,0.224-1,0.786-1,1.447v1.166l-2.757-0.689c-0.534-0.134-1.079,0.19-1.213,0.728c-0.134,0.535,0.192,1.078,0.728,1.212
	L26,7.779v1.666c0,0.661,0.417,1.223,1,1.447v1.19c-0.544,0.172-0.965,0.625-1.063,1.215l-0.265,1.589l-3.429-0.857
	c-0.533-0.133-1.079,0.19-1.213,0.728c-0.134,0.535,0.192,1.078,0.728,1.212l3.585,0.896l-0.221,1.326
	c-0.075,0.451,0.051,0.91,0.347,1.259c0.296,0.35,0.728,0.55,1.185,0.55H27v1.084c-0.544,0.172-0.965,0.625-1.063,1.215
	l-0.265,1.589l-3.429-0.857c-0.533-0.135-1.079,0.19-1.213,0.728c-0.134,0.535,0.192,1.078,0.728,1.212l3.585,0.896l-0.221,1.326
	c-0.075,0.451,0.051,0.91,0.347,1.259c0.296,0.35,0.728,0.55,1.185,0.55H27v1h-1.531c-0.763,0-1.407,0.546-1.532,1.299l-0.219,1.311
	l-1.346-0.539c-0.516-0.207-1.095,0.044-1.3,0.558c-0.205,0.513,0.044,1.095,0.557,1.3l1.753,0.701l-0.26,1.562
	c-0.075,0.451,0.051,0.91,0.347,1.259c0.296,0.35,0.728,0.55,1.185,0.55H27v1h-2.446c-0.857,0-1.554,0.697-1.554,1.554v1.166
	l-2.757-0.689c-0.534-0.134-1.079,0.19-1.213,0.728c-0.134,0.535,0.192,1.078,0.728,1.212L23,43.779v1.666
	c0,0.856,0.697,1.554,1.554,1.554H27v1h-1.347c-0.458,0-0.889,0.2-1.185,0.55c-0.296,0.349-0.422,0.808-0.347,1.259l0.149,0.893
	l-3.053-0.678c-0.537-0.116-1.073,0.221-1.193,0.76c-0.12,0.539,0.22,1.073,0.759,1.193l3.841,0.854l0.312,1.871
	c0.125,0.753,0.77,1.299,1.532,1.299H27v1.837C18.699,56.948,11.475,52.417,6.955,45.878z M33,57.836v-1.837h0.531
	c0.763,0,1.407-0.546,1.532-1.299l0.312-1.871l3.841-0.854c0.539-0.12,0.879-0.654,0.759-1.193c-0.12-0.539-0.657-0.875-1.193-0.76
	l-3.053,0.678l0.149-0.893c0.075-0.451-0.051-0.91-0.347-1.259c-0.296-0.35-0.728-0.55-1.185-0.55H33v-1h2.446
	c0.857,0,1.554-0.697,1.554-1.554v-1.666l3.243-0.811c0.536-0.134,0.861-0.677,0.728-1.212c-0.134-0.537-0.677-0.861-1.213-0.728
	L37,41.719v-1.166c0-0.856-0.697-1.554-1.554-1.554H33v-1h2.347c0.458,0,0.889-0.2,1.185-0.55c0.296-0.349,0.422-0.808,0.347-1.259
	l-0.26-1.562l1.753-0.701c0.513-0.205,0.762-0.787,0.557-1.3c-0.206-0.514-0.786-0.764-1.3-0.558l-1.346,0.539l-0.219-1.311
	c-0.125-0.753-0.77-1.299-1.532-1.299H33v-1h0.347c0.458,0,0.889-0.2,1.185-0.55c0.296-0.349,0.422-0.808,0.347-1.259l-0.221-1.326
	l3.585-0.896c0.536-0.134,0.861-0.677,0.728-1.212c-0.134-0.537-0.678-0.862-1.213-0.728l-3.429,0.857l-0.265-1.589
	c-0.098-0.591-0.52-1.043-1.063-1.215v-1.084h0.347c0.458,0,0.889-0.2,1.185-0.55c0.296-0.349,0.422-0.808,0.347-1.259l-0.221-1.326
	l3.585-0.896c0.536-0.134,0.861-0.677,0.728-1.212c-0.134-0.537-0.678-0.86-1.213-0.728l-3.429,0.857l-0.265-1.589
	c-0.098-0.591-0.52-1.043-1.063-1.215v-1.19c0.583-0.224,1-0.786,1-1.447V7.779l3.243-0.811c0.536-0.134,0.861-0.677,0.728-1.212
	c-0.134-0.537-0.677-0.861-1.213-0.728L34,5.719V4.553c0-0.661-0.417-1.223-1-1.447V2.162C41.109,3.03,48.188,7.375,52.725,13.67
	C52.247,18.32,52,23.261,52,28.374c0,6.125,0.363,12.162,1.045,17.504C48.525,52.417,41.301,56.948,33,57.836z"/>
<g>
</g>
<g>
</g>
<g>
</g>
<g>
</g>
<g>
</g>
<g>
</g>
<g>
</g>
<g>
</g>
<g>
</g>
<g>
</g>
<g>
</g>
<g>
</g>
<g>
</g>
<g>
</g>
<g>
</g>
</svg>
