<?xml version="1.0" encoding="iso-8859-1"?>
<!-- Generator: Adobe Illustrator 18.0.0, SVG Export Plug-In . SVG Version: 6.00 Build 0)  -->
<!DOCTYPE svg PUBLIC "-//W3C//DTD SVG 1.1//EN" "http://www.w3.org/Graphics/SVG/1.1/DTD/svg11.dtd">
<svg version="1.1" id="Capa_1" xmlns="http://www.w3.org/2000/svg" xmlns:xlink="http://www.w3.org/1999/xlink" x="0px" y="0px"
	 viewBox="0 0 60 60" style="enable-background:new 0 0 60 60;" xml:space="preserve">
<path d="M58.243,1.757C57.109,0.624,55.603,0,54,0s-3.109,0.624-4.243,1.757S48,4.397,48,6c0,1.264,0.393,2.465,1.113,3.473
	l-1.501,1.501c-0.834-0.733-1.741-1.378-2.711-1.918l-0.66-0.368L44.21,8.719c-1.966-0.975-4.151-1.557-6.455-1.598
	c-0.558-0.005-1.008,0.43-1.018,0.982s0.43,1.008,0.982,1.018c1.765,0.032,3.454,0.419,5,1.09l-19.83,19.83
	c0,0-0.001,0.001-0.001,0.001c0,0-0.001,0.001-0.001,0.001l-6.363,6.363l-4.243,4.243l1.414,1.414L9.757,46l1.414,1.414
	L0.293,58.293c-0.391,0.391-0.391,1.023,0,1.414C0.488,59.902,0.744,60,1,60s0.512-0.098,0.707-0.293l10.879-10.879L14,50.243
	l3.937-3.938l1.414,1.414l4.243-4.243l26.195-26.195c0.671,1.546,1.058,3.235,1.09,5c0.01,0.546,0.456,0.982,1,0.982
	c0.006,0,0.012,0,0.019,0c0.552-0.01,0.992-0.466,0.982-1.018c-0.041-2.305-0.623-4.49-1.598-6.455l0.031-0.031l-0.368-0.66
	c-0.541-0.97-1.185-1.877-1.918-2.711l1.501-1.501C51.535,11.607,52.736,12,54,12c1.603,0,3.109-0.624,4.243-1.757S60,7.603,60,6
	S59.376,2.891,58.243,1.757z M44.806,11.353c0.189,0.125,0.371,0.26,0.553,0.394c0.195,0.144,0.393,0.285,0.58,0.439
	c0.084,0.069,0.161,0.147,0.243,0.218l-8.446,8.446l-1.414-1.414l8.236-8.236C44.64,11.251,44.725,11.299,44.806,11.353z M14,47.415
	L12.585,46l2.523-2.523l1.415,1.415L14,47.415z M19.352,44.891l-4.243-4.243l1.415-1.415l4.243,4.243L19.352,44.891z M22.18,42.063
	l-4.243-4.243l2.829-2.829l0.707,0.707c0.195,0.195,0.451,0.293,0.707,0.293s0.512-0.098,0.707-0.293
	c0.391-0.391,0.391-1.023,0-1.414l-0.707-0.707l1.414-1.414l0.707,0.707c0.195,0.195,0.451,0.293,0.707,0.293
	s0.512-0.098,0.707-0.293c0.391-0.391,0.391-1.023,0-1.414l-0.707-0.707l1.414-1.414l0.707,0.707
	c0.195,0.195,0.451,0.293,0.707,0.293s0.512-0.098,0.707-0.293c0.391-0.391,0.391-1.023,0-1.414l-0.707-0.707l1.415-1.415
	l0.707,0.707c0.195,0.195,0.451,0.293,0.707,0.293s0.512-0.098,0.707-0.293c0.391-0.391,0.391-1.023,0-1.414l-0.707-0.707
	l4.243-4.243l2.12,2.12c0,0,0.001,0.001,0.001,0.001s0.001,0.001,0.001,0.001l2.12,2.12L22.18,42.063z M40.565,23.678l-1.414-1.414
	l8.446-8.446c0.071,0.082,0.149,0.159,0.218,0.243c0.154,0.187,0.295,0.386,0.439,0.581c0.134,0.182,0.268,0.364,0.393,0.552
	c0.054,0.081,0.102,0.166,0.154,0.248L40.565,23.678z M56.829,8.829c-1.56,1.56-4.098,1.56-5.657,0s-1.56-4.098,0-5.657
	c0.78-0.78,1.804-1.169,2.829-1.169s2.049,0.39,2.829,1.169C58.388,4.731,58.388,7.269,56.829,8.829z"/>
<g>
</g>
<g>
</g>
<g>
</g>
<g>
</g>
<g>
</g>
<g>
</g>
<g>
</g>
<g>
</g>
<g>
</g>
<g>
</g>
<g>
</g>
<g>
</g>
<g>
</g>
<g>
</g>
<g>
</g>
</svg>
