<?xml version="1.0" encoding="iso-8859-1"?>
<!-- Generator: Adobe Illustrator 18.0.0, SVG Export Plug-In . SVG Version: 6.00 Build 0)  -->
<!DOCTYPE svg PUBLIC "-//W3C//DTD SVG 1.1//EN" "http://www.w3.org/Graphics/SVG/1.1/DTD/svg11.dtd">
<svg version="1.1" id="Capa_1" xmlns="http://www.w3.org/2000/svg" xmlns:xlink="http://www.w3.org/1999/xlink" x="0px" y="0px"
	 viewBox="0 0 55.58 55.58" style="enable-background:new 0 0 55.58 55.58;" xml:space="preserve">
<g>
	<path d="M55.287,53.873l-8.485-8.485l2.827-2.827c0.567-0.567,0.88-1.321,0.88-2.123c0-0.802-0.313-1.556-0.88-2.122l-24.04-24.04
		c-0.249-0.249-0.537-0.434-0.839-0.577l2.252-2.252c0.391-0.391,0.391-1.023,0-1.414s-1.023-0.391-1.414,0l-4.244,4.244
		l-0.706,0.706l-2.957-2.957c0.422-0.26,0.824-0.567,1.189-0.932c1.228-1.228,1.904-2.86,1.904-4.596s-0.676-3.368-1.904-4.596
		c-2.534-2.535-6.658-2.534-9.192,0C8.451,3.129,7.775,4.76,7.775,6.497c0,0.493,0.06,0.975,0.166,1.445
		C7.472,7.835,6.99,7.775,6.497,7.775c-1.736,0-3.368,0.676-4.596,1.904c-2.535,2.534-2.535,6.658,0,9.192
		c1.228,1.228,2.859,1.904,4.596,1.904s3.369-0.676,4.596-1.904c0.366-0.366,0.672-0.767,0.932-1.189l2.957,2.957l-0.707,0.707
		c-0.001,0.001-0.001,0.002-0.002,0.003l-4.241,4.241c-0.391,0.391-0.391,1.023,0,1.414c0.195,0.195,0.451,0.293,0.707,0.293
		s0.512-0.098,0.707-0.293l2.252-2.252c0.143,0.302,0.328,0.589,0.577,0.839l24.04,24.04c0.567,0.567,1.321,0.879,2.123,0.879
		c0.801,0,1.555-0.313,2.122-0.879l2.828-2.828l8.485,8.485c0.195,0.195,0.451,0.293,0.707,0.293s0.512-0.098,0.707-0.293
		C55.678,54.897,55.678,54.264,55.287,53.873z M31.246,22.761l-1.414,1.414l-7.778-7.778l0,0l0.706-0.706
		c0.195-0.195,0.452-0.293,0.708-0.293s0.513,0.098,0.708,0.292L31.246,22.761z M20.639,17.811l7.778,7.778l-2.829,2.829
		l-7.778-7.778L20.639,17.811z M9.775,6.497c0-1.202,0.468-2.332,1.318-3.182c0.877-0.877,2.03-1.316,3.182-1.316
		s2.305,0.438,3.182,1.316c0.85,0.85,1.318,1.98,1.318,3.182c0,1.202-0.468,2.332-1.318,3.182c-0.63,0.63-1.404,1.025-2.216,1.203
		c-0.044,0.01-0.088,0.025-0.133,0.034c-0.248,0.046-0.499,0.067-0.751,0.072c-0.056,0.001-0.112,0.001-0.167,0
		c-0.517-0.01-1.032-0.108-1.521-0.295c-0.053-0.02-0.106-0.041-0.158-0.063c-0.233-0.099-0.46-0.215-0.677-0.356
		c-0.042-0.028-0.082-0.061-0.123-0.09c-0.216-0.15-0.426-0.312-0.618-0.504C10.243,8.829,9.775,7.699,9.775,6.497z M6.497,18.775
		c-1.202,0-2.332-0.468-3.182-1.318c-1.754-1.755-1.754-4.609,0-6.364c0.85-0.85,1.98-1.318,3.182-1.318
		c1.202,0,2.332,0.468,3.182,1.318c0.193,0.193,0.355,0.403,0.505,0.619c0.029,0.041,0.062,0.079,0.089,0.121
		c0.141,0.217,0.258,0.445,0.357,0.679c0.022,0.051,0.041,0.102,0.061,0.154c0.188,0.491,0.286,1.007,0.296,1.527
		c0.001,0.054,0.001,0.108,0,0.162c-0.004,0.253-0.025,0.505-0.072,0.754c-0.008,0.043-0.023,0.085-0.033,0.128
		c-0.177,0.813-0.572,1.589-1.203,2.22C8.829,18.307,7.699,18.775,6.497,18.775z M12.842,15.671
		c0.004-0.018,0.005-0.035,0.009-0.053c0.034-0.164,0.06-0.328,0.081-0.494c0.009-0.068,0.022-0.135,0.029-0.203
		c0.014-0.139,0.017-0.279,0.022-0.418c0.009-0.234,0.005-0.467-0.012-0.699c-0.004-0.056-0.004-0.113-0.01-0.169
		c-0.014-0.147-0.039-0.292-0.063-0.437c-0.012-0.074-0.023-0.147-0.037-0.22c-0.009-0.046-0.013-0.093-0.023-0.138
		c0.048,0.011,0.098,0.015,0.147,0.025c0.065,0.013,0.131,0.022,0.197,0.033c0.151,0.026,0.302,0.051,0.455,0.065
		c0.054,0.005,0.107,0.005,0.161,0.009c0.237,0.017,0.474,0.021,0.712,0.012c0.137-0.005,0.275-0.008,0.411-0.022
		c0.069-0.007,0.138-0.02,0.207-0.03c0.164-0.022,0.328-0.046,0.49-0.081c0.018-0.004,0.035-0.005,0.053-0.009l3.555,3.554
		l-2.829,2.828L12.842,15.671z M15.69,22.759l0.706-0.706l0,0l7.778,7.778l-1.414,1.414l-7.071-7.071
		C15.3,23.785,15.3,23.15,15.69,22.759z M41.146,48.215c-0.379,0.378-1.038,0.378-1.416,0L24.175,32.66l1.414-1.414l5.657-5.657
		l1.414-1.414l15.555,15.556c0.189,0.189,0.294,0.44,0.294,0.708c0,0.267-0.104,0.519-0.294,0.708L41.146,48.215z"/>
	<circle cx="32.66" cy="37.61" r="1.5"/>
	<circle cx="37.61" cy="42.559" r="1.5"/>
	<circle cx="36.195" cy="31.246" r="1.5"/>
	<circle cx="39.024" cy="36.903" r="1.5"/>
	<circle cx="43.974" cy="40.438" r="1.5"/>
</g>
<g>
</g>
<g>
</g>
<g>
</g>
<g>
</g>
<g>
</g>
<g>
</g>
<g>
</g>
<g>
</g>
<g>
</g>
<g>
</g>
<g>
</g>
<g>
</g>
<g>
</g>
<g>
</g>
<g>
</g>
</svg>
