<?xml version="1.0" encoding="iso-8859-1"?>
<!-- Generator: Adobe Illustrator 18.0.0, SVG Export Plug-In . SVG Version: 6.00 Build 0)  -->
<!DOCTYPE svg PUBLIC "-//W3C//DTD SVG 1.1//EN" "http://www.w3.org/Graphics/SVG/1.1/DTD/svg11.dtd">
<svg version="1.1" id="Capa_1" xmlns="http://www.w3.org/2000/svg" xmlns:xlink="http://www.w3.org/1999/xlink" x="0px" y="0px"
	 viewBox="0 0 60 60" style="enable-background:new 0 0 60 60;" xml:space="preserve">
<path d="M60,18.559c0-5.548-4.514-10.062-10.062-10.062H10.062C4.514,8.497,0,13.011,0,18.559v9.744
	c0,0.901,0.388,1.745,1.041,2.341c-0.514,3.04-0.874,6.023-1.021,8.611c-0.305,5.359,3.084,9.077,6.577,10.385
	c3.323,1.243,6.317,1.864,8.969,1.864c2.878,0,5.352-0.732,7.396-2.197c1.93-1.382,3.588-4.209,4.436-6.779
	c0.118,0.207,0.238,0.412,0.369,0.607c1.939,2.877,5.738,4.611,9.473,4.611c1.229,0,2.452-0.188,3.599-0.585
	c0.332-0.115,0.613-0.25,0.877-0.379c0.48-0.234,0.687-0.327,1.085-0.28c0.413,0.049,0.958,0.19,1.484,0.327
	c0.532,0.138,1.081,0.28,1.574,0.352c1.931,0.274,3.746,0.241,5.712-0.107c2.994-0.533,5.236-2.002,6.664-4.365
	c2.255-3.732,1.936-8.89,1.232-12.678C59.81,29.511,60,28.916,60,28.303V18.559z M2,25.733v-7.175c0-4.445,3.616-8.062,8.062-8.062
	h39.877c4.445,0,8.062,3.616,8.062,8.062v5.972c-0.012-0.033-0.026-0.066-0.038-0.1c-0.037-0.103-0.078-0.203-0.116-0.306
	c-0.12-0.322-0.248-0.641-0.384-0.958c-0.059-0.138-0.122-0.273-0.185-0.409c-0.135-0.293-0.282-0.578-0.437-0.86
	c-0.068-0.125-0.134-0.25-0.206-0.372c-0.232-0.39-0.48-0.769-0.761-1.124c-1.408-1.777-3.992-3.754-6.338-3.892
	c-1.778-0.113-3.497,0.479-5.152,1.046c-1.416,0.484-2.754,0.942-4.046,0.952c-0.82-0.002-1.729-0.074-2.704-0.159
	c-2.105-0.185-4.286-0.374-6.132,0.205c-0.192,0.061-0.375,0.141-0.554,0.231c-0.053,0.027-0.104,0.057-0.156,0.086
	c-0.129,0.072-0.255,0.151-0.377,0.238c-0.048,0.034-0.097,0.067-0.144,0.104c-0.155,0.119-0.305,0.246-0.448,0.386
	c-0.005,0.005-0.011,0.01-0.017,0.015c-0.151,0.148-0.293,0.309-0.432,0.478c-0.038,0.046-0.074,0.094-0.111,0.142
	c-0.102,0.13-0.201,0.265-0.296,0.405c-0.036,0.052-0.072,0.104-0.107,0.158c-0.115,0.176-0.226,0.357-0.332,0.545
	c-0.007,0.012-0.015,0.024-0.022,0.037c-0.114,0.205-0.222,0.417-0.326,0.633c-0.026,0.054-0.051,0.11-0.077,0.164
	c-0.078,0.167-0.153,0.335-0.225,0.505c-0.026,0.062-0.052,0.123-0.078,0.185c-0.081,0.199-0.159,0.4-0.234,0.603
	c-0.008,0.023-0.018,0.045-0.026,0.068c-0.083,0.228-0.16,0.457-0.235,0.686c-0.02,0.06-0.038,0.12-0.057,0.18
	c-0.054,0.172-0.107,0.342-0.156,0.512c-0.02,0.069-0.04,0.137-0.06,0.205c-0.052,0.181-0.101,0.36-0.148,0.538
	c-0.011,0.042-0.023,0.085-0.034,0.127c-0.002,0.008-0.005,0.017-0.007,0.025c-0.012-0.06-0.027-0.114-0.039-0.174
	c-0.07-0.333-0.143-0.659-0.219-0.978c-0.028-0.117-0.055-0.236-0.084-0.351c-0.101-0.403-0.206-0.799-0.318-1.179
	c-2.145-7.282-4.633-7.63-12.174-7.63c-4.356,0-9.556,0.737-11.1,6.491c-0.166,0.619-0.329,1.263-0.488,1.922
	c-0.119,0.49-0.231,0.989-0.344,1.488C2.052,25.512,2.025,25.619,2,25.733z M25.997,39.12L26,39.318
	c0.017,2.093-1.78,6.626-4.203,8.361c-3.354,2.399-8.231,2.43-14.499,0.086c-2.807-1.051-5.529-4.055-5.282-8.398
	c0.159-2.789,0.595-6.144,1.202-9.507c0.083-0.461,0.168-0.922,0.256-1.378c0.044-0.226,0.091-0.45,0.137-0.676
	c0.094-0.467,0.189-0.933,0.288-1.389c0.063-0.288,0.129-0.57,0.194-0.854c0.086-0.379,0.171-0.761,0.26-1.13
	c0.158-0.656,0.321-1.302,0.489-1.928c1.185-4.414,5.3-5.009,9.168-5.009c7.231,0,8.481,0.171,10.256,6.194
	c0.129,0.44,0.249,0.901,0.363,1.375c0.021,0.088,0.042,0.175,0.063,0.263c0.113,0.488,0.22,0.99,0.318,1.517
	c0.003,0.016,0.006,0.032,0.008,0.048c0.21,1.138,0.386,2.368,0.53,3.71l0.023,0.217c0.047,0.454,0.09,0.919,0.129,1.396
	c-0.076,0.967-0.105,1.956-0.076,2.941C25.62,36.581,25.734,37.914,25.997,39.12z M56.522,41.673
	c-1.132,1.874-2.867,2.996-5.304,3.431c-1.749,0.311-3.362,0.343-5.076,0.096c-0.383-0.055-0.877-0.183-1.355-0.307
	c-0.523-0.135-1.056-0.266-1.552-0.342c-0.818-0.402-6.588-3.398-6.588-8.043c0-0.553-0.447-1-1-1s-1,0.447-1,1
	c0,4.192,3.391,7.149,5.72,8.688c-0.061,0.025-0.119,0.052-0.185,0.074c-3.762,1.304-8.69-0.187-10.758-3.254
	c-1.242-1.842-1.739-4.389-1.802-7.002c0.007-0.708,0.037-1.435,0.116-2.201l0.009-0.088l-0.007-0.089
	c-0.012-0.156-0.026-0.303-0.038-0.457c0.047-0.529,0.112-1.047,0.185-1.557c0.02-0.142,0.044-0.277,0.066-0.416
	c0.075-0.466,0.154-0.927,0.246-1.365l0.022-0.106c0.437-2.066,1.597-7.555,3.88-8.273c0.341-0.107,0.711-0.178,1.1-0.224
	c0.018-0.002,0.035-0.006,0.053-0.008c0.382-0.043,0.785-0.061,1.199-0.062c0.026,0,0.051-0.001,0.077-0.001
	c0.462,0.001,0.938,0.021,1.421,0.053c0.006,0,0.013,0.001,0.019,0.001c0.494,0.033,0.993,0.076,1.488,0.12
	c1.021,0.089,1.974,0.148,2.894,0.167c1.616-0.013,3.173-0.545,4.678-1.06c1.541-0.527,3.003-1.019,4.388-0.942
	c1.636,0.097,3.739,1.688,4.887,3.138c0.256,0.323,0.488,0.674,0.7,1.044c0.635,1.11,1.091,2.394,1.489,3.65
	c0.166,0.521,0.316,1.054,0.458,1.59c0.035,0.132,0.069,0.263,0.105,0.404c0.115,0.455,0.219,0.914,0.315,1.375
	C58.106,33.208,58.598,38.237,56.522,41.673z"/>
<g>
</g>
<g>
</g>
<g>
</g>
<g>
</g>
<g>
</g>
<g>
</g>
<g>
</g>
<g>
</g>
<g>
</g>
<g>
</g>
<g>
</g>
<g>
</g>
<g>
</g>
<g>
</g>
<g>
</g>
</svg>
