<?xml version="1.0" encoding="iso-8859-1"?>
<!-- Generator: Adobe Illustrator 18.0.0, SVG Export Plug-In . SVG Version: 6.00 Build 0)  -->
<!DOCTYPE svg PUBLIC "-//W3C//DTD SVG 1.1//EN" "http://www.w3.org/Graphics/SVG/1.1/DTD/svg11.dtd">
<svg version="1.1" id="Capa_1" xmlns="http://www.w3.org/2000/svg" xmlns:xlink="http://www.w3.org/1999/xlink" x="0px" y="0px"
	 viewBox="0 0 60 60" style="enable-background:new 0 0 60 60;" xml:space="preserve">
<g>
	<path d="M59.034,22.442L59.034,22.442l-0.143-0.516c-0.01-0.035-0.023-0.068-0.033-0.103c-0.217-0.765-0.458-1.52-0.733-2.259
		c-0.005-0.015-0.012-0.029-0.017-0.044c-0.263-0.703-0.555-1.391-0.867-2.067c-0.04-0.087-0.077-0.175-0.118-0.261
		c-0.305-0.644-0.635-1.272-0.984-1.89c-0.074-0.131-0.149-0.261-0.225-0.391c-0.356-0.609-0.728-1.206-1.124-1.787
		c-0.052-0.076-0.108-0.15-0.161-0.226c-0.397-0.57-0.812-1.125-1.247-1.665c-0.042-0.052-0.081-0.105-0.124-0.157
		c-0.472-0.579-0.968-1.136-1.481-1.678c-0.049-0.052-0.098-0.103-0.147-0.154C47.264,4.696,41.486,1.52,35.006,0.426
		c-0.033-0.006-0.066-0.012-0.099-0.018c-0.745-0.123-1.5-0.218-2.263-0.285c-0.121-0.011-0.243-0.019-0.365-0.028
		C31.526,0.038,30.768,0,30,0s-1.526,0.038-2.28,0.095c-0.122,0.009-0.243,0.017-0.365,0.028c-0.763,0.067-1.517,0.161-2.263,0.285
		c-0.033,0.006-0.066,0.012-0.099,0.018C18.515,1.519,12.739,4.695,8.374,9.24C8.322,9.294,8.271,9.348,8.219,9.402
		c-0.51,0.539-1.004,1.094-1.474,1.67c-0.046,0.056-0.089,0.115-0.134,0.171c-0.429,0.533-0.839,1.082-1.231,1.644
		c-0.057,0.081-0.116,0.16-0.172,0.242c-0.393,0.576-0.762,1.169-1.116,1.772c-0.079,0.136-0.158,0.272-0.235,0.409
		c-0.345,0.612-0.673,1.236-0.975,1.874c-0.044,0.094-0.085,0.189-0.128,0.283C2.446,18.134,2.159,18.81,1.9,19.501
		c-0.009,0.024-0.019,0.047-0.028,0.071c-0.273,0.733-0.512,1.482-0.727,2.24c-0.011,0.039-0.026,0.076-0.037,0.115l-0.144,0.515
		l0.001,0.001C0.336,24.858,0,27.39,0,30c0,16.542,13.458,30,30,30s30-13.458,30-30C60,27.39,59.663,24.858,59.034,22.442z
		 M52.331,16.484c-0.876-3.679-3.122-5.373-5.59-6.141C46.558,10.136,46.298,10,46,10c-0.114,0-0.22,0.03-0.322,0.065
		c-1.26-0.263-2.535-0.331-3.679-0.331c-7.027,0-9.345,0.361-11.326,7.938c-0.255,0.976-0.479,2.018-0.673,3.145
		c-0.195-1.127-0.418-2.169-0.673-3.145c-1.981-7.577-4.298-7.938-11.326-7.938c-3.745,0-8.891,0.699-10.332,6.75
		c-0.47,1.972-0.916,4.116-1.301,6.25H5.379c-0.8,0-1.573-0.296-2.183-0.824c0.002-0.005,0.003-0.01,0.004-0.015
		c0.205-0.679,0.439-1.343,0.693-1.997c0.039-0.101,0.079-0.202,0.119-0.302c0.251-0.627,0.521-1.244,0.815-1.846
		c0.039-0.08,0.082-0.157,0.121-0.236c0.273-0.546,0.564-1.08,0.87-1.604c0.056-0.096,0.109-0.194,0.166-0.289
		c0.331-0.551,0.683-1.087,1.05-1.612c0.079-0.113,0.159-0.225,0.24-0.337c0.386-0.535,0.786-1.06,1.207-1.565
		c0.021-0.025,0.044-0.05,0.065-0.075c0.446-0.531,0.912-1.045,1.395-1.54c0.021-0.022,0.042-0.044,0.063-0.066
		c0.507-0.517,1.033-1.014,1.578-1.49c0.003-0.003,0.007-0.006,0.011-0.009c3.868-3.373,8.644-5.681,13.827-6.546
		c0.018-0.003,0.035-0.006,0.053-0.009c0.687-0.114,1.383-0.196,2.083-0.258c0.118-0.01,0.237-0.018,0.356-0.027
		C28.603,2.034,29.299,2,30,2s1.397,0.034,2.088,0.086c0.119,0.009,0.238,0.017,0.356,0.027c0.7,0.062,1.396,0.145,2.083,0.258
		c0.018,0.003,0.035,0.006,0.053,0.009c5.183,0.865,9.958,3.173,13.827,6.546c0.004,0.003,0.007,0.006,0.011,0.009
		c0.545,0.475,1.071,0.973,1.578,1.49c0.021,0.022,0.042,0.044,0.063,0.066c0.483,0.495,0.948,1.009,1.395,1.54
		c0.021,0.025,0.044,0.05,0.065,0.075c0.422,0.505,0.821,1.03,1.207,1.565c0.081,0.112,0.161,0.224,0.24,0.337
		c0.367,0.525,0.719,1.061,1.05,1.612c0.057,0.095,0.11,0.193,0.166,0.289c0.306,0.524,0.597,1.058,0.87,1.604
		c0.04,0.079,0.082,0.157,0.121,0.236c0.294,0.603,0.564,1.22,0.816,1.847c0.04,0.1,0.08,0.2,0.119,0.301
		c0.253,0.654,0.488,1.319,0.693,1.998c0.001,0.005,0.003,0.01,0.004,0.015c-0.61,0.528-1.383,0.824-2.184,0.824h-0.988
		C53.248,20.607,52.802,18.463,52.331,16.484z M9.104,19.426C9.264,19.763,9.602,20,10,20c0.552,0,1-0.448,1-1s-0.448-1-1-1
		c-0.261,0-0.495,0.106-0.673,0.27c0.095-0.469,0.191-0.919,0.287-1.323c0.083-0.346,0.184-0.663,0.294-0.966
		C9.94,15.984,9.967,16,10,16c0.552,0,1-0.448,1-1c0-0.247-0.099-0.465-0.247-0.639c0.17-0.235,0.348-0.457,0.542-0.652
		C11.476,13.888,11.725,14,12,14c0.552,0,1-0.448,1-1c0-0.148-0.036-0.286-0.094-0.412c1.303-0.614,2.845-0.809,4.439-0.846
		C17.521,11.898,17.746,12,18,12c0.257,0,0.487-0.104,0.664-0.264c1.073,0.003,1.995,0.021,2.787,0.078
		C21.611,11.922,21.793,12,22,12c0.143,0,0.278-0.032,0.401-0.087c0.404,0.057,0.778,0.131,1.111,0.232
		C23.212,12.318,23,12.629,23,13c0,0.552,0.448,1,1,1s1-0.448,1-1c0-0.027-0.013-0.05-0.015-0.076
		c0.337,0.289,0.631,0.653,0.899,1.1C25.389,14.084,25,14.489,25,15c0,0.552,0.448,1,1,1c0.255,0,0.482-0.103,0.658-0.26
		c0.247,0.691,0.485,1.487,0.734,2.438c1.393,5.326,1.583,17.086,1.608,20.563c0.017,2.396-2.343,2.728-6.233,2.989
		c-0.543,0.037-1.083,0.073-1.607,0.121c-2.277,0.209-3.495,0.184-5.782,0.013l-0.791-0.058c-4.342-0.307-7.657-0.727-7.586-3.042
		C7.149,33.912,8.063,25.099,9.104,19.426z M32.608,18.179c0.249-0.951,0.487-1.747,0.734-2.438C33.518,15.897,33.745,16,34,16
		c0.552,0,1-0.448,1-1c0-0.511-0.389-0.916-0.883-0.976c0.268-0.447,0.561-0.811,0.899-1.1C35.013,12.95,35,12.973,35,13
		c0,0.552,0.448,1,1,1s1-0.448,1-1c0-0.371-0.212-0.682-0.512-0.855c1.146-0.347,2.686-0.402,4.848-0.409
		C41.513,11.896,41.743,12,42,12c0.254,0,0.479-0.102,0.655-0.258c1.594,0.037,3.136,0.232,4.439,0.846
		C47.036,12.714,47,12.852,47,13c0,0.552,0.448,1,1,1c0.275,0,0.524-0.112,0.705-0.292c0.194,0.196,0.372,0.417,0.542,0.652
		C49.099,14.535,49,14.753,49,15c0,0.552,0.448,1,1,1c0.033,0,0.06-0.016,0.092-0.019c0.11,0.303,0.211,0.619,0.294,0.966
		c0.096,0.404,0.192,0.854,0.287,1.323C50.495,18.106,50.261,18,50,18c-0.552,0-1,0.448-1,1s0.448,1,1,1
		c0.398,0,0.736-0.237,0.896-0.574c1.041,5.674,1.954,14.487,2.102,19.338c0.071,2.315-3.244,2.735-7.585,3.042l-0.791,0.058
		c-2.288,0.172-3.504,0.196-5.782-0.013c-0.524-0.048-1.064-0.084-1.607-0.121c-3.89-0.262-6.25-0.594-6.233-2.989
		C31.025,35.265,31.215,23.505,32.608,18.179z M30,58C14.561,58,2,45.439,2,30c0-2.067,0.232-4.08,0.659-6.02
		c0.819,0.489,1.756,0.755,2.721,0.755h0.885c-0.658,4.975-1.155,10.482-1.262,13.97c-0.135,4.42,5.401,4.812,9.444,5.098
		l0.783,0.057c1.219,0.091,2.15,0.143,3.086,0.143c0.914,0,1.832-0.049,3.025-0.157c0.508-0.047,1.033-0.082,1.56-0.117
		c2.568-0.174,5.574-0.385,7.099-2.074c1.525,1.689,4.53,1.9,7.099,2.074c0.527,0.035,1.052,0.07,1.561,0.117
		c1.193,0.108,2.111,0.157,3.024,0.157c0.936,0,1.868-0.052,3.087-0.143l0.783-0.057c4.043-0.286,9.579-0.678,9.444-5.098
		c-0.106-3.486-0.604-8.995-1.262-13.97h0.884c0.965,0,1.902-0.266,2.721-0.754C57.768,25.92,58,27.933,58,30
		C58,45.439,45.439,58,30,58z"/>
	<circle cx="16" cy="13" r="1"/>
	<circle cx="14" cy="15" r="1"/>
	<circle cx="18" cy="15" r="1"/>
	<circle cx="20" cy="13" r="1"/>
	<circle cx="22" cy="15" r="1"/>
	<circle cx="12" cy="17" r="1"/>
	<circle cx="16" cy="17" r="1"/>
	<circle cx="24" cy="17" r="1"/>
	<circle cx="26" cy="19" r="1"/>
	<circle cx="40" cy="13" r="1"/>
	<circle cx="38" cy="15" r="1"/>
	<circle cx="42" cy="15" r="1"/>
	<circle cx="44" cy="13" r="1"/>
	<circle cx="46" cy="15" r="1"/>
	<circle cx="36" cy="17" r="1"/>
	<circle cx="40" cy="17" r="1"/>
	<circle cx="34" cy="19" r="1"/>
	<circle cx="48" cy="17" r="1"/>
</g>
<g>
</g>
<g>
</g>
<g>
</g>
<g>
</g>
<g>
</g>
<g>
</g>
<g>
</g>
<g>
</g>
<g>
</g>
<g>
</g>
<g>
</g>
<g>
</g>
<g>
</g>
<g>
</g>
<g>
</g>
</svg>
