<?xml version="1.0" encoding="iso-8859-1"?>
<!-- Generator: Adobe Illustrator 18.0.0, SVG Export Plug-In . SVG Version: 6.00 Build 0)  -->
<!DOCTYPE svg PUBLIC "-//W3C//DTD SVG 1.1//EN" "http://www.w3.org/Graphics/SVG/1.1/DTD/svg11.dtd">
<svg version="1.1" id="Capa_1" xmlns="http://www.w3.org/2000/svg" xmlns:xlink="http://www.w3.org/1999/xlink" x="0px" y="0px"
	 viewBox="0 0 60 60" style="enable-background:new 0 0 60 60;" xml:space="preserve">
<path d="M49.939,5.998H10.061C4.513,5.998,0,10.511,0,16.059v9.744c0,1.34,0.831,2.485,2.024,2.959
	c-1.035,4.464-1.769,9.16-2.003,12.988c-0.329,5.375,3.307,9.095,7.056,10.396c3.561,1.237,6.769,1.856,9.606,1.856
	c3.074,0,5.713-0.726,7.895-2.177c2.674-1.78,4.863-5.962,5.329-8.908c2.618,4.536,10.243,9.44,13.939,10.027
	c0.224,0.035,0.462,0.053,0.713,0.053c0.351,0,0.727-0.034,1.125-0.104c5.175-0.886,13.361-8.12,13.317-12.962
	c-0.041-4.468-0.333-8.133-0.89-11.231C59.226,28.2,60,27.085,60,25.803v-9.744C60,10.511,55.487,5.998,49.939,5.998z M23.47,50.16
	c-3.647,2.426-8.942,2.459-15.737,0.098c-3.036-1.055-5.981-4.057-5.716-8.385c0.247-4.027,1.109-9.231,2.271-13.941
	c0.106-0.429,0.209-0.837,0.309-1.222c0.15-0.57,0.302-1.137,0.46-1.684c1.019-3.523,3.995-5.027,9.953-5.027
	c7.703,0,9.214,0.19,11.125,6.215c0.006,0.018,0.011,0.039,0.017,0.057c0.113,0.359,0.217,0.738,0.319,1.121
	c0.058,0.219,0.115,0.444,0.173,0.684C27.502,31.617,27.95,36.133,28,41.82C28.018,43.903,26.081,48.422,23.47,50.16z
	 M28.904,28.998h1.709c-0.393,1.727-0.729,3.426-0.987,5.043C29.45,32.203,29.213,30.524,28.904,28.998z M45.345,50.923
	c-0.468,0.081-0.869,0.095-1.187,0.046c-4.413-0.7-13.287-7.607-13.157-10.99c0.121-3.139,0.752-7.162,1.742-11.324l0.102-0.421
	c0.382-1.57,0.784-3.057,1.193-4.418c1.016-3.377,3.995-4.818,9.962-4.818c7.716,0,9.229,0.183,11.136,5.962
	c0.179,0.542,0.335,1.104,0.481,1.672c0.042,0.164,0.082,0.331,0.122,0.502c0.098,0.41,0.187,0.825,0.271,1.243l0.105,0.517
	c0.716,3.887,0.856,7.997,0.884,11.056C57.034,43.732,49.595,50.196,45.345,50.923z M57.412,25.596
	c-0.12-0.438-0.244-0.862-0.377-1.263c-2.31-7.001-4.971-7.335-13.034-7.335c-4.656,0-10.213,0.71-11.877,6.242
	c-0.187,0.62-0.371,1.268-0.553,1.935c-0.147,0.533-0.284,1.065-0.42,1.598c-0.019,0.077-0.04,0.148-0.059,0.225h-2.652
	c-0.008-0.029-0.017-0.056-0.024-0.084c-0.12-0.457-0.241-0.879-0.365-1.272c-0.003-0.011-0.006-0.023-0.01-0.034
	c-2.304-7.263-4.965-7.609-13.031-7.609c-1.164,0-2.385,0.046-3.587,0.205c-3.606,0.476-7.043,1.965-8.287,6.268
	c-0.008,0.029-0.016,0.06-0.024,0.089c-0.13,0.451-0.263,0.943-0.399,1.46c-0.068,0.254-0.137,0.505-0.203,0.762
	C2.202,26.564,2,26.207,2,25.803v-9.744c0-4.445,3.616-8.062,8.061-8.062h39.877c4.445,0,8.062,3.616,8.062,8.062v9.744
	c0,0.312-0.123,0.598-0.325,0.811c-0.018-0.075-0.038-0.143-0.056-0.217C57.552,26.127,57.485,25.856,57.412,25.596z"/>
<g>
</g>
<g>
</g>
<g>
</g>
<g>
</g>
<g>
</g>
<g>
</g>
<g>
</g>
<g>
</g>
<g>
</g>
<g>
</g>
<g>
</g>
<g>
</g>
<g>
</g>
<g>
</g>
<g>
</g>
</svg>
