<?xml version="1.0" encoding="iso-8859-1"?>
<!-- Generator: Adobe Illustrator 18.0.0, SVG Export Plug-In . SVG Version: 6.00 Build 0)  -->
<!DOCTYPE svg PUBLIC "-//W3C//DTD SVG 1.1//EN" "http://www.w3.org/Graphics/SVG/1.1/DTD/svg11.dtd">
<svg version="1.1" id="Capa_1" xmlns="http://www.w3.org/2000/svg" xmlns:xlink="http://www.w3.org/1999/xlink" x="0px" y="0px"
	 viewBox="0 0 60 60" style="enable-background:new 0 0 60 60;" xml:space="preserve">
<path d="M57.818,29.182c0.585-3.151,0.998-6.254,1.162-8.932c0.329-5.375-3.307-9.095-7.056-10.396
	c-7.417-2.577-13.305-2.471-17.501,0.32c-1.838,1.223-3.444,3.583-4.422,5.895c-0.978-2.313-2.584-4.672-4.423-5.895
	c-4.195-2.791-10.083-2.899-17.5-0.32c-3.75,1.302-7.385,5.021-7.056,10.396c0.164,2.677,0.577,5.781,1.162,8.932
	C0.919,29.608,0,30.791,0,32.197v9.744c0,5.548,4.514,10.062,10.062,10.062h39.877C55.487,52.003,60,47.489,60,41.941v-9.744
	C60,30.791,59.081,29.608,57.818,29.182z M35.53,11.841c1.848-1.229,4.119-1.845,6.794-1.845c2.604,0,5.591,0.582,8.942,1.747
	c3.036,1.055,5.981,4.057,5.716,8.385c-0.176,2.878-0.67,6.361-1.358,9.833c-0.1,0.504-0.204,1.003-0.311,1.499
	c-0.035,0.161-0.07,0.323-0.105,0.484c-0.102,0.464-0.207,0.923-0.314,1.375c-0.063,0.266-0.128,0.528-0.193,0.791
	c-0.086,0.348-0.171,0.696-0.259,1.032c-0.163,0.622-0.328,1.238-0.5,1.833c-1.019,3.523-3.995,5.027-9.953,5.027
	c-7.703,0-9.214-0.19-11.125-6.215c-0.019-0.061-0.036-0.13-0.055-0.192c-0.118-0.381-0.231-0.773-0.337-1.182
	c-0.065-0.253-0.124-0.523-0.185-0.787c-0.054-0.233-0.11-0.462-0.16-0.703c-0.062-0.298-0.119-0.61-0.176-0.921
	c-0.043-0.235-0.087-0.468-0.128-0.71c-0.051-0.304-0.097-0.619-0.143-0.934C31.263,27.478,31.035,24.114,31,20.18
	C30.982,18.097,32.919,13.578,35.53,11.841z M8.733,11.743c3.352-1.165,6.338-1.747,8.942-1.747c2.675,0,4.946,0.615,6.794,1.845
	c2.611,1.737,4.549,6.257,4.531,8.34c-0.035,3.936-0.264,7.301-0.682,10.185c-0.045,0.311-0.091,0.621-0.141,0.922
	c-0.042,0.253-0.088,0.496-0.133,0.74c-0.055,0.299-0.11,0.601-0.17,0.888c-0.055,0.262-0.115,0.512-0.175,0.765
	c-0.057,0.243-0.111,0.492-0.171,0.725c-0.124,0.478-0.254,0.942-0.394,1.383c-1.911,6.024-3.422,6.215-11.125,6.215
	c-2.234,0-4.049-0.211-5.499-0.662c-2.416-0.75-3.817-2.164-4.454-4.366c-0.173-0.6-0.341-1.22-0.504-1.848
	C5.47,34.81,5.39,34.481,5.309,34.154c-0.07-0.283-0.14-0.566-0.208-0.852c-0.104-0.441-0.206-0.888-0.306-1.34
	c-0.038-0.173-0.076-0.346-0.113-0.519c-0.105-0.488-0.207-0.979-0.306-1.475c-0.689-3.475-1.183-6.96-1.36-9.84
	C2.751,15.8,5.697,12.798,8.733,11.743z M58,41.941c0,4.445-3.616,8.062-8.061,8.062H10.062C5.616,50.003,2,46.386,2,41.941v-9.744
	c0-0.431,0.23-0.809,0.573-1.019c0.212,1.017,0.444,2.025,0.687,3.023c0.044,0.183,0.089,0.364,0.133,0.544
	c0.085,0.34,0.17,0.678,0.258,1.013c0.159,0.609,0.32,1.205,0.484,1.772c1.658,5.737,7.216,6.473,11.874,6.473
	c0.504,0,0.987-0.001,1.45-0.006c0.926-0.009,1.773-0.029,2.55-0.074c0.777-0.045,1.484-0.115,2.132-0.222
	c3.562-0.59,5.315-2.314,6.899-7.307c0.18-0.567,0.343-1.162,0.497-1.775c0.028-0.113,0.053-0.234,0.081-0.349
	c0.13-0.541,0.25-1.101,0.361-1.681c0.006-0.033,0.014-0.062,0.02-0.095c0.006,0.033,0.014,0.062,0.02,0.094
	c0.112,0.586,0.234,1.152,0.365,1.699c0.026,0.107,0.049,0.22,0.075,0.326c0.154,0.615,0.318,1.213,0.498,1.781
	c2.304,7.263,4.965,7.609,13.031,7.609c1.164,0,2.385-0.046,3.587-0.205c3.606-0.476,7.043-1.965,8.287-6.268
	c0.012-0.043,0.024-0.089,0.036-0.132c0.15-0.523,0.298-1.067,0.444-1.625c0.092-0.348,0.18-0.7,0.269-1.054
	c0.041-0.164,0.081-0.329,0.121-0.495c0.245-1.005,0.479-2.022,0.692-3.047C57.77,31.388,58,31.766,58,32.197V41.941z"/>
<g>
</g>
<g>
</g>
<g>
</g>
<g>
</g>
<g>
</g>
<g>
</g>
<g>
</g>
<g>
</g>
<g>
</g>
<g>
</g>
<g>
</g>
<g>
</g>
<g>
</g>
<g>
</g>
<g>
</g>
</svg>
