<?xml version="1.0" encoding="iso-8859-1"?>
<!-- Generator: Adobe Illustrator 18.0.0, SVG Export Plug-In . SVG Version: 6.00 Build 0)  -->
<!DOCTYPE svg PUBLIC "-//W3C//DTD SVG 1.1//EN" "http://www.w3.org/Graphics/SVG/1.1/DTD/svg11.dtd">
<svg version="1.1" id="Capa_1" xmlns="http://www.w3.org/2000/svg" xmlns:xlink="http://www.w3.org/1999/xlink" x="0px" y="0px"
	 viewBox="0 0 60 60" style="enable-background:new 0 0 60 60;" xml:space="preserve">
<path d="M56.806,32.5h-0.253c1.259-4.966,2.169-10.415,2.435-14.752c0.329-5.375-3.307-9.095-7.056-10.396
	c-7.417-2.578-13.305-2.471-17.501,0.32c-3.034,2.02-5.447,7.135-5.422,10.023c0.055,6.246,0.555,11,1.561,14.805h-2.903
	c0.713-3.246,0.969-6.576,1.211-9.818l0.106-1.408c0.439-5.657-8.961-14.711-12.789-16.495c-0.945-0.44-2.217-0.351-3.092,0.22
	c-2.774,1.807-6.01,4.883-8.654,8.227c-3.021,3.822-4.146,9.041-3.008,13.959c0.402,1.737,0.833,3.553,1.335,5.359
	C1.214,32.749,0,34.076,0,35.694v9.744C0,50.986,4.514,55.5,10.062,55.5h39.877C55.487,55.5,60,50.986,60,45.438v-9.744
	C60,33.932,58.567,32.5,56.806,32.5z M35.54,9.338c1.848-1.229,4.119-1.845,6.794-1.845c2.604,0,5.591,0.582,8.942,1.747
	c3.036,1.055,5.981,4.057,5.716,8.385c-0.263,4.294-1.22,9.931-2.502,14.875H54.49l-0.115,0.425
	c-0.139,0.522-0.277,1.045-0.422,1.548c-0.892,3.083-3.282,4.62-7.856,4.956C45.443,39.476,44.745,39.5,44,39.5
	c-0.481,0-0.939-0.001-1.373-0.004c-6.52-0.043-7.96-0.563-9.752-6.211c-1.196-3.772-1.807-8.878-1.866-15.607
	C30.991,15.595,32.929,11.075,35.54,9.338z M6.019,14.465c2.479-3.136,5.613-6.121,8.177-7.791c0.297-0.192,0.836-0.231,1.155-0.083
	c3.355,1.564,11.99,10.016,11.639,14.528l-0.107,1.414c-0.249,3.344-0.509,6.786-1.284,10.06l-0.226,0.869
	c-0.064,0.238-0.122,0.478-0.192,0.713c-1.25,4.198-4.493,6.325-9.64,6.325c-0.067,0-0.135,0-0.202-0.001
	c-3.699-0.04-6.389-1.093-8.176-3.146c-0.826-0.95-1.478-2.093-1.914-3.486l-0.047-0.159C4.488,31.401,3.915,29,3.39,26.732
	C2.388,22.401,3.37,17.814,6.019,14.465z M58,45.438c0,4.445-3.616,8.062-8.061,8.062H10.062C5.616,53.5,2,49.884,2,45.438v-9.744
	C2,35.036,2.536,34.5,3.194,34.5h0.159c0.052,0.164,0.113,0.317,0.169,0.476c0.055,0.154,0.105,0.312,0.164,0.461
	c0.064,0.163,0.138,0.316,0.208,0.474c0.062,0.14,0.119,0.285,0.185,0.42c0.078,0.16,0.165,0.311,0.249,0.465
	c0.067,0.123,0.129,0.25,0.199,0.369c0.098,0.165,0.205,0.32,0.31,0.478c0.065,0.098,0.125,0.2,0.192,0.295
	c0.122,0.172,0.255,0.333,0.386,0.495c0.058,0.072,0.112,0.149,0.171,0.219c0.154,0.18,0.317,0.348,0.482,0.515
	c0.044,0.045,0.085,0.094,0.13,0.138c0.185,0.18,0.38,0.349,0.578,0.514c0.031,0.025,0.058,0.054,0.089,0.079
	c0.218,0.177,0.445,0.343,0.679,0.501c0.015,0.01,0.028,0.022,0.043,0.031c2.001,1.342,4.582,2.035,7.731,2.069
	c0.074,0.001,0.148,0.001,0.221,0.001h0c0,0,0,0,0,0c3.404,0,6.157-0.847,8.184-2.492c1.576-1.28,2.713-3.042,3.375-5.263
	c0.024-0.081,0.047-0.163,0.07-0.245h4c0.04,0.118,0.081,0.219,0.122,0.333c0.069,0.196,0.14,0.39,0.21,0.575
	c0.077,0.201,0.155,0.394,0.233,0.581c0.072,0.173,0.145,0.344,0.218,0.506c0.081,0.177,0.163,0.345,0.246,0.51
	c0.075,0.15,0.151,0.299,0.229,0.439c0.086,0.155,0.175,0.3,0.263,0.444c0.08,0.129,0.16,0.258,0.243,0.377
	c0.093,0.134,0.189,0.259,0.285,0.382c0.085,0.109,0.171,0.219,0.259,0.32c0.101,0.115,0.207,0.221,0.312,0.326
	c0.091,0.091,0.182,0.183,0.277,0.267c0.111,0.098,0.228,0.186,0.344,0.274c0.098,0.074,0.195,0.151,0.298,0.219
	c0.122,0.081,0.251,0.153,0.379,0.225c0.106,0.06,0.211,0.123,0.322,0.177c0.135,0.066,0.279,0.123,0.421,0.181
	c0.115,0.047,0.227,0.097,0.347,0.139c0.15,0.052,0.31,0.097,0.468,0.142c0.124,0.036,0.244,0.074,0.373,0.106
	c0.168,0.041,0.347,0.073,0.524,0.108c0.132,0.025,0.259,0.054,0.396,0.076c0.188,0.03,0.39,0.053,0.589,0.078
	c0.14,0.017,0.275,0.038,0.421,0.052c0.213,0.021,0.442,0.036,0.667,0.052c0.146,0.01,0.285,0.024,0.437,0.032
	c0.245,0.014,0.507,0.022,0.767,0.032c0.148,0.005,0.288,0.013,0.441,0.017c0.294,0.008,0.607,0.012,0.92,0.016
	c0.133,0.002,0.258,0.005,0.395,0.007C43.029,41.498,43.504,41.5,44,41.5c0.291,0,0.586-0.003,0.883-0.01
	c4.454-0.102,9.437-1.084,10.991-6.463c0.049-0.172,0.099-0.349,0.147-0.527h0.785c0.658,0,1.194,0.536,1.194,1.194V45.438z"/>
<g>
</g>
<g>
</g>
<g>
</g>
<g>
</g>
<g>
</g>
<g>
</g>
<g>
</g>
<g>
</g>
<g>
</g>
<g>
</g>
<g>
</g>
<g>
</g>
<g>
</g>
<g>
</g>
<g>
</g>
</svg>
