<?xml version="1.0" encoding="iso-8859-1"?>
<!-- Generator: Adobe Illustrator 18.0.0, SVG Export Plug-In . SVG Version: 6.00 Build 0)  -->
<!DOCTYPE svg PUBLIC "-//W3C//DTD SVG 1.1//EN" "http://www.w3.org/Graphics/SVG/1.1/DTD/svg11.dtd">
<svg version="1.1" id="Capa_1" xmlns="http://www.w3.org/2000/svg" xmlns:xlink="http://www.w3.org/1999/xlink" x="0px" y="0px"
	 viewBox="0 0 60 60" style="enable-background:new 0 0 60 60;" xml:space="preserve">
<path d="M49.938,7.998H10.062C4.514,7.998,0,12.511,0,18.059v9.744c0,1.406,0.918,2.589,2.182,3.015
	c-0.584,3.149-0.997,6.253-1.162,8.933c-0.329,5.374,3.307,9.094,7.056,10.396c3.561,1.237,6.769,1.856,9.606,1.856
	c3.074,0,5.714-0.726,7.895-2.177c1.839-1.223,3.445-3.582,4.423-5.895c0.978,2.312,2.584,4.671,4.423,5.895
	c2.182,1.451,4.82,2.177,7.895,2.177c2.837,0,6.046-0.619,9.606-1.856c3.749-1.302,7.385-5.021,7.056-10.396
	c-0.164-2.679-0.577-5.783-1.162-8.932C59.082,30.392,60,29.209,60,27.803v-9.744C60,12.511,55.486,7.998,49.938,7.998z
	 M24.47,48.16c-3.646,2.427-8.941,2.458-15.737,0.098c-3.036-1.055-5.98-4.057-5.716-8.385c0.177-2.875,0.669-6.351,1.355-9.816
	c0.101-0.509,0.207-1.015,0.314-1.517c0.034-0.16,0.069-0.319,0.104-0.478c0.103-0.466,0.208-0.927,0.315-1.381
	c0.061-0.257,0.124-0.51,0.187-0.765c0.088-0.359,0.177-0.719,0.267-1.067c0.162-0.619,0.327-1.231,0.498-1.824
	c1.019-3.523,3.994-5.027,9.951-5.027c7.703,0,9.214,0.19,11.125,6.215c0.174,0.549,0.326,1.119,0.469,1.695
	c0.049,0.199,0.097,0.402,0.143,0.607c0.081,0.354,0.154,0.714,0.225,1.074c0.057,0.292,0.116,0.577,0.169,0.882
	c0.005,0.028,0.008,0.057,0.013,0.085c0.086,0.507,0.166,1.03,0.24,1.576l0.066,0.489c0.417,3.314,0.517,6.618,0.54,9.199
	C29.019,41.903,27.081,46.422,24.47,48.16z M51.268,48.257c-6.797,2.362-12.091,2.329-15.737-0.098
	c-2.611-1.737-4.549-6.257-4.53-8.34c0.023-2.582,0.123-5.885,0.54-9.199l0.066-0.489c0.074-0.546,0.154-1.069,0.24-1.576
	c0.005-0.028,0.008-0.057,0.013-0.085c0.052-0.305,0.112-0.59,0.169-0.882c0.071-0.36,0.144-0.72,0.225-1.074
	c0.047-0.205,0.094-0.408,0.143-0.607c0.143-0.575,0.295-1.145,0.469-1.695c1.911-6.024,3.422-6.215,11.125-6.215
	c5.957,0,8.933,1.504,9.951,5.027c0.171,0.592,0.336,1.205,0.498,1.824c0.091,0.349,0.179,0.709,0.268,1.07
	c0.063,0.253,0.125,0.505,0.186,0.761c0.107,0.453,0.212,0.912,0.314,1.377c0.036,0.163,0.071,0.325,0.106,0.489
	c0.108,0.5,0.213,1.004,0.313,1.511c0.686,3.465,1.179,6.942,1.355,9.817C57.248,44.201,54.304,47.203,51.268,48.257z M58,27.803
	c0,0.431-0.23,0.809-0.573,1.019c-0.214-1.031-0.45-2.052-0.696-3.063c-0.037-0.154-0.075-0.307-0.112-0.459
	c-0.09-0.362-0.181-0.721-0.275-1.077c-0.157-0.601-0.317-1.19-0.479-1.752c-1.658-5.737-7.216-6.473-11.873-6.473
	c-8.066,0-10.728,0.347-13.031,7.609c-0.179,0.564-0.342,1.156-0.495,1.767c-0.03,0.121-0.057,0.251-0.087,0.375
	c-0.127,0.531-0.246,1.08-0.354,1.649c-0.007,0.038-0.017,0.072-0.024,0.111c-0.007-0.039-0.017-0.072-0.024-0.111
	c-0.109-0.57-0.228-1.121-0.355-1.653c-0.029-0.122-0.055-0.249-0.085-0.368c-0.154-0.611-0.317-1.204-0.496-1.769
	c-2.304-7.263-4.965-7.609-13.031-7.609c-4.657,0-10.215,0.735-11.873,6.473c-0.162,0.562-0.322,1.151-0.479,1.752
	c-0.094,0.356-0.184,0.715-0.274,1.077c-0.038,0.153-0.075,0.306-0.113,0.461c-0.247,1.01-0.482,2.031-0.696,3.062
	C2.23,28.612,2,28.234,2,27.803v-9.744c0-4.445,3.616-8.062,8.062-8.062h39.877c4.445,0,8.062,3.616,8.062,8.062V27.803z"/>
<g>
</g>
<g>
</g>
<g>
</g>
<g>
</g>
<g>
</g>
<g>
</g>
<g>
</g>
<g>
</g>
<g>
</g>
<g>
</g>
<g>
</g>
<g>
</g>
<g>
</g>
<g>
</g>
<g>
</g>
</svg>
