<?xml version="1.0" encoding="iso-8859-1"?>
<!-- Generator: Adobe Illustrator 18.0.0, SVG Export Plug-In . SVG Version: 6.00 Build 0)  -->
<!DOCTYPE svg PUBLIC "-//W3C//DTD SVG 1.1//EN" "http://www.w3.org/Graphics/SVG/1.1/DTD/svg11.dtd">
<svg version="1.1" id="Capa_1" xmlns="http://www.w3.org/2000/svg" xmlns:xlink="http://www.w3.org/1999/xlink" x="0px" y="0px"
	 viewBox="0 0 58.688 58.688" style="enable-background:new 0 0 58.688 58.688;" xml:space="preserve">
<g>
	<path d="M57.354,50.917l-5.644-5.645c-0.148-0.148-0.23-0.346-0.23-0.555c0-0.21,0.082-0.406,0.23-0.555
		c1.085-1.086,1.085-2.853,0-3.938L12.988,1.502c-2-1.999-5.255-2.001-7.255,0l-4.23,4.23C0.534,6.702,0,7.991,0,9.361
		s0.534,2.658,1.503,3.627l8.33,8.33c0.033,0.047,0.053,0.101,0.095,0.144s0.096,0.062,0.144,0.095l6.492,6.492
		c0.033,0.047,0.052,0.1,0.094,0.142s0.095,0.061,0.142,0.094l6.493,6.493c0.033,0.047,0.053,0.101,0.095,0.143
		s0.096,0.062,0.143,0.095l6.493,6.493c0.033,0.047,0.052,0.1,0.094,0.141s0.095,0.061,0.141,0.094l5.655,5.655
		c0.033,0.046,0.052,0.099,0.093,0.14s0.094,0.06,0.14,0.093l4.077,4.077c1.052,1.053,2.887,1.053,3.938,0
		c0.306-0.305,0.804-0.305,1.109,0l5.645,5.645c0.887,0.888,2.053,1.331,3.219,1.331c1.166,0,2.332-0.444,3.219-1.331
		c0.86-0.86,1.333-2.003,1.333-3.219C58.688,52.918,58.214,51.776,57.354,50.917z M44.717,49.482c-0.713,0-1.426,0.271-1.969,0.813
		c-0.297,0.297-0.813,0.297-1.11,0l-3.487-3.487l1.793-1.793c0.391-0.391,0.391-1.023,0-1.414s-1.023-0.391-1.414,0l-1.793,1.793
		l-4.475-4.475l1.793-1.793c0.391-0.391,0.391-1.023,0-1.414s-1.023-0.391-1.414,0l-1.793,1.793l-5.316-5.316l1.793-1.793
		c0.391-0.391,0.391-1.023,0-1.414s-1.023-0.391-1.414,0l-1.793,1.793l-5.316-5.316l1.793-1.793c0.391-0.391,0.391-1.023,0-1.414
		s-1.023-0.391-1.414,0l-1.793,1.793l-5.316-5.316l1.792-1.793c0.391-0.391,0.391-1.023,0-1.414s-1.024-0.391-1.414,0l-1.792,1.793
		l-7.742-7.742C2.326,10.983,2,10.197,2,9.361s0.326-1.622,0.917-2.214l4.23-4.23c1.221-1.221,3.207-1.219,4.427,0l7.742,7.742
		L17.5,12.475c-0.391,0.391-0.391,1.023,0,1.414c0.195,0.195,0.451,0.293,0.707,0.293s0.512-0.098,0.707-0.293l1.817-1.816
		l5.316,5.316l-1.817,1.817c-0.391,0.391-0.391,1.023,0,1.414c0.195,0.195,0.451,0.293,0.707,0.293s0.512-0.098,0.707-0.293
		l1.817-1.817l5.316,5.316l-1.817,1.817c-0.391,0.391-0.391,1.023,0,1.414c0.195,0.195,0.451,0.293,0.707,0.293
		s0.512-0.098,0.707-0.293l1.817-1.817l5.316,5.316l-1.817,1.817c-0.391,0.391-0.391,1.023,0,1.414
		c0.195,0.195,0.451,0.293,0.707,0.293s0.512-0.098,0.707-0.293l1.817-1.817l4.475,4.475l-1.816,1.816
		c-0.391,0.391-0.391,1.023,0,1.414c0.195,0.195,0.451,0.293,0.707,0.293s0.512-0.098,0.707-0.293l1.816-1.816l3.486,3.486
		c0.306,0.306,0.306,0.805,0,1.11c-0.526,0.525-0.815,1.225-0.815,1.969c0,0.743,0.29,1.442,0.815,1.969l1.449,1.449l-3.572,3.572
		c-0.013,0.013-0.018,0.031-0.03,0.045l-1.457-1.457C46.143,49.752,45.43,49.482,44.717,49.482z M55.94,55.94
		c-0.995,0.993-2.614,0.994-3.609,0l-2.789-2.789c0.014-0.012,0.032-0.017,0.045-0.03l3.572-3.572l2.781,2.781
		c0.482,0.482,0.748,1.123,0.748,1.805S56.422,55.458,55.94,55.94z"/>
	<path d="M7.544,6.154c-0.391-0.391-1.023-0.391-1.414,0s-0.391,1.023,0,1.414L41.462,42.9c0.195,0.195,0.451,0.293,0.707,0.293
		s0.512-0.098,0.707-0.293c0.391-0.391,0.391-1.023,0-1.414L7.544,6.154z"/>
</g>
<g>
</g>
<g>
</g>
<g>
</g>
<g>
</g>
<g>
</g>
<g>
</g>
<g>
</g>
<g>
</g>
<g>
</g>
<g>
</g>
<g>
</g>
<g>
</g>
<g>
</g>
<g>
</g>
<g>
</g>
</svg>
