<?xml version="1.0" encoding="iso-8859-1"?>
<!-- Generator: Adobe Illustrator 18.0.0, SVG Export Plug-In . SVG Version: 6.00 Build 0)  -->
<!DOCTYPE svg PUBLIC "-//W3C//DTD SVG 1.1//EN" "http://www.w3.org/Graphics/SVG/1.1/DTD/svg11.dtd">
<svg version="1.1" id="Capa_1" xmlns="http://www.w3.org/2000/svg" xmlns:xlink="http://www.w3.org/1999/xlink" x="0px" y="0px"
	 viewBox="0 0 60 60" style="enable-background:new 0 0 60 60;" xml:space="preserve">
<g>
	<circle cx="19" cy="33" r="1"/>
	<circle cx="42" cy="33" r="1"/>
	<path d="M60,30c0-2.031-0.205-4.015-0.592-5.933l0.011-0.003l-0.217-0.928c-0.008-0.033-0.019-0.065-0.027-0.099
		c-0.295-1.236-0.664-2.444-1.107-3.616c-0.033-0.087-0.069-0.172-0.102-0.259c-0.187-0.481-0.386-0.955-0.597-1.424
		c-0.059-0.131-0.117-0.261-0.177-0.391c-0.241-0.515-0.492-1.025-0.761-1.524c-0.018-0.033-0.034-0.067-0.052-0.1
		c-0.274-0.505-0.567-0.998-0.869-1.485c-0.114-0.184-0.233-0.365-0.351-0.547c-0.202-0.311-0.41-0.618-0.624-0.921
		c-0.138-0.196-0.274-0.392-0.416-0.584c-0.296-0.4-0.601-0.792-0.916-1.177c-0.177-0.216-0.361-0.425-0.544-0.636
		c-0.217-0.251-0.436-0.5-0.662-0.743c-0.094-0.101-0.18-0.208-0.275-0.308L51.34,8.919l-0.017,0.004
		c-2.938-2.972-6.491-5.329-10.45-6.874l-0.005-0.023L40.364,1.84c-0.473-0.174-0.952-0.333-1.432-0.482
		c-0.049-0.015-0.099-0.028-0.148-0.043c-0.382-0.116-0.765-0.227-1.151-0.328c-0.207-0.055-0.416-0.102-0.625-0.152
		c-0.226-0.054-0.451-0.108-0.677-0.157c-0.288-0.062-0.579-0.117-0.87-0.171c-0.144-0.026-0.289-0.053-0.433-0.078
		c-0.341-0.058-0.684-0.109-1.029-0.155c-0.089-0.012-0.178-0.023-0.268-0.034c-0.385-0.048-0.771-0.089-1.16-0.123
		c-0.033-0.003-0.066-0.005-0.099-0.008C31.655,0.043,30.833,0,30,0c-1.843,0-3.644,0.176-5.396,0.496
		c-0.041,0.008-0.083,0.015-0.124,0.022c-0.376,0.07-0.748,0.148-1.119,0.232c-0.101,0.023-0.201,0.046-0.301,0.07
		c-0.325,0.077-0.648,0.159-0.969,0.247c-0.156,0.043-0.312,0.088-0.468,0.133c-0.273,0.079-0.545,0.16-0.814,0.247
		c-0.209,0.067-0.417,0.14-0.625,0.212c-0.223,0.077-0.446,0.153-0.666,0.236c-0.055,0.02-0.11,0.038-0.164,0.058l-0.53,0.201
		l-0.003,0.016c-3.835,1.546-7.281,3.858-10.143,6.753L8.66,8.919L8.276,9.322c-0.095,0.1-0.181,0.207-0.275,0.308
		c-0.226,0.243-0.445,0.492-0.662,0.743c-0.183,0.211-0.368,0.42-0.544,0.636c-0.315,0.384-0.62,0.777-0.916,1.177
		c-0.142,0.192-0.278,0.389-0.416,0.584c-0.213,0.303-0.421,0.61-0.624,0.921c-0.118,0.182-0.237,0.363-0.351,0.547
		c-0.302,0.487-0.594,0.98-0.869,1.485c-0.018,0.033-0.034,0.067-0.052,0.1c-0.269,0.499-0.52,1.008-0.761,1.524
		c-0.061,0.13-0.119,0.261-0.177,0.391c-0.211,0.469-0.41,0.943-0.597,1.424C2,19.249,1.964,19.335,1.932,19.422
		c-0.443,1.172-0.812,2.379-1.107,3.616c-0.008,0.033-0.019,0.065-0.027,0.099l-0.217,0.928l0.011,0.003C0.205,25.985,0,27.969,0,30
		c0,9.778,4.704,18.476,11.965,23.956l0.002,0.017l0.357,0.262c0.133,0.097,0.274,0.18,0.409,0.275
		c0.379,0.268,0.764,0.527,1.156,0.777c0.21,0.134,0.418,0.272,0.631,0.4c0.482,0.292,0.975,0.566,1.474,0.831
		c0.249,0.132,0.499,0.26,0.751,0.385c0.469,0.232,0.945,0.454,1.427,0.662c0.285,0.123,0.572,0.236,0.86,0.349
		c0.388,0.153,0.779,0.298,1.174,0.435c0.255,0.088,0.509,0.179,0.766,0.26c0.564,0.178,1.136,0.339,1.714,0.485
		c0.23,0.058,0.461,0.108,0.693,0.16c0.505,0.114,1.015,0.216,1.529,0.304c0.157,0.027,0.312,0.06,0.469,0.084
		c0.654,0.102,1.317,0.176,1.984,0.234c0.177,0.015,0.354,0.028,0.532,0.041C28.592,59.967,29.292,60,30,60s1.408-0.033,2.104-0.082
		c0.178-0.012,0.355-0.025,0.532-0.041c0.667-0.059,1.33-0.133,1.984-0.234c0.157-0.024,0.313-0.057,0.469-0.084
		c0.514-0.088,1.024-0.19,1.529-0.304c0.231-0.052,0.463-0.103,0.693-0.16c0.578-0.145,1.15-0.306,1.714-0.485
		c0.257-0.081,0.511-0.172,0.766-0.26c0.395-0.137,0.786-0.282,1.174-0.435c0.288-0.113,0.576-0.226,0.86-0.349
		c0.483-0.208,0.958-0.43,1.427-0.662c0.252-0.125,0.502-0.253,0.751-0.385c0.499-0.265,0.992-0.539,1.474-0.831
		c0.213-0.129,0.421-0.266,0.631-0.4c0.392-0.25,0.777-0.509,1.156-0.777c0.135-0.095,0.276-0.177,0.409-0.275l0.357-0.262
		l0.002-0.017C55.296,48.476,60,39.778,60,30z M46.14,52.859c-0.094,0.067-0.187,0.136-0.283,0.201
		c-0.45,0.311-0.906,0.611-1.37,0.893c-0.197,0.12-0.401,0.231-0.601,0.346c-0.333,0.191-0.67,0.375-1.01,0.552
		c-0.227,0.118-0.452,0.238-0.682,0.35c-0.469,0.228-0.943,0.441-1.423,0.641c-0.248,0.104-0.5,0.2-0.751,0.297
		c-0.345,0.132-0.692,0.257-1.042,0.376c-0.246,0.083-0.491,0.17-0.74,0.246c-0.498,0.153-1.002,0.29-1.509,0.416
		c-0.225,0.056-0.452,0.107-0.68,0.157c-0.485,0.107-0.973,0.203-1.464,0.284c-0.124,0.021-0.246,0.045-0.37,0.064
		c-0.592,0.089-1.189,0.155-1.789,0.206c-0.17,0.015-0.341,0.027-0.511,0.039C31.279,57.97,30.642,58,30,58s-1.279-0.03-1.914-0.073
		c-0.171-0.012-0.341-0.024-0.511-0.039c-0.6-0.051-1.197-0.117-1.789-0.206c-0.124-0.019-0.246-0.044-0.37-0.064
		c-0.491-0.081-0.979-0.177-1.464-0.284c-0.227-0.05-0.454-0.102-0.68-0.157c-0.507-0.125-1.01-0.262-1.509-0.416
		c-0.249-0.077-0.494-0.163-0.74-0.246c-0.35-0.119-0.697-0.243-1.042-0.376c-0.252-0.097-0.504-0.193-0.752-0.297
		c-0.479-0.2-0.954-0.413-1.422-0.641c-0.23-0.112-0.456-0.232-0.682-0.35c-0.34-0.177-0.676-0.361-1.01-0.552
		c-0.201-0.115-0.404-0.226-0.601-0.346c-0.464-0.282-0.92-0.582-1.37-0.893c-0.095-0.066-0.188-0.134-0.283-0.201
		c-0.253-2.381-0.527-5.051-0.799-7.706c-0.628-6.126-1.222-11.912-1.562-14.292c-0.537-3.755-3.402-6.501-8.523-8.173
		c0.008-0.03,0.017-0.06,0.026-0.091c0.126-0.461,0.265-0.917,0.415-1.37c0.033-0.1,0.067-0.2,0.102-0.299
		c0.138-0.402,0.286-0.801,0.442-1.196c0.042-0.107,0.083-0.215,0.127-0.321c0.174-0.425,0.359-0.846,0.554-1.262
		c0.028-0.059,0.052-0.119,0.08-0.177c0.223-0.468,0.46-0.929,0.709-1.385c0.065-0.118,0.135-0.233,0.202-0.351
		c0.18-0.318,0.364-0.633,0.557-0.944c0.113-0.183,0.231-0.363,0.348-0.543c0.155-0.239,0.314-0.475,0.477-0.709
		c0.138-0.198,0.276-0.395,0.419-0.589c0.154-0.209,0.314-0.415,0.473-0.62c0.155-0.199,0.307-0.4,0.468-0.595
		c0.182-0.221,0.372-0.435,0.561-0.651c0.14-0.16,0.277-0.321,0.421-0.478l4.217,0.877c1.486,0.312,3.04-0.032,4.259-0.942
		c1.218-0.909,1.99-2.3,2.104-3.723l0.656-3.688c0.043-0.016,0.087-0.029,0.131-0.044c0.697-0.245,1.402-0.466,2.115-0.654
		c0.01-0.003,0.02-0.006,0.03-0.009C23.605,2.73,24.35,2.57,25.1,2.438c0.044-0.008,0.088-0.016,0.133-0.024
		c0.758-0.13,1.52-0.231,2.285-0.298c0.003,0,0.006,0,0.009-0.001c1.539-0.135,3.088-0.141,4.627-0.024
		c0.058,0.004,0.115,0.008,0.173,0.013c0.736,0.06,1.469,0.149,2.198,0.267c0.068,0.011,0.135,0.025,0.202,0.036
		c0.679,0.115,1.354,0.256,2.023,0.42c0.07,0.017,0.141,0.031,0.21,0.049c0.635,0.162,1.262,0.356,1.885,0.564
		c0.11,0.037,0.22,0.074,0.33,0.112l0.887,3.754c0.146,1.484,0.911,2.843,2.108,3.736c1.219,0.91,2.772,1.251,4.258,0.943
		l4.218-0.878c0.143,0.156,0.281,0.318,0.421,0.478c0.189,0.216,0.379,0.43,0.561,0.651c0.16,0.195,0.313,0.396,0.468,0.595
		c0.16,0.205,0.319,0.411,0.473,0.62c0.143,0.194,0.281,0.391,0.419,0.589c0.163,0.234,0.322,0.47,0.477,0.709
		c0.117,0.18,0.235,0.36,0.348,0.543c0.192,0.311,0.377,0.626,0.557,0.944c0.067,0.117,0.137,0.232,0.202,0.351
		c0.249,0.455,0.486,0.917,0.709,1.385c0.028,0.058,0.053,0.118,0.08,0.176c0.195,0.417,0.381,0.838,0.555,1.264
		c0.043,0.106,0.084,0.212,0.126,0.319c0.156,0.396,0.304,0.795,0.442,1.197c0.034,0.1,0.068,0.199,0.102,0.299
		c0.149,0.453,0.289,0.909,0.415,1.37c0.008,0.03,0.018,0.06,0.026,0.091c-5.121,1.672-7.987,4.419-8.523,8.173
		c-0.34,2.38-0.934,8.166-1.562,14.292C46.667,47.808,46.393,50.477,46.14,52.859z M48.956,9.416l-2.937,0.612
		c-0.927,0.19-1.895-0.021-2.654-0.588s-1.24-1.434-1.319-2.378l-0.611-2.61C44.21,5.698,46.748,7.38,48.956,9.416z M18.403,4.525
		l-0.449,2.537c-0.079,0.944-0.559,1.812-1.319,2.378c-0.759,0.566-1.726,0.78-2.655,0.587l-2.936-0.611
		C13.21,7.419,15.691,5.764,18.403,4.525z M2,30c0-1.826,0.181-3.61,0.517-5.34c4.218,1.418,6.588,3.589,7.002,6.483
		c0.334,2.34,0.953,8.376,1.552,14.213c0.201,1.962,0.403,3.925,0.597,5.781C5.752,46,2,38.432,2,30z M48.332,51.137
		c0.194-1.856,0.395-3.819,0.597-5.781c0.599-5.837,1.218-11.873,1.552-14.213c0.414-2.894,2.784-5.065,7.002-6.483
		C57.819,26.39,58,28.174,58,30C58,38.432,54.248,46,48.332,51.137z"/>
	<path d="M18.942,12.021c-0.551,0.032-0.972,0.505-0.94,1.056c0.033,0.552,0.503,0.966,1.057,0.94
		c2.215-0.129,3.972,0.447,5.235,1.709c0.195,0.195,0.451,0.293,0.707,0.293s0.512-0.098,0.707-0.293
		c0.391-0.391,0.391-1.023,0-1.414C24.023,12.629,21.747,11.851,18.942,12.021z"/>
	<path d="M12.665,23.422c-0.413-0.368-1.044-0.329-1.412,0.082c-0.367,0.413-0.33,1.045,0.083,1.412
		c1.654,1.473,2.493,3.124,2.493,4.909c0,0.553,0.448,1,1,1s1-0.447,1-1C15.829,27.444,14.764,25.29,12.665,23.422z"/>
	<path d="M48.727,24.697c0.391-0.391,0.391-1.023,0-1.414s-1.023-0.391-1.414,0c-1.684,1.683-2.454,3.959-2.291,6.765
		c0.031,0.532,0.472,0.942,0.998,0.942c0.02,0,0.039-0.001,0.059-0.002c0.551-0.032,0.972-0.505,0.94-1.056
		C46.889,27.721,47.464,25.959,48.727,24.697z"/>
	<path d="M35.179,15.727c1.209-1.21,3.362-1.851,5.763-1.709c0.562,0.022,1.024-0.389,1.057-0.94
		c0.032-0.551-0.389-1.023-0.94-1.056c-2.958-0.176-5.687,0.684-7.293,2.291c-0.391,0.391-0.391,1.023,0,1.414
		c0.195,0.195,0.451,0.293,0.707,0.293S34.984,15.922,35.179,15.727z"/>
	<path d="M30,28c-0.552,0-1,0.447-1,1v2c0,0.553,0.448,1,1,1s1-0.447,1-1v-2C31,28.447,30.552,28,30,28z"/>
	<path d="M42,50c-3.196,0-6-2.821-6-6.038c0-0.553-0.448-1-1-1s-1,0.447-1,1C34,48.244,37.738,52,42,52c0.552,0,1-0.447,1-1
		S42.552,50,42,50z"/>
	<path d="M25,42.962c-0.552,0-1,0.447-1,1C24,47.179,21.196,50,18,50c-0.552,0-1,0.447-1,1s0.448,1,1,1c4.262,0,8-3.756,8-8.038
		C26,43.409,25.552,42.962,25,42.962z"/>
	<path d="M23,11c0.552,0,1-0.447,1-1V8c0-0.553-0.448-1-1-1s-1,0.447-1,1v2C22,10.553,22.448,11,23,11z"/>
	<path d="M37,11c0.552,0,1-0.447,1-1V8c0-0.553-0.448-1-1-1s-1,0.447-1,1v2C36,10.553,36.448,11,37,11z"/>
</g>
<g>
</g>
<g>
</g>
<g>
</g>
<g>
</g>
<g>
</g>
<g>
</g>
<g>
</g>
<g>
</g>
<g>
</g>
<g>
</g>
<g>
</g>
<g>
</g>
<g>
</g>
<g>
</g>
<g>
</g>
</svg>
