<?xml version="1.0" encoding="iso-8859-1"?>
<!-- Generator: Adobe Illustrator 18.0.0, SVG Export Plug-In . SVG Version: 6.00 Build 0)  -->
<!DOCTYPE svg PUBLIC "-//W3C//DTD SVG 1.1//EN" "http://www.w3.org/Graphics/SVG/1.1/DTD/svg11.dtd">
<svg version="1.1" id="Capa_1" xmlns="http://www.w3.org/2000/svg" xmlns:xlink="http://www.w3.org/1999/xlink" x="0px" y="0px"
	 viewBox="0 0 59.998 59.998" style="enable-background:new 0 0 59.998 59.998;" xml:space="preserve">
<path d="M58.241,1.757C57.107,0.624,55.6,0,53.998,0s-3.109,0.624-4.243,1.757L31.37,20.142c-0.984,0.984-1.582,2.249-1.723,3.614
	L1.364,52.04c-1.818,1.818-1.818,4.776,0,6.595c0.909,0.909,2.104,1.364,3.297,1.364c1.194,0,2.389-0.455,3.297-1.364l28.284-28.283
	c1.365-0.141,2.63-0.74,3.614-1.723l18.385-18.385c1.133-1.133,1.757-2.64,1.757-4.243S59.374,2.891,58.241,1.757z M31.86,29.064
	c0.05,0.04,0.102,0.075,0.153,0.113c0.125,0.095,0.253,0.186,0.384,0.269c0.054,0.034,0.109,0.066,0.165,0.099
	c0.142,0.084,0.286,0.162,0.433,0.234c0.041,0.02,0.083,0.04,0.124,0.059c0.189,0.086,0.381,0.163,0.578,0.229L17.278,46.486
	l-2.354-5.178l15.006-15.004c0.002,0.006,0.005,0.011,0.007,0.017c0.064,0.188,0.138,0.373,0.22,0.554
	c0.021,0.046,0.042,0.09,0.064,0.135c0.07,0.144,0.146,0.284,0.228,0.422c0.034,0.058,0.067,0.115,0.103,0.172
	c0.082,0.129,0.171,0.253,0.264,0.376c0.04,0.053,0.077,0.108,0.118,0.159c0.136,0.169,0.279,0.332,0.435,0.487
	C31.526,28.783,31.691,28.927,31.86,29.064z M13.393,50.371l-2.354-5.178l2.376-2.375l2.354,5.178L13.393,50.371z M9.507,54.257
	l-2.354-5.179l2.375-2.375l2.354,5.178L9.507,54.257z M6.544,57.22c-1.038,1.038-2.728,1.038-3.767,0
	c-1.038-1.039-1.038-2.728,0-3.766l2.866-2.865l2.354,5.179L6.544,57.22z M56.826,8.829L38.442,27.213
	c-0.734,0.734-1.686,1.11-2.649,1.153l-0.019,0.001c-1.136,0.036-2.199-0.364-2.988-1.153c-0.195-0.195-0.367-0.407-0.515-0.632
	c-0.002-0.003-0.003-0.006-0.004-0.008c-0.44-0.675-0.664-1.471-0.638-2.309l0-0.008c0.032-0.981,0.411-1.952,1.157-2.699
	L51.169,3.171c0.78-0.78,1.804-1.169,2.829-1.169s2.049,0.39,2.829,1.169C58.386,4.731,58.386,7.269,56.826,8.829z"/>
<g>
</g>
<g>
</g>
<g>
</g>
<g>
</g>
<g>
</g>
<g>
</g>
<g>
</g>
<g>
</g>
<g>
</g>
<g>
</g>
<g>
</g>
<g>
</g>
<g>
</g>
<g>
</g>
<g>
</g>
</svg>
