<?xml version="1.0" encoding="iso-8859-1"?>
<!-- Generator: Adobe Illustrator 18.0.0, SVG Export Plug-In . SVG Version: 6.00 Build 0)  -->
<!DOCTYPE svg PUBLIC "-//W3C//DTD SVG 1.1//EN" "http://www.w3.org/Graphics/SVG/1.1/DTD/svg11.dtd">
<svg version="1.1" id="Capa_1" xmlns="http://www.w3.org/2000/svg" xmlns:xlink="http://www.w3.org/1999/xlink" x="0px" y="0px"
	 viewBox="0 0 57.992 57.992" style="enable-background:new 0 0 57.992 57.992;" xml:space="preserve">
<path d="M40.544,18.645c0.072-0.378,0.118-0.762,0.118-1.154v-5.777c0-5.187-3.483-9.805-8.471-11.23l-0.909-0.26
	c-0.357-0.102-0.727,0.013-0.98,0.27c-4.71-0.893-11.237-1.076-18.105,3.89c-0.85,0.615-1.402,1.564-1.514,2.605
	c-0.111,1.029,0.221,2.061,0.91,2.831c0.73,0.815,1.734,1.239,2.74,1.239c0.732,0,1.465-0.224,2.095-0.684
	c5.125-3.744,9.609-3.38,13.69-2.429c0.06,0.014,0.12,0.012,0.18,0.023c0.037,0.197,0.074,0.393,0.106,0.598
	c-0.519,0.149-1.014,0.4-1.439,0.784c-4.246,3.833-8.548,5.609-10.441,5.336c-1.108-0.16-2.145,0.165-2.847,0.894l-0.24,0.25
	c-0.955,0.991-1.264,2.419-0.807,3.727c0.443,1.271,1.538,2.168,2.856,2.344c0.447,0.06,0.907,0.089,1.38,0.089
	c2.673,0,5.721-0.947,8.828-2.692c-5.473,9.066-6.257,28.971-6.365,35.043c-0.017,0.968,0.347,1.882,1.025,2.572
	c0.683,0.695,1.596,1.077,2.571,1.077h0.14c1.951,0,3.563-1.582,3.593-3.526c0.231-14.831,2.433-25.019,4.434-29.812
	c0.796-0.01,1.571-0.15,2.304-0.392c2.044,4.614,4.365,14.957,4.603,30.205c0.03,1.944,1.642,3.526,3.592,3.526h0.14
	c0.976,0,1.889-0.382,2.572-1.077c0.678-0.691,1.042-1.604,1.025-2.572C47.218,48.119,46.396,27.368,40.544,18.645z M38.662,11.714
	v5.777c0,2.43-2.187,4.646-4.783,5.073l-0.794-0.35c-0.08-0.035-0.154-0.08-0.232-0.119c-0.584-0.338-1.45-1.106-1.639-2.273
	c-0.242-1.488,0.695-3.24,2.71-5.067l0,0l0,0l0,0c0.014-0.013,0.024-0.03,0.039-0.043c0.166-0.156,0.319-0.323,0.451-0.505
	c0.088-0.121,0.153-0.257,0.225-0.389c0.046-0.085,0.104-0.164,0.143-0.252c0.004-0.009,0.01-0.016,0.014-0.026
	c0.086-0.197,0.148-0.402,0.197-0.609c0.011-0.048,0.018-0.096,0.027-0.145c0.034-0.175,0.055-0.352,0.063-0.53
	c0.002-0.035,0.012-0.069,0.012-0.104c0-0.023-0.006-0.046-0.006-0.069c-0.001-0.221-0.015-0.444-0.057-0.665
	c-0.043-0.227-0.114-0.445-0.198-0.656c-0.019-0.049-0.042-0.095-0.064-0.143c-0.073-0.164-0.158-0.321-0.255-0.472
	c-0.03-0.047-0.058-0.095-0.091-0.14c-0.13-0.184-0.273-0.36-0.438-0.519l-0.086-0.083c-0.167-0.161-0.346-0.301-0.532-0.421
	c-0.002-0.001-0.003-0.002-0.005-0.003c-0.029-0.019-0.061-0.031-0.091-0.049c-0.107-0.062-0.216-0.123-0.314-0.168
	c-0.033-0.019-0.125-0.064-0.159-0.079c-0.007-0.003-0.014-0.005-0.021-0.007c-0.029-0.012-0.058-0.02-0.086-0.031
	c-0.087-0.033-0.174-0.067-0.263-0.093c-0.038-0.266-0.08-0.527-0.125-0.783c0.026-0.01,0.048-0.029,0.074-0.04
	c0.206-0.088,0.402-0.193,0.588-0.316c0.083-0.054,0.158-0.116,0.235-0.177c0.128-0.101,0.25-0.208,0.364-0.326
	c0.074-0.076,0.145-0.152,0.212-0.234c0.11-0.135,0.206-0.28,0.297-0.43c0.046-0.077,0.098-0.149,0.139-0.23
	c0.121-0.24,0.224-0.492,0.291-0.764c0.032-0.131,0.04-0.263,0.058-0.394c0.015-0.11,0.043-0.219,0.048-0.329
	c0.004-0.08-0.011-0.158-0.012-0.238c-0.003-0.159,0-0.318-0.024-0.475C37.077,5.602,38.662,8.529,38.662,11.714z M15.248,8.759
	c-0.651,0.475-1.602,0.355-2.165-0.273c-0.316-0.353-0.462-0.809-0.412-1.282c0.052-0.479,0.306-0.915,0.698-1.199
	c4.269-3.087,8.326-4.02,11.927-4.02c2.209,0,4.247,0.351,6.054,0.771c0.425,0.099,0.786,0.36,1.016,0.736
	c0.177,0.29,0.261,0.618,0.244,0.953c-0.005,0.112-0.022,0.224-0.05,0.336c-0.039,0.155-0.105,0.297-0.183,0.43
	c-0.017,0.028-0.033,0.057-0.051,0.084c-0.085,0.126-0.183,0.241-0.298,0.339c-0.011,0.01-0.024,0.017-0.036,0.027
	c-0.259,0.207-0.579,0.341-0.931,0.364c-0.005,0-0.009,0.004-0.014,0.004c-0.157,0.01-0.316,0.005-0.476-0.032
	C26.247,4.989,21.04,4.53,15.248,8.759z M17.75,19.92c-0.575-0.077-1.036-0.458-1.232-1.021c-0.21-0.601-0.075-1.229,0.36-1.681
	l0.24-0.25c0.248-0.257,0.584-0.32,0.854-0.32c0.101,0,0.192,0.009,0.266,0.02c2.411,0.346,7.071-1.321,12.067-5.832
	c0.475-0.43,1.136-0.534,1.692-0.317c0.007,0.004,0.014,0.008,0.023,0.012c0.179,0.073,0.347,0.176,0.493,0.317l0.086,0.083
	c0.002,0.002,0.003,0.004,0.005,0.006c0.106,0.103,0.191,0.222,0.265,0.348c0.017,0.03,0.033,0.06,0.049,0.09
	c0.066,0.132,0.121,0.271,0.149,0.419c0.027,0.144,0.028,0.291,0.017,0.437c-0.003,0.033-0.007,0.065-0.011,0.097
	c-0.02,0.14-0.052,0.279-0.108,0.408c-0.001,0.003-0.002,0.007-0.003,0.01c-0.039,0.09-0.089,0.174-0.145,0.254
	c-0.007,0.01-0.011,0.021-0.018,0.031c-0.064,0.089-0.137,0.171-0.219,0.246C27.47,17.911,21.79,20.456,17.75,19.92z M26.659,54.434
	c-0.013,0.859-0.728,1.558-1.593,1.558h-0.14c-0.435,0-0.841-0.17-1.145-0.479c-0.299-0.305-0.46-0.708-0.452-1.135
	c0.208-11.723,1.814-26.127,5.646-33.294c0.585,1.005,1.41,1.863,2.402,2.484C29.263,28.46,26.898,39.062,26.659,54.434z
	 M44.876,55.513c-0.303,0.309-0.71,0.479-1.145,0.479h-0.14c-0.865,0-1.579-0.699-1.592-1.558
	c-0.239-15.37-2.604-25.974-4.719-30.866c0.992-0.621,1.817-1.479,2.402-2.484c3.832,7.168,5.438,21.572,5.646,33.294
	C45.336,54.805,45.176,55.208,44.876,55.513z"/>
<g>
</g>
<g>
</g>
<g>
</g>
<g>
</g>
<g>
</g>
<g>
</g>
<g>
</g>
<g>
</g>
<g>
</g>
<g>
</g>
<g>
</g>
<g>
</g>
<g>
</g>
<g>
</g>
<g>
</g>
</svg>
