<?xml version="1.0" encoding="iso-8859-1"?>
<!-- Generator: Adobe Illustrator 18.0.0, SVG Export Plug-In . SVG Version: 6.00 Build 0)  -->
<!DOCTYPE svg PUBLIC "-//W3C//DTD SVG 1.1//EN" "http://www.w3.org/Graphics/SVG/1.1/DTD/svg11.dtd">
<svg version="1.1" id="Capa_1" xmlns="http://www.w3.org/2000/svg" xmlns:xlink="http://www.w3.org/1999/xlink" x="0px" y="0px"
	 viewBox="0 0 57.651 57.651" style="enable-background:new 0 0 57.651 57.651;" xml:space="preserve">
<path d="M55.148,2.415c-0.073-0.138-0.172-0.258-0.259-0.387l0.004-0.003c-0.027-0.045-0.057-0.089-0.088-0.131
	c-0.025-0.038-0.053-0.075-0.081-0.112c-0.036-0.046-0.07-0.094-0.108-0.138l0,0c-1.194-1.542-3.218-2.068-4.915-1.285
	C16.224,15.818,3.907,47.179,2.476,51.106l-0.448,0.755l0.762,0.534c0.226,0.158,0.405,0.247,0.585,0.247
	c0.439,0,0.873-0.532,1.963-1.867C24.344,27.472,36.74,16.857,44.306,12.043c-5.369,10.576-17.329,25.253-34.81,42.569
	c-1.721,1.704-1.984,1.966-1.365,2.689c0.18,0.209,0.456,0.351,0.758,0.351c0.179,0,0.367-0.049,0.55-0.163l0.002,0.002
	c3.416-1.623,33.727-16.871,45.963-51.898C55.769,4.546,55.678,3.418,55.148,2.415z M45.785,8.835
	c-6.998,3.853-19.235,13.371-38.73,36.716c4.963-10.184,17.022-29.866,40.258-41.804c-0.01,0.062-0.021,0.124-0.032,0.186
	c-0.048,0.266-0.104,0.537-0.168,0.815c-0.02,0.088-0.039,0.176-0.061,0.265c-0.089,0.365-0.189,0.738-0.305,1.122
	c-0.002,0.008-0.004,0.015-0.007,0.023C46.485,7.006,46.166,7.9,45.785,8.835z M53.515,4.933
	c-9.212,26.371-28.886,41.274-38.981,47.463C34.87,31.784,46.73,15.552,49.078,5.13c0.018-0.078,0.035-0.155,0.051-0.232
	c0.098-0.457,0.184-0.908,0.244-1.342v0c0.071-0.515,0.411-0.838,0.684-1.019c0.168-0.112,0.36-0.192,0.557-0.255
	c0.054-0.017,0.11-0.03,0.166-0.044c0.158-0.038,0.32-0.061,0.483-0.068c0.052-0.002,0.104-0.01,0.156-0.008
	c0.189,0.004,0.379,0.023,0.56,0.072c0.191,0.051,0.369,0.135,0.539,0.234c0.038,0.022,0.075,0.047,0.112,0.072
	c0.156,0.105,0.304,0.224,0.432,0.368c0.029,0.033,0.059,0.064,0.087,0.099l-0.004,0.003l0.004-0.003
	c0.013,0.017,0.023,0.036,0.036,0.053l-0.003,0.002l0.003-0.002c0.012,0.016,0.022,0.034,0.033,0.05l-0.003,0.003l0.004-0.003
	c0.056,0.079,0.116,0.154,0.161,0.24C53.647,3.856,53.695,4.418,53.515,4.933z"/>
<g>
</g>
<g>
</g>
<g>
</g>
<g>
</g>
<g>
</g>
<g>
</g>
<g>
</g>
<g>
</g>
<g>
</g>
<g>
</g>
<g>
</g>
<g>
</g>
<g>
</g>
<g>
</g>
<g>
</g>
</svg>
