<?xml version="1.0" encoding="iso-8859-1"?>
<!-- Generator: Adobe Illustrator 18.0.0, SVG Export Plug-In . SVG Version: 6.00 Build 0)  -->
<!DOCTYPE svg PUBLIC "-//W3C//DTD SVG 1.1//EN" "http://www.w3.org/Graphics/SVG/1.1/DTD/svg11.dtd">
<svg version="1.1" id="Capa_1" xmlns="http://www.w3.org/2000/svg" xmlns:xlink="http://www.w3.org/1999/xlink" x="0px" y="0px"
	 viewBox="0 0 60.003 60.003" style="enable-background:new 0 0 60.003 60.003;" xml:space="preserve">
<path d="M58.834,49.889c-1.022-1.022-11.262-11.291-12.12-12.2c-7.892-8.375-13.283-16.312-18.498-23.986
	c-2.358-3.472-4.586-6.75-6.997-10.007l-0.3-0.405H2.516c-0.69-0.047-1.325,0.392-1.495,1.09C0.845,5.106,1.226,5.816,2.02,6.096
	l13.562,3.429c0.188,0.256,0.368,0.511,0.554,0.766H1.536c-0.681-0.049-1.309,0.422-1.486,1.151
	c-0.193,0.793,0.185,1.555,0.991,1.84l13.206,3.333l26.675,26.675l0.752,0.67l0.009-0.009c3.515,3.581,10.44,10.54,11.494,11.594
	c0.78,0.78,1.804,1.169,2.828,1.169s2.05-0.39,2.829-1.169C60.393,53.986,60.393,51.448,58.834,49.889z M5.271,12.291h12.299
	c0.432,0.611,0.86,1.225,1.285,1.838c1.104,1.596,2.19,3.204,3.288,4.828c0.59,0.873,1.188,1.756,1.804,2.661
	c0.042,0.061,0.083,0.122,0.124,0.183c0.076,0.111,0.148,0.218,0.225,0.331c0.054,0.079,0.11,0.159,0.164,0.239
	c0.369,0.541,0.742,1.084,1.118,1.629c0.055,0.08,0.109,0.159,0.164,0.238l0.087,0.126c0.012,0.017,0.025,0.035,0.037,0.053
	c0.77,1.111,1.561,2.233,2.375,3.365l-12.97-12.969L5.271,12.291z M57.42,54.132c-0.778,0.779-2.049,0.78-2.829,0
	c-1.178-1.179-10.437-10.484-12.875-13.009c-0.757-0.813-1.523-1.651-2.334-2.565l-0.771-0.872c-0.378-0.432-0.746-0.862-1.11-1.291
	l-0.787-0.933c-0.335-0.401-0.67-0.802-0.994-1.198l-0.674-0.836c-0.606-0.754-1.197-1.502-1.771-2.245l-0.66-0.854
	c-0.245-0.322-0.484-0.642-0.724-0.961l-0.13-0.173c-0.243-0.325-0.485-0.649-0.724-0.974c-0.258-0.35-0.513-0.698-0.765-1.046
	c-0.273-0.376-0.542-0.75-0.809-1.124l-0.616-0.862c-0.465-0.657-0.923-1.311-1.379-1.969c-0.039-0.056-0.077-0.112-0.116-0.168
	c-0.414-0.597-0.824-1.197-1.244-1.812c-0.117-0.172-0.235-0.344-0.351-0.515c-0.412-0.605-0.817-1.204-1.223-1.804
	c-0.23-0.34-0.46-0.68-0.689-1.019c-2.293-3.394-4.459-6.599-6.869-9.854l-0.213-0.287l-9.782-2.47H19.91
	c2.273,3.092,4.403,6.227,6.651,9.536c5.259,7.74,10.696,15.743,18.697,24.234c0.919,0.974,11.51,11.591,12.161,12.243
	C58.199,52.083,58.199,53.352,57.42,54.132z"/>
<g>
</g>
<g>
</g>
<g>
</g>
<g>
</g>
<g>
</g>
<g>
</g>
<g>
</g>
<g>
</g>
<g>
</g>
<g>
</g>
<g>
</g>
<g>
</g>
<g>
</g>
<g>
</g>
<g>
</g>
</svg>
