<?xml version="1.0" encoding="iso-8859-1"?>
<!-- Generator: Adobe Illustrator 18.0.0, SVG Export Plug-In . SVG Version: 6.00 Build 0)  -->
<!DOCTYPE svg PUBLIC "-//W3C//DTD SVG 1.1//EN" "http://www.w3.org/Graphics/SVG/1.1/DTD/svg11.dtd">
<svg version="1.1" id="Capa_1" xmlns="http://www.w3.org/2000/svg" xmlns:xlink="http://www.w3.org/1999/xlink" x="0px" y="0px"
	 viewBox="0 0 53.944 53.944" style="enable-background:new 0 0 53.944 53.944;" xml:space="preserve">
<g>
	<path d="M48,39.339V35.25v-4v-0.288c0-3.701-3.011-6.712-6.712-6.712H27.547c-2.92-2.489-6.697-4-10.825-4
		c-0.967,0-1.91,0.1-2.833,0.259L10.986,3.086c-0.065-0.393-0.357-0.71-0.744-0.806l-8-2C1.707,0.145,1.163,0.471,1.03,1.008
		C0.896,1.543,1.222,2.086,1.758,2.22l7.363,1.842l2.816,16.895C5.043,23.021,0,29.416,0,36.973c0,9.221,7.502,16.722,16.723,16.722
		s16.722-7.501,16.722-16.722c0-0.244-0.026-0.481-0.037-0.723H46v3.071c-3.413,0.464-6.056,3.39-6.056,6.929c0,3.859,3.141,7,7,7
		s7-3.141,7-7C53.944,42.751,51.359,39.85,48,39.339z M32,27.25c0.552,0,1-0.448,1-1h2c0,0.552,0.448,1,1,1s1-0.448,1-1h2
		c0,0.552,0.448,1,1,1s1-0.448,1-1h0.288c0.632,0,1.233,0.129,1.784,0.356c0.144,0.375,0.502,0.644,0.928,0.644
		c0.045,0,0.083-0.02,0.126-0.025c0.951,0.724,1.613,1.792,1.802,3.025H45c0-0.552-0.448-1-1-1s-1,0.448-1,1h-2c0-0.552-0.448-1-1-1
		s-1,0.448-1,1h-2c0-0.552-0.448-1-1-1s-1,0.448-1,1h-2c0-0.552-0.448-1-1-1c-0.149,0-0.287,0.037-0.414,0.095
		c-0.175-0.341-0.366-0.671-0.564-0.997c-0.074-0.123-0.146-0.247-0.224-0.368c-0.166-0.258-0.339-0.509-0.518-0.758
		c-0.061-0.084-0.124-0.166-0.187-0.249c-0.182-0.244-0.36-0.49-0.556-0.723H31C31,26.802,31.448,27.25,32,27.25z M28.087,36.25
		c-0.164-2.6-1.198-4.962-2.821-6.802l2.342-2.342c0.258,0.283,0.51,0.571,0.743,0.872c0.004,0.005,0.007,0.009,0.01,0.014
		c0.27,0.348,0.523,0.707,0.76,1.075c0.013,0.02,0.024,0.041,0.037,0.061c0.227,0.357,0.439,0.723,0.634,1.098
		c0.016,0.031,0.029,0.062,0.045,0.093c0.189,0.37,0.365,0.747,0.522,1.132c0.009,0.021,0.015,0.043,0.024,0.064
		c0.008,0.02,0.014,0.041,0.021,0.061c0.005,0.013,0.005,0.027,0.01,0.04c0.198,0.502,0.361,1.011,0.502,1.523
		c0.055,0.202,0.108,0.404,0.154,0.608c0.035,0.153,0.069,0.307,0.099,0.461c0.069,0.36,0.129,0.722,0.171,1.088
		c0.036,0.314,0.05,0.633,0.066,0.953H28.087z M2.065,38.25h3.332c0.245,2.187,1.112,4.186,2.419,5.821l-2.359,2.359
		C3.561,44.177,2.333,41.35,2.065,38.25z M5.379,27.599l2.367,2.367c-1.375,1.757-2.24,3.923-2.389,6.284h-3.32
		C2.197,32.975,3.414,29.972,5.379,27.599z M16,22.287v3.32c-2.64,0.167-5.034,1.232-6.886,2.898l-2.347-2.347
		C9.224,23.894,12.445,22.461,16,22.287z M23.821,28.066c-1.635-1.306-3.634-2.174-5.821-2.419v-3.332
		c3.1,0.268,5.927,1.496,8.181,3.391L23.821,28.066z M9.198,45.517c1.84,1.622,4.202,2.657,6.802,2.821v3.32
		c-3.514-0.172-6.702-1.575-9.148-3.794L9.198,45.517z M18,48.298c2.147-0.241,4.11-1.083,5.729-2.349l2.367,2.367
		C23.856,50.169,21.06,51.365,18,51.63V48.298z M16.723,46.374c-5.185,0-9.402-4.218-9.402-9.401c0-5.185,4.218-9.402,9.402-9.402
		c5.184,0,9.401,4.218,9.401,9.402C26.124,42.156,21.906,46.374,16.723,46.374z M27.536,46.928l-2.346-2.346
		c1.549-1.722,2.587-3.91,2.858-6.331h3.332C31.091,41.586,29.682,44.599,27.536,46.928z M33.218,34.25
		c-0.018-0.11-0.045-0.217-0.065-0.326c-0.036-0.193-0.073-0.385-0.115-0.576c-0.076-0.342-0.164-0.68-0.262-1.015
		c-0.008-0.027-0.013-0.056-0.021-0.083H46v2H33.218z M46.944,51.25c-2.757,0-5-2.243-5-5c0-2.433,1.75-4.461,4.056-4.905v4.905
		c0,0.553,0.447,1,1,1s1-0.447,1-1v-4.883c2.251,0.487,3.944,2.489,3.944,4.883C51.944,49.007,49.701,51.25,46.944,51.25z"/>
	<path d="M15.694,17.25H26c0.553,0,1-0.447,1-1v-1.515c0-4.679-3.807-8.485-8.485-8.485h-4.32c-0.294,0-0.573,0.129-0.763,0.354
		c-0.19,0.225-0.272,0.521-0.224,0.811l1.5,9C14.788,16.897,15.205,17.25,15.694,17.25z M18.515,8.25
		c0.131,0,0.259,0.012,0.388,0.02C18.398,8.321,18,8.733,18,9.25c0,0.552,0.448,1,1,1s1-0.448,1-1c0-0.495-0.366-0.887-0.837-0.967
		c1.04,0.104,2.006,0.458,2.843,0.996C22.022,9.817,22.458,10.25,23,10.25c0.056,0,0.105-0.023,0.159-0.032
		c0.323,0.332,0.607,0.699,0.854,1.094c0.019,0.297,0.167,0.548,0.389,0.719c0.317,0.686,0.516,1.435,0.574,2.225
		C24.435,14.269,24,14.707,24,15.25h-2c0-0.552-0.448-1-1-1s-1,0.448-1,1h-2c0-0.552-0.448-1-1-1c-0.225,0-0.423,0.088-0.59,0.214
		l-0.746-4.478C15.867,9.803,16,9.545,16,9.25c0-0.415-0.252-0.77-0.612-0.922L15.375,8.25H18.515z"/>
	<circle cx="23" cy="13.25" r="1"/>
	<circle cx="19" cy="13.25" r="1"/>
	<circle cx="17" cy="11.25" r="1"/>
	<circle cx="21" cy="11.25" r="1"/>
	<circle cx="34" cy="28.25" r="1"/>
	<circle cx="38" cy="28.25" r="1"/>
	<circle cx="42" cy="28.25" r="1"/>
</g>
<g>
</g>
<g>
</g>
<g>
</g>
<g>
</g>
<g>
</g>
<g>
</g>
<g>
</g>
<g>
</g>
<g>
</g>
<g>
</g>
<g>
</g>
<g>
</g>
<g>
</g>
<g>
</g>
<g>
</g>
</svg>
