<?xml version="1.0" encoding="iso-8859-1"?>
<!-- Generator: Adobe Illustrator 18.0.0, SVG Export Plug-In . SVG Version: 6.00 Build 0)  -->
<!DOCTYPE svg PUBLIC "-//W3C//DTD SVG 1.1//EN" "http://www.w3.org/Graphics/SVG/1.1/DTD/svg11.dtd">
<svg version="1.1" id="Capa_1" xmlns="http://www.w3.org/2000/svg" xmlns:xlink="http://www.w3.org/1999/xlink" x="0px" y="0px"
	 viewBox="0 0 60 60" style="enable-background:new 0 0 60 60;" xml:space="preserve">
<g>
	<path d="M11,17c0-0.553-0.447-1-1-1H6c-0.553,0-1,0.447-1,1s0.447,1,1,1h4C10.553,18,11,17.553,11,17z"/>
	<path d="M14,12H6c-0.553,0-1,0.447-1,1s0.447,1,1,1h8c0.553,0,1-0.447,1-1S14.553,12,14,12z"/>
	<path d="M6,10h4c0.553,0,1-0.447,1-1s-0.447-1-1-1H6C5.447,8,5,8.447,5,9S5.447,10,6,10z"/>
	<path d="M0,3v54h60V3H0z M58,55H2v-4c0.552,0,1-0.448,1-1s-0.448-1-1-1v-4c0.552,0,1-0.448,1-1s-0.448-1-1-1v-4
		c0.552,0,1-0.448,1-1s-0.448-1-1-1v-4c0.552,0,1-0.448,1-1s-0.448-1-1-1v-4c0.552,0,1-0.448,1-1s-0.448-1-1-1v-4
		c0.552,0,1-0.448,1-1s-0.448-1-1-1v-4c0.552,0,1-0.448,1-1s-0.448-1-1-1V9c0.552,0,1-0.448,1-1S2.552,7,2,7V5h2
		c0,0.552,0.448,1,1,1s1-0.448,1-1h4c0,0.552,0.448,1,1,1s1-0.448,1-1h4c0,0.552,0.448,1,1,1s1-0.448,1-1h4c0,0.552,0.448,1,1,1
		s1-0.448,1-1h4c0,0.552,0.448,1,1,1s1-0.448,1-1h4c0,0.552,0.448,1,1,1s1-0.448,1-1h4c0,0.552,0.448,1,1,1s1-0.448,1-1h4
		c0,0.552,0.448,1,1,1s1-0.448,1-1h4c0,0.552,0.448,1,1,1s1-0.448,1-1h4V55z"/>
	<path d="M41.083,36.684c0.154-0.688,0.325-1.396,0.5-2.122c1.001-4.158,2.136-8.871,1.034-13.034
		c-0.428-1.619-1.662-3.152-3.476-4.317c-1.17-0.753-2.59-1.15-4.083-1.198C35.038,16.011,35.021,16,35,16
		c-0.022,0-0.04,0.011-0.061,0.012c-1.328-0.026-2.707,0.217-4.022,0.761l-0.2,0.085c-0.231,0.08-0.41,0.149-0.555,0.205
		c-0.116,0.046-0.195,0.083-0.247,0.097c-0.089-0.004-0.446-0.108-0.598-0.153c-2.168-0.64-4.936-1.274-7.119-0.499
		c-4.116,1.458-5.377,5.987-4.8,9.828l0.267,1.807c0.638,4.381,1.297,8.911,3.004,13.033l0.058,0.141
		c0.468,1.137,1.25,3.039,2.813,3.039h0.203l0.188-0.079c1.317-0.559,1.801-1.798,2.12-2.617c0.208-0.533,0.392-1.072,0.575-1.61
		c0.436-1.279,0.847-2.488,1.568-3.544c0.615-0.899,1.882-2.274,3.439-1.344c1.148,0.684,1.521,2.111,1.915,3.623
		c0.121,0.465,0.241,0.922,0.381,1.352c0.668,2.058,1.492,3.981,2.982,4.135c0.867,0.086,1.606-0.429,2.233-1.528
		c0.986-1.728,1.4-3.616,1.802-5.441L41.083,36.684z M39.132,36.246l-0.139,0.626c-0.386,1.757-0.75,3.416-1.585,4.879
		c-0.143,0.251-0.256,0.392-0.329,0.467c-0.195-0.19-0.629-0.797-1.247-2.699c-0.128-0.395-0.236-0.813-0.348-1.239
		c-0.457-1.75-0.975-3.733-2.827-4.837c-2.1-1.25-4.442-0.51-6.113,1.934c-0.876,1.281-1.352,2.678-1.812,4.028
		c-0.174,0.511-0.348,1.022-0.545,1.528c-0.225,0.577-0.423,1.033-0.733,1.31c-0.224-0.247-0.518-0.813-0.877-1.687l-0.061-0.146
		c-1.611-3.891-2.253-8.296-2.873-12.556l-0.267-1.815c-0.456-3.029,0.447-6.568,3.489-7.646c0.484-0.172,1.039-0.241,1.625-0.241
		c1.425,0,3.034,0.412,4.261,0.773c1.057,0.311,1.338,0.312,2.134,0.003c0.128-0.049,0.283-0.109,0.481-0.179
		c0.085-0.028,0.168-0.063,0.315-0.128c2.236-0.923,4.681-0.821,6.377,0.271c1.393,0.896,2.324,2.013,2.624,3.147
		c0.972,3.674-0.1,8.127-1.045,12.055C39.461,34.829,39.288,35.549,39.132,36.246z"/>
	<circle cx="20" cy="8" r="1"/>
	<circle cx="26" cy="8" r="1"/>
	<circle cx="32" cy="8" r="1"/>
	<circle cx="38" cy="8" r="1"/>
	<circle cx="44" cy="8" r="1"/>
	<circle cx="50" cy="8" r="1"/>
	<circle cx="56" cy="8" r="1"/>
	<circle cx="23" cy="11" r="1"/>
	<circle cx="29" cy="11" r="1"/>
	<circle cx="35" cy="11" r="1"/>
	<circle cx="41" cy="11" r="1"/>
	<circle cx="47" cy="11" r="1"/>
	<circle cx="53" cy="11" r="1"/>
	<circle cx="20" cy="14" r="1"/>
	<circle cx="14" cy="20" r="1"/>
	<circle cx="17" cy="17" r="1"/>
	<circle cx="26" cy="14" r="1"/>
	<circle cx="32" cy="14" r="1"/>
	<circle cx="38" cy="14" r="1"/>
	<circle cx="44" cy="14" r="1"/>
	<circle cx="44" cy="20" r="1"/>
	<circle cx="41" cy="17" r="1"/>
	<circle cx="47" cy="17" r="1"/>
	<circle cx="50" cy="14" r="1"/>
	<circle cx="50" cy="20" r="1"/>
	<circle cx="53" cy="17" r="1"/>
	<circle cx="56" cy="14" r="1"/>
	<circle cx="56" cy="20" r="1"/>
	<circle cx="5" cy="23" r="1"/>
	<circle cx="11" cy="23" r="1"/>
	<circle cx="47" cy="23" r="1"/>
	<circle cx="53" cy="23" r="1"/>
	<circle cx="8" cy="26" r="1"/>
	<circle cx="8" cy="32" r="1"/>
	<circle cx="5" cy="29" r="1"/>
	<circle cx="11" cy="29" r="1"/>
	<circle cx="14" cy="26" r="1"/>
	<circle cx="14" cy="32" r="1"/>
	<circle cx="44" cy="32" r="1"/>
	<circle cx="47" cy="29" r="1"/>
	<circle cx="50" cy="26" r="1"/>
	<circle cx="50" cy="32" r="1"/>
	<circle cx="53" cy="29" r="1"/>
	<circle cx="56" cy="26" r="1"/>
	<circle cx="56" cy="32" r="1"/>
	<circle cx="5" cy="35" r="1"/>
	<circle cx="11" cy="35" r="1"/>
	<circle cx="17" cy="35" r="1"/>
	<circle cx="47" cy="35" r="1"/>
	<circle cx="53" cy="35" r="1"/>
	<circle cx="8" cy="38" r="1"/>
	<circle cx="8" cy="44" r="1"/>
	<circle cx="5" cy="41" r="1"/>
	<circle cx="11" cy="41" r="1"/>
	<circle cx="14" cy="38" r="1"/>
	<circle cx="14" cy="44" r="1"/>
	<circle cx="20" cy="44" r="1"/>
	<circle cx="17" cy="41" r="1"/>
	<circle cx="32" cy="44" r="1"/>
	<circle cx="29" cy="41" r="1"/>
	<circle cx="44" cy="38" r="1"/>
	<circle cx="44" cy="44" r="1"/>
	<circle cx="47" cy="41" r="1"/>
	<circle cx="50" cy="38" r="1"/>
	<circle cx="50" cy="44" r="1"/>
	<circle cx="53" cy="41" r="1"/>
	<circle cx="56" cy="38" r="1"/>
	<circle cx="56" cy="44" r="1"/>
	<circle cx="5" cy="47" r="1"/>
	<circle cx="11" cy="47" r="1"/>
	<circle cx="17" cy="47" r="1"/>
	<circle cx="23" cy="47" r="1"/>
	<circle cx="29" cy="47" r="1"/>
	<circle cx="35" cy="47" r="1"/>
	<circle cx="41" cy="47" r="1"/>
	<circle cx="47" cy="47" r="1"/>
	<circle cx="53" cy="47" r="1"/>
	<circle cx="8" cy="50" r="1"/>
	<circle cx="5" cy="53" r="1"/>
	<circle cx="11" cy="53" r="1"/>
	<circle cx="14" cy="50" r="1"/>
	<circle cx="20" cy="50" r="1"/>
	<circle cx="17" cy="53" r="1"/>
	<circle cx="23" cy="53" r="1"/>
	<circle cx="26" cy="50" r="1"/>
	<circle cx="32" cy="50" r="1"/>
	<circle cx="29" cy="53" r="1"/>
	<circle cx="35" cy="53" r="1"/>
	<circle cx="38" cy="50" r="1"/>
	<circle cx="44" cy="50" r="1"/>
	<circle cx="41" cy="53" r="1"/>
	<circle cx="47" cy="53" r="1"/>
	<circle cx="50" cy="50" r="1"/>
	<circle cx="53" cy="53" r="1"/>
	<circle cx="56" cy="50" r="1"/>
</g>
<g>
</g>
<g>
</g>
<g>
</g>
<g>
</g>
<g>
</g>
<g>
</g>
<g>
</g>
<g>
</g>
<g>
</g>
<g>
</g>
<g>
</g>
<g>
</g>
<g>
</g>
<g>
</g>
<g>
</g>
</svg>
