<?xml version="1.0" encoding="iso-8859-1"?>
<!-- Generator: Adobe Illustrator 18.0.0, SVG Export Plug-In . SVG Version: 6.00 Build 0)  -->
<!DOCTYPE svg PUBLIC "-//W3C//DTD SVG 1.1//EN" "http://www.w3.org/Graphics/SVG/1.1/DTD/svg11.dtd">
<svg version="1.1" id="Capa_1" xmlns="http://www.w3.org/2000/svg" xmlns:xlink="http://www.w3.org/1999/xlink" x="0px" y="0px"
	 viewBox="0 0 60 60" style="enable-background:new 0 0 60 60;" xml:space="preserve">
<g>
	<path d="M22,40.456c-2.206,0-4,1.794-4,4s1.794,4,4,4s4-1.794,4-4S24.206,40.456,22,40.456z M22,46.456c-1.103,0-2-0.897-2-2
		s0.897-2,2-2s2,0.897,2,2S23.103,46.456,22,46.456z"/>
	<path d="M37.949,48.456c2.206,0,4-1.794,4-4s-1.794-4-4-4s-4,1.794-4,4S35.744,48.456,37.949,48.456z M37.949,42.456
		c1.103,0,2,0.897,2,2s-0.897,2-2,2s-2-0.897-2-2S36.846,42.456,37.949,42.456z"/>
	<path d="M60,10.456c0-0.553-0.448-1-1-1h-9.207c-0.533-1.912-2.125-3.448-4.127-3.875c-1.492-0.321-3-0.018-4.307,0.875L35,6.402
		c0.004-0.286-0.004-0.566-0.012-0.839c-0.035-1.235-0.001-1.661,0.526-1.979c0.618-0.372,1.213-0.803,1.768-1.282
		c0.418-0.36,0.465-0.991,0.104-1.41c-0.362-0.419-0.994-0.466-1.41-0.104c-0.47,0.404-0.972,0.769-1.493,1.082
		c-1.573,0.948-1.529,2.502-1.494,3.75C32.997,5.866,33.004,6.118,33,6.375c-0.007,0.552,0.209,1.092,0.593,1.481
		c0.381,0.387,0.89,0.6,1.433,0.6h6.333c0.414,0,0.825-0.132,1.186-0.382c0.565-0.388,1.489-0.798,2.702-0.538
		c1.081,0.231,1.974,0.965,2.424,1.92H12.328c0.451-0.955,1.344-1.688,2.425-1.92c1.213-0.26,2.137,0.149,2.701,0.538
		c0.362,0.25,0.773,0.382,1.187,0.382h6.334c0.542,0,1.051-0.213,1.432-0.599c0.384-0.39,0.601-0.929,0.594-1.48
		c-0.003-0.258,0.004-0.51,0.011-0.755c0.035-1.25,0.079-2.805-1.495-3.751c-0.53-0.319-1.034-0.684-1.5-1.084
		c-0.419-0.362-1.05-0.313-1.411,0.105c-0.36,0.419-0.313,1.051,0.106,1.41c0.551,0.474,1.147,0.904,1.773,1.281
		c0.528,0.318,0.562,0.745,0.527,1.981c-0.008,0.272-0.016,0.552-0.038,0.891l-6.386-0.028c-1.255-0.865-2.769-1.167-4.254-0.847
		c-2.003,0.427-3.594,1.963-4.127,3.875H1c-0.552,0-1,0.447-1,1s0.448,1,1,1h4h4h0.932h2.05l-3.058,4.015
		C8.409,15.512,8,15.931,8,16.456c0,0.064,0.025,0.12,0.036,0.181l-0.568,0.745C7.313,17.364,7.161,17.335,7,17.335
		c-1.24,0-2.335,0.579-3.07,1.467C3.971,18.693,4,18.579,4,18.456c0-0.552-0.448-1-1-1s-1,0.448-1,1s0.448,1,1,1
		c0.237,0,0.445-0.094,0.616-0.232C3.232,19.839,3,20.558,3,21.335c0,0.042,0.011,0.082,0.013,0.124
		c-0.004,0-0.008-0.002-0.013-0.002c-0.552,0-1,0.448-1,1s0.448,1,1,1c0.199,0,0.373-0.073,0.528-0.172
		c0.157,0.279,0.34,0.54,0.557,0.773C4.032,24.18,4,24.314,4,24.456c0,0.552,0.448,1,1,1c0.298,0,0.558-0.137,0.741-0.344
		C6.139,25.246,6.558,25.335,7,25.335c0.16,0,0.312-0.029,0.468-0.047l1.831,2.229c-0.096-0.031-0.193-0.06-0.299-0.06
		c-0.552,0-1,0.448-1,1s0.448,1,1,1s1-0.448,1-1c0-0.041-0.018-0.075-0.023-0.115l0.931,1.133C10.401,29.524,10,29.937,10,30.456
		c0,0.552,0.448,1,1,1c0.453,0,0.821-0.307,0.944-0.721l0.66,0.804C12.249,31.693,12,32.045,12,32.456c0,0.552,0.448,1,1,1
		c0.343,0,0.631-0.184,0.811-0.448l0.563,0.685C14.151,33.878,14,34.145,14,34.456c0,0.552,0.448,1,1,1
		c0.241,0,0.454-0.096,0.626-0.239l0.563,0.685C16.079,36.064,16,36.247,16,36.456c0,0.552,0.448,1,1,1s1-0.448,1-1
		c0-0.217-0.084-0.407-0.201-0.571c0.256-0.359,0.267-0.849-0.027-1.206l-8.36-10.175C10.371,23.774,11,22.631,11,21.335
		c0-1.304-0.636-2.452-1.604-3.183l5.099-6.696H29v2h-7.752c-0.552,0-1,0.447-1,1s0.448,1,1,1H29v2H17.248c-0.552,0-1,0.447-1,1
		s0.448,1,1,1H29v2H17.248c-0.552,0-1,0.447-1,1s0.448,1,1,1H29v2h-7.752c-0.552,0-1,0.447-1,1s0.448,1,1,1H29v2h-5.752
		c-0.552,0-1,0.447-1,1s0.448,1,1,1H29v4h-3c-0.853,0-1.836,0.048-2.679,0.596l-0.81,0.486l-0.189,0.147
		c-0.834,0.826-1.998,1.169-3.036,0.896c-0.953-0.253-2.317-0.215-3.598,0.155c-0.18-0.172-0.42-0.28-0.688-0.28
		c-0.552,0-1,0.448-1,1c0,0.007,0.004,0.014,0.004,0.021c-0.426,0.272-0.788,0.61-1.088,0.996C12.405,39.518,12,39.934,12,40.456
		c0,0.202,0.075,0.379,0.178,0.537c-0.237,0.911-0.223,1.908,0.053,2.848C12.094,44.013,12,44.22,12,44.456c0,0.552,0.448,1,1,1
		c0.005,0,0.008-0.002,0.013-0.003c0.159,0.223,0.332,0.436,0.527,0.631l0.467,0.404c0.018,0.536,0.453,0.967,0.993,0.967
		c0.036,0,0.066-0.017,0.1-0.02l0.941,0.815C16.027,48.319,16,48.384,16,48.456c0,0.552,0.448,1,1,1
		c0.125,0,0.242-0.029,0.352-0.071l1.237,1.071H16c0-0.552-0.448-1-1-1s-1,0.448-1,1h-2c0-0.552-0.448-1-1-1s-1,0.448-1,1H8
		c0-0.552-0.448-1-1-1s-1,0.448-1,1H4c0-0.552-0.448-1-1-1s-1,0.448-1,1H1c-0.552,0-1,0.447-1,1s0.448,1,1,1h10.133l1,7H29h2h16.867
		l1-7H59c0.552,0,1-0.447,1-1s-0.448-1-1-1h-1c0-0.552-0.448-1-1-1s-1,0.448-1,1h-2c0-0.552-0.448-1-1-1s-1,0.448-1,1h-2
		c0-0.552-0.448-1-1-1s-1,0.448-1,1h-2c0-0.552-0.448-1-1-1s-1,0.448-1,1h-2.457l1.253-1.041c0.068,0.015,0.132,0.041,0.204,0.041
		c0.552,0,1-0.448,1-1c0-0.013-0.007-0.024-0.007-0.036l1.208-1.004c0.335-0.071,0.608-0.292,0.728-0.605l0.779-0.647
		c0.24-0.24,0.446-0.502,0.631-0.775C47.722,45.248,48,44.889,48,44.456c0-0.101-0.03-0.193-0.058-0.285
		c0.129-0.369,0.227-0.744,0.27-1.127c0.182,0.244,0.46,0.412,0.788,0.412c0.552,0,1-0.448,1-1s-0.448-1-1-1
		c-0.339,0-0.623,0.179-0.804,0.437c-0.044-0.378-0.129-0.75-0.262-1.111C47.97,40.679,48,40.572,48,40.456
		c0-0.485-0.353-0.871-0.812-0.962c-0.325-0.381-0.73-0.71-1.199-0.985C45.99,38.491,46,38.475,46,38.456c0-0.552-0.448-1-1-1
		c-0.289,0-0.545,0.127-0.728,0.324c-1.109-0.324-2.244-0.432-3.047-0.304c-1.617,0.255-2.723-0.017-3.383-0.834l-0.794-0.725
		l-0.15-0.063c-0.619-0.264-1.274-0.397-1.949-0.397H31v-4h6.248c0.552,0,1-0.447,1-1s-0.448-1-1-1H31v-2h8.248c0.552,0,1-0.447,1-1
		s-0.448-1-1-1H31v-2h12.248c0.552,0,1-0.447,1-1s-0.448-1-1-1H31v-2h12.248c0.552,0,1-0.447,1-1s-0.448-1-1-1H31v-2h8.248
		c0.552,0,1-0.447,1-1s-0.448-1-1-1H31v-2h13.551l5.993,6.745C49.611,18.935,49,20.06,49,21.335c0,1.296,0.629,2.438,1.588,3.17
		l-8.36,10.175c-0.293,0.357-0.282,0.847-0.027,1.206C42.084,36.05,42,36.24,42,36.456c0,0.552,0.448,1,1,1s1-0.448,1-1
		c0-0.209-0.079-0.393-0.189-0.553l0.563-0.685c0.173,0.142,0.385,0.239,0.626,0.239c0.552,0,1-0.448,1-1
		c0-0.312-0.151-0.579-0.375-0.762l0.563-0.685c0.18,0.263,0.468,0.448,0.811,0.448c0.552,0,1-0.448,1-1
		c0-0.411-0.249-0.763-0.604-0.917l0.66-0.804c0.123,0.413,0.49,0.721,0.944,0.721c0.552,0,1-0.448,1-1
		c0-0.52-0.401-0.933-0.908-0.981l0.931-1.133C50.018,28.381,50,28.416,50,28.456c0,0.552,0.448,1,1,1s1-0.448,1-1s-0.448-1-1-1
		c-0.106,0-0.203,0.03-0.299,0.06l1.831-2.229c0.155,0.018,0.308,0.047,0.468,0.047c0.442,0,0.861-0.089,1.259-0.222
		c0.183,0.207,0.443,0.344,0.741,0.344c0.552,0,1-0.448,1-1c0-0.143-0.032-0.277-0.086-0.4c0.217-0.233,0.4-0.494,0.557-0.773
		c0.156,0.1,0.33,0.172,0.528,0.172c0.552,0,1-0.448,1-1s-0.448-1-1-1c-0.004,0-0.008,0.002-0.013,0.002
		C56.989,21.417,57,21.378,57,21.335c0-0.777-0.232-1.496-0.616-2.111c0.171,0.138,0.38,0.232,0.616,0.232c0.552,0,1-0.448,1-1
		s-0.448-1-1-1s-1,0.448-1,1c0,0.123,0.029,0.237,0.07,0.346c-0.734-0.888-1.83-1.467-3.07-1.467c-0.173,0-0.338,0.03-0.505,0.051
		l-0.556-0.626C51.97,16.663,52,16.564,52,16.456c0-0.552-0.448-1-1-1c-0.066,0-0.124,0.025-0.187,0.038l-3.587-4.038h1.742H51h4h4
		C59.552,11.456,60,11.009,60,10.456z M7,19.335c1.103,0,2,0.897,2,2s-0.897,2-2,2s-2-0.897-2-2S5.897,19.335,7,19.335z M29,57.456
		H13.867l-0.714-5h7.746H29V57.456z M46.847,52.456l-0.714,5H31v-5h8.137H46.847z M34.949,37.456c0.352,0,0.696,0.061,1.023,0.182
		l0.37,0.328c0.796,0.944,2.334,1.938,5.195,1.484c1.25-0.195,3.625,0.505,4.255,1.467c0.763,1.168,0.553,2.779-0.432,3.77
		l-6.946,5.77h-6.303c-0.362-0.764-1.072-1.302-1.932-1.454l-0.175-0.031l-0.175,0.031c-0.859,0.152-1.569,0.69-1.932,1.454h-6.255
		l-6.742-5.834c-0.951-0.952-1.19-2.778-0.5-3.831c0.699-1.069,3.055-1.626,4.373-1.276c1.682,0.444,3.536-0.061,4.866-1.321
		l0.741-0.445c0.375-0.244,0.878-0.292,1.619-0.292h3v1c0,0.553,0.448,1,1,1s1-0.447,1-1v-1H34.949z M55,21.335c0,1.103-0.897,2-2,2
		s-2-0.897-2-2s0.897-2,2-2S55,20.233,55,21.335z"/>
	<circle cx="1" cy="12.456" r="1"/>
	<circle cx="5" cy="12.456" r="1"/>
	<circle cx="9" cy="12.456" r="1"/>
	<circle cx="7" cy="14.456" r="1"/>
	<circle cx="3" cy="14.456" r="1"/>
	<circle cx="5" cy="16.456" r="1"/>
	<circle cx="1" cy="20.456" r="1"/>
	<circle cx="3" cy="26.456" r="1"/>
	<circle cx="7" cy="26.456" r="1"/>
	<circle cx="1" cy="24.456" r="1"/>
	<circle cx="1" cy="28.456" r="1"/>
	<circle cx="5" cy="28.456" r="1"/>
	<circle cx="3" cy="30.456" r="1"/>
	<circle cx="7" cy="30.456" r="1"/>
	<circle cx="1" cy="32.456" r="1"/>
	<circle cx="5" cy="32.456" r="1"/>
	<circle cx="9" cy="32.456" r="1"/>
	<circle cx="3" cy="34.456" r="1"/>
	<circle cx="7" cy="34.456" r="1"/>
	<circle cx="1" cy="36.456" r="1"/>
	<circle cx="5" cy="36.456" r="1"/>
	<circle cx="9" cy="36.456" r="1"/>
	<circle cx="13" cy="36.456" r="1"/>
	<circle cx="11" cy="34.456" r="1"/>
	<circle cx="3" cy="38.456" r="1"/>
	<circle cx="7" cy="38.456" r="1"/>
	<circle cx="1" cy="40.456" r="1"/>
	<circle cx="5" cy="40.456" r="1"/>
	<circle cx="9" cy="40.456" r="1"/>
	<circle cx="11" cy="38.456" r="1"/>
	<circle cx="11" cy="42.456" r="1"/>
	<circle cx="3" cy="42.456" r="1"/>
	<circle cx="7" cy="42.456" r="1"/>
	<circle cx="1" cy="44.456" r="1"/>
	<circle cx="5" cy="44.456" r="1"/>
	<circle cx="9" cy="44.456" r="1"/>
	<circle cx="3" cy="46.456" r="1"/>
	<circle cx="7" cy="46.456" r="1"/>
	<circle cx="1" cy="48.456" r="1"/>
	<circle cx="5" cy="48.456" r="1"/>
	<circle cx="9" cy="48.456" r="1"/>
	<circle cx="13" cy="48.456" r="1"/>
	<circle cx="11" cy="46.456" r="1"/>
	<circle cx="1" cy="16.456" r="1"/>
	<circle cx="59" cy="12.456" r="1"/>
	<circle cx="55" cy="12.456" r="1"/>
	<circle cx="51" cy="12.456" r="1"/>
	<circle cx="53" cy="14.456" r="1"/>
	<circle cx="57" cy="14.456" r="1"/>
	<circle cx="55" cy="16.456" r="1"/>
	<circle cx="59" cy="20.456" r="1"/>
	<circle cx="57" cy="26.456" r="1"/>
	<circle cx="53" cy="26.456" r="1"/>
	<circle cx="59" cy="24.456" r="1"/>
	<circle cx="59" cy="28.456" r="1"/>
	<circle cx="55" cy="28.456" r="1"/>
	<circle cx="57" cy="30.456" r="1"/>
	<circle cx="53" cy="30.456" r="1"/>
	<circle cx="59" cy="32.456" r="1"/>
	<circle cx="55" cy="32.456" r="1"/>
	<circle cx="51" cy="32.456" r="1"/>
	<circle cx="57" cy="34.456" r="1"/>
	<circle cx="53" cy="34.456" r="1"/>
	<circle cx="59" cy="36.456" r="1"/>
	<circle cx="55" cy="36.456" r="1"/>
	<circle cx="51" cy="36.456" r="1"/>
	<circle cx="47" cy="36.456" r="1"/>
	<circle cx="49" cy="34.456" r="1"/>
	<circle cx="57" cy="38.456" r="1"/>
	<circle cx="53" cy="38.456" r="1"/>
	<circle cx="59" cy="40.456" r="1"/>
	<circle cx="55" cy="40.456" r="1"/>
	<circle cx="51" cy="40.456" r="1"/>
	<circle cx="49" cy="38.456" r="1"/>
	<circle cx="57" cy="42.456" r="1"/>
	<circle cx="53" cy="42.456" r="1"/>
	<circle cx="59" cy="44.456" r="1"/>
	<circle cx="55" cy="44.456" r="1"/>
	<circle cx="51" cy="44.456" r="1"/>
	<circle cx="57" cy="46.456" r="1"/>
	<circle cx="53" cy="46.456" r="1"/>
	<circle cx="59" cy="48.456" r="1"/>
	<circle cx="55" cy="48.456" r="1"/>
	<circle cx="51" cy="48.456" r="1"/>
	<circle cx="47" cy="48.456" r="1"/>
	<circle cx="49" cy="46.456" r="1"/>
	<circle cx="59" cy="16.456" r="1"/>
</g>
<g>
</g>
<g>
</g>
<g>
</g>
<g>
</g>
<g>
</g>
<g>
</g>
<g>
</g>
<g>
</g>
<g>
</g>
<g>
</g>
<g>
</g>
<g>
</g>
<g>
</g>
<g>
</g>
<g>
</g>
</svg>
